<svg width="93" height="86" viewBox="0 0 93 86" fill="none" xmlns="http://www.w3.org/2000/svg">
<path d="M4.75458 6.42424V7.80524H0.276199V6.42424H4.75458ZM1.39579 14V5.70908C1.39579 5.19943 1.50101 4.77527 1.71145 4.43659C1.92518 4.09792 2.21124 3.84474 2.56964 3.67704C2.92804 3.50935 3.3259 3.4255 3.76322 3.4255C4.0723 3.4255 4.34685 3.45017 4.58688 3.49949C4.82692 3.54881 5.00447 3.5932 5.11955 3.63265L4.76444 5.01365C4.68882 4.99064 4.59346 4.96762 4.47838 4.9446C4.36329 4.9183 4.23506 4.90515 4.09367 4.90515C3.76157 4.90515 3.52648 4.9857 3.38838 5.14682C3.25356 5.30465 3.18616 5.53153 3.18616 5.82745V14H1.39579ZM10.9814 10.8138V6.42424H12.7668V14H11.0356V12.6535H10.9567C10.7858 13.0777 10.5046 13.4246 10.1133 13.6942C9.72535 13.9638 9.24693 14.0986 8.67809 14.0986C8.18159 14.0986 7.74263 13.9885 7.36121 13.7682C6.98308 13.5446 6.68715 13.2207 6.47343 12.7966C6.2597 12.3691 6.15284 11.8529 6.15284 11.2479V6.42424H7.93827V10.9717C7.93827 11.4517 8.06979 11.8331 8.33284 12.1159C8.59589 12.3987 8.94114 12.5401 9.36859 12.5401C9.63164 12.5401 9.88646 12.476 10.1331 12.3477C10.3797 12.2195 10.5819 12.0288 10.7397 11.7756C10.9008 11.5191 10.9814 11.1985 10.9814 10.8138ZM16.3882 9.56108V14H14.6028V6.42424H16.3093V7.71153H16.3981C16.5724 7.28737 16.8502 6.95034 17.2316 6.70044C17.6163 6.45055 18.0915 6.3256 18.657 6.3256C19.1798 6.3256 19.6352 6.43739 20.0232 6.66098C20.4145 6.88457 20.717 7.20845 20.9307 7.63262C21.1478 8.05678 21.2546 8.57136 21.2513 9.17637V14H19.4659V9.45257C19.4659 8.94621 19.3344 8.54999 19.0713 8.26393C18.8116 7.97786 18.4515 7.83483 17.9912 7.83483C17.6788 7.83483 17.401 7.90388 17.1577 8.04198C16.9176 8.17679 16.7286 8.37244 16.5905 8.62891C16.4557 8.88538 16.3882 9.1961 16.3882 9.56108ZM26.3709 14.148C25.6146 14.148 24.9652 13.9819 24.4227 13.6498C23.8834 13.3177 23.4675 12.859 23.1749 12.2738C22.8855 11.6852 22.7408 11.0078 22.7408 10.2417C22.7408 9.4723 22.8888 8.79331 23.1847 8.20474C23.4807 7.61289 23.8982 7.15255 24.4375 6.82375C24.98 6.49165 25.6212 6.3256 26.361 6.3256C26.9759 6.3256 27.5201 6.43904 27.9936 6.66592C28.4703 6.88951 28.8501 7.20681 29.1329 7.61782C29.4157 8.02554 29.5768 8.50231 29.6162 9.04814H27.9097C27.8407 8.68316 27.6763 8.37901 27.4165 8.13569C27.16 7.88909 26.8164 7.76578 26.3857 7.76578C26.0207 7.76578 25.7001 7.86443 25.4239 8.06171C25.1477 8.25571 24.9323 8.5352 24.7778 8.90017C24.6266 9.26515 24.5509 9.70247 24.5509 10.2121C24.5509 10.7284 24.6266 11.1722 24.7778 11.5438C24.9291 11.9121 25.1411 12.1965 25.4141 12.3971C25.6903 12.5943 26.0141 12.693 26.3857 12.693C26.6487 12.693 26.8838 12.6437 27.091 12.545C27.3014 12.4431 27.4773 12.2968 27.6187 12.1061C27.7601 11.9154 27.8571 11.6835 27.9097 11.4106H29.6162C29.5735 11.9466 29.4157 12.4217 29.1427 12.836C28.8698 13.247 28.4983 13.5693 28.0281 13.8027C27.5579 14.0329 27.0055 14.148 26.3709 14.148ZM34.8653 6.42424V7.80524H30.5102V6.42424H34.8653ZM31.5854 4.60922H33.3708V11.7214C33.3708 11.9614 33.407 12.1455 33.4793 12.2738C33.5549 12.3987 33.6536 12.4842 33.7753 12.5302C33.8969 12.5763 34.0317 12.5993 34.1797 12.5993C34.2915 12.5993 34.3934 12.5911 34.4855 12.5746C34.5808 12.5582 34.6532 12.5434 34.7025 12.5302L35.0034 13.926C34.908 13.9589 34.7715 13.9951 34.594 14.0345C34.4197 14.074 34.206 14.097 33.9528 14.1036C33.5056 14.1167 33.1028 14.0493 32.7444 13.9014C32.386 13.7501 32.1016 13.5167 31.8912 13.201C31.684 12.8853 31.5821 12.4908 31.5854 12.0173V4.60922ZM36.3585 14V6.42424H38.1439V14H36.3585ZM37.2561 5.34904C36.9733 5.34904 36.73 5.25533 36.5261 5.06791C36.3223 4.8772 36.2204 4.64867 36.2204 4.38234C36.2204 4.11272 36.3223 3.88419 36.5261 3.69677C36.73 3.50606 36.9733 3.41071 37.2561 3.41071C37.5422 3.41071 37.7855 3.50606 37.9861 3.69677C38.1899 3.88419 38.2919 4.11272 38.2919 4.38234C38.2919 4.64867 38.1899 4.8772 37.9861 5.06791C37.7855 5.25533 37.5422 5.34904 37.2561 5.34904ZM43.2844 14.148C42.5446 14.148 41.9034 13.9852 41.3609 13.6597C40.8183 13.3342 40.3975 12.8788 40.0982 12.2935C39.8023 11.7082 39.6544 11.0243 39.6544 10.2417C39.6544 9.45915 39.8023 8.77358 40.0982 8.18501C40.3975 7.59645 40.8183 7.1394 41.3609 6.81388C41.9034 6.48836 42.5446 6.3256 43.2844 6.3256C44.0242 6.3256 44.6654 6.48836 45.2079 6.81388C45.7505 7.1394 46.1697 7.59645 46.4656 8.18501C46.7648 8.77358 46.9145 9.45915 46.9145 10.2417C46.9145 11.0243 46.7648 11.7082 46.4656 12.2935C46.1697 12.8788 45.7505 13.3342 45.2079 13.6597C44.6654 13.9852 44.0242 14.148 43.2844 14.148ZM43.2943 12.7176C43.6954 12.7176 44.0308 12.6075 44.3004 12.3872C44.57 12.1636 44.7706 11.8644 44.9021 11.4895C45.037 11.1147 45.1044 10.6971 45.1044 10.2368C45.1044 9.77316 45.037 9.35393 44.9021 8.97909C44.7706 8.60096 44.57 8.3001 44.3004 8.07651C44.0308 7.85292 43.6954 7.74112 43.2943 7.74112C42.8833 7.74112 42.5413 7.85292 42.2684 8.07651C41.9988 8.3001 41.7965 8.60096 41.6617 8.97909C41.5302 9.35393 41.4644 9.77316 41.4644 10.2368C41.4644 10.6971 41.5302 11.1147 41.6617 11.4895C41.7965 11.8644 41.9988 12.1636 42.2684 12.3872C42.5413 12.6075 42.8833 12.7176 43.2943 12.7176ZM50.2153 9.56108V14H48.4299V6.42424H50.1364V7.71153H50.2251C50.3994 7.28737 50.6773 6.95034 51.0587 6.70044C51.4434 6.45055 51.9185 6.3256 52.4841 6.3256C53.0069 6.3256 53.4623 6.43739 53.8503 6.66098C54.2415 6.88457 54.5441 7.20845 54.7578 7.63262C54.9748 8.05678 55.0817 8.57136 55.0784 9.17637V14H53.2929V9.45257C53.2929 8.94621 53.1614 8.54999 52.8984 8.26393C52.6386 7.97786 52.2786 7.83483 51.8182 7.83483C51.5059 7.83483 51.228 7.90388 50.9847 8.04198C50.7447 8.17679 50.5556 8.37244 50.4175 8.62891C50.2827 8.88538 50.2153 9.1961 50.2153 9.56108ZM61.4384 14.1085C61.1391 14.1085 60.8827 14.0033 60.6689 13.7929C60.4552 13.5824 60.35 13.3259 60.3533 13.0234C60.35 12.7275 60.4552 12.4743 60.6689 12.2639C60.8827 12.0535 61.1391 11.9482 61.4384 11.9482C61.7277 11.9482 61.9792 12.0535 62.193 12.2639C62.41 12.4743 62.5201 12.7275 62.5234 13.0234C62.5201 13.224 62.4675 13.4065 62.3656 13.5709C62.267 13.7353 62.1354 13.8668 61.971 13.9655C61.8099 14.0608 61.6324 14.1085 61.4384 14.1085ZM61.4384 8.70289C61.1391 8.70289 60.8827 8.59767 60.6689 8.38723C60.4552 8.17351 60.35 7.91703 60.3533 7.61782C60.35 7.32189 60.4552 7.06871 60.6689 6.85827C60.8827 6.64454 61.1391 6.53768 61.4384 6.53768C61.7277 6.53768 61.9792 6.64454 62.193 6.85827C62.41 7.06871 62.5201 7.32189 62.5234 7.61782C62.5201 7.8151 62.4675 7.99595 62.3656 8.16035C62.267 8.32476 62.1354 8.45628 61.971 8.55492C61.8099 8.65357 61.6324 8.70289 61.4384 8.70289ZM75.7279 2.375H77.5751V10.125H75.7279V2.375ZM77.0612 5.54167H79.2834V7.05556H77.0612V5.54167ZM69.214 10.6806H77.5751V15.0972H69.214V10.6806ZM75.7695 12.1389H71.0334V13.6389H75.7695V12.1389ZM67.4501 3.52778H75.0195V4.98611H67.4501V3.52778ZM71.2418 5.36111C73.1029 5.36111 74.3945 6.30556 74.3945 7.68056C74.3945 9.06944 73.1029 9.98611 71.2418 9.98611C69.3668 9.98611 68.0751 9.06944 68.0751 7.68056C68.0751 6.30556 69.3668 5.36111 71.2418 5.36111ZM71.2418 6.73611C70.4084 6.73611 69.8529 7.05556 69.8529 7.68056C69.8529 8.30556 70.4084 8.63889 71.2418 8.63889C72.0612 8.63889 72.6306 8.30556 72.6306 7.68056C72.6306 7.05556 72.0612 6.73611 71.2418 6.73611ZM70.3112 2.29167H72.1584V4.31944H70.3112V2.29167ZM85.074 2.75H86.699V3.34722C86.699 5.81944 84.7546 7.91667 81.3796 8.41667L80.6573 6.93056C83.6157 6.54167 85.074 4.86111 85.074 3.34722V2.75ZM85.4212 2.75H87.0323V3.34722C87.0323 4.84722 88.5046 6.54167 91.449 6.93056L90.7407 8.41667C87.3657 7.91667 85.4212 5.81944 85.4212 3.34722V2.75ZM85.0879 10.5278H86.9212V15.2361H85.0879V10.5278ZM80.2407 9.36111H91.8657V10.8611H80.2407V9.36111Z" fill="white"/>
<path d="M28.2553 30.635V31.4733H25.2235V30.635H28.2553ZM26.0548 36V30.0133C26.0548 29.6779 26.1282 29.3997 26.2749 29.1785C26.4216 28.9549 26.616 28.7884 26.8582 28.679C27.1004 28.5672 27.3635 28.5113 27.6476 28.5113C27.8572 28.5113 28.0365 28.5288 28.1855 28.5637C28.3345 28.5963 28.4451 28.6266 28.5173 28.6545L28.2728 29.4998C28.2239 29.4858 28.161 29.4695 28.0842 29.4509C28.0073 29.4299 27.9142 29.4195 27.8048 29.4195C27.5509 29.4195 27.3693 29.4823 27.2599 29.6081C27.1528 29.7338 27.0992 29.9155 27.0992 30.153V36H26.0548ZM32.5445 33.7751V30.635H33.5924V36H32.5655V35.0709H32.5096C32.3862 35.3573 32.1883 35.596 31.9158 35.7869C31.6457 35.9756 31.3092 36.0699 30.9064 36.0699C30.5618 36.0699 30.2567 35.9942 29.9913 35.8428C29.7281 35.6891 29.5209 35.4621 29.3695 35.1617C29.2205 34.8613 29.146 34.4899 29.146 34.0475V30.635H30.1904V33.9218C30.1904 34.2873 30.2917 34.5784 30.4942 34.795C30.6968 35.0115 30.96 35.1198 31.2836 35.1198C31.4792 35.1198 31.6737 35.0709 31.8669 34.9731C32.0625 34.8753 32.2244 34.7274 32.3524 34.5295C32.4828 34.3316 32.5469 34.0801 32.5445 33.7751ZM35.8531 32.8145V36H34.8088V30.635H35.8112V31.5082H35.8776C36.001 31.2241 36.1943 30.9959 36.4574 30.8236C36.7229 30.6513 37.057 30.5651 37.4598 30.5651C37.8254 30.5651 38.1456 30.642 38.4204 30.7957C38.6951 30.947 38.9082 31.1729 39.0596 31.4733C39.2109 31.7737 39.2866 32.1451 39.2866 32.5875V36H38.2422V32.7132C38.2422 32.3244 38.1409 32.0205 37.9384 31.8016C37.7358 31.5804 37.4575 31.4698 37.1036 31.4698C36.8614 31.4698 36.646 31.5222 36.4574 31.627C36.2711 31.7317 36.1232 31.8854 36.0138 32.088C35.9067 32.2883 35.8531 32.5304 35.8531 32.8145ZM42.7602 36.1083C42.241 36.1083 41.7939 35.9907 41.419 35.7555C41.0464 35.518 40.76 35.1908 40.5597 34.774C40.3595 34.3572 40.2593 33.8798 40.2593 33.3419C40.2593 32.7971 40.3618 32.3162 40.5667 31.8994C40.7716 31.4803 41.0604 31.1531 41.4329 30.9179C41.8055 30.6827 42.2445 30.5651 42.7498 30.5651C43.1573 30.5651 43.5205 30.6408 43.8395 30.7922C44.1585 30.9412 44.4158 31.1508 44.6114 31.4209C44.8094 31.691 44.927 32.0065 44.9642 32.3674H43.9478C43.8919 32.116 43.7638 31.8994 43.5636 31.7178C43.3657 31.5361 43.1002 31.4453 42.7672 31.4453C42.4761 31.4453 42.2212 31.5222 42.0023 31.6759C41.7857 31.8272 41.6169 32.0438 41.4958 32.3255C41.3747 32.6049 41.3142 32.9356 41.3142 33.3175C41.3142 33.7087 41.3736 34.0463 41.4923 34.3304C41.6111 34.6145 41.7787 34.8346 41.9953 34.9906C42.2142 35.1466 42.4715 35.2246 42.7672 35.2246C42.9651 35.2246 43.1444 35.1885 43.3051 35.1163C43.4681 35.0418 43.6043 34.9358 43.7138 34.7985C43.8255 34.6611 43.9036 34.4957 43.9478 34.3025H44.9642C44.927 34.6494 44.814 34.9591 44.6254 35.2316C44.4368 35.504 44.1841 35.7182 43.8675 35.8743C43.5531 36.0303 43.184 36.1083 42.7602 36.1083ZM48.3986 30.635V31.4733H45.468V30.635H48.3986ZM46.2539 29.3496H47.2983V34.4247C47.2983 34.6273 47.3286 34.7798 47.3891 34.8823C47.4497 34.9824 47.5277 35.0511 47.6231 35.0884C47.7209 35.1233 47.8269 35.1408 47.941 35.1408C48.0248 35.1408 48.0982 35.1349 48.161 35.1233C48.2239 35.1117 48.2728 35.1023 48.3077 35.0954L48.4964 35.9581C48.4358 35.9814 48.3497 36.0047 48.2379 36.0279C48.1261 36.0536 47.9864 36.0675 47.8187 36.0699C47.544 36.0745 47.2878 36.0256 47.0503 35.9232C46.8128 35.8207 46.6207 35.6624 46.474 35.4481C46.3273 35.2339 46.2539 34.965 46.2539 34.6413V29.3496ZM49.3669 36V30.635H50.4113V36H49.3669ZM49.8943 29.8072C49.7127 29.8072 49.5567 29.7466 49.4263 29.6255C49.2982 29.5021 49.2342 29.3554 49.2342 29.1854C49.2342 29.0131 49.2982 28.8664 49.4263 28.7453C49.5567 28.6219 49.7127 28.5602 49.8943 28.5602C50.076 28.5602 50.2308 28.6219 50.3589 28.7453C50.4893 28.8664 50.5545 29.0131 50.5545 29.1854C50.5545 29.3554 50.4893 29.5021 50.3589 29.6255C50.2308 29.7466 50.076 29.8072 49.8943 29.8072ZM53.8893 36.1083C53.3863 36.1083 52.9474 35.993 52.5725 35.7625C52.1976 35.532 51.9065 35.2095 51.6993 34.795C51.492 34.3805 51.3884 33.8961 51.3884 33.3419C51.3884 32.7854 51.492 32.2987 51.6993 31.8819C51.9065 31.4651 52.1976 31.1414 52.5725 30.9109C52.9474 30.6804 53.3863 30.5651 53.8893 30.5651C54.3923 30.5651 54.8312 30.6804 55.2061 30.9109C55.581 31.1414 55.8721 31.4651 56.0793 31.8819C56.2865 32.2987 56.3902 32.7854 56.3902 33.3419C56.3902 33.8961 56.2865 34.3805 56.0793 34.795C55.8721 35.2095 55.581 35.532 55.2061 35.7625C54.8312 35.993 54.3923 36.1083 53.8893 36.1083ZM53.8928 35.2316C54.2188 35.2316 54.4889 35.1454 54.7031 34.9731C54.9173 34.8008 55.0757 34.5714 55.1781 34.285C55.2829 33.9986 55.3353 33.6831 55.3353 33.3384C55.3353 32.9961 55.2829 32.6818 55.1781 32.3954C55.0757 32.1066 54.9173 31.8749 54.7031 31.7003C54.4889 31.5257 54.2188 31.4383 53.8928 31.4383C53.5644 31.4383 53.292 31.5257 53.0754 31.7003C52.8612 31.8749 52.7017 32.1066 52.5969 32.3954C52.4945 32.6818 52.4432 32.9961 52.4432 33.3384C52.4432 33.6831 52.4945 33.9986 52.5969 34.285C52.7017 34.5714 52.8612 34.8008 53.0754 34.9731C53.292 35.1454 53.5644 35.2316 53.8928 35.2316ZM58.4134 32.8145V36H57.369V30.635H58.3715V31.5082H58.4378C58.5612 31.2241 58.7545 30.9959 59.0176 30.8236C59.2831 30.6513 59.6173 30.5651 60.0201 30.5651C60.3857 30.5651 60.7059 30.642 60.9806 30.7957C61.2554 30.947 61.4685 31.1729 61.6198 31.4733C61.7712 31.7737 61.8469 32.1451 61.8469 32.5875V36H60.8025V32.7132C60.8025 32.3244 60.7012 32.0205 60.4986 31.8016C60.296 31.5804 60.0178 31.4698 59.6638 31.4698C59.4217 31.4698 59.2063 31.5222 59.0176 31.627C58.8314 31.7317 58.6835 31.8854 58.5741 32.088C58.4669 32.2883 58.4134 32.5304 58.4134 32.8145Z" fill="white"/>
<path d="M3 53C3 50.2386 5.23858 48 8 48H85C87.7614 48 90 50.2386 90 53V81C90 83.7614 87.7614 86 85 86H8C5.23858 86 3 83.7614 3 81V53Z" fill="#858F9F"/>
<path d="M26.8352 60.0655C26.5423 60.0655 26.2801 59.9903 26.0487 59.8398C25.8173 59.6893 25.6344 59.4708 25.5001 59.1844C25.3657 58.8979 25.2986 58.55 25.2986 58.1405C25.2986 57.7262 25.3666 57.3767 25.5025 57.0918C25.6401 56.8054 25.8254 56.5893 26.0584 56.4437C26.2914 56.2964 26.5512 56.2228 26.8376 56.2228C27.0561 56.2228 27.2357 56.26 27.3765 56.3345C27.5173 56.4073 27.629 56.4955 27.7115 56.5991C27.7941 56.701 27.858 56.7973 27.9033 56.8879H27.9397V55.0285H28.8209V60H27.9567V59.4125H27.9033C27.858 59.5032 27.7924 59.5995 27.7067 59.7014C27.6209 59.8018 27.5076 59.8875 27.3668 59.9587C27.226 60.0299 27.0488 60.0655 26.8352 60.0655ZM27.0804 59.3446C27.2665 59.3446 27.4251 59.2944 27.5562 59.1941C27.6873 59.0921 27.7868 58.9505 27.8548 58.7693C27.9227 58.588 27.9567 58.3768 27.9567 58.1357C27.9567 57.8945 27.9227 57.685 27.8548 57.5069C27.7884 57.3289 27.6897 57.1906 27.5586 57.0918C27.4291 56.9931 27.2697 56.9438 27.0804 56.9438C26.8846 56.9438 26.7211 56.9947 26.59 57.0967C26.4589 57.1987 26.3602 57.3394 26.2939 57.5191C26.2275 57.6987 26.1943 57.9043 26.1943 58.1357C26.1943 58.3687 26.2275 58.5767 26.2939 58.7595C26.3618 58.9408 26.4614 59.084 26.5924 59.1892C26.7252 59.2928 26.8878 59.3446 27.0804 59.3446ZM31.2781 60.0728C30.9043 60.0728 30.5814 59.9951 30.3096 59.8398C30.0393 59.6828 29.8313 59.4611 29.6857 59.1746C29.54 58.8866 29.4672 58.5475 29.4672 58.1575C29.4672 57.774 29.54 57.4374 29.6857 57.1477C29.833 56.8564 30.0385 56.6298 30.3023 56.468C30.5661 56.3045 30.876 56.2228 31.232 56.2228C31.4618 56.2228 31.6787 56.26 31.8826 56.3345C32.0881 56.4073 32.2694 56.5206 32.4263 56.6743C32.5849 56.8281 32.7096 57.0239 32.8002 57.2618C32.8908 57.498 32.9361 57.7796 32.9361 58.1065V58.376H29.8799V57.7837H32.0938C32.0922 57.6154 32.0557 57.4657 31.9845 57.3346C31.9133 57.2019 31.8138 57.0975 31.686 57.0214C31.5597 56.9454 31.4125 56.9074 31.2442 56.9074C31.0645 56.9074 30.9067 56.951 30.7708 57.0384C30.6348 57.1242 30.5288 57.2375 30.4528 57.3783C30.3783 57.5175 30.3403 57.6704 30.3387 57.8371V58.3541C30.3387 58.571 30.3783 58.7571 30.4576 58.9125C30.5369 59.0662 30.6478 59.1844 30.7902 59.2669C30.9326 59.3478 31.0993 59.3883 31.2903 59.3883C31.4181 59.3883 31.5338 59.3705 31.6374 59.3349C31.741 59.2976 31.8308 59.2434 31.9069 59.1722C31.9829 59.101 32.0404 59.0128 32.0792 58.9076L32.8997 58.9999C32.8479 59.2167 32.7492 59.4061 32.6036 59.5679C32.4595 59.7281 32.275 59.8527 32.0501 59.9417C31.8251 60.0291 31.5678 60.0728 31.2781 60.0728ZM35.4383 56.2713V56.951H33.2341V56.2713H35.4383ZM33.7851 60V55.9194C33.7851 55.6685 33.8369 55.4597 33.9405 55.2931C34.0457 55.1264 34.1865 55.0018 34.3629 54.9192C34.5393 54.8367 34.7351 54.7954 34.9503 54.7954C35.1025 54.7954 35.2376 54.8076 35.3557 54.8318C35.4739 54.8561 35.5613 54.878 35.6179 54.8974L35.4431 55.5771C35.4059 55.5657 35.359 55.5544 35.3023 55.5431C35.2457 55.5301 35.1826 55.5237 35.113 55.5237C34.9495 55.5237 34.8338 55.5633 34.7659 55.6426C34.6995 55.7203 34.6663 55.832 34.6663 55.9776V60H33.7851ZM56.5794 60.0534C56.4321 60.0534 56.3059 60.0016 56.2007 59.898C56.0955 59.7945 56.0437 59.6682 56.0454 59.5194C56.0437 59.3737 56.0955 59.2491 56.2007 59.1455C56.3059 59.0419 56.4321 58.9902 56.5794 58.9902C56.7218 58.9902 56.8456 59.0419 56.9508 59.1455C57.0576 59.2491 57.1118 59.3737 57.1135 59.5194C57.1118 59.6181 57.0859 59.7079 57.0358 59.7888C56.9872 59.8697 56.9225 59.9345 56.8416 59.983C56.7623 60.0299 56.6749 60.0534 56.5794 60.0534ZM56.5794 57.3929C56.4321 57.3929 56.3059 57.3411 56.2007 57.2375C56.0955 57.1323 56.0437 57.0061 56.0454 56.8588C56.0437 56.7132 56.0955 56.5885 56.2007 56.485C56.3059 56.3798 56.4321 56.3272 56.5794 56.3272C56.7218 56.3272 56.8456 56.3798 56.9508 56.485C57.0576 56.5885 57.1118 56.7132 57.1135 56.8588C57.1118 56.9559 57.0859 57.0449 57.0358 57.1258C56.9872 57.2067 56.9225 57.2715 56.8416 57.32C56.7623 57.3686 56.6749 57.3929 56.5794 57.3929ZM33.9221 64.4629H34.7219V64.7569C34.7219 65.9737 33.7649 67.0059 32.1037 67.252L31.7483 66.5205C33.2043 66.3291 33.9221 65.502 33.9221 64.7569V64.4629ZM34.093 64.4629H34.8859V64.7569C34.8859 65.4952 35.6105 66.3291 37.0598 66.5205L36.7111 67.252C35.05 67.0059 34.093 65.9737 34.093 64.7569V64.4629ZM33.9289 68.291H34.8313V70.6084H33.9289V68.291ZM31.5432 67.7168H37.2648V68.4551H31.5432V67.7168ZM42.2271 64.2784H43.0885V68.2432H42.2271V64.2784ZM41.4547 65.837H42.4664V66.5752H41.4547V65.837ZM40.9146 64.4014H41.7623V68.0381H40.9146V64.4014ZM37.6676 64.9278H40.7369V65.625H37.6676V64.9278ZM39.2125 65.8301C40.0055 65.8301 40.5797 66.2813 40.5797 66.9375C40.5797 67.5938 40.0055 68.0381 39.2125 68.0381C38.4196 68.0381 37.8453 67.5938 37.8453 66.9375C37.8453 66.2813 38.4196 65.8301 39.2125 65.8301ZM39.2125 66.4795C38.8776 66.4795 38.652 66.6436 38.652 66.9375C38.652 67.2315 38.8776 67.3955 39.2125 67.3955C39.5406 67.3955 39.7662 67.2315 39.7662 66.9375C39.7662 66.6436 39.5406 66.4795 39.2125 66.4795ZM38.7545 64.3399H39.65V65.4063H38.7545V64.3399ZM40.9488 68.3115C42.3023 68.3115 43.1226 68.7217 43.1226 69.46C43.1226 70.1914 42.3023 70.6084 40.9488 70.6084C39.5885 70.6084 38.7682 70.1914 38.7682 69.46C38.7682 68.7217 39.5885 68.3115 40.9488 68.3115ZM40.9488 68.9883C40.1012 68.9883 39.6774 69.1318 39.6774 69.46C39.6774 69.7813 40.1012 69.9316 40.9488 69.9316C41.7896 69.9316 42.2135 69.7813 42.2135 69.46C42.2135 69.1318 41.7896 68.9883 40.9488 68.9883ZM49.4934 64.2715H50.4026V67.6895H49.4934V64.2715ZM50.0403 65.625H51.2434V66.3633H50.0403V65.625ZM46.2191 67.9424H50.4026V69.5488H47.1351V70.123H46.2327V68.9336H49.5071V68.5986H46.2191V67.9424ZM46.2327 69.8975H50.5872V70.5674H46.2327V69.8975ZM45.4193 64.7432H49.1448V65.4268H45.4193V64.7432ZM47.2855 65.5772C48.222 65.5772 48.8372 65.9805 48.8372 66.6162C48.8372 67.252 48.222 67.6416 47.2855 67.6416C46.3421 67.6416 45.7269 67.252 45.7269 66.6162C45.7269 65.9805 46.3421 65.5772 47.2855 65.5772ZM47.2855 66.2129C46.8616 66.2129 46.6019 66.3496 46.6019 66.6162C46.6019 66.8692 46.8616 67.0059 47.2855 67.0059C47.7093 67.0059 47.969 66.8692 47.969 66.6162C47.969 66.3496 47.7093 66.2129 47.2855 66.2129ZM46.8275 64.2305H47.7366V65.2286H46.8275V64.2305ZM53.1436 67.4024H58.872V68.127H53.1436V67.4024ZM55.625 67.8604H56.541V69.1934H55.625V67.8604ZM53.8477 64.545H58.1474V66.8965H53.8477V64.545ZM57.2519 65.2559H54.7363V66.1856H57.2519V65.2559ZM53.8067 69.7744H58.2431V70.499H53.8067V69.7744ZM53.8067 68.6602H54.709V70.0137H53.8067V68.6602ZM60.7104 64.9825H61.4555V65.379C61.4555 66.5889 60.8881 67.6758 59.6645 68.0791L59.2133 67.3614C60.266 67.0127 60.7104 66.1856 60.7104 65.379V64.9825ZM60.8949 64.9825H61.6332V65.379C61.6332 66.1172 62.057 66.8418 63.0756 67.1494L62.6449 67.8604C61.4418 67.4981 60.8949 66.5069 60.8949 65.379V64.9825ZM59.4526 64.7022H62.8705V65.4268H59.4526V64.7022ZM63.3763 64.2784H64.2855V68.0313H63.3763V64.2784ZM64.0326 65.7344H65.1263V66.4795H64.0326V65.7344ZM62.2211 68.1475C63.5336 68.1475 64.3607 68.6055 64.3607 69.3779C64.3607 70.1504 63.5336 70.6084 62.2211 70.6084C60.9018 70.6084 60.0746 70.1504 60.0746 69.3779C60.0746 68.6055 60.9018 68.1475 62.2211 68.1475ZM62.2211 68.8584C61.4144 68.8584 60.977 69.0225 60.977 69.3779C60.977 69.7334 61.4144 69.9111 62.2211 69.9111C63.0277 69.9111 63.4584 69.7334 63.4584 69.3779C63.4584 69.0225 63.0277 68.8584 62.2211 68.8584ZM31.7145 80V76.2713H32.5665V76.8928H32.6053C32.6733 76.6775 32.7898 76.5117 32.9549 76.3951C33.1216 76.277 33.3118 76.2179 33.5254 76.2179C33.5739 76.2179 33.6281 76.2204 33.688 76.2252C33.7495 76.2285 33.8005 76.2341 33.841 76.2422V77.0506C33.8037 77.0376 33.7447 77.0263 33.6637 77.0166C33.5844 77.0053 33.5076 76.9996 33.4331 76.9996C33.2729 76.9996 33.1289 77.0344 33.001 77.104C32.8748 77.172 32.7753 77.2666 32.7024 77.388C32.6296 77.5094 32.5932 77.6494 32.5932 77.808V80H31.7145ZM35.7921 80.0728C35.4182 80.0728 35.0954 79.9951 34.8235 79.8398C34.5532 79.6828 34.3453 79.4611 34.1996 79.1746C34.054 78.8866 33.9811 78.5475 33.9811 78.1575C33.9811 77.774 34.054 77.4374 34.1996 77.1477C34.3469 76.8564 34.5524 76.6298 34.8162 76.468C35.08 76.3045 35.3899 76.2228 35.7459 76.2228C35.9757 76.2228 36.1926 76.26 36.3965 76.3345C36.602 76.4073 36.7833 76.5206 36.9403 76.6743C37.0989 76.8281 37.2235 77.0239 37.3141 77.2618C37.4047 77.498 37.45 77.7796 37.45 78.1065V78.376H34.3938V77.7837H36.6077C36.6061 77.6154 36.5697 77.4657 36.4985 77.3346C36.4273 77.2019 36.3277 77.0975 36.1999 77.0214C36.0736 76.9454 35.9264 76.9074 35.7581 76.9074C35.5784 76.9074 35.4206 76.951 35.2847 77.0384C35.1488 77.1242 35.0428 77.2375 34.9667 77.3783C34.8923 77.5175 34.8542 77.6704 34.8526 77.8371V78.3541C34.8526 78.571 34.8923 78.7571 34.9716 78.9125C35.0509 79.0662 35.1617 79.1844 35.3041 79.2669C35.4465 79.3478 35.6132 79.3883 35.8042 79.3883C35.932 79.3883 36.0477 79.3705 36.1513 79.3349C36.2549 79.2976 36.3447 79.2434 36.4208 79.1722C36.4968 79.101 36.5543 79.0128 36.5931 78.9076L37.4136 78.9999C37.3618 79.2167 37.2631 79.4061 37.1175 79.5679C36.9734 79.7281 36.7889 79.8527 36.564 79.9417C36.3391 80.0291 36.0817 80.0728 35.7921 80.0728ZM39.9255 76.2713V76.951H37.782V76.2713H39.9255ZM38.3112 75.378H39.1899V78.8785C39.1899 78.9966 39.2078 79.0873 39.2434 79.1504C39.2806 79.2119 39.3291 79.2539 39.389 79.2766C39.4489 79.2993 39.5152 79.3106 39.5881 79.3106C39.6431 79.3106 39.6933 79.3065 39.7386 79.2984C39.7855 79.2904 39.8211 79.2831 39.8454 79.2766L39.9935 79.9636C39.9465 79.9798 39.8794 79.9976 39.792 80.017C39.7062 80.0364 39.601 80.0477 39.4764 80.051C39.2563 80.0575 39.0581 80.0243 38.8817 79.9514C38.7053 79.877 38.5653 79.7621 38.4617 79.6067C38.3597 79.4514 38.3096 79.2572 38.3112 79.0241V75.378ZM42.9071 78.4318V76.2713H43.7858V80H42.9338V79.3373H42.8949C42.8108 79.5461 42.6724 79.7168 42.4798 79.8495C42.2889 79.9822 42.0534 80.0486 41.7734 80.0486C41.529 80.0486 41.313 79.9943 41.1253 79.8859C40.9392 79.7759 40.7935 79.6165 40.6883 79.4077C40.5831 79.1973 40.5305 78.9432 40.5305 78.6454V76.2713H41.4093V78.5095C41.4093 78.7458 41.474 78.9335 41.6035 79.0727C41.733 79.2119 41.9029 79.2815 42.1133 79.2815C42.2427 79.2815 42.3682 79.2499 42.4895 79.1868C42.6109 79.1237 42.7104 79.0298 42.7881 78.9052C42.8674 78.779 42.9071 78.6212 42.9071 78.4318ZM44.5596 80V76.2713H45.4116V76.8928H45.4505C45.5184 76.6775 45.635 76.5117 45.8 76.3951C45.9667 76.277 46.1569 76.2179 46.3705 76.2179C46.4191 76.2179 46.4733 76.2204 46.5331 76.2252C46.5946 76.2285 46.6456 76.2341 46.6861 76.2422V77.0506C46.6489 77.0376 46.5898 77.0263 46.5089 77.0166C46.4296 77.0053 46.3527 76.9996 46.2783 76.9996C46.118 76.9996 45.974 77.0344 45.8462 77.104C45.7199 77.172 45.6204 77.2666 45.5476 77.388C45.4748 77.5094 45.4383 77.6494 45.4383 77.808V80H44.5596ZM48.0188 77.8152V80H47.14V76.2713H47.9799V76.9049H48.0236C48.1094 76.6962 48.2461 76.5303 48.4339 76.4073C48.6232 76.2843 48.8571 76.2228 49.1354 76.2228C49.3927 76.2228 49.6169 76.2778 49.8078 76.3879C50.0004 76.4979 50.1493 76.6573 50.2545 76.8661C50.3613 77.0749 50.4139 77.3281 50.4123 77.6259V80H49.5335V77.7618C49.5335 77.5126 49.4688 77.3176 49.3393 77.1768C49.2115 77.036 49.0343 76.9656 48.8077 76.9656C48.654 76.9656 48.5172 76.9996 48.3975 77.0676C48.2793 77.1339 48.1863 77.2302 48.1183 77.3564C48.0519 77.4827 48.0188 77.6356 48.0188 77.8152Z" fill="white"/>
<path d="M41.4584 54.2784H42.3676V58.0928H41.4584V54.2784ZM42.1147 55.837H43.2084V56.5821H42.1147V55.837ZM38.2524 58.3662H42.3676V60.54H38.2524V58.3662ZM41.4789 59.084H39.1479V59.8223H41.4789V59.084ZM37.3842 54.8458H41.1098V55.5635H37.3842V54.8458ZM39.2504 55.7481C40.1664 55.7481 40.8022 56.2129 40.8022 56.8897C40.8022 57.5733 40.1664 58.0244 39.2504 58.0244C38.3276 58.0244 37.6919 57.5733 37.6919 56.8897C37.6919 56.2129 38.3276 55.7481 39.2504 55.7481ZM39.2504 56.4248C38.8403 56.4248 38.5668 56.5821 38.5668 56.8897C38.5668 57.1973 38.8403 57.3614 39.2504 57.3614C39.6537 57.3614 39.934 57.1973 39.934 56.8897C39.934 56.5821 39.6537 56.4248 39.2504 56.4248ZM38.7924 54.2374H39.7016V55.2354H38.7924V54.2374ZM45.9285 54.4629H46.7283V54.7569C46.7283 55.9737 45.7713 57.0059 44.1102 57.252L43.7547 56.5205C45.2108 56.3291 45.9285 55.502 45.9285 54.7569V54.4629ZM46.0994 54.4629H46.8924V54.7569C46.8924 55.4952 47.617 56.3291 49.0662 56.5205L48.7176 57.252C47.0565 57.0059 46.0994 55.9737 46.0994 54.7569V54.4629ZM45.9354 58.291H46.8377V60.6084H45.9354V58.291ZM43.5497 57.7168H49.2713V58.4551H43.5497V57.7168ZM52.7639 55.1944H54.3771V55.9122H52.7639V55.1944ZM52.7639 56.459H54.4045V57.1836H52.7639V56.459ZM54.09 54.2784H54.9992V57.9834H54.09V54.2784ZM49.9612 54.7364H52.9553V57.6416H49.9612V54.7364ZM52.0598 55.4541H50.8567V56.9307H52.0598V55.4541ZM52.8527 58.1475C54.1926 58.1475 55.0197 58.6055 55.0197 59.3779C55.0197 60.1572 54.1926 60.6084 52.8527 60.6084C51.5129 60.6084 50.6858 60.1572 50.6858 59.3779C50.6858 58.6055 51.5129 58.1475 52.8527 58.1475ZM52.8527 58.8447C52.0324 58.8447 51.5949 59.0156 51.5949 59.3779C51.5949 59.7402 52.0324 59.918 52.8527 59.918C53.6799 59.918 54.1174 59.7402 54.1174 59.3779C54.1174 59.0156 53.6799 58.8447 52.8527 58.8447Z" fill="#376FFF"/>
<path d="M56.6376 74.2852H57.5467V78.9404H56.6376V74.2852ZM57.287 76.0625H58.3875V76.8077H57.287V76.0625ZM53.4657 79.7744H57.7723V80.499H53.4657V79.7744ZM53.4657 78.4688H54.3749V79.9316H53.4657V78.4688ZM52.748 74.7295H53.6503V75.6387H54.8876V74.7295H55.7899V77.9424H52.748V74.7295ZM53.6503 76.3291V77.2315H54.8876V76.3291H53.6503ZM62.8372 74.2784H63.7463V79.2275H62.8372V74.2784ZM63.4251 76.3496H64.5393V77.0879H63.4251V76.3496ZM59.5218 79.7744H63.9582V80.499H59.5218V79.7744ZM59.5218 78.9063H60.4378V79.9863H59.5218V78.9063ZM60.1575 77.3203H61.0667V78.2432H60.1575V77.3203ZM58.7493 78.6123L58.6468 77.9151C59.7474 77.9151 61.2718 77.8946 62.5569 77.7031L62.6253 78.3252C61.3128 78.5713 59.8294 78.5986 58.7493 78.6123ZM58.8108 74.7842H62.3997V75.4405H58.8108V74.7842ZM60.6087 75.6045C61.5384 75.6045 62.1467 75.9737 62.1467 76.5889C62.1467 77.1905 61.5384 77.5664 60.6087 77.5664C59.679 77.5664 59.0638 77.1905 59.0638 76.5889C59.0638 75.9737 59.679 75.6045 60.6087 75.6045ZM60.6087 76.2129C60.178 76.2129 59.9251 76.336 59.9251 76.5889C59.9251 76.8282 60.178 76.9512 60.6087 76.9512C61.0325 76.9512 61.2854 76.8282 61.2854 76.5889C61.2854 76.336 61.0325 76.2129 60.6087 76.2129ZM60.1575 74.251H61.0667V75.0645H60.1575V74.251ZM68.9547 74.2784H69.8639V77.71H68.9547V74.2784ZM69.611 75.5909H70.7047V76.336H69.611V75.5909ZM67.1296 74.6065H68.1208C68.1208 76.3018 67.1022 77.3545 65.1813 77.7852L64.8464 77.0537C66.4391 76.7188 67.1296 75.9737 67.1296 75.1124V74.6065ZM65.1472 74.6065H67.7174V75.3311H65.1472V74.6065ZM65.4958 78.0313H66.3366V78.6192H66.9587V78.0313H67.7858V80.5195H65.4958V78.0313ZM66.3366 79.2891V79.8359H66.9587V79.2891H66.3366ZM68.6881 77.9561H69.3854V78.4278C69.3854 79.3369 69.0299 80.2119 68.1481 80.581L67.6764 79.9043C68.3942 79.5898 68.6881 79.002 68.6881 78.4278V77.9561ZM68.8727 77.9561H69.5563V78.4209C69.5563 79.0225 69.8502 79.6172 70.568 79.9043L70.0963 80.581C69.2077 80.2187 68.8727 79.3643 68.8727 78.4209V77.9561Z" fill="#3300FF"/>
<path d="M6 42L90 42" stroke="white" stroke-linecap="round"/>
</svg>
