<svg width="145" height="98" viewBox="0 0 145 98" fill="none" xmlns="http://www.w3.org/2000/svg">
<path d="M4.75458 6.42424V7.80524H0.276199V6.42424H4.75458ZM1.39579 14V5.70908C1.39579 5.19943 1.50101 4.77527 1.71145 4.43659C1.92518 4.09792 2.21124 3.84474 2.56964 3.67704C2.92804 3.50935 3.3259 3.4255 3.76322 3.4255C4.0723 3.4255 4.34685 3.45017 4.58688 3.49949C4.82692 3.54881 5.00447 3.5932 5.11955 3.63265L4.76444 5.01365C4.68882 4.99064 4.59346 4.96762 4.47838 4.9446C4.36329 4.9183 4.23506 4.90515 4.09367 4.90515C3.76157 4.90515 3.52648 4.9857 3.38838 5.14682C3.25356 5.30465 3.18616 5.53153 3.18616 5.82745V14H1.39579ZM10.9814 10.8138V6.42424H12.7668V14H11.0356V12.6535H10.9567C10.7858 13.0777 10.5046 13.4246 10.1133 13.6942C9.72535 13.9638 9.24693 14.0986 8.67809 14.0986C8.18159 14.0986 7.74263 13.9885 7.36121 13.7682C6.98308 13.5446 6.68715 13.2207 6.47343 12.7966C6.2597 12.3691 6.15284 11.8529 6.15284 11.2479V6.42424H7.93827V10.9717C7.93827 11.4517 8.06979 11.8331 8.33284 12.1159C8.59589 12.3987 8.94114 12.5401 9.36859 12.5401C9.63164 12.5401 9.88646 12.476 10.1331 12.3477C10.3797 12.2195 10.5819 12.0288 10.7397 11.7756C10.9008 11.5191 10.9814 11.1985 10.9814 10.8138ZM16.3882 9.56108V14H14.6028V6.42424H16.3093V7.71153H16.3981C16.5724 7.28737 16.8502 6.95034 17.2316 6.70044C17.6163 6.45055 18.0915 6.3256 18.657 6.3256C19.1798 6.3256 19.6352 6.43739 20.0232 6.66098C20.4145 6.88457 20.717 7.20845 20.9307 7.63262C21.1478 8.05678 21.2546 8.57136 21.2513 9.17637V14H19.4659V9.45257C19.4659 8.94621 19.3344 8.54999 19.0713 8.26393C18.8116 7.97786 18.4515 7.83483 17.9912 7.83483C17.6788 7.83483 17.401 7.90388 17.1577 8.04198C16.9176 8.17679 16.7286 8.37244 16.5905 8.62891C16.4557 8.88538 16.3882 9.1961 16.3882 9.56108ZM26.3709 14.148C25.6146 14.148 24.9652 13.9819 24.4227 13.6498C23.8834 13.3177 23.4675 12.859 23.1749 12.2738C22.8855 11.6852 22.7408 11.0078 22.7408 10.2417C22.7408 9.4723 22.8888 8.79331 23.1847 8.20474C23.4807 7.61289 23.8982 7.15255 24.4375 6.82375C24.98 6.49165 25.6212 6.3256 26.361 6.3256C26.9759 6.3256 27.5201 6.43904 27.9936 6.66592C28.4703 6.88951 28.8501 7.20681 29.1329 7.61782C29.4157 8.02554 29.5768 8.50231 29.6162 9.04814H27.9097C27.8407 8.68316 27.6763 8.37901 27.4165 8.13569C27.16 7.88909 26.8164 7.76578 26.3857 7.76578C26.0207 7.76578 25.7001 7.86443 25.4239 8.06171C25.1477 8.25571 24.9323 8.5352 24.7778 8.90017C24.6266 9.26515 24.5509 9.70247 24.5509 10.2121C24.5509 10.7284 24.6266 11.1722 24.7778 11.5438C24.9291 11.9121 25.1411 12.1965 25.4141 12.3971C25.6903 12.5943 26.0141 12.693 26.3857 12.693C26.6487 12.693 26.8838 12.6437 27.091 12.545C27.3014 12.4431 27.4773 12.2968 27.6187 12.1061C27.7601 11.9154 27.8571 11.6835 27.9097 11.4106H29.6162C29.5735 11.9466 29.4157 12.4217 29.1427 12.836C28.8698 13.247 28.4983 13.5693 28.0281 13.8027C27.5579 14.0329 27.0055 14.148 26.3709 14.148ZM34.8653 6.42424V7.80524H30.5102V6.42424H34.8653ZM31.5854 4.60922H33.3708V11.7214C33.3708 11.9614 33.407 12.1455 33.4793 12.2738C33.5549 12.3987 33.6536 12.4842 33.7753 12.5302C33.8969 12.5763 34.0317 12.5993 34.1797 12.5993C34.2915 12.5993 34.3934 12.5911 34.4855 12.5746C34.5808 12.5582 34.6532 12.5434 34.7025 12.5302L35.0034 13.926C34.908 13.9589 34.7715 13.9951 34.594 14.0345C34.4197 14.074 34.206 14.097 33.9528 14.1036C33.5056 14.1167 33.1028 14.0493 32.7444 13.9014C32.386 13.7501 32.1016 13.5167 31.8912 13.201C31.684 12.8853 31.5821 12.4908 31.5854 12.0173V4.60922ZM36.3585 14V6.42424H38.1439V14H36.3585ZM37.2561 5.34904C36.9733 5.34904 36.73 5.25533 36.5261 5.06791C36.3223 4.8772 36.2204 4.64867 36.2204 4.38234C36.2204 4.11272 36.3223 3.88419 36.5261 3.69677C36.73 3.50606 36.9733 3.41071 37.2561 3.41071C37.5422 3.41071 37.7855 3.50606 37.9861 3.69677C38.1899 3.88419 38.2919 4.11272 38.2919 4.38234C38.2919 4.64867 38.1899 4.8772 37.9861 5.06791C37.7855 5.25533 37.5422 5.34904 37.2561 5.34904ZM43.2844 14.148C42.5446 14.148 41.9034 13.9852 41.3609 13.6597C40.8183 13.3342 40.3975 12.8788 40.0982 12.2935C39.8023 11.7082 39.6544 11.0243 39.6544 10.2417C39.6544 9.45915 39.8023 8.77358 40.0982 8.18501C40.3975 7.59645 40.8183 7.1394 41.3609 6.81388C41.9034 6.48836 42.5446 6.3256 43.2844 6.3256C44.0242 6.3256 44.6654 6.48836 45.2079 6.81388C45.7505 7.1394 46.1697 7.59645 46.4656 8.18501C46.7648 8.77358 46.9145 9.45915 46.9145 10.2417C46.9145 11.0243 46.7648 11.7082 46.4656 12.2935C46.1697 12.8788 45.7505 13.3342 45.2079 13.6597C44.6654 13.9852 44.0242 14.148 43.2844 14.148ZM43.2943 12.7176C43.6954 12.7176 44.0308 12.6075 44.3004 12.3872C44.57 12.1636 44.7706 11.8644 44.9021 11.4895C45.037 11.1147 45.1044 10.6971 45.1044 10.2368C45.1044 9.77316 45.037 9.35393 44.9021 8.97909C44.7706 8.60096 44.57 8.3001 44.3004 8.07651C44.0308 7.85292 43.6954 7.74112 43.2943 7.74112C42.8833 7.74112 42.5413 7.85292 42.2684 8.07651C41.9988 8.3001 41.7965 8.60096 41.6617 8.97909C41.5302 9.35393 41.4644 9.77316 41.4644 10.2368C41.4644 10.6971 41.5302 11.1147 41.6617 11.4895C41.7965 11.8644 41.9988 12.1636 42.2684 12.3872C42.5413 12.6075 42.8833 12.7176 43.2943 12.7176ZM50.2153 9.56108V14H48.4299V6.42424H50.1364V7.71153H50.2251C50.3994 7.28737 50.6773 6.95034 51.0587 6.70044C51.4434 6.45055 51.9185 6.3256 52.4841 6.3256C53.0069 6.3256 53.4623 6.43739 53.8503 6.66098C54.2415 6.88457 54.5441 7.20845 54.7578 7.63262C54.9748 8.05678 55.0817 8.57136 55.0784 9.17637V14H53.2929V9.45257C53.2929 8.94621 53.1614 8.54999 52.8984 8.26393C52.6386 7.97786 52.2786 7.83483 51.8182 7.83483C51.5059 7.83483 51.228 7.90388 50.9847 8.04198C50.7447 8.17679 50.5556 8.37244 50.4175 8.62891C50.2827 8.88538 50.2153 9.1961 50.2153 9.56108ZM63.643 14.148C62.8868 14.148 62.2374 13.9819 61.6948 13.6498C61.1556 13.3177 60.7396 12.859 60.447 12.2738C60.1576 11.6852 60.013 11.0078 60.013 10.2417C60.013 9.4723 60.1609 8.79331 60.4569 8.20474C60.7528 7.61289 61.1704 7.15255 61.7096 6.82375C62.2522 6.49165 62.8933 6.3256 63.6332 6.3256C64.248 6.3256 64.7922 6.43904 65.2657 6.66592C65.7425 6.88951 66.1222 7.20681 66.405 7.61782C66.6878 8.02554 66.8489 8.50231 66.8884 9.04814H65.1818C65.1128 8.68316 64.9484 8.37901 64.6886 8.13569C64.4322 7.88909 64.0886 7.76578 63.6578 7.76578C63.2928 7.76578 62.9722 7.86443 62.696 8.06171C62.4198 8.25571 62.2045 8.5352 62.0499 8.90017C61.8987 9.26515 61.8231 9.70247 61.8231 10.2121C61.8231 10.7284 61.8987 11.1722 62.0499 11.5438C62.2012 11.9121 62.4133 12.1965 62.6862 12.3971C62.9624 12.5943 63.2863 12.693 63.6578 12.693C63.9209 12.693 64.156 12.6437 64.3631 12.545C64.5735 12.4431 64.7495 12.2968 64.8908 12.1061C65.0322 11.9154 65.1292 11.6835 65.1818 11.4106H66.8884C66.8456 11.9466 66.6878 12.4217 66.4149 12.836C66.142 13.247 65.7704 13.5693 65.3002 13.8027C64.83 14.0329 64.2776 14.148 63.643 14.148ZM70.5344 14.1529C70.0544 14.1529 69.622 14.0674 69.2373 13.8964C68.8559 13.7222 68.5534 13.4657 68.3298 13.127C68.1095 12.7883 67.9993 12.3708 67.9993 11.8743C67.9993 11.4468 68.0782 11.0933 68.2361 10.8138C68.3939 10.5344 68.6093 10.3108 68.8822 10.1431C69.1551 9.97538 69.4625 9.84879 69.8045 9.7633C70.1497 9.67452 70.5065 9.6104 70.8748 9.57094C71.3187 9.52491 71.6787 9.48381 71.9549 9.44764C72.2311 9.40818 72.4317 9.349 72.5566 9.27008C72.6849 9.18788 72.749 9.06129 72.749 8.89031V8.86072C72.749 8.48916 72.6388 8.20145 72.4185 7.99759C72.1982 7.79373 71.8809 7.6918 71.4666 7.6918C71.0293 7.6918 70.6824 7.78716 70.4259 7.97786C70.1728 8.16857 70.0018 8.39381 69.913 8.65357L68.2459 8.41682C68.3775 7.95649 68.5945 7.57179 68.897 7.26271C69.1995 6.95034 69.5694 6.71688 70.0067 6.56234C70.444 6.40451 70.9274 6.3256 71.4568 6.3256C71.8217 6.3256 72.1851 6.36835 72.5468 6.45384C72.9084 6.53933 73.2389 6.68071 73.5381 6.878C73.8373 7.072 74.0774 7.33669 74.2582 7.67207C74.4423 8.00746 74.5344 8.42669 74.5344 8.92977V14H72.818V12.9593H72.7588C72.6503 13.1698 72.4974 13.367 72.3001 13.5512C72.1062 13.732 71.8612 13.8783 71.5653 13.9901C71.2726 14.0986 70.929 14.1529 70.5344 14.1529ZM70.9981 12.8409C71.3565 12.8409 71.6672 12.7703 71.9302 12.6289C72.1933 12.4842 72.3955 12.2935 72.5369 12.0567C72.6816 11.82 72.7539 11.5619 72.7539 11.2824V10.3897C72.698 10.4357 72.6027 10.4785 72.4678 10.5179C72.3363 10.5574 72.1884 10.5919 72.0239 10.6215C71.8595 10.6511 71.6968 10.6774 71.5357 10.7004C71.3746 10.7234 71.2348 10.7431 71.1164 10.7596C70.8501 10.7958 70.6117 10.8549 70.4013 10.9371C70.1908 11.0193 70.0248 11.1344 69.9031 11.2824C69.7815 11.4271 69.7206 11.6145 69.7206 11.8447C69.7206 12.1735 69.8407 12.4217 70.0807 12.5894C70.3207 12.7571 70.6265 12.8409 70.9981 12.8409ZM78.1151 3.89899V14H76.3297V3.89899H78.1151ZM81.7366 3.89899V14H79.9511V3.89899H81.7366ZM88.1175 14.1085C87.8183 14.1085 87.5618 14.0033 87.3481 13.7929C87.1344 13.5824 87.0291 13.3259 87.0324 13.0234C87.0291 12.7275 87.1344 12.4743 87.3481 12.2639C87.5618 12.0535 87.8183 11.9482 88.1175 11.9482C88.4069 11.9482 88.6584 12.0535 88.8721 12.2639C89.0891 12.4743 89.1993 12.7275 89.2026 13.0234C89.1993 13.224 89.1467 13.4065 89.0447 13.5709C88.9461 13.7353 88.8146 13.8668 88.6502 13.9655C88.4891 14.0608 88.3115 14.1085 88.1175 14.1085ZM88.1175 8.70289C87.8183 8.70289 87.5618 8.59767 87.3481 8.38723C87.1344 8.17351 87.0291 7.91703 87.0324 7.61782C87.0291 7.32189 87.1344 7.06871 87.3481 6.85827C87.5618 6.64454 87.8183 6.53768 88.1175 6.53768C88.4069 6.53768 88.6584 6.64454 88.8721 6.85827C89.0891 7.06871 89.1993 7.32189 89.2026 7.61782C89.1993 7.8151 89.1467 7.99595 89.0447 8.16035C88.9461 8.32476 88.8146 8.45628 88.6502 8.55492C88.4891 8.65357 88.3115 8.70289 88.1175 8.70289ZM102.407 2.375H104.254V10.125H102.407V2.375ZM103.74 5.54167H105.963V7.05556H103.74V5.54167ZM95.8931 10.6806H104.254V15.0972H95.8931V10.6806ZM102.449 12.1389H97.7126V13.6389H102.449V12.1389ZM94.1292 3.52778H101.699V4.98611H94.1292V3.52778ZM97.9209 5.36111C99.782 5.36111 101.074 6.30556 101.074 7.68056C101.074 9.06944 99.782 9.98611 97.9209 9.98611C96.0459 9.98611 94.7542 9.06944 94.7542 7.68056C94.7542 6.30556 96.0459 5.36111 97.9209 5.36111ZM97.9209 6.73611C97.0876 6.73611 96.532 7.05556 96.532 7.68056C96.532 8.30556 97.0876 8.63889 97.9209 8.63889C98.7403 8.63889 99.3098 8.30556 99.3098 7.68056C99.3098 7.05556 98.7403 6.73611 97.9209 6.73611ZM96.9903 2.29167H98.8376V4.31944H96.9903V2.29167ZM111.753 2.75H113.378V3.34722C113.378 5.81944 111.434 7.91667 108.059 8.41667L107.336 6.93056C110.295 6.54167 111.753 4.86111 111.753 3.34722V2.75ZM112.1 2.75H113.711V3.34722C113.711 4.84722 115.184 6.54167 118.128 6.93056L117.42 8.41667C114.045 7.91667 112.1 5.81944 112.1 3.34722V2.75ZM111.767 10.5278H113.6V15.2361H111.767V10.5278ZM106.92 9.36111H118.545V10.8611H106.92V9.36111ZM120.183 3.97222H130.794V5.44444H120.183V3.97222ZM119.697 12.4583H131.335V13.9444H119.697V12.4583ZM124.572 10.7639H126.405V13.0417H124.572V10.7639ZM125.474 6C128.155 6 129.835 6.93056 129.835 8.51389C129.835 10.0972 128.155 11.0278 125.474 11.0278C122.794 11.0278 121.113 10.0972 121.113 8.51389C121.113 6.93056 122.794 6 125.474 6ZM125.474 7.43056C123.863 7.43056 123.002 7.77778 123.002 8.51389C123.002 9.25 123.863 9.58333 125.474 9.58333C127.085 9.58333 127.947 9.25 127.947 8.51389C127.947 7.77778 127.085 7.43056 125.474 7.43056ZM124.572 2.51389H126.405V4.88889H124.572V2.51389ZM137.348 8.91667H139.195V10.7778H137.348V8.91667ZM132.487 7.83333H144.07V9.18056H132.487V7.83333ZM137.348 2.36111H139.182V3.91667H137.348V2.36111ZM137.237 4H138.862V4.25C138.862 6.09722 136.987 7.31944 133.432 7.51389L132.918 6.13889C136.057 6.01389 137.237 5.13889 137.237 4.25V4ZM137.668 4H139.293V4.25C139.293 5.13889 140.473 6.01389 143.598 6.13889L143.084 7.51389C139.543 7.31944 137.668 6.09722 137.668 4.25V4ZM133.57 3.375H142.973V4.72222H133.57V3.375ZM133.793 9.95833H142.682V13.1389H135.626V14.3611H133.807V11.9028H140.862V11.2917H133.793V9.95833ZM133.807 13.8056H143.015V15.1528H133.807V13.8056Z" fill="white"/>
<path d="M47.3685 27.6327V28.6111H44.1957V27.6327H47.3685ZM44.9889 33V27.1261C44.9889 26.765 45.0634 26.4645 45.2125 26.2245C45.3639 25.9846 45.5666 25.8052 45.8205 25.6864C46.0745 25.5676 46.3563 25.5082 46.6662 25.5082C46.8851 25.5082 47.0797 25.5257 47.2497 25.5606C47.4198 25.5955 47.5456 25.627 47.6271 25.6549L47.3755 26.6334C47.3219 26.617 47.2544 26.6007 47.1728 26.5844C47.0913 26.5658 47.0005 26.5565 46.9003 26.5565C46.665 26.5565 46.4984 26.6136 46.4006 26.7277C46.3051 26.8395 46.2573 27.0003 46.2573 27.2099V33H44.9889ZM51.7801 30.7427V27.6327H53.045V33H51.8185V32.0461H51.7626C51.6415 32.3466 51.4423 32.5923 51.1651 32.7834C50.8902 32.9744 50.5513 33.0699 50.1483 33.0699C49.7965 33.0699 49.4855 32.9918 49.2153 32.8358C48.9474 32.6774 48.7377 32.4479 48.5863 32.1474C48.4349 31.8445 48.3592 31.4788 48.3592 31.0502V27.6327H49.6241V30.8545C49.6241 31.1946 49.7173 31.4648 49.9037 31.6652C50.09 31.8655 50.3346 31.9657 50.6375 31.9657C50.8238 31.9657 51.0044 31.9203 51.1791 31.8294C51.3538 31.7386 51.4971 31.6034 51.6089 31.4241C51.723 31.2424 51.7801 31.0152 51.7801 30.7427ZM55.6107 29.8551V33H54.3458V27.6327H55.5548V28.5447H55.6177C55.7412 28.2442 55.938 28.0055 56.2083 27.8284C56.4808 27.6514 56.8175 27.5628 57.2181 27.5628C57.5885 27.5628 57.9112 27.642 58.1861 27.8005C58.4633 27.9589 58.6776 28.1883 58.829 28.4888C58.9828 28.7893 59.0585 29.1539 59.0561 29.5826V33H57.7912V29.7782C57.7912 29.4195 57.698 29.1388 57.5117 28.9361C57.3276 28.7334 57.0725 28.6321 56.7464 28.6321C56.5251 28.6321 56.3282 28.681 56.1559 28.7789C55.9858 28.8744 55.8519 29.013 55.754 29.1947C55.6585 29.3764 55.6107 29.5965 55.6107 29.8551ZM62.6832 33.1048C62.1475 33.1048 61.6874 32.9872 61.303 32.7519C60.9209 32.5166 60.6263 32.1916 60.4189 31.777C60.2139 31.36 60.1114 30.8801 60.1114 30.3373C60.1114 29.7922 60.2163 29.3112 60.4259 28.8942C60.6356 28.4749 60.9314 28.1487 61.3135 27.9158C61.6978 27.6805 62.1521 27.5628 62.6763 27.5628C63.1119 27.5628 63.4974 27.6432 63.8329 27.8039C64.1707 27.9624 64.4397 28.1872 64.6401 28.4784C64.8404 28.7672 64.9546 29.105 64.9825 29.4917H63.7735C63.7246 29.2331 63.6081 29.0176 63.424 28.8453C63.2423 28.6705 62.9989 28.5832 62.6937 28.5832C62.4351 28.5832 62.208 28.6531 62.0123 28.7928C61.8167 28.9303 61.6641 29.1283 61.5546 29.3869C61.4474 29.6455 61.3938 29.9553 61.3938 30.3164C61.3938 30.6821 61.4474 30.9966 61.5546 31.2598C61.6617 31.5207 61.812 31.7222 62.0053 31.8643C62.201 32.0041 62.4305 32.074 62.6937 32.074C62.8801 32.074 63.0467 32.0391 63.1934 31.9692C63.3425 31.897 63.4671 31.7933 63.5673 31.6582C63.6675 31.5231 63.7362 31.3588 63.7735 31.1655H64.9825C64.9522 31.5452 64.8404 31.8818 64.6471 32.1753C64.4537 32.4665 64.1905 32.6948 63.8573 32.8602C63.5242 33.0233 63.1328 33.1048 62.6832 33.1048ZM68.7013 27.6327V28.6111H65.6159V27.6327H68.7013ZM66.3776 26.3468H67.6426V31.3856C67.6426 31.5557 67.6682 31.6861 67.7194 31.777C67.773 31.8655 67.8429 31.9261 67.9291 31.9587C68.0153 31.9913 68.1108 32.0076 68.2156 32.0076C68.2948 32.0076 68.367 32.0018 68.4323 31.9901C68.4998 31.9785 68.5511 31.968 68.586 31.9587L68.7992 32.9476C68.7316 32.9709 68.6349 32.9965 68.5091 33.0245C68.3857 33.0524 68.2343 33.0687 68.0549 33.0734C67.7381 33.0827 67.4527 33.0349 67.1988 32.9301C66.9449 32.823 66.7434 32.6576 66.5943 32.4339C66.4475 32.2103 66.3753 31.9307 66.3776 31.5953V26.3468ZM69.7592 33V27.6327H71.0242V33H69.7592ZM70.3952 26.871C70.1949 26.871 70.0225 26.8046 69.878 26.6718C69.7336 26.5367 69.6614 26.3748 69.6614 26.1861C69.6614 25.9951 69.7336 25.8332 69.878 25.7004C70.0225 25.5653 70.1949 25.4977 70.3952 25.4977C70.5979 25.4977 70.7703 25.5653 70.9124 25.7004C71.0568 25.8332 71.129 25.9951 71.129 26.1861C71.129 26.3748 71.0568 26.5367 70.9124 26.6718C70.7703 26.8046 70.5979 26.871 70.3952 26.871ZM74.6661 33.1048C74.142 33.1048 73.6877 32.9895 73.3034 32.7589C72.919 32.5283 72.6208 32.2056 72.4088 31.791C72.1991 31.3763 72.0943 30.8918 72.0943 30.3373C72.0943 29.7829 72.1991 29.2972 72.4088 28.8802C72.6208 28.4632 72.919 28.1394 73.3034 27.9088C73.6877 27.6782 74.142 27.5628 74.6661 27.5628C75.1903 27.5628 75.6445 27.6782 76.0289 27.9088C76.4133 28.1394 76.7103 28.4632 76.92 28.8802C77.132 29.2972 77.238 29.7829 77.238 30.3373C77.238 30.8918 77.132 31.3763 76.92 31.791C76.7103 32.2056 76.4133 32.5283 76.0289 32.7589C75.6445 32.9895 75.1903 33.1048 74.6661 33.1048ZM74.6731 32.0915C74.9573 32.0915 75.1949 32.0134 75.386 31.8574C75.577 31.6989 75.7191 31.487 75.8123 31.2214C75.9078 30.9558 75.9555 30.66 75.9555 30.3338C75.9555 30.0054 75.9078 29.7084 75.8123 29.4428C75.7191 29.1749 75.577 28.9617 75.386 28.8033C75.1949 28.6449 74.9573 28.5657 74.6731 28.5657C74.3819 28.5657 74.1397 28.6449 73.9463 28.8033C73.7553 28.9617 73.612 29.1749 73.5165 29.4428C73.4233 29.7084 73.3767 30.0054 73.3767 30.3338C73.3767 30.66 73.4233 30.9558 73.5165 31.2214C73.612 31.487 73.7553 31.6989 73.9463 31.8574C74.1397 32.0134 74.3819 32.0915 74.6731 32.0915ZM79.5765 29.8551V33H78.3116V27.6327H79.5206V28.5447H79.5835C79.707 28.2442 79.9038 28.0055 80.1741 27.8284C80.4466 27.6514 80.7832 27.5628 81.1839 27.5628C81.5543 27.5628 81.877 27.642 82.1518 27.8005C82.4291 27.9589 82.6434 28.1883 82.7948 28.4888C82.9485 28.7893 83.0243 29.1539 83.0219 29.5826V33H81.757V29.7782C81.757 29.4195 81.6638 29.1388 81.4774 28.9361C81.2934 28.7334 81.0383 28.6321 80.7122 28.6321C80.4909 28.6321 80.294 28.681 80.1216 28.7789C79.9516 28.8744 79.8176 29.013 79.7198 29.1947C79.6243 29.3764 79.5765 29.5965 79.5765 29.8551ZM89.0898 33.1048C88.554 33.1048 88.0939 32.9872 87.7096 32.7519C87.3275 32.5166 87.0328 32.1916 86.8255 31.777C86.6205 31.36 86.518 30.8801 86.518 30.3373C86.518 29.7922 86.6228 29.3112 86.8325 28.8942C87.0421 28.4749 87.338 28.1487 87.72 27.9158C88.1044 27.6805 88.5587 27.5628 89.0828 27.5628C89.5184 27.5628 89.904 27.6432 90.2394 27.8039C90.5772 27.9624 90.8463 28.1872 91.0466 28.4784C91.247 28.7672 91.3611 29.105 91.3891 29.4917H90.18C90.1311 29.2331 90.0146 29.0176 89.8306 28.8453C89.6489 28.6705 89.4055 28.5832 89.1003 28.5832C88.8417 28.5832 88.6146 28.6531 88.4189 28.7928C88.2232 28.9303 88.0706 29.1283 87.9611 29.3869C87.854 29.6455 87.8004 29.9553 87.8004 30.3164C87.8004 30.6821 87.854 30.9966 87.9611 31.2598C88.0683 31.5207 88.2186 31.7222 88.4119 31.8643C88.6076 32.0041 88.8371 32.074 89.1003 32.074C89.2867 32.074 89.4532 32.0391 89.6 31.9692C89.7491 31.897 89.8737 31.7933 89.9739 31.6582C90.074 31.5231 90.1428 31.3588 90.18 31.1655H91.3891C91.3588 31.5452 91.247 31.8818 91.0536 32.1753C90.8603 32.4665 90.597 32.6948 90.2639 32.8602C89.9308 33.0233 89.5394 33.1048 89.0898 33.1048ZM93.9722 33.1083C93.6321 33.1083 93.3258 33.0478 93.0532 32.9266C92.783 32.8032 92.5687 32.6214 92.4103 32.3815C92.2542 32.1416 92.1762 31.8457 92.1762 31.4939C92.1762 31.1911 92.2321 30.9407 92.3439 30.7427C92.4557 30.5447 92.6083 30.3862 92.8016 30.2674C92.995 30.1486 93.2128 30.0589 93.4551 29.9984C93.6997 29.9355 93.9524 29.8901 94.2134 29.8621C94.5278 29.8295 94.7829 29.8004 94.9786 29.7747C95.1743 29.7468 95.3164 29.7049 95.4049 29.6489C95.4958 29.5907 95.5412 29.501 95.5412 29.3799V29.3589C95.5412 29.0957 95.4632 28.8918 95.3071 28.7474C95.151 28.603 94.9262 28.5308 94.6327 28.5308C94.3228 28.5308 94.0771 28.5983 93.8954 28.7334C93.716 28.8686 93.5949 29.0281 93.532 29.2122L92.3509 29.0444C92.4441 28.7183 92.5978 28.4457 92.8121 28.2268C93.0264 28.0055 93.2885 27.8401 93.5984 27.7306C93.9082 27.6187 94.2506 27.5628 94.6257 27.5628C94.8843 27.5628 95.1417 27.5931 95.3979 27.6537C95.6542 27.7143 95.8883 27.8144 96.1003 27.9542C96.3123 28.0916 96.4823 28.2792 96.6105 28.5168C96.7409 28.7544 96.8061 29.0514 96.8061 29.4078V33H95.5901V32.2627H95.5482C95.4713 32.4118 95.363 32.5516 95.2232 32.682C95.0858 32.8101 94.9122 32.9138 94.7026 32.993C94.4952 33.0699 94.2518 33.1083 93.9722 33.1083ZM94.3007 32.1788C94.5546 32.1788 94.7748 32.1287 94.9611 32.0286C95.1475 31.9261 95.2908 31.791 95.3909 31.6232C95.4934 31.4555 95.5447 31.2726 95.5447 31.0746V30.4422C95.5051 30.4748 95.4375 30.5051 95.342 30.533C95.2488 30.561 95.144 30.5854 95.0275 30.6064C94.9111 30.6274 94.7957 30.646 94.6816 30.6623C94.5674 30.6786 94.4684 30.6926 94.3846 30.7042C94.1959 30.7299 94.027 30.7718 93.8779 30.83C93.7288 30.8883 93.6112 30.9698 93.525 31.0746C93.4388 31.1771 93.3957 31.3099 93.3957 31.473C93.3957 31.7059 93.4807 31.8818 93.6508 32.0006C93.8208 32.1194 94.0375 32.1788 94.3007 32.1788ZM99.343 25.8436V33H98.0781V25.8436H99.343ZM101.909 25.8436V33H100.644V25.8436H101.909Z" fill="white"/>
<path d="M27 52C27 49.2386 29.2386 47 32 47H109C111.761 47 114 49.2386 114 52V93C114 95.7614 111.761 98 109 98H32C29.2386 98 27 95.7614 27 93V52Z" fill="#858F9F"/>
<path d="M30 41L114 41" stroke="white" stroke-linecap="round"/>
<path d="M50.8352 61.0655C50.5423 61.0655 50.2801 60.9903 50.0487 60.8398C49.8173 60.6893 49.6344 60.4708 49.5001 60.1844C49.3657 59.8979 49.2986 59.55 49.2986 59.1405C49.2986 58.7262 49.3666 58.3767 49.5025 58.0918C49.6401 57.8054 49.8254 57.5893 50.0584 57.4437C50.2914 57.2964 50.5512 57.2228 50.8376 57.2228C51.0561 57.2228 51.2357 57.26 51.3765 57.3345C51.5173 57.4073 51.629 57.4955 51.7115 57.5991C51.7941 57.701 51.858 57.7973 51.9033 57.8879H51.9397V56.0285H52.8209V61H51.9567V60.4125H51.9033C51.858 60.5032 51.7924 60.5995 51.7067 60.7014C51.6209 60.8018 51.5076 60.8875 51.3668 60.9587C51.226 61.0299 51.0488 61.0655 50.8352 61.0655ZM51.0804 60.3446C51.2665 60.3446 51.4251 60.2944 51.5562 60.1941C51.6873 60.0921 51.7868 59.9505 51.8548 59.7693C51.9227 59.588 51.9567 59.3768 51.9567 59.1357C51.9567 58.8945 51.9227 58.685 51.8548 58.5069C51.7884 58.3289 51.6897 58.1906 51.5586 58.0918C51.4291 57.9931 51.2697 57.9438 51.0804 57.9438C50.8846 57.9438 50.7211 57.9947 50.59 58.0967C50.4589 58.1987 50.3602 58.3394 50.2939 58.5191C50.2275 58.6987 50.1943 58.9043 50.1943 59.1357C50.1943 59.3687 50.2275 59.5767 50.2939 59.7595C50.3618 59.9408 50.4614 60.084 50.5924 60.1892C50.7252 60.2928 50.8878 60.3446 51.0804 60.3446ZM55.2781 61.0728C54.9043 61.0728 54.5814 60.9951 54.3096 60.8398C54.0393 60.6828 53.8313 60.4611 53.6857 60.1746C53.54 59.8866 53.4672 59.5475 53.4672 59.1575C53.4672 58.774 53.54 58.4374 53.6857 58.1477C53.833 57.8564 54.0385 57.6298 54.3023 57.468C54.5661 57.3045 54.876 57.2228 55.232 57.2228C55.4618 57.2228 55.6787 57.26 55.8826 57.3345C56.0881 57.4073 56.2694 57.5206 56.4263 57.6743C56.5849 57.8281 56.7096 58.0239 56.8002 58.2618C56.8908 58.498 56.9361 58.7796 56.9361 59.1065V59.376H53.8799V58.7837H56.0938C56.0922 58.6154 56.0557 58.4657 55.9845 58.3346C55.9133 58.2019 55.8138 58.0975 55.686 58.0214C55.5597 57.9454 55.4125 57.9074 55.2442 57.9074C55.0645 57.9074 54.9067 57.951 54.7708 58.0384C54.6348 58.1242 54.5288 58.2375 54.4528 58.3783C54.3783 58.5175 54.3403 58.6704 54.3387 58.8371V59.3541C54.3387 59.571 54.3783 59.7571 54.4576 59.9125C54.5369 60.0662 54.6478 60.1844 54.7902 60.2669C54.9326 60.3478 55.0993 60.3883 55.2903 60.3883C55.4181 60.3883 55.5338 60.3705 55.6374 60.3349C55.741 60.2976 55.8308 60.2434 55.9069 60.1722C55.9829 60.101 56.0404 60.0128 56.0792 59.9076L56.8997 59.9999C56.8479 60.2167 56.7492 60.4061 56.6036 60.5679C56.4595 60.7281 56.275 60.8527 56.0501 60.9417C55.8251 61.0291 55.5678 61.0728 55.2781 61.0728ZM59.4383 57.2713V57.951H57.2341V57.2713H59.4383ZM57.7851 61V56.9194C57.7851 56.6685 57.8369 56.4597 57.9405 56.2931C58.0457 56.1264 58.1865 56.0018 58.3629 55.9192C58.5393 55.8367 58.7351 55.7954 58.9503 55.7954C59.1025 55.7954 59.2376 55.8076 59.3557 55.8318C59.4739 55.8561 59.5613 55.878 59.6179 55.8974L59.4431 56.5771C59.4059 56.5657 59.359 56.5544 59.3023 56.5431C59.2457 56.5301 59.1826 56.5237 59.113 56.5237C58.9495 56.5237 58.8338 56.5633 58.7659 56.6426C58.6995 56.7203 58.6663 56.832 58.6663 56.9776V61H57.7851ZM80.5794 61.0534C80.4321 61.0534 80.3059 61.0016 80.2007 60.898C80.0955 60.7945 80.0437 60.6682 80.0454 60.5194C80.0437 60.3737 80.0955 60.2491 80.2007 60.1455C80.3059 60.0419 80.4321 59.9902 80.5794 59.9902C80.7218 59.9902 80.8456 60.0419 80.9508 60.1455C81.0576 60.2491 81.1118 60.3737 81.1135 60.5194C81.1118 60.6181 81.0859 60.7079 81.0358 60.7888C80.9872 60.8697 80.9225 60.9345 80.8416 60.983C80.7623 61.0299 80.6749 61.0534 80.5794 61.0534ZM80.5794 58.3929C80.4321 58.3929 80.3059 58.3411 80.2007 58.2375C80.0955 58.1323 80.0437 58.0061 80.0454 57.8588C80.0437 57.7132 80.0955 57.5885 80.2007 57.485C80.3059 57.3798 80.4321 57.3272 80.5794 57.3272C80.7218 57.3272 80.8456 57.3798 80.9508 57.485C81.0576 57.5885 81.1118 57.7132 81.1135 57.8588C81.1118 57.9559 81.0859 58.0449 81.0358 58.1258C80.9872 58.2067 80.9225 58.2715 80.8416 58.32C80.7623 58.3686 80.6749 58.3929 80.5794 58.3929ZM57.9221 65.4629H58.7219V65.7569C58.7219 66.9737 57.7649 68.0059 56.1037 68.252L55.7483 67.5205C57.2043 67.3291 57.9221 66.502 57.9221 65.7569V65.4629ZM58.093 65.4629H58.8859V65.7569C58.8859 66.4952 59.6105 67.3291 61.0598 67.5205L60.7111 68.252C59.05 68.0059 58.093 66.9737 58.093 65.7569V65.4629ZM57.9289 69.291H58.8313V71.6084H57.9289V69.291ZM55.5432 68.7168H61.2648V69.4551H55.5432V68.7168ZM66.2271 65.2784H67.0885V69.2432H66.2271V65.2784ZM65.4547 66.837H66.4664V67.5752H65.4547V66.837ZM64.9146 65.4014H65.7623V69.0381H64.9146V65.4014ZM61.6676 65.9278H64.7369V66.625H61.6676V65.9278ZM63.2125 66.8301C64.0055 66.8301 64.5797 67.2813 64.5797 67.9375C64.5797 68.5938 64.0055 69.0381 63.2125 69.0381C62.4196 69.0381 61.8453 68.5938 61.8453 67.9375C61.8453 67.2813 62.4196 66.8301 63.2125 66.8301ZM63.2125 67.4795C62.8776 67.4795 62.652 67.6436 62.652 67.9375C62.652 68.2315 62.8776 68.3955 63.2125 68.3955C63.5406 68.3955 63.7662 68.2315 63.7662 67.9375C63.7662 67.6436 63.5406 67.4795 63.2125 67.4795ZM62.7545 65.3399H63.65V66.4063H62.7545V65.3399ZM64.9488 69.3115C66.3023 69.3115 67.1226 69.7217 67.1226 70.46C67.1226 71.1914 66.3023 71.6084 64.9488 71.6084C63.5885 71.6084 62.7682 71.1914 62.7682 70.46C62.7682 69.7217 63.5885 69.3115 64.9488 69.3115ZM64.9488 69.9883C64.1012 69.9883 63.6774 70.1318 63.6774 70.46C63.6774 70.7813 64.1012 70.9316 64.9488 70.9316C65.7896 70.9316 66.2135 70.7813 66.2135 70.46C66.2135 70.1318 65.7896 69.9883 64.9488 69.9883ZM73.4934 65.2715H74.4026V68.6895H73.4934V65.2715ZM74.0403 66.625H75.2434V67.3633H74.0403V66.625ZM70.2191 68.9424H74.4026V70.5488H71.1351V71.123H70.2327V69.9336H73.5071V69.5986H70.2191V68.9424ZM70.2327 70.8975H74.5872V71.5674H70.2327V70.8975ZM69.4193 65.7432H73.1448V66.4268H69.4193V65.7432ZM71.2855 66.5772C72.222 66.5772 72.8372 66.9805 72.8372 67.6162C72.8372 68.252 72.222 68.6416 71.2855 68.6416C70.3421 68.6416 69.7269 68.252 69.7269 67.6162C69.7269 66.9805 70.3421 66.5772 71.2855 66.5772ZM71.2855 67.2129C70.8616 67.2129 70.6019 67.3496 70.6019 67.6162C70.6019 67.8692 70.8616 68.0059 71.2855 68.0059C71.7093 68.0059 71.969 67.8692 71.969 67.6162C71.969 67.3496 71.7093 67.2129 71.2855 67.2129ZM70.8275 65.2305H71.7366V66.2286H70.8275V65.2305ZM77.1436 68.4024H82.872V69.127H77.1436V68.4024ZM79.625 68.8604H80.541V70.1934H79.625V68.8604ZM77.8477 65.545H82.1474V67.8965H77.8477V65.545ZM81.2519 66.2559H78.7363V67.1856H81.2519V66.2559ZM77.8067 70.7744H82.2431V71.499H77.8067V70.7744ZM77.8067 69.6602H78.709V71.0137H77.8067V69.6602ZM84.7104 65.9825H85.4555V66.379C85.4555 67.5889 84.8881 68.6758 83.6645 69.0791L83.2133 68.3614C84.266 68.0127 84.7104 67.1856 84.7104 66.379V65.9825ZM84.8949 65.9825H85.6332V66.379C85.6332 67.1172 86.057 67.8418 87.0756 68.1494L86.6449 68.8604C85.4418 68.4981 84.8949 67.5069 84.8949 66.379V65.9825ZM83.4526 65.7022H86.8705V66.4268H83.4526V65.7022ZM87.3763 65.2784H88.2855V69.0313H87.3763V65.2784ZM88.0326 66.7344H89.1263V67.4795H88.0326V66.7344ZM86.2211 69.1475C87.5336 69.1475 88.3607 69.6055 88.3607 70.3779C88.3607 71.1504 87.5336 71.6084 86.2211 71.6084C84.9018 71.6084 84.0746 71.1504 84.0746 70.3779C84.0746 69.6055 84.9018 69.1475 86.2211 69.1475ZM86.2211 69.8584C85.4144 69.8584 84.977 70.0225 84.977 70.3779C84.977 70.7334 85.4144 70.9111 86.2211 70.9111C87.0277 70.9111 87.4584 70.7334 87.4584 70.3779C87.4584 70.0225 87.0277 69.8584 86.2211 69.8584ZM57.2802 81V77.2713H58.1322V77.8928H58.1711C58.2391 77.6775 58.3556 77.5117 58.5206 77.3951C58.6873 77.277 58.8775 77.2179 59.0911 77.2179C59.1397 77.2179 59.1939 77.2204 59.2538 77.2252C59.3152 77.2285 59.3662 77.2341 59.4067 77.2422V78.0506C59.3695 78.0376 59.3104 78.0263 59.2295 78.0166C59.1502 78.0053 59.0733 77.9996 58.9989 77.9996C58.8386 77.9996 58.6946 78.0344 58.5668 78.104C58.4405 78.172 58.341 78.2666 58.2682 78.388C58.1954 78.5094 58.1589 78.6494 58.1589 78.808V81H57.2802ZM61.3578 81.0728C60.9839 81.0728 60.6611 80.9951 60.3892 80.8398C60.1189 80.6828 59.911 80.4611 59.7653 80.1746C59.6197 79.8866 59.5469 79.5475 59.5469 79.1575C59.5469 78.774 59.6197 78.4374 59.7653 78.1477C59.9126 77.8564 60.1181 77.6298 60.3819 77.468C60.6457 77.3045 60.9556 77.2228 61.3117 77.2228C61.5415 77.2228 61.7583 77.26 61.9622 77.3345C62.1678 77.4073 62.349 77.5206 62.506 77.6743C62.6646 77.8281 62.7892 78.0239 62.8798 78.2618C62.9705 78.498 63.0158 78.7796 63.0158 79.1065V79.376H59.9595V78.7837H62.1734C62.1718 78.6154 62.1354 78.4657 62.0642 78.3346C61.993 78.2019 61.8935 78.0975 61.7656 78.0214C61.6394 77.9454 61.4921 77.9074 61.3238 77.9074C61.1442 77.9074 60.9864 77.951 60.8504 78.0384C60.7145 78.1242 60.6085 78.2375 60.5324 78.3783C60.458 78.5175 60.42 78.6704 60.4183 78.8371V79.3541C60.4183 79.571 60.458 79.7571 60.5373 79.9125C60.6166 80.0662 60.7274 80.1844 60.8699 80.2669C61.0123 80.3478 61.179 80.3883 61.3699 80.3883C61.4978 80.3883 61.6135 80.3705 61.7171 80.3349C61.8206 80.2976 61.9104 80.2434 61.9865 80.1722C62.0626 80.101 62.12 80.0128 62.1589 79.9076L62.9794 79.9999C62.9276 80.2167 62.8289 80.4061 62.6832 80.5679C62.5392 80.7281 62.3547 80.8527 62.1297 80.9417C61.9048 81.0291 61.6475 81.0728 61.3578 81.0728ZM65.4912 77.2713V77.951H63.3477V77.2713H65.4912ZM63.8769 76.378H64.7557V79.8785C64.7557 79.9966 64.7735 80.0873 64.8091 80.1504C64.8463 80.2119 64.8949 80.2539 64.9547 80.2766C65.0146 80.2993 65.081 80.3106 65.1538 80.3106C65.2088 80.3106 65.259 80.3065 65.3043 80.2984C65.3512 80.2904 65.3868 80.2831 65.4111 80.2766L65.5592 80.9636C65.5123 80.9798 65.4451 80.9976 65.3577 81.017C65.2719 81.0364 65.1667 81.0477 65.0421 81.051C64.822 81.0575 64.6238 81.0243 64.4474 80.9514C64.271 80.877 64.131 80.7621 64.0274 80.6067C63.9255 80.4514 63.8753 80.2572 63.8769 80.0241V76.378ZM68.4728 79.4318V77.2713H69.3516V81H68.4995V80.3373H68.4607C68.3765 80.5461 68.2381 80.7168 68.0456 80.8495C67.8546 80.9822 67.6191 81.0486 67.3392 81.0486C67.0948 81.0486 66.8787 80.9943 66.691 80.8859C66.5049 80.7759 66.3592 80.6165 66.2541 80.4077C66.1489 80.1973 66.0963 79.9432 66.0963 79.6454V77.2713H66.975V79.5095C66.975 79.7458 67.0398 79.9335 67.1692 80.0727C67.2987 80.2119 67.4686 80.2815 67.679 80.2815C67.8085 80.2815 67.9339 80.2499 68.0553 80.1868C68.1766 80.1237 68.2762 80.0298 68.3538 79.9052C68.4331 79.779 68.4728 79.6212 68.4728 79.4318ZM70.1253 81V77.2713H70.9774V77.8928H71.0162C71.0842 77.6775 71.2007 77.5117 71.3658 77.3951C71.5325 77.277 71.7226 77.2179 71.9362 77.2179C71.9848 77.2179 72.039 77.2204 72.0989 77.2252C72.1604 77.2285 72.2114 77.2341 72.2518 77.2422V78.0506C72.2146 78.0376 72.1555 78.0263 72.0746 78.0166C71.9953 78.0053 71.9184 77.9996 71.844 77.9996C71.6838 77.9996 71.5397 78.0344 71.4119 78.104C71.2857 78.172 71.1861 78.2666 71.1133 78.388C71.0405 78.5094 71.0041 78.6494 71.0041 78.808V81H70.1253ZM73.5845 78.8152V81H72.7057V77.2713H73.5457V77.9049H73.5894C73.6751 77.6962 73.8119 77.5303 73.9996 77.4073C74.189 77.2843 74.4228 77.2228 74.7012 77.2228C74.9585 77.2228 75.1826 77.2778 75.3736 77.3879C75.5662 77.4979 75.7151 77.6573 75.8202 77.8661C75.9271 78.0749 75.9796 78.3281 75.978 78.6259V81H75.0993V78.7618C75.0993 78.5126 75.0345 78.3176 74.9051 78.1768C74.7772 78.036 74.6 77.9656 74.3734 77.9656C74.2197 77.9656 74.083 77.9996 73.9632 78.0676C73.8451 78.1339 73.752 78.2302 73.684 78.3564C73.6177 78.4827 73.5845 78.6356 73.5845 78.8152ZM68.1457 88.973C68.1457 88.3662 68.2258 87.8086 68.3861 87.3005C68.5479 86.7907 68.7882 86.3198 69.107 85.8877H69.9348C69.8118 86.0479 69.6969 86.2445 69.5901 86.4775C69.4833 86.709 69.3902 86.9631 69.3109 87.2398C69.2333 87.5149 69.1718 87.8005 69.1265 88.0967C69.0828 88.3929 69.0609 88.685 69.0609 88.973C69.0609 89.3566 69.0989 89.745 69.175 90.1382C69.2527 90.5315 69.3571 90.8956 69.4882 91.2306C69.6209 91.5672 69.7697 91.8423 69.9348 92.056H69.107C68.7882 91.6239 68.5479 91.1537 68.3861 90.6456C68.2258 90.1358 68.1457 89.5783 68.1457 88.973ZM72.0558 88.973C72.0558 89.5783 71.9749 90.1358 71.8131 90.6456C71.6529 91.1537 71.4134 91.6239 71.0945 92.056H70.2668C70.3914 91.8958 70.5063 91.6999 70.6115 91.4685C70.7183 91.2371 70.8105 90.983 70.8882 90.7063C70.9675 90.4295 71.029 90.1431 71.0727 89.8469C71.118 89.5508 71.1407 89.2595 71.1407 88.973C71.1407 88.5895 71.1018 88.2011 71.0241 87.8078C70.9481 87.4146 70.8437 87.0496 70.711 86.713C70.5799 86.3764 70.4318 86.1013 70.2668 85.8877H71.0945C71.4134 86.3198 71.6529 86.7907 71.8131 87.3005C71.9749 87.8086 72.0558 88.3662 72.0558 88.973Z" fill="white"/>
<path d="M65.4584 55.2784H66.3676V59.0928H65.4584V55.2784ZM66.1147 56.837H67.2084V57.5821H66.1147V56.837ZM62.2524 59.3662H66.3676V61.54H62.2524V59.3662ZM65.4789 60.084H63.1479V60.8223H65.4789V60.084ZM61.3842 55.8458H65.1098V56.5635H61.3842V55.8458ZM63.2504 56.7481C64.1664 56.7481 64.8022 57.2129 64.8022 57.8897C64.8022 58.5733 64.1664 59.0244 63.2504 59.0244C62.3276 59.0244 61.6919 58.5733 61.6919 57.8897C61.6919 57.2129 62.3276 56.7481 63.2504 56.7481ZM63.2504 57.4248C62.8403 57.4248 62.5668 57.5821 62.5668 57.8897C62.5668 58.1973 62.8403 58.3614 63.2504 58.3614C63.6537 58.3614 63.934 58.1973 63.934 57.8897C63.934 57.5821 63.6537 57.4248 63.2504 57.4248ZM62.7924 55.2374H63.7016V56.2354H62.7924V55.2374ZM69.9285 55.4629H70.7283V55.7569C70.7283 56.9737 69.7713 58.0059 68.1102 58.252L67.7547 57.5205C69.2108 57.3291 69.9285 56.502 69.9285 55.7569V55.4629ZM70.0994 55.4629H70.8924V55.7569C70.8924 56.4952 71.617 57.3291 73.0662 57.5205L72.7176 58.252C71.0565 58.0059 70.0994 56.9737 70.0994 55.7569V55.4629ZM69.9354 59.291H70.8377V61.6084H69.9354V59.291ZM67.5497 58.7168H73.2713V59.4551H67.5497V58.7168ZM76.7639 56.1944H78.3771V56.9122H76.7639V56.1944ZM76.7639 57.459H78.4045V58.1836H76.7639V57.459ZM78.09 55.2784H78.9992V58.9834H78.09V55.2784ZM73.9612 55.7364H76.9553V58.6416H73.9612V55.7364ZM76.0598 56.4541H74.8567V57.9307H76.0598V56.4541ZM76.8527 59.1475C78.1926 59.1475 79.0197 59.6055 79.0197 60.3779C79.0197 61.1572 78.1926 61.6084 76.8527 61.6084C75.5129 61.6084 74.6858 61.1572 74.6858 60.3779C74.6858 59.6055 75.5129 59.1475 76.8527 59.1475ZM76.8527 59.8447C76.0324 59.8447 75.5949 60.0156 75.5949 60.3779C75.5949 60.7402 76.0324 60.918 76.8527 60.918C77.6799 60.918 78.1174 60.7402 78.1174 60.3779C78.1174 60.0156 77.6799 59.8447 76.8527 59.8447ZM53.3476 85.2784H54.2568V89.0928H53.3476V85.2784ZM54.0039 86.837H55.0976V87.5821H54.0039V86.837ZM50.1416 89.3662H54.2568V91.54H50.1416V89.3662ZM53.3681 90.084H51.0371V90.8223H53.3681V90.084ZM49.2734 85.8458H52.999V86.5635H49.2734V85.8458ZM51.1396 86.7481C52.0556 86.7481 52.6914 87.2129 52.6914 87.8897C52.6914 88.5733 52.0556 89.0244 51.1396 89.0244C50.2168 89.0244 49.581 88.5733 49.581 87.8897C49.581 87.2129 50.2168 86.7481 51.1396 86.7481ZM51.1396 87.4248C50.7295 87.4248 50.456 87.5821 50.456 87.8897C50.456 88.1973 50.7295 88.3614 51.1396 88.3614C51.5429 88.3614 51.8232 88.1973 51.8232 87.8897C51.8232 87.5821 51.5429 87.4248 51.1396 87.4248ZM50.6816 85.2374H51.5908V86.2354H50.6816V85.2374ZM57.8177 85.4629H58.6175V85.7569C58.6175 86.9737 57.6605 88.0059 55.9994 88.252L55.6439 87.5205C57.1 87.3291 57.8177 86.502 57.8177 85.7569V85.4629ZM57.9886 85.4629H58.7816V85.7569C58.7816 86.4952 59.5062 87.3291 60.9554 87.5205L60.6068 88.252C58.9457 88.0059 57.9886 86.9737 57.9886 85.7569V85.4629ZM57.8246 89.291H58.7269V91.6084H57.8246V89.291ZM55.4389 88.7168H61.1605V89.4551H55.4389V88.7168ZM64.6531 86.1944H66.2663V86.9122H64.6531V86.1944ZM64.6531 87.459H66.2937V88.1836H64.6531V87.459ZM65.9792 85.2784H66.8884V88.9834H65.9792V85.2784ZM61.8504 85.7364H64.8445V88.6416H61.8504V85.7364ZM63.949 86.4541H62.7459V87.9307H63.949V86.4541ZM64.7419 89.1475C66.0818 89.1475 66.9089 89.6055 66.9089 90.3779C66.9089 91.1572 66.0818 91.6084 64.7419 91.6084C63.4021 91.6084 62.575 91.1572 62.575 90.3779C62.575 89.6055 63.4021 89.1475 64.7419 89.1475ZM64.7419 89.8447C63.9216 89.8447 63.4841 90.0156 63.4841 90.3779C63.4841 90.7402 63.9216 90.918 64.7419 90.918C65.5691 90.918 66.0066 90.7402 66.0066 90.3779C66.0066 90.0156 65.5691 89.8447 64.7419 89.8447Z" fill="#376FFF"/>
<path d="M82.2033 75.2852H83.1125V79.9404H82.2033V75.2852ZM82.8527 77.0625H83.9533V77.8077H82.8527V77.0625ZM79.0315 80.7744H83.3381V81.499H79.0315V80.7744ZM79.0315 79.4688H79.9406V80.9316H79.0315V79.4688ZM78.3137 75.7295H79.216V76.6387H80.4533V75.7295H81.3557V78.9424H78.3137V75.7295ZM79.216 77.3291V78.2315H80.4533V77.3291H79.216ZM88.4029 75.2784H89.3121V80.2275H88.4029V75.2784ZM88.9908 77.3496H90.105V78.0879H88.9908V77.3496ZM85.0875 80.7744H89.524V81.499H85.0875V80.7744ZM85.0875 79.9063H86.0035V80.9863H85.0875V79.9063ZM85.7232 78.3203H86.6324V79.2432H85.7232V78.3203ZM84.315 79.6123L84.2125 78.9151C85.3131 78.9151 86.8375 78.8946 88.1226 78.7031L88.191 79.3252C86.8785 79.5713 85.3951 79.5986 84.315 79.6123ZM84.3766 75.7842H87.9654V76.4405H84.3766V75.7842ZM86.1744 76.6045C87.1041 76.6045 87.7125 76.9737 87.7125 77.5889C87.7125 78.1905 87.1041 78.5664 86.1744 78.5664C85.2447 78.5664 84.6295 78.1905 84.6295 77.5889C84.6295 76.9737 85.2447 76.6045 86.1744 76.6045ZM86.1744 77.2129C85.7437 77.2129 85.4908 77.336 85.4908 77.5889C85.4908 77.8282 85.7437 77.9512 86.1744 77.9512C86.5982 77.9512 86.8512 77.8282 86.8512 77.5889C86.8512 77.336 86.5982 77.2129 86.1744 77.2129ZM85.7232 75.251H86.6324V76.0645H85.7232V75.251ZM94.5205 75.2784H95.4296V78.71H94.5205V75.2784ZM95.1767 76.5909H96.2704V77.336H95.1767V76.5909ZM92.6953 75.6065H93.6865C93.6865 77.3018 92.6679 78.3545 90.7471 78.7852L90.4121 78.0537C92.0049 77.7188 92.6953 76.9737 92.6953 76.1124V75.6065ZM90.7129 75.6065H93.2832V76.3311H90.7129V75.6065ZM91.0615 79.0313H91.9023V79.6192H92.5244V79.0313H93.3515V81.5195H91.0615V79.0313ZM91.9023 80.2891V80.8359H92.5244V80.2891H91.9023ZM94.2539 78.9561H94.9511V79.4278C94.9511 80.3369 94.5957 81.2119 93.7138 81.581L93.2422 80.9043C93.9599 80.5898 94.2539 80.002 94.2539 79.4278V78.9561ZM94.4384 78.9561H95.122V79.4209C95.122 80.0225 95.416 80.6172 96.1337 80.9043L95.6621 81.581C94.7734 81.2187 94.4384 80.3643 94.4384 79.4209V78.9561Z" fill="#3300FF"/>
</svg>
