<svg width="122" height="97" viewBox="0 0 122 97" fill="none" xmlns="http://www.w3.org/2000/svg">
<rect x="54" width="68" height="68" fill="#5D91F5"/>
<line x1="60.25" x2="60.25" y2="68" stroke="#B7B7B7" stroke-width="0.5"/>
<line x1="67.25" x2="67.25" y2="68" stroke="#B7B7B7" stroke-width="0.5"/>
<line x1="74.25" x2="74.25" y2="68" stroke="#B7B7B7" stroke-width="0.5"/>
<line x1="81.25" x2="81.25" y2="68" stroke="#B7B7B7" stroke-width="0.5"/>
<line x1="88.25" x2="88.25" y2="68" stroke="#B7B7B7" stroke-width="0.5"/>
<line x1="95.25" x2="95.25" y2="68" stroke="#B7B7B7" stroke-width="0.5"/>
<line x1="102.25" x2="102.25" y2="68" stroke="#B7B7B7" stroke-width="0.5"/>
<line x1="109.25" x2="109.25" y2="68" stroke="#B7B7B7" stroke-width="0.5"/>
<line x1="116.25" x2="116.25" y2="68" stroke="#B7B7B7" stroke-width="0.5"/>
<line x1="54" y1="61.75" x2="122" y2="61.75" stroke="#B7B7B7" stroke-width="0.5"/>
<line x1="54" y1="54.75" x2="122" y2="54.75" stroke="#B7B7B7" stroke-width="0.5"/>
<line x1="54" y1="47.75" x2="122" y2="47.75" stroke="#B7B7B7" stroke-width="0.5"/>
<line x1="54" y1="40.75" x2="122" y2="40.75" stroke="#B7B7B7" stroke-width="0.5"/>
<line x1="54" y1="33.75" x2="122" y2="33.75" stroke="#B7B7B7" stroke-width="0.5"/>
<line x1="54" y1="26.75" x2="122" y2="26.75" stroke="#B7B7B7" stroke-width="0.5"/>
<line x1="54" y1="19.75" x2="122" y2="19.75" stroke="#B7B7B7" stroke-width="0.5"/>
<line x1="54" y1="12.75" x2="122" y2="12.75" stroke="#B7B7B7" stroke-width="0.5"/>
<line x1="54" y1="5.75" x2="122" y2="5.75" stroke="#B7B7B7" stroke-width="0.5"/>
<rect x="46" y="8" width="68" height="68" fill="#70D84B"/>
<line x1="52.25" y1="8" x2="52.25" y2="76" stroke="#B7B7B7" stroke-width="0.5"/>
<line x1="59.25" y1="8" x2="59.25" y2="76" stroke="#B7B7B7" stroke-width="0.5"/>
<line x1="66.25" y1="8" x2="66.25" y2="76" stroke="#B7B7B7" stroke-width="0.5"/>
<line x1="73.25" y1="8" x2="73.25" y2="76" stroke="#B7B7B7" stroke-width="0.5"/>
<line x1="80.25" y1="8" x2="80.25" y2="76" stroke="#B7B7B7" stroke-width="0.5"/>
<line x1="87.25" y1="8" x2="87.25" y2="76" stroke="#B7B7B7" stroke-width="0.5"/>
<line x1="94.25" y1="8" x2="94.25" y2="76" stroke="#B7B7B7" stroke-width="0.5"/>
<line x1="101.25" y1="8" x2="101.25" y2="76" stroke="#B7B7B7" stroke-width="0.5"/>
<line x1="108.25" y1="8" x2="108.25" y2="76" stroke="#B7B7B7" stroke-width="0.5"/>
<line x1="46" y1="69.75" x2="114" y2="69.75" stroke="#B7B7B7" stroke-width="0.5"/>
<line x1="46" y1="62.75" x2="114" y2="62.75" stroke="#B7B7B7" stroke-width="0.5"/>
<line x1="46" y1="55.75" x2="114" y2="55.75" stroke="#B7B7B7" stroke-width="0.5"/>
<line x1="46" y1="48.75" x2="114" y2="48.75" stroke="#B7B7B7" stroke-width="0.5"/>
<line x1="46" y1="41.75" x2="114" y2="41.75" stroke="#B7B7B7" stroke-width="0.5"/>
<line x1="46" y1="34.75" x2="114" y2="34.75" stroke="#B7B7B7" stroke-width="0.5"/>
<line x1="46" y1="27.75" x2="114" y2="27.75" stroke="#B7B7B7" stroke-width="0.5"/>
<line x1="46" y1="20.75" x2="114" y2="20.75" stroke="#B7B7B7" stroke-width="0.5"/>
<line x1="46" y1="13.75" x2="114" y2="13.75" stroke="#B7B7B7" stroke-width="0.5"/>
<rect x="39" y="17" width="68" height="68" fill="#FD5555"/>
<line x1="45.25" y1="17" x2="45.25" y2="85" stroke="#B7B7B7" stroke-width="0.5"/>
<line x1="52.25" y1="17" x2="52.25" y2="85" stroke="#B7B7B7" stroke-width="0.5"/>
<line x1="59.25" y1="17" x2="59.25" y2="85" stroke="#B7B7B7" stroke-width="0.5"/>
<line x1="66.25" y1="17" x2="66.25" y2="85" stroke="#B7B7B7" stroke-width="0.5"/>
<line x1="73.25" y1="17" x2="73.25" y2="85" stroke="#B7B7B7" stroke-width="0.5"/>
<line x1="80.25" y1="17" x2="80.25" y2="85" stroke="#B7B7B7" stroke-width="0.5"/>
<line x1="87.25" y1="17" x2="87.25" y2="85" stroke="#B7B7B7" stroke-width="0.5"/>
<line x1="94.25" y1="17" x2="94.25" y2="85" stroke="#B7B7B7" stroke-width="0.5"/>
<line x1="101.25" y1="17" x2="101.25" y2="85" stroke="#B7B7B7" stroke-width="0.5"/>
<line x1="39" y1="78.75" x2="107" y2="78.75" stroke="#B7B7B7" stroke-width="0.5"/>
<line x1="39" y1="71.75" x2="107" y2="71.75" stroke="#B7B7B7" stroke-width="0.5"/>
<line x1="39" y1="64.75" x2="107" y2="64.75" stroke="#B7B7B7" stroke-width="0.5"/>
<line x1="39" y1="57.75" x2="107" y2="57.75" stroke="#B7B7B7" stroke-width="0.5"/>
<line x1="39" y1="50.75" x2="107" y2="50.75" stroke="#B7B7B7" stroke-width="0.5"/>
<line x1="39" y1="43.75" x2="107" y2="43.75" stroke="#B7B7B7" stroke-width="0.5"/>
<line x1="39" y1="36.75" x2="107" y2="36.75" stroke="#B7B7B7" stroke-width="0.5"/>
<line x1="39" y1="29.75" x2="107" y2="29.75" stroke="#B7B7B7" stroke-width="0.5"/>
<line x1="39" y1="22.75" x2="107" y2="22.75" stroke="#B7B7B7" stroke-width="0.5"/>
<path d="M1.12074 47.7273L1.72159 48.8714L2.33736 47.7273H3.26847L2.32031 49.3636L3.29403 51H2.36719L1.72159 49.8686L1.08665 51H0.149148L1.12074 49.3636L0.183239 47.7273H1.12074ZM5.72674 50.4929C5.58612 50.4929 5.46538 50.4432 5.36452 50.3438C5.26509 50.2443 5.21538 50.1236 5.21538 49.9815C5.21538 49.8423 5.26509 49.723 5.36452 49.6236C5.46538 49.5241 5.58612 49.4744 5.72674 49.4744C5.8631 49.4744 5.98242 49.5241 6.08469 49.6236C6.18697 49.723 6.2381 49.8423 6.2381 49.9815C6.2381 50.0753 6.21396 50.1612 6.16566 50.2393C6.11879 50.3161 6.057 50.3778 5.98029 50.4247C5.90359 50.4702 5.81907 50.4929 5.72674 50.4929ZM5.72674 48.3516C5.58612 48.3516 5.46538 48.3018 5.36452 48.2024C5.26509 48.103 5.21538 47.9822 5.21538 47.8402C5.21538 47.701 5.26509 47.5824 5.36452 47.4844C5.46538 47.3849 5.58612 47.3352 5.72674 47.3352C5.8631 47.3352 5.98242 47.3849 6.08469 47.4844C6.18697 47.5824 6.2381 47.701 6.2381 47.8402C6.2381 47.9354 6.21396 48.022 6.16566 48.1001C6.11879 48.1768 6.057 48.2379 5.98029 48.2834C5.90359 48.3288 5.81907 48.3516 5.72674 48.3516ZM10.2619 46.6364V51H9.33931V47.5121H9.31374L8.31445 48.1385V47.3203L9.39471 46.6364H10.2619ZM13.0099 51.0959C12.6435 51.0945 12.3281 51.0043 12.0639 50.8253C11.8011 50.6463 11.5987 50.3871 11.4567 50.0476C11.3161 49.7081 11.2464 49.2997 11.2479 48.8224C11.2479 48.3466 11.3182 47.9411 11.4588 47.6058C11.6009 47.2706 11.8033 47.0156 12.0661 46.8409C12.3303 46.6648 12.6449 46.5767 13.0099 46.5767C13.375 46.5767 13.6889 46.6648 13.9517 46.8409C14.2159 47.017 14.419 47.2727 14.5611 47.608C14.7031 47.9418 14.7734 48.3466 14.772 48.8224C14.772 49.3011 14.701 49.7102 14.5589 50.0497C14.4183 50.3892 14.2166 50.6484 13.9538 50.8274C13.6911 51.0064 13.3764 51.0959 13.0099 51.0959ZM13.0099 50.331C13.2599 50.331 13.4595 50.2053 13.6087 49.9538C13.7578 49.7024 13.8317 49.3253 13.8303 48.8224C13.8303 48.4915 13.7962 48.2159 13.728 47.9957C13.6612 47.7756 13.5661 47.6101 13.4425 47.4993C13.3203 47.3885 13.1761 47.3331 13.0099 47.3331C12.7614 47.3331 12.5625 47.4574 12.4134 47.706C12.2642 47.9545 12.1889 48.3267 12.1875 48.8224C12.1875 49.1577 12.2209 49.4375 12.2876 49.6619C12.3558 49.8849 12.4517 50.0526 12.5753 50.1648C12.6989 50.2756 12.8438 50.331 13.0099 50.331ZM15.4384 52.2273V47.7273H16.3333V48.277H16.3738C16.4135 48.1889 16.4711 48.0994 16.5463 48.0085C16.623 47.9162 16.7225 47.8395 16.8446 47.7784C16.9682 47.7159 17.1216 47.6847 17.3049 47.6847C17.5435 47.6847 17.7637 47.7472 17.9654 47.8722C18.1671 47.9957 18.3283 48.1825 18.449 48.4325C18.5698 48.6811 18.6301 48.9929 18.6301 49.3679C18.6301 49.733 18.5712 50.0412 18.4533 50.2926C18.3368 50.5426 18.1777 50.7322 17.976 50.8615C17.7757 50.9893 17.5513 51.0533 17.3027 51.0533C17.1266 51.0533 16.9767 51.0241 16.8532 50.9659C16.731 50.9077 16.6309 50.8345 16.5527 50.7464C16.4746 50.657 16.415 50.5668 16.3738 50.4759H16.3461V52.2273H15.4384ZM16.3269 49.3636C16.3269 49.5582 16.3539 49.728 16.4078 49.8729C16.4618 50.0178 16.54 50.1307 16.6422 50.2116C16.7445 50.2912 16.8688 50.331 17.0151 50.331C17.1628 50.331 17.2878 50.2905 17.3901 50.2095C17.4924 50.1271 17.5698 50.0135 17.6223 49.8686C17.6763 49.7223 17.7033 49.554 17.7033 49.3636C17.7033 49.1747 17.677 49.0085 17.6245 48.8651C17.5719 48.7216 17.4945 48.6094 17.3922 48.5284C17.29 48.4474 17.1642 48.407 17.0151 48.407C16.8674 48.407 16.7424 48.446 16.6401 48.5241C16.5392 48.6023 16.4618 48.7131 16.4078 48.8565C16.3539 49 16.3269 49.169 16.3269 49.3636ZM19.2353 51V47.7273H20.1429V51H19.2353ZM19.6912 47.3054C19.5563 47.3054 19.4405 47.2607 19.3439 47.1712C19.2488 47.0803 19.2012 46.9716 19.2012 46.8452C19.2012 46.7202 19.2488 46.6129 19.3439 46.5234C19.4405 46.4325 19.5563 46.3871 19.6912 46.3871C19.8262 46.3871 19.9412 46.4325 20.0364 46.5234C20.133 46.6129 20.1813 46.7202 20.1813 46.8452C20.1813 46.9716 20.133 47.0803 20.0364 47.1712C19.9412 47.2607 19.8262 47.3054 19.6912 47.3054ZM21.6286 47.7273L22.2294 48.8714L22.8452 47.7273H23.7763L22.8281 49.3636L23.8018 51H22.875L22.2294 49.8686L21.5945 51H20.657L21.6286 49.3636L20.6911 47.7273H21.6286ZM25.6896 51.0639C25.353 51.0639 25.0632 50.9957 24.8203 50.8594C24.5788 50.7216 24.3928 50.527 24.2621 50.2756C24.1314 50.0227 24.0661 49.7237 24.0661 49.3786C24.0661 49.0419 24.1314 48.7464 24.2621 48.4922C24.3928 48.2379 24.5767 48.0398 24.8139 47.8977C25.0526 47.7557 25.3324 47.6847 25.6534 47.6847C25.8693 47.6847 26.0703 47.7195 26.2564 47.7891C26.4439 47.8572 26.6072 47.9602 26.7464 48.098C26.8871 48.2358 26.9964 48.4091 27.0746 48.6179C27.1527 48.8253 27.1918 49.0682 27.1918 49.3466V49.5959H24.4283V49.0334H26.3374C26.3374 48.9027 26.3089 48.7869 26.2521 48.6861C26.1953 48.5852 26.1165 48.5064 26.0156 48.4496C25.9162 48.3913 25.8004 48.3622 25.6683 48.3622C25.5305 48.3622 25.4084 48.3942 25.3018 48.4581C25.1967 48.5206 25.1143 48.6051 25.0547 48.7116C24.995 48.8168 24.9645 48.9339 24.9631 49.0632V49.598C24.9631 49.7599 24.9929 49.8999 25.0526 50.0178C25.1136 50.1357 25.1996 50.2266 25.3104 50.2905C25.4212 50.3544 25.5526 50.3864 25.7045 50.3864C25.8054 50.3864 25.8977 50.3722 25.9815 50.3438C26.0653 50.3153 26.1371 50.2727 26.1967 50.2159C26.2564 50.1591 26.3018 50.0895 26.3331 50.0071L27.1726 50.0625C27.13 50.2642 27.0426 50.4403 26.9105 50.5909C26.7798 50.7401 26.6108 50.8565 26.4034 50.9403C26.1974 51.0227 25.9595 51.0639 25.6896 51.0639ZM28.6918 46.6364V51H27.7841V46.6364H28.6918ZM32.1419 48.6605L31.3109 48.7116C31.2967 48.6406 31.2662 48.5767 31.2193 48.5199C31.1724 48.4616 31.1106 48.4155 31.0339 48.3814C30.9586 48.3459 30.8684 48.3281 30.7633 48.3281C30.6227 48.3281 30.5041 48.358 30.4075 48.4176C30.3109 48.4759 30.2626 48.554 30.2626 48.652C30.2626 48.7301 30.2939 48.7962 30.3564 48.8501C30.4189 48.9041 30.5261 48.9474 30.6781 48.9801L31.2704 49.0994C31.5886 49.1648 31.8258 49.2699 31.9821 49.4148C32.1383 49.5597 32.2164 49.75 32.2164 49.9858C32.2164 50.2003 32.1532 50.3885 32.0268 50.5504C31.9018 50.7124 31.7299 50.8388 31.5112 50.9297C31.2939 51.0192 31.0431 51.0639 30.7591 51.0639C30.3258 51.0639 29.9806 50.9737 29.7235 50.7933C29.4679 50.6115 29.318 50.3643 29.274 50.0518L30.1667 50.005C30.1937 50.1371 30.2591 50.2379 30.3627 50.3075C30.4664 50.3757 30.5993 50.4098 30.7612 50.4098C30.9203 50.4098 31.0481 50.3793 31.1447 50.3182C31.2427 50.2557 31.2924 50.1754 31.2939 50.0774C31.2924 49.995 31.2576 49.9276 31.1895 49.875C31.1213 49.821 31.0162 49.7798 30.8741 49.7514L30.3074 49.6385C29.9877 49.5746 29.7498 49.4638 29.5936 49.3061C29.4387 49.1484 29.3613 48.9474 29.3613 48.7031C29.3613 48.4929 29.4181 48.3118 29.5318 48.1598C29.6468 48.0078 29.8081 47.8906 30.0154 47.8082C30.2243 47.7259 30.4686 47.6847 30.7484 47.6847C31.1618 47.6847 31.487 47.772 31.7243 47.9467C31.9629 48.1214 32.1021 48.3594 32.1419 48.6605Z" fill="white"/>
<path d="M59.9226 96.2273C59.8075 96.2273 59.6996 96.218 59.5987 96.1996C59.4993 96.1825 59.4169 96.1605 59.3516 96.1335L59.5561 95.456C59.6626 95.4886 59.7585 95.5064 59.8438 95.5092C59.9304 95.5121 60.005 95.4922 60.0675 95.4496C60.1314 95.407 60.1832 95.3345 60.223 95.2322L60.2763 95.0938L59.1023 91.7273H60.0568L60.7344 94.1307H60.7685L61.4524 91.7273H62.4134L61.1413 95.3537C61.0803 95.5298 60.9972 95.6832 60.892 95.8139C60.7884 95.946 60.657 96.0476 60.4979 96.1186C60.3388 96.1911 60.147 96.2273 59.9226 96.2273ZM64.7971 94.4929C64.6564 94.4929 64.5357 94.4432 64.4348 94.3438C64.3354 94.2443 64.2857 94.1236 64.2857 93.9815C64.2857 93.8423 64.3354 93.723 64.4348 93.6236C64.5357 93.5241 64.6564 93.4744 64.7971 93.4744C64.9334 93.4744 65.0527 93.5241 65.155 93.6236C65.2573 93.723 65.3084 93.8423 65.3084 93.9815C65.3084 94.0753 65.2843 94.1612 65.236 94.2393C65.1891 94.3161 65.1273 94.3778 65.0506 94.4247C64.9739 94.4702 64.8894 94.4929 64.7971 94.4929ZM64.7971 92.3516C64.6564 92.3516 64.5357 92.3018 64.4348 92.2024C64.3354 92.103 64.2857 91.9822 64.2857 91.8402C64.2857 91.701 64.3354 91.5824 64.4348 91.4844C64.5357 91.3849 64.6564 91.3352 64.7971 91.3352C64.9334 91.3352 65.0527 91.3849 65.155 91.4844C65.2573 91.5824 65.3084 91.701 65.3084 91.8402C65.3084 91.9354 65.2843 92.022 65.236 92.1001C65.1891 92.1768 65.1273 92.2379 65.0506 92.2834C64.9739 92.3288 64.8894 92.3516 64.7971 92.3516ZM69.3322 90.6364V95H68.4096V91.5121H68.3841L67.3848 92.1385V91.3203L68.465 90.6364H69.3322ZM72.0803 95.0959C71.7138 95.0945 71.3984 95.0043 71.1342 94.8253C70.8714 94.6463 70.669 94.3871 70.527 94.0476C70.3864 93.7081 70.3168 93.2997 70.3182 92.8224C70.3182 92.3466 70.3885 91.9411 70.5291 91.6058C70.6712 91.2706 70.8736 91.0156 71.1364 90.8409C71.4006 90.6648 71.7152 90.5767 72.0803 90.5767C72.4453 90.5767 72.7592 90.6648 73.022 90.8409C73.2862 91.017 73.4893 91.2727 73.6314 91.608C73.7734 91.9418 73.8438 92.3466 73.8423 92.8224C73.8423 93.3011 73.7713 93.7102 73.6293 94.0497C73.4886 94.3892 73.2869 94.6484 73.0241 94.8274C72.7614 95.0064 72.4467 95.0959 72.0803 95.0959ZM72.0803 94.331C72.3303 94.331 72.5298 94.2053 72.679 93.9538C72.8281 93.7024 72.902 93.3253 72.9006 92.8224C72.9006 92.4915 72.8665 92.2159 72.7983 91.9957C72.7315 91.7756 72.6364 91.6101 72.5128 91.4993C72.3906 91.3885 72.2464 91.3331 72.0803 91.3331C71.8317 91.3331 71.6328 91.4574 71.4837 91.706C71.3345 91.9545 71.2592 92.3267 71.2578 92.8224C71.2578 93.1577 71.2912 93.4375 71.358 93.6619C71.4261 93.8849 71.522 94.0526 71.6456 94.1648C71.7692 94.2756 71.9141 94.331 72.0803 94.331ZM74.5087 96.2273V91.7273H75.4036V92.277H75.4441C75.4838 92.1889 75.5414 92.0994 75.6167 92.0085C75.6934 91.9162 75.7928 91.8395 75.915 91.7784C76.0385 91.7159 76.1919 91.6847 76.3752 91.6847C76.6138 91.6847 76.834 91.7472 77.0357 91.8722C77.2374 91.9957 77.3986 92.1825 77.5194 92.4325C77.6401 92.6811 77.7005 92.9929 77.7005 93.3679C77.7005 93.733 77.6415 94.0412 77.5236 94.2926C77.4071 94.5426 77.248 94.7322 77.0463 94.8615C76.8461 94.9893 76.6216 95.0533 76.373 95.0533C76.1969 95.0533 76.0471 95.0241 75.9235 94.9659C75.8013 94.9077 75.7012 94.8345 75.623 94.7464C75.5449 94.657 75.4853 94.5668 75.4441 94.4759H75.4164V96.2273H74.5087ZM75.3972 93.3636C75.3972 93.5582 75.4242 93.728 75.4782 93.8729C75.5321 94.0178 75.6103 94.1307 75.7125 94.2116C75.8148 94.2912 75.9391 94.331 76.0854 94.331C76.2331 94.331 76.3581 94.2905 76.4604 94.2095C76.5627 94.1271 76.6401 94.0135 76.6926 93.8686C76.7466 93.7223 76.7736 93.554 76.7736 93.3636C76.7736 93.1747 76.7473 93.0085 76.6948 92.8651C76.6422 92.7216 76.5648 92.6094 76.4625 92.5284C76.3603 92.4474 76.2346 92.407 76.0854 92.407C75.9377 92.407 75.8127 92.446 75.7104 92.5241C75.6096 92.6023 75.5321 92.7131 75.4782 92.8565C75.4242 93 75.3972 93.169 75.3972 93.3636ZM78.3056 95V91.7273H79.2132V95H78.3056ZM78.7615 91.3054C78.6266 91.3054 78.5108 91.2607 78.4142 91.1712C78.3191 91.0803 78.2715 90.9716 78.2715 90.8452C78.2715 90.7202 78.3191 90.6129 78.4142 90.5234C78.5108 90.4325 78.6266 90.3871 78.7615 90.3871C78.8965 90.3871 79.0115 90.4325 79.1067 90.5234C79.2033 90.6129 79.2516 90.7202 79.2516 90.8452C79.2516 90.9716 79.2033 91.0803 79.1067 91.1712C79.0115 91.2607 78.8965 91.3054 78.7615 91.3054ZM80.6989 91.7273L81.2997 92.8714L81.9155 91.7273H82.8466L81.8984 93.3636L82.8722 95H81.9453L81.2997 93.8686L80.6648 95H79.7273L80.6989 93.3636L79.7614 91.7273H80.6989ZM84.7599 95.0639C84.4233 95.0639 84.1335 94.9957 83.8906 94.8594C83.6491 94.7216 83.4631 94.527 83.3324 94.2756C83.2017 94.0227 83.1364 93.7237 83.1364 93.3786C83.1364 93.0419 83.2017 92.7464 83.3324 92.4922C83.4631 92.2379 83.647 92.0398 83.8842 91.8977C84.1229 91.7557 84.4027 91.6847 84.7237 91.6847C84.9396 91.6847 85.1406 91.7195 85.3267 91.7891C85.5142 91.8572 85.6776 91.9602 85.8168 92.098C85.9574 92.2358 86.0668 92.4091 86.1449 92.6179C86.223 92.8253 86.2621 93.0682 86.2621 93.3466V93.5959H83.4986V93.0334H85.4077C85.4077 92.9027 85.3793 92.7869 85.3224 92.6861C85.2656 92.5852 85.1868 92.5064 85.0859 92.4496C84.9865 92.3913 84.8707 92.3622 84.7386 92.3622C84.6009 92.3622 84.4787 92.3942 84.3722 92.4581C84.267 92.5206 84.1847 92.6051 84.125 92.7116C84.0653 92.8168 84.0348 92.9339 84.0334 93.0632V93.598C84.0334 93.7599 84.0632 93.8999 84.1229 94.0178C84.1839 94.1357 84.2699 94.2266 84.3807 94.2905C84.4915 94.3544 84.6229 94.3864 84.7749 94.3864C84.8757 94.3864 84.968 94.3722 85.0518 94.3438C85.1357 94.3153 85.2074 94.2727 85.267 94.2159C85.3267 94.1591 85.3722 94.0895 85.4034 94.0071L86.2429 94.0625C86.2003 94.2642 86.1129 94.4403 85.9808 94.5909C85.8501 94.7401 85.6811 94.8565 85.4737 94.9403C85.2678 95.0227 85.0298 95.0639 84.7599 95.0639ZM87.7621 90.6364V95H86.8544V90.6364H87.7621ZM91.2122 92.6605L90.3812 92.7116C90.367 92.6406 90.3365 92.5767 90.2896 92.5199C90.2427 92.4616 90.1809 92.4155 90.1042 92.3814C90.0289 92.3459 89.9387 92.3281 89.8336 92.3281C89.693 92.3281 89.5744 92.358 89.4778 92.4176C89.3812 92.4759 89.3329 92.554 89.3329 92.652C89.3329 92.7301 89.3642 92.7962 89.4267 92.8501C89.4892 92.9041 89.5964 92.9474 89.7484 92.9801L90.3407 93.0994C90.6589 93.1648 90.8961 93.2699 91.0524 93.4148C91.2086 93.5597 91.2868 93.75 91.2868 93.9858C91.2868 94.2003 91.2235 94.3885 91.0971 94.5504C90.9721 94.7124 90.8002 94.8388 90.5815 94.9297C90.3642 95.0192 90.1135 95.0639 89.8294 95.0639C89.3961 95.0639 89.051 94.9737 88.7939 94.7933C88.5382 94.6115 88.3883 94.3643 88.3443 94.0518L89.237 94.005C89.264 94.1371 89.3294 94.2379 89.4331 94.3075C89.5368 94.3757 89.6696 94.4098 89.8315 94.4098C89.9906 94.4098 90.1184 94.3793 90.215 94.3182C90.313 94.2557 90.3627 94.1754 90.3642 94.0774C90.3627 93.995 90.3279 93.9276 90.2598 93.875C90.1916 93.821 90.0865 93.7798 89.9444 93.7514L89.3777 93.6385C89.0581 93.5746 88.8201 93.4638 88.6639 93.3061C88.5091 93.1484 88.4316 92.9474 88.4316 92.7031C88.4316 92.4929 88.4885 92.3118 88.6021 92.1598C88.7172 92.0078 88.8784 91.8906 89.0858 91.8082C89.2946 91.7259 89.5389 91.6847 89.8187 91.6847C90.2321 91.6847 90.5574 91.772 90.7946 91.9467C91.0332 92.1214 91.1724 92.3594 91.2122 92.6605Z" fill="white"/>
</svg>
