<svg width="92" height="67" viewBox="0 0 92 67" fill="none" xmlns="http://www.w3.org/2000/svg">
<rect x="2.48148" y="32.2588" width="17.3704" height="17.3704" fill="#FD5555"/>
<rect x="37.2222" y="32.2588" width="17.3704" height="17.3704" fill="#70D84B"/>
<rect x="71.963" y="32.2588" width="17.3704" height="17.3704" fill="#5D91F5"/>
<path d="M12.1896 14V3.17172H16.0493C16.8918 3.17172 17.5897 3.32505 18.1431 3.63171C18.6965 3.93837 19.1106 4.35782 19.3856 4.89007C19.6605 5.4188 19.798 6.01449 19.798 6.67716C19.798 7.34336 19.6587 7.94258 19.3803 8.47483C19.1054 9.00355 18.6894 9.42301 18.1325 9.73319C17.5791 10.0399 16.8829 10.1932 16.044 10.1932H13.3898V8.80792H15.896C16.4282 8.80792 16.86 8.71628 17.1914 8.53299C17.5227 8.34617 17.7659 8.09238 17.921 7.77162C18.0761 7.45086 18.1536 7.08604 18.1536 6.67716C18.1536 6.26828 18.0761 5.90522 17.921 5.58799C17.7659 5.27075 17.5209 5.02225 17.1861 4.84249C16.8547 4.66272 16.4177 4.57284 15.8748 4.57284H13.8234V14H12.1896ZM21.5864 14V5.87879H23.1673V14H21.5864ZM22.3848 4.62571C22.1098 4.62571 21.8737 4.53406 21.6763 4.35077C21.4824 4.16396 21.3855 3.94189 21.3855 3.68458C21.3855 3.42374 21.4824 3.20168 21.6763 3.01839C21.8737 2.83157 22.1098 2.73816 22.3848 2.73816C22.6597 2.73816 22.8941 2.83157 23.088 3.01839C23.2854 3.20168 23.3841 3.42374 23.3841 3.68458C23.3841 3.94189 23.2854 4.16396 23.088 4.35077C22.8941 4.53406 22.6597 4.62571 22.3848 4.62571ZM26.5419 5.87879L28.3342 9.04056L30.1425 5.87879H31.8714L29.3388 9.93939L31.8926 14H30.1636L28.3342 10.9651L26.5101 14H24.7759L27.3032 9.93939L24.8076 5.87879H26.5419ZM36.6749 14.1639C35.8747 14.1639 35.1856 13.993 34.6076 13.651C34.033 13.3056 33.5889 12.8209 33.2752 12.197C32.965 11.5696 32.8099 10.8347 32.8099 9.99227C32.8099 9.16041 32.965 8.42724 33.2752 7.79277C33.5889 7.1583 34.026 6.66306 34.5864 6.30705C35.1504 5.95105 35.8095 5.77304 36.5638 5.77304C37.0221 5.77304 37.4662 5.84883 37.8962 6.00039C38.3263 6.15196 38.7122 6.38989 39.0541 6.71417C39.396 7.03846 39.6657 7.45967 39.8631 7.97783C40.0605 8.49245 40.1592 9.11811 40.1592 9.8548V10.4152H33.7034V9.2309H38.61C38.61 8.81497 38.5254 8.44663 38.3562 8.12587C38.187 7.80158 37.9491 7.54603 37.6424 7.35922C37.3393 7.1724 36.9833 7.07899 36.5744 7.07899C36.1303 7.07899 35.7426 7.18826 35.4112 7.4068C35.0834 7.62182 34.8296 7.9038 34.6499 8.25276C34.4736 8.5982 34.3855 8.97359 34.3855 9.37895V10.3042C34.3855 10.847 34.4807 11.3088 34.671 11.6895C34.8649 12.0702 35.1345 12.361 35.48 12.5619C35.8254 12.7593 36.229 12.858 36.6907 12.858C36.9903 12.858 37.2635 12.8157 37.5103 12.7311C37.757 12.6429 37.9702 12.5125 38.15 12.3398C38.3298 12.1671 38.4673 11.9538 38.5624 11.7L40.0587 11.9697C39.9389 12.4103 39.7239 12.7963 39.4137 13.1276C39.107 13.4554 38.721 13.711 38.2558 13.8943C37.794 14.074 37.267 14.1639 36.6749 14.1639ZM43.4941 3.17172V14H41.9132V3.17172H43.4941ZM50.6028 14.1005C50.3138 14.1005 50.0653 13.9982 49.8573 13.7938C49.6493 13.5858 49.5454 13.3356 49.5454 13.043C49.5454 12.754 49.6493 12.5072 49.8573 12.3028C50.0653 12.0948 50.3138 11.9908 50.6028 11.9908C50.8918 11.9908 51.1403 12.0948 51.3483 12.3028C51.5563 12.5072 51.6603 12.754 51.6603 13.043C51.6603 13.2369 51.6109 13.4149 51.5122 13.577C51.417 13.7356 51.2901 13.8625 51.1315 13.9577C50.9729 14.0529 50.7967 14.1005 50.6028 14.1005ZM50.6028 8.18931C50.3138 8.18931 50.0653 8.08533 49.8573 7.87737C49.6493 7.6694 49.5454 7.4209 49.5454 7.13187C49.5454 6.84283 49.6493 6.59609 49.8573 6.39165C50.0653 6.18369 50.3138 6.0797 50.6028 6.0797C50.8918 6.0797 51.1403 6.18369 51.3483 6.39165C51.5563 6.59609 51.6603 6.84283 51.6603 7.13187C51.6603 7.32573 51.6109 7.50374 51.5122 7.66588C51.417 7.82449 51.2901 7.95139 51.1315 8.04656C50.9729 8.14173 50.7967 8.18931 50.6028 8.18931ZM57.9954 2.78867H65.2165V3.80111H57.9954V2.78867ZM57.772 9.05689L57.6232 8.01467C59.9756 8.01467 63.1916 7.98489 65.8567 7.65733L65.9609 8.58044C63.2214 9.01222 60.0798 9.05689 57.772 9.05689ZM59.3205 3.50333H60.5116V8.372H59.3205V3.50333ZM62.6854 3.50333H63.8914V8.372H62.6854V3.50333ZM59.4396 10.5309H68.4325V15.1613H67.1818V11.5433H59.4396V10.5309ZM67.1818 1.70178H68.4325V9.86089H67.1818V1.70178ZM76.5755 4.218H79.1662V5.24533H76.5755V4.218ZM73.8807 2.26756H74.8484V3.62244C74.8484 5.70689 73.7169 7.85089 71.7664 8.75911L71.0964 7.82111C72.8533 7.032 73.8807 5.23044 73.8807 3.62244V2.26756ZM74.1189 2.26756H75.0718V3.682C75.0718 5.21556 76.0395 6.74911 77.6922 7.41911L77.052 8.372C75.1313 7.568 74.1189 5.67711 74.1189 3.682V2.26756ZM81.2507 1.71667H82.4269V8.87822H81.2507V1.71667ZM78.6153 1.95489H79.7915V8.75911H78.6153V1.95489ZM73.5531 9.48867H82.4269V12.6302H74.8038V14.6104H73.5829V11.7071H81.2358V10.4713H73.5531V9.48867ZM73.5829 14.0298H82.948V15.0124H73.5829V14.0298Z" fill="white"/>
<path d="M2.32639 64.1482C1.92808 64.1482 1.58882 64.0399 1.30859 63.8231C1.02837 63.6045 0.814236 63.2882 0.666193 62.874C0.51815 62.4581 0.444129 61.9558 0.444129 61.3671C0.444129 60.782 0.51815 60.2824 0.666193 59.8682C0.815999 59.4523 1.03101 59.135 1.31124 58.9165C1.59322 58.6962 1.93161 58.5861 2.32639 58.5861C2.72117 58.5861 3.05867 58.6962 3.3389 58.9165C3.62088 59.135 3.8359 59.4523 3.98394 59.8682C4.13375 60.2824 4.20865 60.782 4.20865 61.3671C4.20865 61.9558 4.13463 62.4581 3.98658 62.874C3.83854 63.2882 3.62441 63.6045 3.34418 63.8231C3.06396 64.0399 2.72469 64.1482 2.32639 64.1482ZM2.32639 63.5666C2.72117 63.5666 3.02783 63.3763 3.24637 62.9956C3.46491 62.6149 3.57418 62.0721 3.57418 61.3671C3.57418 60.8983 3.52395 60.4992 3.42349 60.1696C3.3248 59.84 3.18204 59.5889 2.99523 59.4162C2.81017 59.2434 2.58723 59.1571 2.32639 59.1571C1.93513 59.1571 1.62935 59.3501 1.40905 59.736C1.18875 60.1202 1.0786 60.6639 1.0786 61.3671C1.0786 61.836 1.12795 62.2343 1.22664 62.5621C1.32534 62.8899 1.46721 63.1393 1.65226 63.3102C1.83908 63.4812 2.06379 63.5666 2.32639 63.5666ZM7.55019 61.0763V61.6579H5.1815V61.0763H7.55019ZM8.38293 64.0742V63.5984L10.17 61.6421C10.3797 61.413 10.5525 61.2138 10.6882 61.0446C10.8239 60.8737 10.9243 60.7133 10.9895 60.5635C11.0565 60.4119 11.09 60.2533 11.09 60.0876C11.09 59.8973 11.0442 59.7325 10.9525 59.5933C10.8626 59.454 10.7393 59.3465 10.5824 59.2708C10.4256 59.195 10.2493 59.1571 10.0537 59.1571C9.84574 59.1571 9.66421 59.2003 9.50911 59.2866C9.35578 59.3712 9.23682 59.4902 9.15222 59.6435C9.06939 59.7968 9.02797 59.9766 9.02797 60.1828H8.40408C8.40408 59.8656 8.47722 59.5871 8.6235 59.3474C8.76978 59.1077 8.96893 58.9209 9.22096 58.787C9.47475 58.653 9.75938 58.5861 10.0748 58.5861C10.3921 58.5861 10.6732 58.653 10.9182 58.787C11.1631 58.9209 11.3552 59.1016 11.4945 59.3289C11.6337 59.5563 11.7033 59.8092 11.7033 60.0876C11.7033 60.2868 11.6672 60.4815 11.5949 60.6719C11.5244 60.8605 11.4011 61.0711 11.2248 61.3037C11.0503 61.5346 10.808 61.8166 10.4978 62.1497L9.28176 63.4503V63.4926H11.7985V64.0742H8.38293ZM14.5822 64.1482C14.272 64.1482 13.9927 64.0866 13.7442 63.9632C13.4957 63.8398 13.2965 63.6706 13.1467 63.4556C12.9969 63.2406 12.915 62.9956 12.9009 62.7207H13.5354C13.56 62.9657 13.6711 63.1683 13.8684 63.3287C14.0676 63.4873 14.3055 63.5666 14.5822 63.5666C14.8043 63.5666 15.0017 63.5147 15.1744 63.4107C15.3489 63.3067 15.4855 63.1639 15.5842 62.9824C15.6846 62.7991 15.7348 62.592 15.7348 62.3612C15.7348 62.125 15.6829 61.9144 15.5789 61.7293C15.4767 61.5425 15.3357 61.3953 15.1559 61.2878C14.9761 61.1803 14.7708 61.1257 14.5399 61.1239C14.3743 61.1222 14.2042 61.1477 14.0297 61.2006C13.8552 61.2517 13.7116 61.3178 13.5988 61.3989L12.9855 61.3249L13.3133 58.6601H16.1261V59.2417H13.8632L13.6728 60.8384H13.7045C13.8156 60.7503 13.9548 60.6772 14.1222 60.619C14.2897 60.5608 14.4641 60.5318 14.6457 60.5318C14.977 60.5318 15.2722 60.6111 15.5313 60.7697C15.7921 60.9265 15.9966 61.1416 16.1446 61.4147C16.2944 61.6879 16.3693 61.9999 16.3693 62.3506C16.3693 62.696 16.2918 63.0044 16.1367 63.2758C15.9833 63.5455 15.7719 63.7587 15.5022 63.9156C15.2326 64.0707 14.9259 64.1482 14.5822 64.1482ZM19.1114 64.1482C18.8012 64.1482 18.5219 64.0866 18.2734 63.9632C18.0249 63.8398 17.8257 63.6706 17.6759 63.4556C17.5261 63.2406 17.4442 62.9956 17.4301 62.7207H18.0645C18.0892 62.9657 18.2002 63.1683 18.3976 63.3287C18.5968 63.4873 18.8347 63.5666 19.1114 63.5666C19.3335 63.5666 19.5309 63.5147 19.7036 63.4107C19.8781 63.3067 20.0147 63.1639 20.1133 62.9824C20.2138 62.7991 20.264 62.592 20.264 62.3612C20.264 62.125 20.212 61.9144 20.1081 61.7293C20.0058 61.5425 19.8648 61.3953 19.6851 61.2878C19.5053 61.1803 19.3 61.1257 19.0691 61.1239C18.9035 61.1222 18.7334 61.1477 18.5589 61.2006C18.3844 61.2517 18.2408 61.3178 18.128 61.3989L17.5147 61.3249L17.8425 58.6601H20.6553V59.2417H18.3924L18.202 60.8384H18.2337C18.3448 60.7503 18.484 60.6772 18.6514 60.619C18.8189 60.5608 18.9933 60.5318 19.1749 60.5318C19.5062 60.5318 19.8014 60.6111 20.0605 60.7697C20.3213 60.9265 20.5258 61.1416 20.6738 61.4147C20.8236 61.6879 20.8985 61.9999 20.8985 62.3506C20.8985 62.696 20.821 63.0044 20.6659 63.2758C20.5125 63.5455 20.301 63.7587 20.0314 63.9156C19.7617 64.0707 19.4551 64.1482 19.1114 64.1482Z" fill="white"/>
<path d="M37.0671 64.1482C36.6688 64.1482 36.3296 64.0399 36.0493 63.8231C35.7691 63.6045 35.555 63.2882 35.4069 62.874C35.2589 62.4581 35.1849 61.9558 35.1849 61.3671C35.1849 60.782 35.2589 60.2824 35.4069 59.8682C35.5568 59.4523 35.7718 59.135 36.052 58.9165C36.334 58.6962 36.6724 58.5861 37.0671 58.5861C37.4619 58.5861 37.7994 58.6962 38.0796 58.9165C38.3616 59.135 38.5767 59.4523 38.7247 59.8682C38.8745 60.2824 38.9494 60.782 38.9494 61.3671C38.9494 61.9558 38.8754 62.4581 38.7273 62.874C38.5793 63.2882 38.3652 63.6045 38.0849 63.8231C37.8047 64.0399 37.4654 64.1482 37.0671 64.1482ZM37.0671 63.5666C37.4619 63.5666 37.7686 63.3763 37.9871 62.9956C38.2057 62.6149 38.3149 62.0721 38.3149 61.3671C38.3149 60.8983 38.2647 60.4992 38.1642 60.1696C38.0656 59.84 37.9228 59.5889 37.736 59.4162C37.5509 59.2434 37.328 59.1571 37.0671 59.1571C36.6759 59.1571 36.3701 59.3501 36.1498 59.736C35.9295 60.1202 35.8194 60.6639 35.8194 61.3671C35.8194 61.836 35.8687 62.2343 35.9674 62.5621C36.0661 62.8899 36.208 63.1393 36.393 63.3102C36.5798 63.4812 36.8045 63.5666 37.0671 63.5666ZM42.2909 61.0763V61.6579H39.9223V61.0763H42.2909ZM43.1237 64.0742V63.5984L44.9108 61.6421C45.1205 61.413 45.2932 61.2138 45.4289 61.0446C45.5646 60.8737 45.6651 60.7133 45.7303 60.5635C45.7973 60.4119 45.8308 60.2533 45.8308 60.0876C45.8308 59.8973 45.7849 59.7325 45.6933 59.5933C45.6034 59.454 45.48 59.3465 45.3232 59.2708C45.1663 59.195 44.9901 59.1571 44.7945 59.1571C44.5865 59.1571 44.405 59.2003 44.2499 59.2866C44.0965 59.3712 43.9776 59.4902 43.893 59.6435C43.8101 59.7968 43.7687 59.9766 43.7687 60.1828H43.1448C43.1448 59.8656 43.218 59.5871 43.3643 59.3474C43.5105 59.1077 43.7097 58.9209 43.9617 58.787C44.2155 58.653 44.5001 58.5861 44.8156 58.5861C45.1328 58.5861 45.4139 58.653 45.6589 58.787C45.9039 58.9209 46.096 59.1016 46.2352 59.3289C46.3745 59.5563 46.4441 59.8092 46.4441 60.0876C46.4441 60.2868 46.4079 60.4815 46.3357 60.6719C46.2652 60.8605 46.1418 61.0711 45.9656 61.3037C45.7911 61.5346 45.5488 61.8166 45.2386 62.1497L44.0225 63.4503V63.4926H46.5392V64.0742H43.1237ZM49.323 64.1482C49.0128 64.1482 48.7335 64.0866 48.485 63.9632C48.2365 63.8398 48.0373 63.6706 47.8875 63.4556C47.7377 63.2406 47.6557 62.9956 47.6416 62.7207H48.2761C48.3008 62.9657 48.4118 63.1683 48.6092 63.3287C48.8084 63.4873 49.0463 63.5666 49.323 63.5666C49.545 63.5666 49.7424 63.5147 49.9152 63.4107C50.0896 63.3067 50.2262 63.1639 50.3249 62.9824C50.4254 62.7991 50.4756 62.592 50.4756 62.3612C50.4756 62.125 50.4236 61.9144 50.3196 61.7293C50.2174 61.5425 50.0764 61.3953 49.8966 61.2878C49.7169 61.1803 49.5116 61.1257 49.2807 61.1239C49.115 61.1222 48.9449 61.1477 48.7705 61.2006C48.596 61.2517 48.4523 61.3178 48.3396 61.3989L47.7262 61.3249L48.054 58.6601H50.8669V59.2417H48.6039L48.4136 60.8384H48.4453C48.5563 60.7503 48.6956 60.6772 48.863 60.619C49.0304 60.5608 49.2049 60.5318 49.3864 60.5318C49.7178 60.5318 50.013 60.6111 50.272 60.7697C50.5329 60.9265 50.7373 61.1416 50.8854 61.4147C51.0352 61.6879 51.1101 61.9999 51.1101 62.3506C51.1101 62.696 51.0325 63.0044 50.8774 63.2758C50.7241 63.5455 50.5126 63.7587 50.243 63.9156C49.9733 64.0707 49.6667 64.1482 49.323 64.1482ZM53.8522 64.1482C53.542 64.1482 53.2626 64.0866 53.0141 63.9632C52.7656 63.8398 52.5665 63.6706 52.4167 63.4556C52.2669 63.2406 52.1849 62.9956 52.1708 62.7207H52.8053C52.83 62.9657 52.941 63.1683 53.1384 63.3287C53.3375 63.4873 53.5755 63.5666 53.8522 63.5666C54.0742 63.5666 54.2716 63.5147 54.4443 63.4107C54.6188 63.3067 54.7554 63.1639 54.8541 62.9824C54.9546 62.7991 55.0048 62.592 55.0048 62.3612C55.0048 62.125 54.9528 61.9144 54.8488 61.7293C54.7466 61.5425 54.6056 61.3953 54.4258 61.2878C54.2461 61.1803 54.0407 61.1257 53.8099 61.1239C53.6442 61.1222 53.4741 61.1477 53.2997 61.2006C53.1252 61.2517 52.9815 61.3178 52.8687 61.3989L52.2554 61.3249L52.5832 58.6601H55.396V59.2417H53.1331L52.9428 60.8384H52.9745C53.0855 60.7503 53.2247 60.6772 53.3922 60.619C53.5596 60.5608 53.7341 60.5318 53.9156 60.5318C54.247 60.5318 54.5422 60.6111 54.8012 60.7697C55.0621 60.9265 55.2665 61.1416 55.4146 61.4147C55.5644 61.6879 55.6393 61.9999 55.6393 62.3506C55.6393 62.696 55.5617 63.0044 55.4066 63.2758C55.2533 63.5455 55.0418 63.7587 54.7722 63.9156C54.5025 64.0707 54.1958 64.1482 53.8522 64.1482Z" fill="white"/>
<path d="M71.8079 64.1482C71.4096 64.1482 71.0703 64.0399 70.7901 63.8231C70.5098 63.6045 70.2957 63.2882 70.1477 62.874C69.9996 62.4581 69.9256 61.9558 69.9256 61.3671C69.9256 60.782 69.9996 60.2824 70.1477 59.8682C70.2975 59.4523 70.5125 59.135 70.7927 58.9165C71.0747 58.6962 71.4131 58.5861 71.8079 58.5861C72.2026 58.5861 72.5401 58.6962 72.8204 58.9165C73.1024 59.135 73.3174 59.4523 73.4654 59.8682C73.6152 60.2824 73.6901 60.782 73.6901 61.3671C73.6901 61.9558 73.6161 62.4581 73.4681 62.874C73.32 63.2882 73.1059 63.6045 72.8257 63.8231C72.5454 64.0399 72.2062 64.1482 71.8079 64.1482ZM71.8079 63.5666C72.2026 63.5666 72.5093 63.3763 72.7278 62.9956C72.9464 62.6149 73.0557 62.0721 73.0557 61.3671C73.0557 60.8983 73.0054 60.4992 72.905 60.1696C72.8063 59.84 72.6635 59.5889 72.4767 59.4162C72.2916 59.2434 72.0687 59.1571 71.8079 59.1571C71.4166 59.1571 71.1108 59.3501 70.8905 59.736C70.6702 60.1202 70.5601 60.6639 70.5601 61.3671C70.5601 61.836 70.6094 62.2343 70.7081 62.5621C70.8068 62.8899 70.9487 63.1393 71.1337 63.3102C71.3206 63.4812 71.5453 63.5666 71.8079 63.5666ZM77.0317 61.0763V61.6579H74.663V61.0763H77.0317ZM77.8644 64.0742V63.5984L79.6515 61.6421C79.8612 61.413 80.0339 61.2138 80.1696 61.0446C80.3054 60.8737 80.4058 60.7133 80.471 60.5635C80.538 60.4119 80.5715 60.2533 80.5715 60.0876C80.5715 59.8973 80.5257 59.7325 80.434 59.5933C80.3441 59.454 80.2208 59.3465 80.0639 59.2708C79.907 59.195 79.7308 59.1571 79.5352 59.1571C79.3272 59.1571 79.1457 59.2003 78.9906 59.2866C78.8373 59.3712 78.7183 59.4902 78.6337 59.6435C78.5509 59.7968 78.5095 59.9766 78.5095 60.1828H77.8856C77.8856 59.8656 77.9587 59.5871 78.105 59.3474C78.2513 59.1077 78.4504 58.9209 78.7024 58.787C78.9562 58.653 79.2409 58.5861 79.5563 58.5861C79.8736 58.5861 80.1547 58.653 80.3996 58.787C80.6446 58.9209 80.8367 59.1016 80.976 59.3289C81.1152 59.5563 81.1848 59.8092 81.1848 60.0876C81.1848 60.2868 81.1487 60.4815 81.0764 60.6719C81.0059 60.8605 80.8825 61.0711 80.7063 61.3037C80.5318 61.5346 80.2895 61.8166 79.9793 62.1497L78.7632 63.4503V63.4926H81.28V64.0742H77.8644ZM84.0637 64.1482C83.7535 64.1482 83.4742 64.0866 83.2257 63.9632C82.9772 63.8398 82.778 63.6706 82.6282 63.4556C82.4784 63.2406 82.3965 62.9956 82.3824 62.7207H83.0168C83.0415 62.9657 83.1525 63.1683 83.3499 63.3287C83.5491 63.4873 83.787 63.5666 84.0637 63.5666C84.2858 63.5666 84.4832 63.5147 84.6559 63.4107C84.8304 63.3067 84.9669 63.1639 85.0656 62.9824C85.1661 62.7991 85.2163 62.592 85.2163 62.3612C85.2163 62.125 85.1643 61.9144 85.0604 61.7293C84.9581 61.5425 84.8171 61.3953 84.6374 61.2878C84.4576 61.1803 84.2523 61.1257 84.0214 61.1239C83.8557 61.1222 83.6857 61.1477 83.5112 61.2006C83.3367 61.2517 83.1931 61.3178 83.0803 61.3989L82.467 61.3249L82.7948 58.6601H85.6076V59.2417H83.3446L83.1543 60.8384H83.186C83.2971 60.7503 83.4363 60.6772 83.6037 60.619C83.7711 60.5608 83.9456 60.5318 84.1272 60.5318C84.4585 60.5318 84.7537 60.6111 85.0128 60.7697C85.2736 60.9265 85.478 61.1416 85.6261 61.4147C85.7759 61.6879 85.8508 61.9999 85.8508 62.3506C85.8508 62.696 85.7732 63.0044 85.6182 63.2758C85.4648 63.5455 85.2533 63.7587 84.9837 63.9156C84.714 64.0707 84.4074 64.1482 84.0637 64.1482ZM88.5929 64.1482C88.2827 64.1482 88.0034 64.0866 87.7549 63.9632C87.5064 63.8398 87.3072 63.6706 87.1574 63.4556C87.0076 63.2406 86.9256 62.9956 86.9115 62.7207H87.546C87.5707 62.9657 87.6817 63.1683 87.8791 63.3287C88.0783 63.4873 88.3162 63.5666 88.5929 63.5666C88.815 63.5666 89.0123 63.5147 89.1851 63.4107C89.3595 63.3067 89.4961 63.1639 89.5948 62.9824C89.6953 62.7991 89.7455 62.592 89.7455 62.3612C89.7455 62.125 89.6935 61.9144 89.5895 61.7293C89.4873 61.5425 89.3463 61.3953 89.1666 61.2878C88.9868 61.1803 88.7815 61.1257 88.5506 61.1239C88.3849 61.1222 88.2149 61.1477 88.0404 61.2006C87.8659 61.2517 87.7223 61.3178 87.6095 61.3989L86.9961 61.3249L87.324 58.6601H90.1368V59.2417H87.8738L87.6835 60.8384H87.7152C87.8262 60.7503 87.9655 60.6772 88.1329 60.619C88.3003 60.5608 88.4748 60.5318 88.6563 60.5318C88.9877 60.5318 89.2829 60.6111 89.542 60.7697C89.8028 60.9265 90.0072 61.1416 90.1553 61.4147C90.3051 61.6879 90.38 61.9999 90.38 62.3506C90.38 62.696 90.3024 63.0044 90.1473 63.2758C89.994 63.5455 89.7825 63.7587 89.5129 63.9156C89.2432 64.0707 88.9366 64.1482 88.5929 64.1482Z" fill="white"/>
</svg>
