<svg width="67" height="67" viewBox="0 0 67 67" fill="none" xmlns="http://www.w3.org/2000/svg">
<path d="M1.14917 30.0201H6.31288V36.9796H1.14917L1.14917 49.4282L65.8508 49.4282V36.9796H60.6868V30.0201H65.8508V17.5713L1.14917 17.5713L1.14917 30.0201Z" fill="#515262"/>
<g opacity="0.1">
<path d="M1.14917 43.2987L1.14917 49.4277L65.851 49.4277V43.2987H1.14917Z" fill="black"/>
</g>
<path d="M13.8916 30.0199V36.9795H29.7092V30.0199H13.8916Z" fill="white"/>
<path d="M37.2894 30.0199V36.9795H53.1071V30.0199H37.2894Z" fill="white"/>
<path d="M39.9128 11.7168H27.0872L33.5001 3.20675L39.9128 11.7168Z" fill="#7DD2F0"/>
<path d="M39.9128 55.2834H27.0872L33.5001 63.7935L39.9128 55.2834Z" fill="#7DD2F0"/>
<path d="M30.8595 30.0201V36.9797C30.8595 37.6145 30.3451 38.1289 29.7103 38.1289H13.8919C13.2571 38.1289 12.7427 37.6145 12.7427 36.9797V30.0201C12.7427 29.3853 13.2571 28.8709 13.8919 28.8709H29.7103C30.3452 28.8709 30.8595 29.3854 30.8595 30.0201ZM28.5611 35.8304V31.1692H15.0411V35.8304H28.5611Z" fill="black"/>
<path d="M54.2572 30.0201V36.9797C54.2572 37.6145 53.7428 38.1289 53.108 38.1289H37.2895C36.6547 38.1289 36.1403 37.6145 36.1403 36.9797V30.0201C36.1403 29.3853 36.6547 28.8709 37.2895 28.8709H53.1077C53.7427 28.8709 54.2572 29.3854 54.2572 30.0201ZM51.9588 35.8304V31.1692H38.4387V35.8304H51.9588Z" fill="black"/>
<path d="M41.062 11.7166C41.062 11.8915 41.0222 12.067 40.9412 12.2294C40.7467 12.6193 40.3485 12.8657 39.9128 12.8657H27.0871C26.6513 12.8657 26.2531 12.6193 26.0587 12.2294C25.8641 11.8394 25.9071 11.373 26.1693 11.0249L32.5821 2.51488C32.7994 2.22659 33.1393 2.05739 33.5 2.05739C33.8606 2.05739 34.2006 2.22672 34.4178 2.51488L40.8307 11.0249C40.9838 11.2282 41.062 11.4715 41.062 11.7166ZM29.3921 10.5673H37.6077L33.4997 5.11597L29.3921 10.5673Z" fill="black"/>
<path d="M41.0619 55.283C41.0619 55.5281 40.9837 55.7715 40.8306 55.9749L34.4177 64.4849C34.2004 64.7732 33.8605 64.9424 33.4998 64.9424C33.1392 64.9424 32.7992 64.7731 32.582 64.4849L26.1691 55.9749C25.907 55.6269 25.864 55.1606 26.0585 54.7704C26.253 54.3805 26.6512 54.1341 27.0869 54.1341H39.9126C40.3483 54.1341 40.7465 54.3805 40.941 54.7704C41.0221 54.9327 41.0619 55.1083 41.0619 55.283ZM33.4999 61.8837L37.6079 56.4323H29.3921L33.4999 61.8837Z" fill="black"/>
<path d="M50.8305 17.5715C50.8305 18.2063 50.3161 18.7207 49.6813 18.7207L2.29841 18.7207L2.29841 28.8708H6.31292C6.94772 28.8708 7.46212 29.3852 7.46212 30.02V36.9798C7.46212 37.6146 6.94772 38.129 6.31292 38.129H2.29841L2.29841 48.2792H9.03061C9.6654 48.2792 10.1798 48.7936 10.1798 49.4284C10.1798 50.0632 9.6654 50.5776 9.03061 50.5776H1.14921C0.514408 50.5776 0 50.0632 0 49.4284L0 36.9798C0 36.345 0.514408 35.8306 1.14921 35.8306H5.16371V31.1692H1.14921C0.514408 31.1692 0 30.6548 0 30.02L0 17.5715C0 16.9367 0.514408 16.4223 1.14921 16.4223H49.6813C50.3161 16.4223 50.8305 16.9367 50.8305 17.5715Z" fill="black"/>
<path d="M67 17.5715V30.02C67 30.6548 66.4856 31.1692 65.8508 31.1692H61.8363V35.8306H65.8508C66.4856 35.8306 67 36.345 67 36.9798V49.4284C67 50.0632 66.4856 50.5776 65.8508 50.5776H13.6275C12.9927 50.5776 12.4783 50.0632 12.4783 49.4284C12.4783 48.7936 12.9927 48.2792 13.6275 48.2792H64.7016V38.129H60.6871C60.0523 38.129 59.5379 37.6146 59.5379 36.9798V30.02C59.5379 29.3852 60.0523 28.8708 60.6871 28.8708H64.7016V18.7207H54.2783C53.6435 18.7207 53.1291 18.2063 53.1291 17.5715C53.1291 16.9367 53.6435 16.4223 54.2783 16.4223H65.8508C66.4855 16.4223 67 16.9367 67 17.5715Z" fill="black"/>
</svg>
