<svg width="156" height="99" viewBox="0 0 156 99" fill="none" xmlns="http://www.w3.org/2000/svg">
<path d="M0 29C0 26.2386 2.23858 24 5 24H62C64.7614 24 67 26.2386 67 29V60C67 62.7614 64.7614 65 62 65H5C2.23858 65 0 62.7614 0 60V29Z" fill="#858F9F"/>
<path d="M105.111 10.3167C105.956 9.89443 106.95 9.89443 107.795 10.3167L124.247 17.0432C126.459 18.1487 126.459 21.3042 124.247 22.4097L107.795 29.1362C106.95 29.5585 105.956 29.5585 105.111 29.1362L88.6584 22.4097C86.4472 21.3042 86.4472 18.1487 88.6584 17.0432L105.111 10.3167Z" stroke="white" stroke-width="1.5" stroke-linecap="round"/>
<path d="M103.986 23.7852V18.4798H105.019V23.7852H103.986ZM104.508 17.6612C104.328 17.6612 104.174 17.6014 104.045 17.4816C103.918 17.3596 103.855 17.2145 103.855 17.0464C103.855 16.876 103.918 16.731 104.045 16.6112C104.174 16.4892 104.328 16.4282 104.508 16.4282C104.687 16.4282 104.84 16.4892 104.967 16.6112C105.096 16.731 105.16 16.876 105.16 17.0464C105.16 17.2145 105.096 17.3596 104.967 17.4816C104.84 17.6014 104.687 17.6612 104.508 17.6612ZM108.719 18.4798V19.3088H105.721V18.4798H108.719ZM106.543 23.7852V17.865C106.543 17.5334 106.616 17.2583 106.761 17.0395C106.906 16.8185 107.098 16.6538 107.337 16.5456C107.577 16.4351 107.837 16.3798 108.118 16.3798C108.325 16.3798 108.503 16.3971 108.65 16.4316C108.797 16.4638 108.907 16.4938 108.978 16.5214L108.736 17.3573C108.688 17.3435 108.626 17.3273 108.55 17.3089C108.474 17.2882 108.382 17.2778 108.273 17.2778C108.022 17.2778 107.843 17.34 107.735 17.4643C107.629 17.5887 107.576 17.7683 107.576 18.0032V23.7852H106.543Z" fill="#E6E6E6"/>
<rect x="90.8905" y="45.0151" width="31.1246" height="16" rx="3" stroke="white" stroke-width="1.5" stroke-linecap="round"/>
<path d="M98.8575 83.1737H99.3477V88.461H98.8575V83.1737ZM99.231 85.2571H100.211V85.6657H99.231V85.2571ZM95.5136 86.7395H95.9279C96.9025 86.7395 97.5853 86.7044 98.3731 86.5585L98.4257 86.9671C97.6145 87.1188 96.92 87.148 95.9279 87.148H95.5136V86.7395ZM95.5136 83.6873H97.9646V84.0841H95.9921V86.9204H95.5136V83.6873ZM102.93 83.2963C104.068 83.2963 104.786 83.6698 104.786 84.2942C104.786 84.9187 104.068 85.2863 102.93 85.2863C101.787 85.2863 101.075 84.9187 101.075 84.2942C101.075 83.6698 101.787 83.2963 102.93 83.2963ZM102.93 83.6815C102.09 83.6815 101.571 83.9032 101.571 84.2942C101.571 84.6794 102.09 84.907 102.93 84.907C103.765 84.907 104.29 84.6794 104.29 84.2942C104.29 83.9032 103.765 83.6815 102.93 83.6815ZM101.127 86.6461H104.728V88.3852H101.127V86.6461ZM104.255 87.0371H101.606V87.9942H104.255V87.0371ZM100.544 85.7415H105.312V86.1325H100.544V85.7415ZM107.235 85.8757H112.014V86.2726H107.235V85.8757ZM109.417 86.1209H109.902V87.3347H109.417V86.1209ZM107.848 83.4247H111.396V85.2805H107.848V83.4247ZM110.917 83.8157H108.32V84.8895H110.917V83.8157ZM107.842 87.9416H111.483V88.3385H107.842V87.9416ZM107.842 86.827H108.32V88.0817H107.842V86.827ZM113.794 83.7457H114.191V84.1717C114.191 85.1404 113.607 85.9516 112.72 86.2726L112.475 85.8874C113.269 85.6073 113.794 84.9245 113.794 84.1717V83.7457ZM113.881 83.7457H114.278V84.1658C114.278 84.8545 114.78 85.4731 115.556 85.7298L115.323 86.1092C114.442 85.8174 113.881 85.0646 113.881 84.1658V83.7457ZM112.621 83.5706H115.44V83.9674H112.621V83.5706ZM116.105 83.1796H116.589V86.3601H116.105V83.1796ZM116.455 84.516H117.371V84.9245H116.455V84.516ZM114.909 86.5002C115.982 86.5002 116.642 86.8562 116.642 87.4689C116.642 88.0875 115.982 88.4435 114.909 88.4435C113.835 88.4435 113.175 88.0875 113.175 87.4689C113.175 86.8562 113.835 86.5002 114.909 86.5002ZM114.909 86.8912C114.127 86.8912 113.648 87.1013 113.648 87.4689C113.648 87.8424 114.127 88.0642 114.909 88.0642C115.691 88.0642 116.169 87.8424 116.169 87.4689C116.169 87.1013 115.691 86.8912 114.909 86.8912Z" fill="#E6E6E6"/>
<path d="M106.453 33.4531V41.0154" stroke="white" stroke-width="3" stroke-linecap="round" stroke-linejoin="bevel"/>
<rect x="90.8905" y="78.3281" width="31.1246" height="16" rx="6.4" stroke="white" stroke-width="1.5" stroke-linecap="round"/>
<path d="M106.453 65.0151V74.3281" stroke="white" stroke-width="3" stroke-linecap="round" stroke-linejoin="bevel"/>
<path d="M101.819 50.6596H102.304V55.9469H101.819V50.6596ZM99.5199 51.0681C100.302 51.0681 100.862 51.7859 100.862 52.9064C100.862 54.0327 100.302 54.7505 99.5199 54.7505C98.7437 54.7505 98.1835 54.0327 98.1835 52.9064C98.1835 51.7859 98.7437 51.0681 99.5199 51.0681ZM99.5199 51.5058C99.0063 51.5058 98.6445 52.0544 98.6445 52.9064C98.6445 53.7643 99.0063 54.3245 99.5199 54.3245C100.039 54.3245 100.395 53.7643 100.395 52.9064C100.395 52.0544 100.039 51.5058 99.5199 51.5058ZM104.676 53.3616H109.456V53.7584H104.676V53.3616ZM106.859 53.6067H107.343V54.8206H106.859V53.6067ZM105.289 50.9105H108.837V52.7663H105.289V50.9105ZM108.359 51.3015H105.762V52.3753H108.359V51.3015ZM105.283 55.4275H108.925V55.8243H105.283V55.4275ZM105.283 54.3128H105.762V55.5675H105.283V54.3128ZM111.235 51.2315H111.632V51.6575C111.632 52.6263 111.049 53.4375 110.162 53.7584L109.916 53.3733C110.71 53.0931 111.235 52.4103 111.235 51.6575V51.2315ZM111.323 51.2315H111.72V51.6517C111.72 52.3403 112.222 52.9589 112.998 53.2157L112.764 53.595C111.883 53.3032 111.323 52.5504 111.323 51.6517V51.2315ZM110.062 51.0564H112.881V51.4533H110.062V51.0564ZM113.546 50.6654H114.031V53.846H113.546V50.6654ZM113.896 52.0018H114.813V52.4103H113.896V52.0018ZM112.35 53.986C113.424 53.986 114.083 54.342 114.083 54.9548C114.083 55.5734 113.424 55.9294 112.35 55.9294C111.276 55.9294 110.617 55.5734 110.617 54.9548C110.617 54.342 111.276 53.986 112.35 53.986ZM112.35 54.377C111.568 54.377 111.089 54.5871 111.089 54.9548C111.089 55.3283 111.568 55.55 112.35 55.55C113.132 55.55 113.611 55.3283 113.611 54.9548C113.611 54.5871 113.132 54.377 112.35 54.377Z" fill="#70D84B"/>
<path d="M88.257 35.307V34.7557H91.5417V35.307H90.2175V39H89.5792V35.307H88.257ZM91.7764 39V35.8168H92.3753V36.3225H92.4085C92.4665 36.1511 92.5688 36.0164 92.7152 35.9183C92.863 35.8189 93.0302 35.7691 93.2167 35.7691C93.2554 35.7691 93.301 35.7705 93.3535 35.7733C93.4074 35.776 93.4495 35.7795 93.4799 35.7836V36.3763C93.4551 36.3694 93.4108 36.3618 93.3473 36.3536C93.2837 36.3439 93.2202 36.339 93.1566 36.339C93.0102 36.339 92.8796 36.3701 92.7649 36.4323C92.6517 36.4931 92.5619 36.5781 92.4955 36.6872C92.4292 36.795 92.3961 36.9179 92.3961 37.0561V39H91.7764ZM95.9217 37.6799V35.8168H96.5434V39H95.9342V38.4487H95.901C95.8278 38.6187 95.7103 38.7603 95.5487 38.8736C95.3884 38.9855 95.1888 39.0414 94.9498 39.0414C94.7453 39.0414 94.5643 38.9965 94.4068 38.9067C94.2507 38.8156 94.1277 38.6809 94.0379 38.5026C93.9495 38.3244 93.9053 38.104 93.9053 37.8415V35.8168H94.5249V37.7669C94.5249 37.9838 94.585 38.1565 94.7052 38.285C94.8254 38.4135 94.9815 38.4778 95.1736 38.4778C95.2896 38.4778 95.405 38.4487 95.5197 38.3907C95.6357 38.3327 95.7317 38.245 95.8077 38.1275C95.8851 38.0101 95.9231 37.8609 95.9217 37.6799ZM98.6371 39.0642C98.3234 39.0642 98.0533 38.9972 97.8268 38.8632C97.6016 38.7278 97.4275 38.5379 97.3045 38.2933C97.1829 38.0474 97.1221 37.7593 97.1221 37.4291C97.1221 37.1031 97.1829 36.8157 97.3045 36.567C97.4275 36.3183 97.5988 36.1242 97.8185 35.9847C98.0395 35.8451 98.2979 35.7754 98.5935 35.7754C98.7732 35.7754 98.9472 35.8051 99.1158 35.8645C99.2843 35.9239 99.4356 36.0171 99.5696 36.1442C99.7037 36.2713 99.8093 36.4364 99.8867 36.6395C99.9641 36.8413 100.003 37.0865 100.003 37.3752V37.5949H97.4724V37.1307H99.3956C99.3956 36.9677 99.3624 36.8233 99.2961 36.6976C99.2298 36.5705 99.1365 36.4703 99.0163 36.3971C98.8975 36.3238 98.758 36.2872 98.5977 36.2872C98.4236 36.2872 98.2716 36.3301 98.1418 36.4157C98.0133 36.5 97.9138 36.6105 97.8433 36.7473C97.7743 36.8827 97.7397 37.0298 97.7397 37.1887V37.5514C97.7397 37.7642 97.777 37.9452 97.8516 38.0944C97.9276 38.2436 98.0333 38.3576 98.1687 38.4363C98.3041 38.5137 98.4623 38.5524 98.6433 38.5524C98.7607 38.5524 98.8678 38.5358 98.9645 38.5026C99.0612 38.4681 99.1448 38.417 99.2153 38.3493C99.2857 38.2816 99.3396 38.198 99.3769 38.0985L99.9634 38.2042C99.9164 38.3769 99.8321 38.5282 99.7106 38.6581C99.5904 38.7865 99.4391 38.8867 99.2567 38.9586C99.0757 39.029 98.8692 39.0642 98.6371 39.0642Z" fill="#E6E6E6"/>
<path d="M126.015 86.3282H127C140.255 86.3282 151 75.5831 151 62.3282V40.8208C151 29.1708 141.556 19.7266 129.906 19.7266V19.7266" stroke="white" stroke-width="1.5" stroke-linecap="round" stroke-linejoin="bevel"/>
<path d="M131.466 55V50.7557H134.098V51.307H132.107V52.6002H133.91V53.1494H132.107V55H131.466ZM135.64 55.0705C135.438 55.0705 135.256 55.0332 135.093 54.9586C134.93 54.8826 134.801 54.7727 134.705 54.629C134.611 54.4854 134.565 54.3092 134.565 54.1006C134.565 53.921 134.599 53.7731 134.668 53.6571C134.737 53.541 134.83 53.4492 134.948 53.3815C135.065 53.3138 135.197 53.2626 135.342 53.2281C135.487 53.1936 135.635 53.1673 135.785 53.1494C135.976 53.1272 136.131 53.1093 136.249 53.0955C136.368 53.0803 136.455 53.0561 136.508 53.0229C136.562 52.9898 136.589 52.9359 136.589 52.8613V52.8468C136.589 52.6658 136.538 52.5256 136.436 52.4261C136.335 52.3266 136.184 52.2769 135.984 52.2769C135.775 52.2769 135.611 52.3232 135.491 52.4157C135.372 52.5069 135.29 52.6085 135.244 52.7204L134.662 52.5877C134.731 52.3943 134.832 52.2382 134.964 52.1194C135.098 51.9992 135.253 51.9121 135.427 51.8582C135.601 51.803 135.784 51.7754 135.976 51.7754C136.103 51.7754 136.238 51.7905 136.38 51.8209C136.524 51.85 136.658 51.9038 136.782 51.9826C136.908 52.0613 137.011 52.1739 137.091 52.3204C137.171 52.4655 137.211 52.654 137.211 52.8862V55H136.606V54.5648H136.581C136.541 54.6449 136.481 54.7237 136.401 54.8011C136.321 54.8784 136.218 54.9427 136.092 54.9938C135.966 55.0449 135.816 55.0705 135.64 55.0705ZM135.775 54.5731C135.946 54.5731 136.093 54.5392 136.214 54.4715C136.337 54.4038 136.43 54.3154 136.494 54.2063C136.559 54.0957 136.591 53.9776 136.591 53.8519V53.4416C136.569 53.4637 136.526 53.4844 136.463 53.5037C136.401 53.5217 136.33 53.5376 136.249 53.5514C136.169 53.5638 136.091 53.5756 136.015 53.5866C135.939 53.5963 135.876 53.6046 135.825 53.6115C135.704 53.6267 135.594 53.6523 135.495 53.6882C135.397 53.7241 135.318 53.7759 135.259 53.8436C135.201 53.9099 135.172 53.9983 135.172 54.1089C135.172 54.2622 135.228 54.3783 135.342 54.457C135.455 54.5344 135.599 54.5731 135.775 54.5731ZM138.545 50.7557V55H137.925V50.7557H138.545ZM141.653 52.5939L141.092 52.6934C141.068 52.6216 141.031 52.5532 140.98 52.4883C140.93 52.4233 140.862 52.3701 140.777 52.3287C140.691 52.2872 140.584 52.2665 140.455 52.2665C140.28 52.2665 140.133 52.3059 140.016 52.3846C139.898 52.462 139.84 52.5622 139.84 52.6851C139.84 52.7915 139.879 52.8772 139.958 52.9421C140.037 53.007 140.164 53.0602 140.339 53.1017L140.845 53.2177C141.138 53.2854 141.356 53.3897 141.5 53.5307C141.643 53.6716 141.715 53.8547 141.715 54.0799C141.715 54.2705 141.66 54.4405 141.55 54.5897C141.44 54.7375 141.288 54.8536 141.092 54.9378C140.897 55.0221 140.671 55.0642 140.414 55.0642C140.057 55.0642 139.767 54.9883 139.541 54.8363C139.316 54.6829 139.178 54.4653 139.127 54.1835L139.726 54.0923C139.763 54.2484 139.84 54.3665 139.956 54.4467C140.072 54.5254 140.223 54.5648 140.41 54.5648C140.613 54.5648 140.775 54.5227 140.897 54.4384C141.018 54.3527 141.079 54.2484 141.079 54.1254C141.079 54.026 141.042 53.9424 140.967 53.8747C140.894 53.807 140.781 53.7559 140.629 53.7213L140.091 53.6032C139.793 53.5355 139.574 53.4277 139.432 53.2799C139.291 53.1321 139.22 52.9449 139.22 52.7183C139.22 52.5304 139.273 52.366 139.378 52.2251C139.483 52.0841 139.628 51.9743 139.813 51.8956C139.998 51.8154 140.21 51.7754 140.449 51.7754C140.793 51.7754 141.064 51.85 141.261 51.9992C141.459 52.147 141.59 52.3453 141.653 52.5939ZM143.658 55.0642C143.344 55.0642 143.074 54.9972 142.847 54.8632C142.622 54.7278 142.448 54.5379 142.325 54.2933C142.204 54.0474 142.143 53.7593 142.143 53.4291C142.143 53.1031 142.204 52.8157 142.325 52.567C142.448 52.3183 142.619 52.1242 142.839 51.9847C143.06 51.8451 143.318 51.7754 143.614 51.7754C143.794 51.7754 143.968 51.8051 144.136 51.8645C144.305 51.9239 144.456 52.0171 144.59 52.1442C144.724 52.2713 144.83 52.4364 144.907 52.6395C144.985 52.8413 145.023 53.0865 145.023 53.3752V53.5949H142.493V53.1307H144.416C144.416 52.9677 144.383 52.8233 144.317 52.6976C144.25 52.5705 144.157 52.4703 144.037 52.3971C143.918 52.3238 143.779 52.2872 143.618 52.2872C143.444 52.2872 143.292 52.3301 143.162 52.4157C143.034 52.5 142.934 52.6105 142.864 52.7473C142.795 52.8827 142.76 53.0298 142.76 53.1887V53.5514C142.76 53.7642 142.798 53.9452 142.872 54.0944C142.948 54.2436 143.054 54.3576 143.189 54.4363C143.325 54.5137 143.483 54.5524 143.664 54.5524C143.781 54.5524 143.888 54.5358 143.985 54.5026C144.082 54.4681 144.165 54.417 144.236 54.3493C144.306 54.2816 144.36 54.198 144.397 54.0985L144.984 54.2042C144.937 54.3769 144.853 54.5282 144.731 54.6581C144.611 54.7865 144.46 54.8867 144.277 54.9586C144.096 55.029 143.89 55.0642 143.658 55.0642Z" fill="#E6E6E6"/>
<path d="M30.7021 12V6.63498H31.7464V12H30.7021ZM31.2295 5.80718C31.0479 5.80718 30.8918 5.74663 30.7614 5.62555C30.6334 5.50213 30.5693 5.35543 30.5693 5.18545C30.5693 5.01313 30.6334 4.86643 30.7614 4.74535C30.8918 4.62194 31.0479 4.56023 31.2295 4.56023C31.4111 4.56023 31.566 4.62194 31.694 4.74535C31.8244 4.86643 31.8896 5.01313 31.8896 5.18545C31.8896 5.35543 31.8244 5.50213 31.694 5.62555C31.566 5.74663 31.4111 5.80718 31.2295 5.80718ZM35.5178 6.63498V7.47327H32.486V6.63498H35.5178ZM33.3173 12V6.01325C33.3173 5.67794 33.3907 5.39968 33.5374 5.17846C33.6841 4.95492 33.8785 4.78843 34.1207 4.67899C34.3628 4.56721 34.626 4.51133 34.9101 4.51133C35.1196 4.51133 35.2989 4.52879 35.448 4.56372C35.597 4.59632 35.7076 4.62659 35.7798 4.65454L35.5353 5.49981C35.4864 5.48583 35.4235 5.46953 35.3467 5.45091C35.2698 5.42995 35.1767 5.41947 35.0672 5.41947C34.8134 5.41947 34.6318 5.48234 34.5224 5.60808C34.4152 5.73383 34.3617 5.91545 34.3617 6.15297V12H33.3173Z" fill="white"/>
<path d="M6.45152 36V32.2713H7.33028V36H6.45152ZM6.89332 31.7421C6.75415 31.7421 6.63439 31.696 6.53405 31.6038C6.43372 31.5099 6.38355 31.3974 6.38355 31.2664C6.38355 31.1337 6.43372 31.0212 6.53405 30.9289C6.63439 30.8351 6.75415 30.7881 6.89332 30.7881C7.03412 30.7881 7.15388 30.8351 7.25259 30.9289C7.35293 31.0212 7.4031 31.1337 7.4031 31.2664C7.4031 31.3974 7.35293 31.5099 7.25259 31.6038C7.15388 31.696 7.03412 31.7421 6.89332 31.7421ZM9.99264 32.2713V32.951H7.78846V32.2713H9.99264ZM8.3395 36V31.9194C8.3395 31.6685 8.39129 31.4597 8.49486 31.2931C8.60006 31.1264 8.74085 31.0018 8.91725 30.9192C9.09365 30.8367 9.28947 30.7954 9.50471 30.7954C9.65683 30.7954 9.79196 30.8076 9.9101 30.8318C10.0282 30.8561 10.1156 30.878 10.1723 30.8974L9.99749 31.5771C9.96027 31.5657 9.91334 31.5544 9.8567 31.5431C9.80005 31.5301 9.73694 31.5237 9.66735 31.5237C9.5039 31.5237 9.38819 31.5633 9.32022 31.6426C9.25386 31.7203 9.22069 31.832 9.22069 31.9776V36H8.3395ZM24.9752 36.0534C24.8279 36.0534 24.7017 36.0016 24.5965 35.898C24.4913 35.7945 24.4395 35.6682 24.4411 35.5194C24.4395 35.3737 24.4913 35.2491 24.5965 35.1455C24.7017 35.0419 24.8279 34.9902 24.9752 34.9902C25.1176 34.9902 25.2414 35.0419 25.3466 35.1455C25.4534 35.2491 25.5076 35.3737 25.5092 35.5194C25.5076 35.6181 25.4817 35.7079 25.4316 35.7888C25.383 35.8697 25.3183 35.9345 25.2374 35.983C25.1581 36.0299 25.0707 36.0534 24.9752 36.0534ZM24.9752 33.3929C24.8279 33.3929 24.7017 33.3411 24.5965 33.2375C24.4913 33.1323 24.4395 33.0061 24.4411 32.8588C24.4395 32.7132 24.4913 32.5885 24.5965 32.485C24.7017 32.3798 24.8279 32.3272 24.9752 32.3272C25.1176 32.3272 25.2414 32.3798 25.3466 32.485C25.4534 32.5885 25.5076 32.7132 25.5092 32.8588C25.5076 32.9559 25.4817 33.0449 25.4316 33.1258C25.383 33.2067 25.3183 33.2715 25.2374 33.32C25.1581 33.3686 25.0707 33.3929 24.9752 33.3929ZM10.3203 50.2715H11.2363V56.6221H10.3203V50.2715ZM11.0312 52.6162H12.1523V53.3614H11.0312V52.6162ZM6.51953 54.3457H7.05272C8.11912 54.3457 8.95993 54.3115 9.88961 54.1475L9.97847 54.8994C9.02145 55.0703 8.1533 55.0977 7.05272 55.0977H6.51953V54.3457ZM6.51953 50.8594H9.47262V51.5909H7.42186V54.708H6.51953V50.8594ZM15.2962 50.3946C16.6908 50.3946 17.5863 50.8663 17.5863 51.6319C17.5863 52.3975 16.6908 52.8623 15.2962 52.8623C13.9017 52.8623 13.0062 52.3975 13.0062 51.6319C13.0062 50.8663 13.9017 50.3946 15.2962 50.3946ZM15.2962 51.0987C14.4281 51.0987 13.9427 51.2696 13.9427 51.6319C13.9427 51.9873 14.4281 52.1651 15.2962 52.1651C16.1576 52.1651 16.6497 51.9873 16.6497 51.6319C16.6497 51.2696 16.1576 51.0987 15.2962 51.0987ZM13.0951 54.3799H17.4701V56.54H13.0951V54.3799ZM16.5814 55.0977H13.9906V55.8223H16.5814V55.0977ZM12.432 53.2246H18.1536V53.9424H12.432V53.2246ZM18.5906 53.4024H24.3191V54.127H18.5906V53.4024ZM21.072 53.8604H21.988V55.1934H21.072V53.8604ZM19.2947 50.545H23.5945V52.8965H19.2947V50.545ZM22.699 51.2559H20.1834V52.1856H22.699V51.2559ZM19.2537 55.7744H23.6902V56.499H19.2537V55.7744ZM19.2537 54.6602H20.156V56.0137H19.2537V54.6602ZM26.1574 50.9825H26.9025V51.379C26.9025 52.5889 26.3351 53.6758 25.1115 54.0791L24.6603 53.3614C25.713 53.0127 26.1574 52.1856 26.1574 51.379V50.9825ZM26.3419 50.9825H27.0802V51.379C27.0802 52.1172 27.504 52.8418 28.5226 53.1494L28.0919 53.8604C26.8888 53.4981 26.3419 52.5069 26.3419 51.379V50.9825ZM24.8996 50.7022H28.3175V51.4268H24.8996V50.7022ZM28.8234 50.2784H29.7325V54.0313H28.8234V50.2784ZM29.4796 51.7344H30.5733V52.4795H29.4796V51.7344ZM27.6681 54.1475C28.9806 54.1475 29.8077 54.6055 29.8077 55.3779C29.8077 56.1504 28.9806 56.6084 27.6681 56.6084C26.3488 56.6084 25.5216 56.1504 25.5216 55.3779C25.5216 54.6055 26.3488 54.1475 27.6681 54.1475ZM27.6681 54.8584C26.8615 54.8584 26.424 55.0225 26.424 55.3779C26.424 55.7334 26.8615 55.9111 27.6681 55.9111C28.4747 55.9111 28.9054 55.7334 28.9054 55.3779C28.9054 55.0225 28.4747 54.8584 27.6681 54.8584Z" fill="white"/>
<path d="M11.9454 35.1387H17.6739V35.877H11.9454V35.1387ZM14.3517 33.7373H15.2608V35.3438H14.3517V33.7373ZM14.3243 31.1055H15.0899V31.3311C15.0899 32.6641 14.1329 33.7237 12.5197 34.0176L12.1642 33.2998C13.5724 33.0811 14.3243 32.2061 14.3243 31.3311V31.1055ZM14.5089 31.1055H15.2745V31.3311C15.2745 32.2061 16.0265 33.0537 17.4688 33.2657L17.1202 33.9834C15.4796 33.6963 14.5089 32.6641 14.5089 31.3311V31.1055ZM12.4171 30.7569H17.1817V31.4815H12.4171V30.7569ZM22.4858 30.2784H23.395V34.9063H22.4858V30.2784ZM21.3921 32.1172H22.6157V32.8555H21.3921V32.1172ZM20.4897 30.7501H21.4468C21.4468 32.459 20.3872 33.71 18.5484 34.291L18.1724 33.5664C19.6284 33.1084 20.4897 32.2334 20.4897 31.1602V30.7501ZM18.5005 30.7501H21.0708V31.4815H18.5005V30.7501ZM19.2456 35.7744H23.5522V36.499H19.2456V35.7744ZM19.2456 34.4483H20.1616V36.1914H19.2456V34.4483Z" fill="#7737FF"/>
<path d="M16.8771 40.2715H17.7932V46.6221H16.8771V40.2715ZM14.3821 40.7159C15.3391 40.7159 16.0432 41.5909 16.0432 42.9717C16.0432 44.3662 15.3391 45.2412 14.3821 45.2412C13.425 45.2412 12.7209 44.3662 12.7209 42.9717C12.7209 41.5909 13.425 40.7159 14.3821 40.7159ZM14.3821 41.543C13.9104 41.543 13.5891 42.042 13.5891 42.9717C13.5891 43.9151 13.9104 44.4209 14.3821 44.4209C14.8537 44.4209 15.1682 43.9151 15.1682 42.9717C15.1682 42.042 14.8537 41.543 14.3821 41.543ZM18.695 43.4024H24.4234V44.127H18.695V43.4024ZM21.1764 43.8604H22.0924V45.1934H21.1764V43.8604ZM19.399 40.545H23.6988V42.8965H19.399V40.545ZM22.8033 41.2559H20.2877V42.1856H22.8033V41.2559ZM19.358 45.7744H23.7945V46.499H19.358V45.7744ZM19.358 44.6602H20.2604V46.0137H19.358V44.6602ZM26.2617 40.9825H27.0068V41.379C27.0068 42.5889 26.4395 43.6758 25.2158 44.0791L24.7647 43.3614C25.8174 43.0127 26.2617 42.1856 26.2617 41.379V40.9825ZM26.4463 40.9825H27.1846V41.379C27.1846 42.1172 27.6084 42.8418 28.6269 43.1494L28.1963 43.8604C26.9932 43.4981 26.4463 42.5069 26.4463 41.379V40.9825ZM25.0039 40.7022H28.4219V41.4268H25.0039V40.7022ZM28.9277 40.2784H29.8369V44.0313H28.9277V40.2784ZM29.584 41.7344H30.6777V42.4795H29.584V41.7344ZM27.7724 44.1475C29.0849 44.1475 29.9121 44.6055 29.9121 45.3779C29.9121 46.1504 29.0849 46.6084 27.7724 46.6084C26.4531 46.6084 25.626 46.1504 25.626 45.3779C25.626 44.6055 26.4531 44.1475 27.7724 44.1475ZM27.7724 44.8584C26.9658 44.8584 26.5283 45.0225 26.5283 45.3779C26.5283 45.7334 26.9658 45.9111 27.7724 45.9111C28.5791 45.9111 29.0097 45.7334 29.0097 45.3779C29.0097 45.0225 28.5791 44.8584 27.7724 44.8584Z" fill="#70D84B"/>
<path d="M2 18L67 18" stroke="white" stroke-linecap="round"/>
<path d="M80 98L80 0.999997" stroke="white" stroke-linecap="round"/>
</svg>
