<svg width="122" height="203" viewBox="0 0 122 203" fill="none" xmlns="http://www.w3.org/2000/svg">
<path d="M19.1112 113.317C19.9558 112.894 20.9499 112.894 21.7945 113.317L38.2474 120.043C40.4586 121.149 40.4586 124.304 38.2474 125.41L21.7945 132.136C20.9499 132.558 19.9558 132.558 19.1112 132.136L2.65836 125.41C0.447217 124.304 0.44721 121.149 2.65836 120.043L19.1112 113.317Z" stroke="white" stroke-width="1.5" stroke-linecap="round"/>
<path d="M17.986 126.785V121.48H19.0187V126.785H17.986ZM18.5076 120.661C18.3279 120.661 18.1737 120.601 18.0447 120.482C17.9181 120.36 17.8547 120.215 17.8547 120.046C17.8547 119.876 17.9181 119.731 18.0447 119.611C18.1737 119.489 18.3279 119.428 18.5076 119.428C18.6872 119.428 18.8403 119.489 18.9669 119.611C19.0959 119.731 19.1604 119.876 19.1604 120.046C19.1604 120.215 19.0959 120.36 18.9669 120.482C18.8403 120.601 18.6872 120.661 18.5076 120.661ZM22.719 121.48V122.309H19.7209V121.48H22.719ZM20.543 126.785V120.865C20.543 120.533 20.6155 120.258 20.7606 120.04C20.9057 119.818 21.0979 119.654 21.3374 119.546C21.5769 119.435 21.8371 119.38 22.118 119.38C22.3252 119.38 22.5026 119.397 22.6499 119.432C22.7973 119.464 22.9067 119.494 22.978 119.521L22.7363 120.357C22.6879 120.343 22.6257 120.327 22.5498 120.309C22.4738 120.288 22.3817 120.278 22.2734 120.278C22.0224 120.278 21.8428 120.34 21.7346 120.464C21.6287 120.589 21.5757 120.768 21.5757 121.003V126.785H20.543Z" fill="#E6E6E6"/>
<rect x="5" y="151" width="31.1246" height="16" rx="3" stroke="white" stroke-width="1.5" stroke-linecap="round"/>
<path d="M12.9669 189.159H13.4571V194.446H12.9669V189.159ZM13.3404 191.242H14.3208V191.651H13.3404V191.242ZM9.62293 192.724H10.0373C11.0119 192.724 11.6947 192.689 12.4825 192.543L12.535 192.952C11.7238 193.104 11.0294 193.133 10.0373 193.133H9.62293V192.724ZM9.62293 189.672H12.074V190.069H10.1015V192.905H9.62293V189.672ZM17.0399 189.281C18.1779 189.281 18.8957 189.655 18.8957 190.279C18.8957 190.904 18.1779 191.271 17.0399 191.271C15.896 191.271 15.1841 190.904 15.1841 190.279C15.1841 189.655 15.896 189.281 17.0399 189.281ZM17.0399 189.666C16.1995 189.666 15.6801 189.888 15.6801 190.279C15.6801 190.664 16.1995 190.892 17.0399 190.892C17.8744 190.892 18.3996 190.664 18.3996 190.279C18.3996 189.888 17.8744 189.666 17.0399 189.666ZM15.2366 192.631H18.8373V194.37H15.2366V192.631ZM18.3646 193.022H15.7151V193.979H18.3646V193.022ZM14.653 191.726H19.4209V192.117H14.653V191.726ZM21.3442 191.861H26.1238V192.257H21.3442V191.861ZM23.5268 192.106H24.0112V193.32H23.5268V192.106ZM21.957 189.41H25.5052V191.265H21.957V189.41ZM25.0267 189.801H22.4297V190.874H25.0267V189.801ZM21.9512 193.927H25.5927V194.323H21.9512V193.927ZM21.9512 192.812H22.4297V194.067H21.9512V192.812ZM27.9033 189.731H28.3001V190.157C28.3001 191.125 27.7165 191.936 26.8295 192.257L26.5844 191.872C27.3781 191.592 27.9033 190.909 27.9033 190.157V189.731ZM27.9908 189.731H28.3877V190.151C28.3877 190.839 28.8895 191.458 29.6657 191.715L29.4323 192.094C28.5511 191.802 27.9908 191.049 27.9908 190.151V189.731ZM26.7303 189.555H29.549V189.952H26.7303V189.555ZM30.2143 189.164H30.6987V192.345H30.2143V189.164ZM30.5644 190.501H31.4807V190.909H30.5644V190.501ZM29.0179 192.485C30.0917 192.485 30.7512 192.841 30.7512 193.454C30.7512 194.072 30.0917 194.428 29.0179 194.428C27.9441 194.428 27.2847 194.072 27.2847 193.454C27.2847 192.841 27.9441 192.485 29.0179 192.485ZM29.0179 192.876C28.2359 192.876 27.7574 193.086 27.7574 193.454C27.7574 193.827 28.2359 194.049 29.0179 194.049C29.7999 194.049 30.2785 193.827 30.2785 193.454C30.2785 193.086 29.7999 192.876 29.0179 192.876Z" fill="#E6E6E6"/>
<path d="M21.0623 136.453C21.0623 136.177 20.8384 135.953 20.5623 135.953C20.2861 135.953 20.0623 136.177 20.0623 136.453H21.0623ZM20.2087 147.354C20.404 147.549 20.7205 147.549 20.9158 147.354L24.0978 144.172C24.2931 143.977 24.2931 143.66 24.0978 143.465C23.9025 143.269 23.5859 143.269 23.3907 143.465L20.5623 146.293L17.7338 143.465C17.5386 143.269 17.222 143.269 17.0267 143.465C16.8315 143.66 16.8315 143.977 17.0267 144.172L20.2087 147.354ZM20.0623 136.453V147H21.0623V136.453H20.0623Z" fill="white"/>
<rect x="5" y="184.313" width="31.1246" height="16" rx="6.4" stroke="white" stroke-width="1.5" stroke-linecap="round"/>
<path d="M21.0625 171C21.0625 170.724 20.8386 170.5 20.5625 170.5C20.2864 170.5 20.0625 170.724 20.0625 171H21.0625ZM20.2089 180.667C20.4042 180.862 20.7208 180.862 20.9161 180.667L24.098 177.485C24.2933 177.289 24.2933 176.973 24.098 176.777C23.9028 176.582 23.5862 176.582 23.3909 176.777L20.5625 179.606L17.7341 176.777C17.5388 176.582 17.2222 176.582 17.027 176.777C16.8317 176.973 16.8317 177.289 17.027 177.485L20.2089 180.667ZM20.0625 171V180.313H21.0625V171H20.0625Z" fill="white"/>
<path d="M15.9287 156.644H16.4131V161.932H15.9287V156.644ZM13.6294 157.053C14.4114 157.053 14.9716 157.771 14.9716 158.891C14.9716 160.018 14.4114 160.735 13.6294 160.735C12.8532 160.735 12.293 160.018 12.293 158.891C12.293 157.771 12.8532 157.053 13.6294 157.053ZM13.6294 157.491C13.1158 157.491 12.754 158.039 12.754 158.891C12.754 159.749 13.1158 160.309 13.6294 160.309C14.1488 160.309 14.5048 159.749 14.5048 158.891C14.5048 158.039 14.1488 157.491 13.6294 157.491ZM18.7858 159.346H23.5654V159.743H18.7858V159.346ZM20.9684 159.592H21.4528V160.805H20.9684V159.592ZM19.3985 156.895H22.9468V158.751H19.3985V156.895ZM22.4682 157.286H19.8713V158.36H22.4682V157.286ZM19.3927 161.412H23.0343V161.809H19.3927V161.412ZM19.3927 160.298H19.8713V161.552H19.3927V160.298ZM25.3448 157.216H25.7417V157.642C25.7417 158.611 25.1581 159.422 24.271 159.743L24.0259 159.358C24.8196 159.078 25.3448 158.395 25.3448 157.642V157.216ZM25.4324 157.216H25.8292V157.637C25.8292 158.325 26.3311 158.944 27.1073 159.201L26.8738 159.58C25.9926 159.288 25.4324 158.535 25.4324 157.637V157.216ZM24.1718 157.041H26.9906V157.438H24.1718V157.041ZM27.6558 156.65H28.1402V159.831H27.6558V156.65ZM28.006 157.987H28.9222V158.395H28.006V157.987ZM26.4595 159.971C27.5333 159.971 28.1927 160.327 28.1927 160.94C28.1927 161.558 27.5333 161.914 26.4595 161.914C25.3857 161.914 24.7262 161.558 24.7262 160.94C24.7262 160.327 25.3857 159.971 26.4595 159.971ZM26.4595 160.362C25.6775 160.362 25.1989 160.572 25.1989 160.94C25.1989 161.313 25.6775 161.535 26.4595 161.535C27.2415 161.535 27.72 161.313 27.72 160.94C27.72 160.572 27.2415 160.362 26.4595 160.362Z" fill="#70D84B"/>
<path d="M0.256977 139.307V138.756H3.54172V139.307H2.21746V143H1.57917V139.307H0.256977ZM3.77641 143V139.817H4.37534V140.322H4.4085C4.46652 140.151 4.56876 140.016 4.71521 139.918C4.86304 139.819 5.03021 139.769 5.21673 139.769C5.25541 139.769 5.30101 139.771 5.35351 139.773C5.40739 139.776 5.44953 139.779 5.47992 139.784V140.376C5.45506 140.369 5.41084 140.362 5.34729 140.354C5.28374 140.344 5.22018 140.339 5.15663 140.339C5.01018 140.339 4.87962 140.37 4.76495 140.432C4.65166 140.493 4.56185 140.578 4.49554 140.687C4.42922 140.795 4.39606 140.918 4.39606 141.056V143H3.77641ZM7.92172 141.68V139.817H8.54344V143H7.93415V142.449H7.90099C7.82777 142.619 7.71033 142.76 7.54869 142.874C7.38842 142.985 7.18878 143.041 6.94976 143.041C6.74529 143.041 6.5643 142.997 6.4068 142.907C6.25067 142.816 6.12771 142.681 6.03791 142.503C5.94949 142.324 5.90528 142.104 5.90528 141.842V139.817H6.52492V141.767C6.52492 141.984 6.58502 142.157 6.70522 142.285C6.82542 142.414 6.98154 142.478 7.17358 142.478C7.28964 142.478 7.405 142.449 7.51967 142.391C7.63573 142.333 7.73175 142.245 7.80773 142.128C7.8851 142.01 7.9231 141.861 7.92172 141.68ZM10.6371 143.064C10.3234 143.064 10.0533 142.997 9.82676 142.863C9.60156 142.728 9.42748 142.538 9.30451 142.293C9.18293 142.047 9.12214 141.759 9.12214 141.429C9.12214 141.103 9.18293 140.816 9.30451 140.567C9.42748 140.318 9.59879 140.124 9.81847 139.985C10.0395 139.845 10.2979 139.775 10.5935 139.775C10.7732 139.775 10.9472 139.805 11.1158 139.864C11.2843 139.924 11.4356 140.017 11.5696 140.144C11.7037 140.271 11.8093 140.436 11.8867 140.64C11.9641 140.841 12.0028 141.086 12.0028 141.375V141.595H9.47238V141.131H11.3956C11.3956 140.968 11.3624 140.823 11.2961 140.698C11.2298 140.57 11.1365 140.47 11.0163 140.397C10.8975 140.324 10.758 140.287 10.5977 140.287C10.4236 140.287 10.2716 140.33 10.1418 140.416C10.0133 140.5 9.9138 140.611 9.84334 140.747C9.77426 140.883 9.73972 141.03 9.73972 141.189V141.551C9.73972 141.764 9.77702 141.945 9.85163 142.094C9.92761 142.244 10.0333 142.358 10.1687 142.436C10.3041 142.514 10.4623 142.552 10.6433 142.552C10.7607 142.552 10.8678 142.536 10.9645 142.503C11.0612 142.468 11.1448 142.417 11.2153 142.349C11.2857 142.282 11.3396 142.198 11.3769 142.099L11.9634 142.204C11.9164 142.377 11.8321 142.528 11.7106 142.658C11.5904 142.787 11.4391 142.887 11.2567 142.959C11.0757 143.029 10.8692 143.064 10.6371 143.064Z" fill="#E6E6E6"/>
<path d="M56.257 139.307V138.756H59.5417V139.307H58.2175V143H57.5792V139.307H56.257ZM59.7764 143V139.817H60.3753V140.322H60.4085C60.4665 140.151 60.5688 140.016 60.7152 139.918C60.863 139.819 61.0302 139.769 61.2167 139.769C61.2554 139.769 61.301 139.771 61.3535 139.773C61.4074 139.776 61.4495 139.779 61.4799 139.784V140.376C61.4551 140.369 61.4108 140.362 61.3473 140.354C61.2837 140.344 61.2202 140.339 61.1566 140.339C61.0102 140.339 60.8796 140.37 60.7649 140.432C60.6517 140.493 60.5619 140.578 60.4955 140.687C60.4292 140.795 60.3961 140.918 60.3961 141.056V143H59.7764ZM63.9217 141.68V139.817H64.5434V143H63.9342V142.449H63.901C63.8278 142.619 63.7103 142.76 63.5487 142.874C63.3884 142.985 63.1888 143.041 62.9498 143.041C62.7453 143.041 62.5643 142.997 62.4068 142.907C62.2507 142.816 62.1277 142.681 62.0379 142.503C61.9495 142.324 61.9053 142.104 61.9053 141.842V139.817H62.5249V141.767C62.5249 141.984 62.585 142.157 62.7052 142.285C62.8254 142.414 62.9815 142.478 63.1736 142.478C63.2896 142.478 63.405 142.449 63.5197 142.391C63.6357 142.333 63.7317 142.245 63.8077 142.128C63.8851 142.01 63.9231 141.861 63.9217 141.68ZM66.6371 143.064C66.3234 143.064 66.0533 142.997 65.8268 142.863C65.6016 142.728 65.4275 142.538 65.3045 142.293C65.1829 142.047 65.1221 141.759 65.1221 141.429C65.1221 141.103 65.1829 140.816 65.3045 140.567C65.4275 140.318 65.5988 140.124 65.8185 139.985C66.0395 139.845 66.2979 139.775 66.5935 139.775C66.7732 139.775 66.9472 139.805 67.1158 139.864C67.2843 139.924 67.4356 140.017 67.5696 140.144C67.7037 140.271 67.8093 140.436 67.8867 140.64C67.9641 140.841 68.0028 141.086 68.0028 141.375V141.595H65.4724V141.131H67.3956C67.3956 140.968 67.3624 140.823 67.2961 140.698C67.2298 140.57 67.1365 140.47 67.0163 140.397C66.8975 140.324 66.758 140.287 66.5977 140.287C66.4236 140.287 66.2716 140.33 66.1418 140.416C66.0133 140.5 65.9138 140.611 65.8433 140.747C65.7743 140.883 65.7397 141.03 65.7397 141.189V141.551C65.7397 141.764 65.777 141.945 65.8516 142.094C65.9276 142.244 66.0333 142.358 66.1687 142.436C66.3041 142.514 66.4623 142.552 66.6433 142.552C66.7607 142.552 66.8678 142.536 66.9645 142.503C67.0612 142.468 67.1448 142.417 67.2153 142.349C67.2857 142.282 67.3396 142.198 67.3769 142.099L67.9634 142.204C67.9164 142.377 67.8321 142.528 67.7106 142.658C67.5904 142.787 67.4391 142.887 67.2567 142.959C67.0757 143.029 66.8692 143.064 66.6371 143.064Z" fill="#E6E6E6"/>
<path d="M42.4663 113V108.756H45.0982V109.307H43.1067V110.6H44.9096V111.149H43.1067V113H42.4663ZM46.6401 113.07C46.4384 113.07 46.256 113.033 46.093 112.959C45.9299 112.883 45.8008 112.773 45.7054 112.629C45.6115 112.485 45.5645 112.309 45.5645 112.101C45.5645 111.921 45.5991 111.773 45.6681 111.657C45.7372 111.541 45.8305 111.449 45.9479 111.381C46.0653 111.314 46.1966 111.263 46.3417 111.228C46.4867 111.194 46.6346 111.167 46.7852 111.149C46.9758 111.127 47.1306 111.109 47.2494 111.095C47.3682 111.08 47.4545 111.056 47.5084 111.023C47.5623 110.99 47.5892 110.936 47.5892 110.861V110.847C47.5892 110.666 47.5381 110.526 47.4359 110.426C47.335 110.327 47.1844 110.277 46.9841 110.277C46.7755 110.277 46.6111 110.323 46.4909 110.416C46.3721 110.507 46.2899 110.608 46.2443 110.72L45.6619 110.588C45.731 110.394 45.8319 110.238 45.9645 110.119C46.0985 109.999 46.2525 109.912 46.4266 109.858C46.6007 109.803 46.7838 109.775 46.9758 109.775C47.1029 109.775 47.2376 109.791 47.3799 109.821C47.5236 109.85 47.6576 109.904 47.782 109.983C47.9077 110.061 48.0106 110.174 48.0908 110.32C48.1709 110.465 48.211 110.654 48.211 110.886V113H47.6058V112.565H47.581C47.5409 112.645 47.4808 112.724 47.4007 112.801C47.3205 112.878 47.2176 112.943 47.0919 112.994C46.9661 113.045 46.8155 113.07 46.6401 113.07ZM46.7748 112.573C46.9461 112.573 47.0926 112.539 47.2141 112.472C47.3371 112.404 47.4304 112.315 47.4939 112.206C47.5588 112.096 47.5913 111.978 47.5913 111.852V111.442C47.5692 111.464 47.5264 111.484 47.4628 111.504C47.4007 111.522 47.3295 111.538 47.2494 111.551C47.1692 111.564 47.0912 111.576 47.0152 111.587C46.9392 111.596 46.8756 111.605 46.8245 111.611C46.7043 111.627 46.5945 111.652 46.495 111.688C46.3969 111.724 46.3182 111.776 46.2588 111.844C46.2007 111.91 46.1717 111.998 46.1717 112.109C46.1717 112.262 46.2284 112.378 46.3417 112.457C46.455 112.534 46.5993 112.573 46.7748 112.573ZM49.5451 108.756V113H48.9254V108.756H49.5451ZM52.6531 110.594L52.0915 110.693C52.068 110.622 52.0307 110.553 51.9796 110.488C51.9299 110.423 51.8622 110.37 51.7765 110.329C51.6908 110.287 51.5838 110.267 51.4553 110.267C51.2798 110.267 51.1334 110.306 51.0159 110.385C50.8985 110.462 50.8398 110.562 50.8398 110.685C50.8398 110.792 50.8792 110.877 50.9579 110.942C51.0367 111.007 51.1638 111.06 51.3392 111.102L51.8449 111.218C52.1378 111.285 52.3561 111.39 52.4998 111.531C52.6435 111.672 52.7153 111.855 52.7153 112.08C52.7153 112.271 52.66 112.44 52.5495 112.59C52.4404 112.737 52.2877 112.854 52.0915 112.938C51.8967 113.022 51.6708 113.064 51.4138 113.064C51.0574 113.064 50.7666 112.988 50.5414 112.836C50.3162 112.683 50.178 112.465 50.1269 112.183L50.7258 112.092C50.7631 112.248 50.8398 112.367 50.9558 112.447C51.0719 112.525 51.2232 112.565 51.4097 112.565C51.6128 112.565 51.7751 112.523 51.8967 112.438C52.0183 112.353 52.0791 112.248 52.0791 112.125C52.0791 112.026 52.0418 111.942 51.9672 111.875C51.8939 111.807 51.7813 111.756 51.6294 111.721L51.0905 111.603C50.7935 111.536 50.5738 111.428 50.4315 111.28C50.2906 111.132 50.2201 110.945 50.2201 110.718C50.2201 110.53 50.2726 110.366 50.3776 110.225C50.4826 110.084 50.6277 109.974 50.8128 109.896C50.998 109.815 51.21 109.775 51.4491 109.775C51.7931 109.775 52.0639 109.85 52.2614 109.999C52.459 110.147 52.5896 110.345 52.6531 110.594ZM54.6576 113.064C54.344 113.064 54.0739 112.997 53.8473 112.863C53.6221 112.728 53.4481 112.538 53.3251 112.293C53.2035 112.047 53.1427 111.759 53.1427 111.429C53.1427 111.103 53.2035 110.816 53.3251 110.567C53.4481 110.318 53.6194 110.124 53.839 109.985C54.0601 109.845 54.3185 109.775 54.6141 109.775C54.7937 109.775 54.9678 109.805 55.1364 109.864C55.3049 109.924 55.4562 110.017 55.5902 110.144C55.7242 110.271 55.8299 110.436 55.9073 110.64C55.9847 110.841 56.0234 111.086 56.0234 111.375V111.595H53.493V111.131H55.4161C55.4161 110.968 55.383 110.823 55.3167 110.698C55.2503 110.57 55.1571 110.47 55.0369 110.397C54.9181 110.324 54.7785 110.287 54.6183 110.287C54.4442 110.287 54.2922 110.33 54.1623 110.416C54.0339 110.5 53.9344 110.611 53.8639 110.747C53.7948 110.883 53.7603 111.03 53.7603 111.189V111.551C53.7603 111.764 53.7976 111.945 53.8722 112.094C53.9482 112.244 54.0539 112.358 54.1893 112.436C54.3247 112.514 54.4829 112.552 54.6639 112.552C54.7813 112.552 54.8884 112.536 54.9851 112.503C55.0818 112.468 55.1654 112.417 55.2358 112.349C55.3063 112.282 55.3602 112.198 55.3975 112.099L55.984 112.204C55.937 112.377 55.8527 112.528 55.7311 112.658C55.6109 112.787 55.4597 112.887 55.2773 112.959C55.0963 113.029 54.8898 113.064 54.6576 113.064Z" fill="#E6E6E6"/>
<path d="M104.466 160V155.756H107.098V156.307H105.107V157.6H106.91V158.149H105.107V160H104.466ZM108.64 160.07C108.438 160.07 108.256 160.033 108.093 159.959C107.93 159.883 107.801 159.773 107.705 159.629C107.611 159.485 107.565 159.309 107.565 159.101C107.565 158.921 107.599 158.773 107.668 158.657C107.737 158.541 107.83 158.449 107.948 158.381C108.065 158.314 108.197 158.263 108.342 158.228C108.487 158.194 108.635 158.167 108.785 158.149C108.976 158.127 109.131 158.109 109.249 158.095C109.368 158.08 109.455 158.056 109.508 158.023C109.562 157.99 109.589 157.936 109.589 157.861V157.847C109.589 157.666 109.538 157.526 109.436 157.426C109.335 157.327 109.184 157.277 108.984 157.277C108.775 157.277 108.611 157.323 108.491 157.416C108.372 157.507 108.29 157.608 108.244 157.72L107.662 157.588C107.731 157.394 107.832 157.238 107.964 157.119C108.098 156.999 108.253 156.912 108.427 156.858C108.601 156.803 108.784 156.775 108.976 156.775C109.103 156.775 109.238 156.791 109.38 156.821C109.524 156.85 109.658 156.904 109.782 156.983C109.908 157.061 110.011 157.174 110.091 157.32C110.171 157.465 110.211 157.654 110.211 157.886V160H109.606V159.565H109.581C109.541 159.645 109.481 159.724 109.401 159.801C109.321 159.878 109.218 159.943 109.092 159.994C108.966 160.045 108.816 160.07 108.64 160.07ZM108.775 159.573C108.946 159.573 109.093 159.539 109.214 159.472C109.337 159.404 109.43 159.315 109.494 159.206C109.559 159.096 109.591 158.978 109.591 158.852V158.442C109.569 158.464 109.526 158.484 109.463 158.504C109.401 158.522 109.33 158.538 109.249 158.551C109.169 158.564 109.091 158.576 109.015 158.587C108.939 158.596 108.876 158.605 108.825 158.611C108.704 158.627 108.594 158.652 108.495 158.688C108.397 158.724 108.318 158.776 108.259 158.844C108.201 158.91 108.172 158.998 108.172 159.109C108.172 159.262 108.228 159.378 108.342 159.457C108.455 159.534 108.599 159.573 108.775 159.573ZM111.545 155.756V160H110.925V155.756H111.545ZM114.653 157.594L114.092 157.693C114.068 157.622 114.031 157.553 113.98 157.488C113.93 157.423 113.862 157.37 113.777 157.329C113.691 157.287 113.584 157.267 113.455 157.267C113.28 157.267 113.133 157.306 113.016 157.385C112.898 157.462 112.84 157.562 112.84 157.685C112.84 157.792 112.879 157.877 112.958 157.942C113.037 158.007 113.164 158.06 113.339 158.102L113.845 158.218C114.138 158.285 114.356 158.39 114.5 158.531C114.643 158.672 114.715 158.855 114.715 159.08C114.715 159.271 114.66 159.44 114.55 159.59C114.44 159.737 114.288 159.854 114.092 159.938C113.897 160.022 113.671 160.064 113.414 160.064C113.057 160.064 112.767 159.988 112.541 159.836C112.316 159.683 112.178 159.465 112.127 159.183L112.726 159.092C112.763 159.248 112.84 159.367 112.956 159.447C113.072 159.525 113.223 159.565 113.41 159.565C113.613 159.565 113.775 159.523 113.897 159.438C114.018 159.353 114.079 159.248 114.079 159.125C114.079 159.026 114.042 158.942 113.967 158.875C113.894 158.807 113.781 158.756 113.629 158.721L113.091 158.603C112.793 158.536 112.574 158.428 112.432 158.28C112.291 158.132 112.22 157.945 112.22 157.718C112.22 157.53 112.273 157.366 112.378 157.225C112.483 157.084 112.628 156.974 112.813 156.896C112.998 156.815 113.21 156.775 113.449 156.775C113.793 156.775 114.064 156.85 114.261 156.999C114.459 157.147 114.59 157.345 114.653 157.594ZM116.658 160.064C116.344 160.064 116.074 159.997 115.847 159.863C115.622 159.728 115.448 159.538 115.325 159.293C115.204 159.047 115.143 158.759 115.143 158.429C115.143 158.103 115.204 157.816 115.325 157.567C115.448 157.318 115.619 157.124 115.839 156.985C116.06 156.845 116.318 156.775 116.614 156.775C116.794 156.775 116.968 156.805 117.136 156.864C117.305 156.924 117.456 157.017 117.59 157.144C117.724 157.271 117.83 157.436 117.907 157.64C117.985 157.841 118.023 158.086 118.023 158.375V158.595H115.493V158.131H117.416C117.416 157.968 117.383 157.823 117.317 157.698C117.25 157.57 117.157 157.47 117.037 157.397C116.918 157.324 116.779 157.287 116.618 157.287C116.444 157.287 116.292 157.33 116.162 157.416C116.034 157.5 115.934 157.611 115.864 157.747C115.795 157.883 115.76 158.03 115.76 158.189V158.551C115.76 158.764 115.798 158.945 115.872 159.094C115.948 159.244 116.054 159.358 116.189 159.436C116.325 159.514 116.483 159.552 116.664 159.552C116.781 159.552 116.888 159.536 116.985 159.503C117.082 159.468 117.165 159.417 117.236 159.349C117.306 159.282 117.36 159.198 117.397 159.099L117.984 159.204C117.937 159.377 117.853 159.528 117.731 159.658C117.611 159.787 117.46 159.887 117.277 159.959C117.096 160.029 116.89 160.064 116.658 160.064Z" fill="#E6E6E6"/>
<rect x="62" y="151" width="31.1246" height="16" rx="3" stroke="white" stroke-width="1.5" stroke-linecap="round"/>
<path d="M72.9579 156.644H73.4364V161.932H72.9579V156.644ZM71.8199 158.57H73.098V158.967H71.8199V158.57ZM70.4368 157.403H70.8278V158.191C70.8278 159.329 70.1742 160.455 69.3397 160.887L69.0537 160.502C69.8124 160.128 70.4368 159.131 70.4368 158.191V157.403ZM70.536 157.403H70.9212V158.191C70.9212 159.072 71.5339 160.035 72.2984 160.397L72.0125 160.776C71.178 160.362 70.536 159.276 70.536 158.191V157.403ZM69.2463 157.187H72.1175V157.59H69.2463V157.187ZM75.7858 159.346H80.5654V159.743H75.7858V159.346ZM77.9684 159.592H78.4528V160.805H77.9684V159.592ZM76.3985 156.895H79.9468V158.751H76.3985V156.895ZM79.4682 157.286H76.8713V158.36H79.4682V157.286ZM76.3927 161.412H80.0343V161.809H76.3927V161.412ZM76.3927 160.298H76.8713V161.552H76.3927V160.298ZM82.3448 157.216H82.7417V157.642C82.7417 158.611 82.1581 159.422 81.271 159.743L81.0259 159.358C81.8196 159.078 82.3448 158.395 82.3448 157.642V157.216ZM82.4324 157.216H82.8292V157.637C82.8292 158.325 83.3311 158.944 84.1073 159.201L83.8738 159.58C82.9926 159.288 82.4324 158.535 82.4324 157.637V157.216ZM81.1718 157.041H83.9906V157.438H81.1718V157.041ZM84.6558 156.65H85.1402V159.831H84.6558V156.65ZM85.006 157.987H85.9222V158.395H85.006V157.987ZM83.4595 159.971C84.5333 159.971 85.1927 160.327 85.1927 160.94C85.1927 161.558 84.5333 161.914 83.4595 161.914C82.3857 161.914 81.7262 161.558 81.7262 160.94C81.7262 160.327 82.3857 159.971 83.4595 159.971ZM83.4595 160.362C82.6775 160.362 82.1989 160.572 82.1989 160.94C82.1989 161.313 82.6775 161.535 83.4595 161.535C84.2415 161.535 84.72 161.313 84.72 160.94C84.72 160.572 84.2415 160.362 83.4595 160.362Z" fill="#5D91F5"/>
<path d="M77.1112 113.317C77.9558 112.894 78.9499 112.894 79.7945 113.317L96.2474 120.043C98.4586 121.149 98.4586 124.304 96.2474 125.41L79.7945 132.136C78.9499 132.558 77.9558 132.558 77.1112 132.136L60.6584 125.41C58.4472 124.304 58.4472 121.149 60.6584 120.043L77.1112 113.317Z" stroke="white" stroke-width="1.5" stroke-linecap="round"/>
<path d="M78.9529 136.453C78.9529 136.177 78.729 135.953 78.4529 135.953C78.1767 135.953 77.9529 136.177 77.9529 136.453H78.9529ZM78.0993 147.354C78.2946 147.549 78.6112 147.549 78.8064 147.354L81.9884 144.172C82.1837 143.977 82.1837 143.66 81.9884 143.465C81.7932 143.269 81.4766 143.269 81.2813 143.465L78.4529 146.293L75.6245 143.465C75.4292 143.269 75.1126 143.269 74.9173 143.465C74.7221 143.66 74.7221 143.977 74.9173 144.172L78.0993 147.354ZM77.9529 136.453V147H78.9529V136.453H77.9529Z" fill="white"/>
<path d="M78.9529 136.453C78.9529 136.177 78.729 135.953 78.4529 135.953C78.1767 135.953 77.9529 136.177 77.9529 136.453H78.9529ZM78.0993 147.354C78.2946 147.549 78.6112 147.549 78.8064 147.354L81.9884 144.172C82.1837 143.977 82.1837 143.66 81.9884 143.465C81.7932 143.269 81.4766 143.269 81.2813 143.465L78.4529 146.293L75.6245 143.465C75.4292 143.269 75.1126 143.269 74.9173 143.465C74.7221 143.66 74.7221 143.977 74.9173 144.172L78.0993 147.354ZM77.9529 136.453V147H78.9529V136.453H77.9529Z" fill="white"/>
<path d="M73.9808 126.107C73.4581 126.107 73.0079 125.995 72.6303 125.772C72.255 125.546 71.9648 125.23 71.7599 124.822C71.5572 124.412 71.4559 123.932 71.4559 123.382C71.4559 122.838 71.5572 122.359 71.7599 121.945C71.9648 121.531 72.2503 121.207 72.6165 120.974C72.9849 120.742 73.4155 120.626 73.9083 120.626C74.2076 120.626 74.4977 120.675 74.7787 120.774C75.0596 120.873 75.3117 121.029 75.5351 121.24C75.7585 121.452 75.9346 121.727 76.0636 122.066C76.1925 122.402 76.257 122.811 76.257 123.292V123.658H72.0397V122.884H75.245C75.245 122.613 75.1897 122.372 75.0792 122.163C74.9686 121.951 74.8132 121.784 74.6129 121.662C74.4148 121.54 74.1823 121.479 73.9152 121.479C73.625 121.479 73.3717 121.55 73.1553 121.693C72.9411 121.833 72.7754 122.018 72.6579 122.246C72.5428 122.471 72.4852 122.716 72.4852 122.981V123.586C72.4852 123.94 72.5474 124.242 72.6717 124.491C72.7984 124.739 72.9745 124.929 73.2002 125.061C73.4259 125.189 73.6895 125.254 73.9912 125.254C74.1869 125.254 74.3653 125.226 74.5265 125.171C74.6877 125.113 74.827 125.028 74.9445 124.915C75.0619 124.803 75.1517 124.663 75.2139 124.498L76.1914 124.674C76.1131 124.961 75.9726 125.214 75.77 125.43C75.5696 125.644 75.3175 125.811 75.0135 125.931C74.7119 126.048 74.3676 126.107 73.9808 126.107ZM78.2216 118.926V126H77.1889V118.926H78.2216ZM79.397 126V120.695H80.4297V126H79.397ZM79.9185 119.876C79.7389 119.876 79.5847 119.816 79.4557 119.696C79.3291 119.574 79.2657 119.429 79.2657 119.261C79.2657 119.091 79.3291 118.946 79.4557 118.826C79.5847 118.704 79.7389 118.643 79.9185 118.643C80.0981 118.643 80.2513 118.704 80.3779 118.826C80.5069 118.946 80.5713 119.091 80.5713 119.261C80.5713 119.429 80.5069 119.574 80.3779 119.696C80.2513 119.816 80.0981 119.876 79.9185 119.876ZM84.13 120.695V121.524H81.1319V120.695H84.13ZM81.954 126V120.08C81.954 119.748 82.0265 119.473 82.1716 119.254C82.3166 119.033 82.5089 118.869 82.7484 118.76C82.9879 118.65 83.2481 118.595 83.529 118.595C83.7362 118.595 83.9135 118.612 84.0609 118.646C84.2083 118.679 84.3177 118.709 84.389 118.736L84.1473 119.572C84.0989 119.558 84.0367 119.542 83.9607 119.524C83.8848 119.503 83.7926 119.493 83.6844 119.493C83.4334 119.493 83.2538 119.555 83.1456 119.679C83.0397 119.804 82.9867 119.983 82.9867 120.218V126H81.954Z" fill="#E6E6E6"/>
<path d="M21 28C21 25.2386 23.2386 23 26 23H83C85.7614 23 88 25.2386 88 28V86C88 88.7614 85.7614 91 83 91H26C23.2386 91 21 88.7614 21 86V28Z" fill="#858F9F"/>
<path d="M54.0143 11.1083C53.4857 11.1083 53.0305 10.9953 52.6486 10.7695C52.2691 10.5413 51.9757 10.2211 51.7684 9.80894C51.5635 9.39445 51.4611 8.90895 51.4611 8.35242C51.4611 7.80288 51.5635 7.31854 51.7684 6.89939C51.9757 6.48025 52.2644 6.15309 52.6347 5.9179C53.0072 5.68272 53.4427 5.56512 53.941 5.56512C54.2437 5.56512 54.5371 5.61519 54.8212 5.71532C55.1053 5.81545 55.3602 5.97262 55.5861 6.18685C55.812 6.40108 55.9901 6.67934 56.1205 7.02164C56.2509 7.36161 56.3161 7.77493 56.3161 8.26161V8.63185H52.0513V7.84945H55.2927C55.2927 7.57468 55.2368 7.33134 55.1251 7.11944C55.0133 6.90521 54.8561 6.73639 54.6535 6.61298C54.4533 6.48957 54.2181 6.42786 53.948 6.42786C53.6546 6.42786 53.3984 6.50004 53.1795 6.64442C52.963 6.78646 52.7953 6.97274 52.6766 7.20327C52.5601 7.43147 52.5019 7.67946 52.5019 7.94725V8.5585C52.5019 8.9171 52.5648 9.22214 52.6905 9.47362C52.8186 9.72511 52.9967 9.91722 53.2249 10.0499C53.4531 10.1803 53.7198 10.2455 54.0248 10.2455C54.2227 10.2455 54.4032 10.2176 54.5662 10.1617C54.7292 10.1035 54.8701 10.0173 54.9888 9.90324C55.1076 9.78915 55.1984 9.64827 55.2613 9.48061L56.2498 9.65875C56.1706 9.94982 56.0285 10.2048 55.8236 10.4237C55.621 10.6402 55.3661 10.8091 55.0587 10.9301C54.7537 11.0489 54.4055 11.1083 54.0143 11.1083ZM58.3324 3.84664V11H57.288V3.84664H58.3324ZM59.5505 11V5.63498H60.5948V11H59.5505ZM60.0779 4.80718C59.8963 4.80718 59.7402 4.74663 59.6098 4.62555C59.4818 4.50213 59.4177 4.35543 59.4177 4.18545C59.4177 4.01313 59.4818 3.86643 59.6098 3.74535C59.7402 3.62194 59.8963 3.56023 60.0779 3.56023C60.2595 3.56023 60.4144 3.62194 60.5424 3.74535C60.6728 3.86643 60.738 4.01313 60.738 4.18545C60.738 4.35543 60.6728 4.50213 60.5424 4.62555C60.4144 4.74663 60.2595 4.80718 60.0779 4.80718ZM64.3662 5.63498V6.47327H61.3344V5.63498H64.3662ZM62.1657 11V5.01325C62.1657 4.67794 62.2391 4.39968 62.3858 4.17846C62.5325 3.95492 62.7269 3.78843 62.9691 3.67899C63.2113 3.56721 63.4744 3.51133 63.7585 3.51133C63.968 3.51133 64.1473 3.52879 64.2964 3.56372C64.4454 3.59632 64.556 3.62659 64.6282 3.65454L64.3837 4.49981C64.3348 4.48583 64.2719 4.46953 64.1951 4.45091C64.1182 4.42995 64.0251 4.41947 63.9156 4.41947C63.6618 4.41947 63.4802 4.48234 63.3708 4.60808C63.2636 4.73383 63.2101 4.91545 63.2101 5.15297V11H62.1657Z" fill="white"/>
<path d="M23 17L88 17" stroke="white" stroke-linecap="round"/>
<path d="M41.4515 35V31.2713H42.3303V35H41.4515ZM41.8933 30.7421C41.7541 30.7421 41.6344 30.696 41.5341 30.6038C41.4337 30.5099 41.3835 30.3974 41.3835 30.2664C41.3835 30.1337 41.4337 30.0212 41.5341 29.9289C41.6344 29.8351 41.7541 29.7881 41.8933 29.7881C42.0341 29.7881 42.1539 29.8351 42.2526 29.9289C42.3529 30.0212 42.4031 30.1337 42.4031 30.2664C42.4031 30.3974 42.3529 30.5099 42.2526 30.6038C42.1539 30.696 42.0341 30.7421 41.8933 30.7421ZM44.9926 31.2713V31.951H42.7885V31.2713H44.9926ZM43.3395 35V30.9194C43.3395 30.6685 43.3913 30.4597 43.4949 30.2931C43.6001 30.1264 43.7409 30.0018 43.9172 29.9192C44.0936 29.8367 44.2895 29.7954 44.5047 29.7954C44.6568 29.7954 44.792 29.8076 44.9101 29.8318C45.0282 29.8561 45.1156 29.878 45.1723 29.8974L44.9975 30.5771C44.9603 30.5657 44.9133 30.5544 44.8567 30.5431C44.8001 30.5301 44.7369 30.5237 44.6674 30.5237C44.5039 30.5237 44.3882 30.5633 44.3202 30.6426C44.2539 30.7203 44.2207 30.832 44.2207 30.9776V35H43.3395ZM59.9752 35.0534C59.8279 35.0534 59.7017 35.0016 59.5965 34.898C59.4913 34.7945 59.4395 34.6682 59.4411 34.5194C59.4395 34.3737 59.4913 34.2491 59.5965 34.1455C59.7017 34.0419 59.8279 33.9902 59.9752 33.9902C60.1176 33.9902 60.2414 34.0419 60.3466 34.1455C60.4534 34.2491 60.5076 34.3737 60.5092 34.5194C60.5076 34.6181 60.4817 34.7079 60.4316 34.7888C60.383 34.8697 60.3183 34.9345 60.2374 34.983C60.1581 35.0299 60.0707 35.0534 59.9752 35.0534ZM59.9752 32.3929C59.8279 32.3929 59.7017 32.3411 59.5965 32.2375C59.4913 32.1323 59.4395 32.0061 59.4411 31.8588C59.4395 31.7132 59.4913 31.5885 59.5965 31.485C59.7017 31.3798 59.8279 31.3272 59.9752 31.3272C60.1176 31.3272 60.2414 31.3798 60.3466 31.485C60.4534 31.5885 60.5076 31.7132 60.5092 31.8588C60.5076 31.9559 60.4817 32.0449 60.4316 32.1258C60.383 32.2067 60.3183 32.2715 60.2374 32.32C60.1581 32.3686 60.0707 32.3929 59.9752 32.3929ZM43.1022 55.0728C42.7284 55.0728 42.4055 54.9951 42.1336 54.8398C41.8634 54.6828 41.6554 54.4611 41.5098 54.1746C41.3641 53.8866 41.2913 53.5475 41.2913 53.1575C41.2913 52.774 41.3641 52.4374 41.5098 52.1477C41.657 51.8564 41.8626 51.6298 42.1264 51.468C42.3902 51.3045 42.7001 51.2228 43.0561 51.2228C43.2859 51.2228 43.5028 51.26 43.7067 51.3345C43.9122 51.4073 44.0935 51.5206 44.2504 51.6743C44.409 51.8281 44.5336 52.0239 44.6243 52.2618C44.7149 52.498 44.7602 52.7796 44.7602 53.1065V53.376H41.704V52.7837H43.9179C43.9162 52.6154 43.8798 52.4657 43.8086 52.3346C43.7374 52.2019 43.6379 52.0975 43.51 52.0214C43.3838 51.9454 43.2365 51.9074 43.0682 51.9074C42.8886 51.9074 42.7308 51.951 42.5949 52.0384C42.4589 52.1242 42.3529 52.2375 42.2769 52.3783C42.2024 52.5175 42.1644 52.6704 42.1628 52.8371V53.3541C42.1628 53.571 42.2024 53.7571 42.2817 53.9125C42.361 54.0662 42.4719 54.1844 42.6143 54.2669C42.7567 54.3478 42.9234 54.3883 43.1144 54.3883C43.2422 54.3883 43.3579 54.3705 43.4615 54.3349C43.5651 54.2976 43.6549 54.2434 43.7309 54.1722C43.807 54.101 43.8645 54.0128 43.9033 53.9076L44.7238 53.9999C44.672 54.2167 44.5733 54.4061 44.4276 54.5679C44.2836 54.7281 44.0991 54.8527 43.8742 54.9417C43.6492 55.0291 43.3919 55.0728 43.1022 55.0728ZM46.2525 50.0285V55H45.3738V50.0285H46.2525ZM47.0263 55V51.2713H47.905V55H47.0263ZM47.4681 50.7421C47.3289 50.7421 47.2091 50.696 47.1088 50.6038C47.0085 50.5099 46.9583 50.3974 46.9583 50.2664C46.9583 50.1337 47.0085 50.0212 47.1088 49.9289C47.2091 49.8351 47.3289 49.7881 47.4681 49.7881C47.6089 49.7881 47.7286 49.8351 47.8274 49.9289C47.9277 50.0212 47.9779 50.1337 47.9779 50.2664C47.9779 50.3974 47.9277 50.5099 47.8274 50.6038C47.7286 50.696 47.6089 50.7421 47.4681 50.7421ZM50.5674 51.2713V51.951H48.3632V51.2713H50.5674ZM48.9143 55V50.9194C48.9143 50.6685 48.966 50.4597 49.0696 50.2931C49.1748 50.1264 49.3156 50.0018 49.492 49.9192C49.6684 49.8367 49.8642 49.7954 50.0795 49.7954C50.2316 49.7954 50.3667 49.8076 50.4849 49.8318C50.603 49.8561 50.6904 49.878 50.747 49.8974L50.5722 50.5771C50.535 50.5657 50.4881 50.5544 50.4315 50.5431C50.3748 50.5301 50.3117 50.5237 50.2421 50.5237C50.0787 50.5237 49.9629 50.5633 49.895 50.6426C49.8286 50.7203 49.7954 50.832 49.7954 50.9776V55H48.9143ZM65.5499 55.0534C65.4027 55.0534 65.2764 55.0016 65.1713 54.898C65.0661 54.7945 65.0143 54.6682 65.0159 54.5194C65.0143 54.3737 65.0661 54.2491 65.1713 54.1455C65.2764 54.0419 65.4027 53.9902 65.5499 53.9902C65.6924 53.9902 65.8162 54.0419 65.9214 54.1455C66.0282 54.2491 66.0824 54.3737 66.084 54.5194C66.0824 54.6181 66.0565 54.7079 66.0063 54.7888C65.9578 54.8697 65.893 54.9345 65.8121 54.983C65.7328 55.0299 65.6454 55.0534 65.5499 55.0534ZM65.5499 52.3929C65.4027 52.3929 65.2764 52.3411 65.1713 52.2375C65.0661 52.1323 65.0143 52.0061 65.0159 51.8588C65.0143 51.7132 65.0661 51.5885 65.1713 51.485C65.2764 51.3798 65.4027 51.3272 65.5499 51.3272C65.6924 51.3272 65.8162 51.3798 65.9214 51.485C66.0282 51.5885 66.0824 51.7132 66.084 51.8588C66.0824 51.9559 66.0565 52.0449 66.0063 52.1258C65.9578 52.2067 65.893 52.2715 65.8121 52.32C65.7328 52.3686 65.6454 52.3929 65.5499 52.3929ZM45.3203 69.2715H46.2363V75.6221H45.3203V69.2715ZM46.0312 71.6162H47.1523V72.3614H46.0312V71.6162ZM41.5195 73.3457H42.0527C43.1191 73.3457 43.9599 73.3115 44.8896 73.1475L44.9785 73.8994C44.0215 74.0703 43.1533 74.0977 42.0527 74.0977H41.5195V73.3457ZM41.5195 69.8594H44.4726V70.5909H42.4219V73.708H41.5195V69.8594ZM50.2962 69.3946C51.6908 69.3946 52.5863 69.8663 52.5863 70.6319C52.5863 71.3975 51.6908 71.8623 50.2962 71.8623C48.9017 71.8623 48.0062 71.3975 48.0062 70.6319C48.0062 69.8663 48.9017 69.3946 50.2962 69.3946ZM50.2962 70.0987C49.4281 70.0987 48.9427 70.2696 48.9427 70.6319C48.9427 70.9873 49.4281 71.1651 50.2962 71.1651C51.1576 71.1651 51.6497 70.9873 51.6497 70.6319C51.6497 70.2696 51.1576 70.0987 50.2962 70.0987ZM48.0951 73.3799H52.4701V75.54H48.0951V73.3799ZM51.5814 74.0977H48.9906V74.8223H51.5814V74.0977ZM47.432 72.2246H53.1536V72.9424H47.432V72.2246ZM53.5906 72.4024H59.3191V73.127H53.5906V72.4024ZM56.072 72.8604H56.988V74.1934H56.072V72.8604ZM54.2947 69.545H58.5945V71.8965H54.2947V69.545ZM57.699 70.2559H55.1834V71.1856H57.699V70.2559ZM54.2537 74.7744H58.6902V75.499H54.2537V74.7744ZM54.2537 73.6602H55.156V75.0137H54.2537V73.6602ZM61.1574 69.9825H61.9025V70.379C61.9025 71.5889 61.3351 72.6758 60.1115 73.0791L59.6603 72.3614C60.713 72.0127 61.1574 71.1856 61.1574 70.379V69.9825ZM61.3419 69.9825H62.0802V70.379C62.0802 71.1172 62.504 71.8418 63.5226 72.1494L63.0919 72.8604C61.8888 72.4981 61.3419 71.5069 61.3419 70.379V69.9825ZM59.8996 69.7022H63.3175V70.4268H59.8996V69.7022ZM63.8234 69.2784H64.7325V73.0313H63.8234V69.2784ZM64.4796 70.7344H65.5733V71.4795H64.4796V70.7344ZM62.6681 73.1475C63.9806 73.1475 64.8077 73.6055 64.8077 74.3779C64.8077 75.1504 63.9806 75.6084 62.6681 75.6084C61.3488 75.6084 60.5216 75.1504 60.5216 74.3779C60.5216 73.6055 61.3488 73.1475 62.6681 73.1475ZM62.6681 73.8584C61.8615 73.8584 61.424 74.0225 61.424 74.3779C61.424 74.7334 61.8615 74.9111 62.6681 74.9111C63.4747 74.9111 63.9054 74.7334 63.9054 74.3779C63.9054 74.0225 63.4747 73.8584 62.6681 73.8584Z" fill="white"/>
<path d="M46.9454 34.1387H52.6739V34.877H46.9454V34.1387ZM49.3517 32.7373H50.2608V34.3438H49.3517V32.7373ZM49.3243 30.1055H50.0899V30.3311C50.0899 31.6641 49.1329 32.7237 47.5197 33.0176L47.1642 32.2998C48.5724 32.0811 49.3243 31.2061 49.3243 30.3311V30.1055ZM49.5089 30.1055H50.2745V30.3311C50.2745 31.2061 51.0265 32.0537 52.4688 32.2657L52.1202 32.9834C50.4796 32.6963 49.5089 31.6641 49.5089 30.3311V30.1055ZM47.4171 29.7569H52.1817V30.4815H47.4171V29.7569ZM57.4858 29.2784H58.395V33.9063H57.4858V29.2784ZM56.3921 31.1172H57.6157V31.8555H56.3921V31.1172ZM55.4897 29.7501H56.4468C56.4468 31.459 55.3872 32.71 53.5484 33.291L53.1724 32.5664C54.6284 32.1084 55.4897 31.2334 55.4897 30.1602V29.7501ZM53.5005 29.7501H56.0708V30.4815H53.5005V29.7501ZM54.2456 34.7744H58.5522V35.499H54.2456V34.7744ZM54.2456 33.4483H55.1616V35.1914H54.2456V33.4483ZM52.5202 54.1387H58.2487V54.877H52.5202V54.1387ZM54.9264 52.7373H55.8356V54.3438H54.9264V52.7373ZM54.8991 50.1055H55.6647V50.3311C55.6647 51.6641 54.7077 52.7237 53.0944 53.0176L52.7389 52.2998C54.1471 52.0811 54.8991 51.2061 54.8991 50.3311V50.1055ZM55.0836 50.1055H55.8493V50.3311C55.8493 51.2061 56.6012 52.0537 58.0436 52.2657L57.6949 52.9834C56.0543 52.6963 55.0836 51.6641 55.0836 50.3311V50.1055ZM52.9919 49.7569H57.7565V50.4815H52.9919V49.7569ZM63.0606 49.2784H63.9697V53.9063H63.0606V49.2784ZM61.9668 51.1172H63.1905V51.8555H61.9668V51.1172ZM61.0645 49.7501H62.0215C62.0215 51.459 60.962 52.71 59.1231 53.291L58.7471 52.5664C60.2032 52.1084 61.0645 51.2334 61.0645 50.1602V49.7501ZM59.0753 49.7501H61.6455V50.4815H59.0753V49.7501ZM59.8204 54.7744H64.127V55.499H59.8204V54.7744ZM59.8204 53.4483H60.7364V55.1914H59.8204V53.4483Z" fill="#7737FF"/>
<path d="M51.8771 39.2715H52.7932V45.6221H51.8771V39.2715ZM49.3821 39.7159C50.3391 39.7159 51.0432 40.5909 51.0432 41.9717C51.0432 43.3662 50.3391 44.2412 49.3821 44.2412C48.425 44.2412 47.7209 43.3662 47.7209 41.9717C47.7209 40.5909 48.425 39.7159 49.3821 39.7159ZM49.3821 40.543C48.9104 40.543 48.5891 41.042 48.5891 41.9717C48.5891 42.9151 48.9104 43.4209 49.3821 43.4209C49.8537 43.4209 50.1682 42.9151 50.1682 41.9717C50.1682 41.042 49.8537 40.543 49.3821 40.543ZM53.695 42.4024H59.4234V43.127H53.695V42.4024ZM56.1764 42.8604H57.0924V44.1934H56.1764V42.8604ZM54.399 39.545H58.6988V41.8965H54.399V39.545ZM57.8033 40.2559H55.2877V41.1856H57.8033V40.2559ZM54.358 44.7744H58.7945V45.499H54.358V44.7744ZM54.358 43.6602H55.2604V45.0137H54.358V43.6602ZM61.2617 39.9825H62.0068V40.379C62.0068 41.5889 61.4395 42.6758 60.2158 43.0791L59.7647 42.3614C60.8174 42.0127 61.2617 41.1856 61.2617 40.379V39.9825ZM61.4463 39.9825H62.1846V40.379C62.1846 41.1172 62.6084 41.8418 63.6269 42.1494L63.1963 42.8604C61.9932 42.4981 61.4463 41.5069 61.4463 40.379V39.9825ZM60.0039 39.7022H63.4219V40.4268H60.0039V39.7022ZM63.9277 39.2784H64.8369V43.0313H63.9277V39.2784ZM64.584 40.7344H65.6777V41.4795H64.584V40.7344ZM62.7724 43.1475C64.0849 43.1475 64.9121 43.6055 64.9121 44.3779C64.9121 45.1504 64.0849 45.6084 62.7724 45.6084C61.4531 45.6084 60.626 45.1504 60.626 44.3779C60.626 43.6055 61.4531 43.1475 62.7724 43.1475ZM62.7724 43.8584C61.9658 43.8584 61.5283 44.0225 61.5283 44.3779C61.5283 44.7334 61.9658 44.9111 62.7724 44.9111C63.5791 44.9111 64.0097 44.7334 64.0097 44.3779C64.0097 44.0225 63.5791 43.8584 62.7724 43.8584Z" fill="#70D84B"/>
<path d="M51.9387 59.2715H52.8478V65.6221H51.9387V59.2715ZM50.8313 61.4864H52.1506V62.2178H50.8313V61.4864ZM48.9992 60.2764H49.717V60.837C49.717 62.3819 49.1565 63.8584 47.9739 64.4395L47.4407 63.7217C48.5002 63.2227 48.9992 62.0127 48.9992 60.837V60.2764ZM49.2112 60.2764H49.9221V60.837C49.9221 61.9512 50.4143 63.1201 51.4738 63.5986L50.9475 64.3096C49.758 63.749 49.2112 62.334 49.2112 60.837V60.2764ZM47.7004 59.8868H51.2209V60.6182H47.7004V59.8868ZM53.695 62.4024H59.4234V63.127H53.695V62.4024ZM56.1764 62.8604H57.0924V64.1934H56.1764V62.8604ZM54.399 59.545H58.6988V61.8965H54.399V59.545ZM57.8033 60.2559H55.2877V61.1856H57.8033V60.2559ZM54.358 64.7744H58.7945V65.499H54.358V64.7744ZM54.358 63.6602H55.2604V65.0137H54.358V63.6602ZM61.2617 59.9825H62.0068V60.379C62.0068 61.5889 61.4395 62.6758 60.2158 63.0791L59.7647 62.3614C60.8174 62.0127 61.2617 61.1856 61.2617 60.379V59.9825ZM61.4463 59.9825H62.1846V60.379C62.1846 61.1172 62.6084 61.8418 63.6269 62.1494L63.1963 62.8604C61.9932 62.4981 61.4463 61.5069 61.4463 60.379V59.9825ZM60.0039 59.7022H63.4219V60.4268H60.0039V59.7022ZM63.9277 59.2784H64.8369V63.0313H63.9277V59.2784ZM64.584 60.7344H65.6777V61.4795H64.584V60.7344ZM62.7724 63.1475C64.0849 63.1475 64.9121 63.6055 64.9121 64.3779C64.9121 65.1504 64.0849 65.6084 62.7724 65.6084C61.4531 65.6084 60.626 65.1504 60.626 64.3779C60.626 63.6055 61.4531 63.1475 62.7724 63.1475ZM62.7724 63.8584C61.9658 63.8584 61.5283 64.0225 61.5283 64.3779C61.5283 64.7334 61.9658 64.9111 62.7724 64.9111C63.5791 64.9111 64.0097 64.7334 64.0097 64.3779C64.0097 64.0225 63.5791 63.8584 62.7724 63.8584Z" fill="#175EE7"/>
<path d="M78.0622 171C78.0622 170.724 77.8383 170.5 77.5622 170.5C77.2861 170.5 77.0622 170.724 77.0622 171H78.0622ZM39.771 191.959C39.5757 192.155 39.5757 192.471 39.771 192.667L42.9529 195.849C43.1482 196.044 43.4648 196.044 43.66 195.849C43.8553 195.653 43.8553 195.337 43.66 195.141L40.8316 192.313L43.66 189.485C43.8553 189.289 43.8553 188.973 43.66 188.777C43.4648 188.582 43.1482 188.582 42.9529 188.777L39.771 191.959ZM77.5622 171H78.0622H77.5622ZM56.2492 191.813H40.1245V192.813H56.2492V191.813ZM77.0622 171C77.0622 182.495 67.7439 191.813 56.2492 191.813V192.813C68.2962 192.813 78.0622 183.047 78.0622 171H77.0622Z" fill="white"/>
<path d="M43.9058 122.227C43.6296 122.227 43.4058 122.45 43.4058 122.727C43.4058 123.003 43.6296 123.227 43.9058 123.227V122.227ZM55.3535 123.08C55.5488 122.885 55.5488 122.568 55.3535 122.373L52.1716 119.191C51.9763 118.996 51.6597 118.996 51.4645 119.191C51.2692 119.386 51.2692 119.703 51.4645 119.898L54.2929 122.727L51.4645 125.555C51.2692 125.75 51.2692 126.067 51.4645 126.262C51.6597 126.457 51.9763 126.457 52.1716 126.262L55.3535 123.08ZM43.9058 123.227H55V122.227H43.9058V123.227Z" fill="white"/>
<path d="M101.906 122.227C101.63 122.227 101.406 122.45 101.406 122.727C101.406 123.003 101.63 123.227 101.906 123.227V122.227ZM39.771 191.96C39.5757 192.155 39.5757 192.471 39.771 192.667L42.9529 195.849C43.1482 196.044 43.4648 196.044 43.66 195.849C43.8553 195.653 43.8553 195.337 43.66 195.142L40.8316 192.313L43.66 189.485C43.8553 189.289 43.8553 188.973 43.66 188.778C43.4648 188.582 43.1482 188.582 42.9529 188.778L39.771 191.96ZM120.5 141.821V168.313H121.5V141.821H120.5ZM96.9999 191.813H40.1245V192.813H96.9999V191.813ZM120.5 168.313C120.5 181.292 109.979 191.813 96.9999 191.813V192.813C110.531 192.813 121.5 181.844 121.5 168.313H120.5ZM101.906 123.227C112.175 123.227 120.5 131.551 120.5 141.821H121.5C121.5 130.999 112.727 122.227 101.906 122.227V123.227Z" fill="white"/>
</svg>
