<svg width="156" height="212" viewBox="0 0 156 212" fill="none" xmlns="http://www.w3.org/2000/svg">
<path d="M19.1112 122.317C19.9558 121.894 20.9499 121.894 21.7945 122.317L38.2474 129.043C40.4586 130.149 40.4586 133.304 38.2474 134.41L21.7945 141.136C20.9499 141.558 19.9558 141.558 19.1112 141.136L2.65836 134.41C0.447217 133.304 0.44721 130.149 2.65836 129.043L19.1112 122.317Z" stroke="white" stroke-width="1.5" stroke-linecap="round"/>
<path d="M17.986 135.785V130.48H19.0187V135.785H17.986ZM18.5076 129.661C18.3279 129.661 18.1737 129.601 18.0447 129.482C17.9181 129.36 17.8547 129.215 17.8547 129.046C17.8547 128.876 17.9181 128.731 18.0447 128.611C18.1737 128.489 18.3279 128.428 18.5076 128.428C18.6872 128.428 18.8403 128.489 18.9669 128.611C19.0959 128.731 19.1604 128.876 19.1604 129.046C19.1604 129.215 19.0959 129.36 18.9669 129.482C18.8403 129.601 18.6872 129.661 18.5076 129.661ZM22.719 130.48V131.309H19.7209V130.48H22.719ZM20.543 135.785V129.865C20.543 129.533 20.6155 129.258 20.7606 129.04C20.9057 128.818 21.0979 128.654 21.3374 128.546C21.5769 128.435 21.8371 128.38 22.118 128.38C22.3252 128.38 22.5026 128.397 22.6499 128.432C22.7973 128.464 22.9067 128.494 22.978 128.521L22.7363 129.357C22.6879 129.343 22.6257 129.327 22.5498 129.309C22.4738 129.288 22.3817 129.278 22.2734 129.278C22.0224 129.278 21.8428 129.34 21.7346 129.464C21.6287 129.589 21.5757 129.768 21.5757 130.003V135.785H20.543Z" fill="#E6E6E6"/>
<rect x="5" y="160" width="31.1246" height="16" rx="3" stroke="white" stroke-width="1.5" stroke-linecap="round"/>
<path d="M12.967 198.159H13.4572V203.446H12.967V198.159ZM13.3405 200.242H14.3209V200.651H13.3405V200.242ZM9.62305 201.724H10.0374C11.012 201.724 11.6948 201.689 12.4826 201.543L12.5352 201.952C11.724 202.104 11.0295 202.133 10.0374 202.133H9.62305V201.724ZM9.62305 198.672H12.0741V199.069H10.1016V201.905H9.62305V198.672ZM17.04 198.281C18.178 198.281 18.8958 198.655 18.8958 199.279C18.8958 199.904 18.178 200.271 17.04 200.271C15.8962 200.271 15.1842 199.904 15.1842 199.279C15.1842 198.655 15.8962 198.281 17.04 198.281ZM17.04 198.666C16.1996 198.666 15.6802 198.888 15.6802 199.279C15.6802 199.664 16.1996 199.892 17.04 199.892C17.8745 199.892 18.3997 199.664 18.3997 199.279C18.3997 198.888 17.8745 198.666 17.04 198.666ZM15.2367 201.631H18.8374V203.37H15.2367V201.631ZM18.3647 202.022H15.7152V202.979H18.3647V202.022ZM14.6531 200.726H19.421V201.117H14.6531V200.726ZM21.3443 200.861H26.1239V201.257H21.3443V200.861ZM23.527 201.106H24.0113V202.32H23.527V201.106ZM21.9571 198.41H25.5053V200.265H21.9571V198.41ZM25.0268 198.801H22.4298V199.874H25.0268V198.801ZM21.9513 202.927H25.5929V203.323H21.9513V202.927ZM21.9513 201.812H22.4298V203.067H21.9513V201.812ZM27.9034 198.731H28.3002V199.157C28.3002 200.125 27.7167 200.936 26.8296 201.257L26.5845 200.872C27.3782 200.592 27.9034 199.909 27.9034 199.157V198.731ZM27.9909 198.731H28.3878V199.151C28.3878 199.839 28.8897 200.458 29.6658 200.715L29.4324 201.094C28.5512 200.802 27.9909 200.049 27.9909 199.151V198.731ZM26.7304 198.555H29.5491V198.952H26.7304V198.555ZM30.2144 198.164H30.6988V201.345H30.2144V198.164ZM30.5646 199.501H31.4808V199.909H30.5646V199.501ZM29.0181 201.485C30.0919 201.485 30.7513 201.841 30.7513 202.454C30.7513 203.072 30.0919 203.428 29.0181 203.428C27.9443 203.428 27.2848 203.072 27.2848 202.454C27.2848 201.841 27.9443 201.485 29.0181 201.485ZM29.0181 201.876C28.236 201.876 27.7575 202.086 27.7575 202.454C27.7575 202.827 28.236 203.049 29.0181 203.049C29.8001 203.049 30.2786 202.827 30.2786 202.454C30.2786 202.086 29.8001 201.876 29.0181 201.876Z" fill="#E6E6E6"/>
<path d="M21.0623 145.453C21.0623 145.177 20.8384 144.953 20.5623 144.953C20.2861 144.953 20.0623 145.177 20.0623 145.453H21.0623ZM20.2087 156.354C20.404 156.549 20.7205 156.549 20.9158 156.354L24.0978 153.172C24.2931 152.977 24.2931 152.66 24.0978 152.465C23.9025 152.269 23.5859 152.269 23.3907 152.465L20.5623 155.293L17.7338 152.465C17.5386 152.269 17.222 152.269 17.0267 152.465C16.8315 152.66 16.8315 152.977 17.0267 153.172L20.2087 156.354ZM20.0623 145.453V156H21.0623V145.453H20.0623Z" fill="white"/>
<rect x="5" y="193.313" width="31.1246" height="16" rx="6.4" stroke="white" stroke-width="1.5" stroke-linecap="round"/>
<path d="M21.0624 180C21.0624 179.724 20.8385 179.5 20.5624 179.5C20.2862 179.5 20.0624 179.724 20.0624 180H21.0624ZM20.2088 189.667C20.4041 189.862 20.7207 189.862 20.9159 189.667L24.0979 186.485C24.2932 186.289 24.2932 185.973 24.0979 185.777C23.9026 185.582 23.5861 185.582 23.3908 185.777L20.5624 188.606L17.734 185.777C17.5387 185.582 17.2221 185.582 17.0268 185.777C16.8316 185.973 16.8316 186.289 17.0268 186.485L20.2088 189.667ZM20.0624 180V189.313H21.0624V180H20.0624Z" fill="white"/>
<path d="M15.9287 165.644H16.4131V170.932H15.9287V165.644ZM13.6294 166.053C14.4114 166.053 14.9716 166.771 14.9716 167.891C14.9716 169.018 14.4114 169.735 13.6294 169.735C12.8532 169.735 12.293 169.018 12.293 167.891C12.293 166.771 12.8532 166.053 13.6294 166.053ZM13.6294 166.491C13.1158 166.491 12.754 167.039 12.754 167.891C12.754 168.749 13.1158 169.309 13.6294 169.309C14.1488 169.309 14.5048 168.749 14.5048 167.891C14.5048 167.039 14.1488 166.491 13.6294 166.491ZM18.7858 168.346H23.5654V168.743H18.7858V168.346ZM20.9684 168.592H21.4528V169.805H20.9684V168.592ZM19.3985 165.895H22.9468V167.751H19.3985V165.895ZM22.4682 166.286H19.8713V167.36H22.4682V166.286ZM19.3927 170.412H23.0343V170.809H19.3927V170.412ZM19.3927 169.298H19.8713V170.552H19.3927V169.298ZM25.3448 166.216H25.7417V166.642C25.7417 167.611 25.1581 168.422 24.271 168.743L24.0259 168.358C24.8196 168.078 25.3448 167.395 25.3448 166.642V166.216ZM25.4324 166.216H25.8292V166.637C25.8292 167.325 26.3311 167.944 27.1073 168.201L26.8738 168.58C25.9926 168.288 25.4324 167.535 25.4324 166.637V166.216ZM24.1718 166.041H26.9906V166.438H24.1718V166.041ZM27.6558 165.65H28.1402V168.831H27.6558V165.65ZM28.006 166.987H28.9222V167.395H28.006V166.987ZM26.4595 168.971C27.5333 168.971 28.1927 169.327 28.1927 169.94C28.1927 170.558 27.5333 170.914 26.4595 170.914C25.3857 170.914 24.7262 170.558 24.7262 169.94C24.7262 169.327 25.3857 168.971 26.4595 168.971ZM26.4595 169.362C25.6775 169.362 25.1989 169.572 25.1989 169.94C25.1989 170.313 25.6775 170.535 26.4595 170.535C27.2415 170.535 27.72 170.313 27.72 169.94C27.72 169.572 27.2415 169.362 26.4595 169.362Z" fill="#70D84B"/>
<path d="M0.256977 148.307V147.756H3.54172V148.307H2.21746V152H1.57917V148.307H0.256977ZM3.77641 152V148.817H4.37534V149.322H4.4085C4.46652 149.151 4.56876 149.016 4.71521 148.918C4.86304 148.819 5.03021 148.769 5.21673 148.769C5.25541 148.769 5.30101 148.771 5.35351 148.773C5.40739 148.776 5.44953 148.779 5.47992 148.784V149.376C5.45506 149.369 5.41084 149.362 5.34729 149.354C5.28374 149.344 5.22018 149.339 5.15663 149.339C5.01018 149.339 4.87962 149.37 4.76495 149.432C4.65166 149.493 4.56185 149.578 4.49554 149.687C4.42922 149.795 4.39606 149.918 4.39606 150.056V152H3.77641ZM7.92172 150.68V148.817H8.54344V152H7.93415V151.449H7.90099C7.82777 151.619 7.71033 151.76 7.54869 151.874C7.38842 151.985 7.18878 152.041 6.94976 152.041C6.74529 152.041 6.5643 151.997 6.4068 151.907C6.25067 151.816 6.12771 151.681 6.03791 151.503C5.94949 151.324 5.90528 151.104 5.90528 150.842V148.817H6.52492V150.767C6.52492 150.984 6.58502 151.157 6.70522 151.285C6.82542 151.414 6.98154 151.478 7.17358 151.478C7.28964 151.478 7.405 151.449 7.51967 151.391C7.63573 151.333 7.73175 151.245 7.80773 151.128C7.8851 151.01 7.9231 150.861 7.92172 150.68ZM10.6371 152.064C10.3234 152.064 10.0533 151.997 9.82676 151.863C9.60156 151.728 9.42748 151.538 9.30451 151.293C9.18293 151.047 9.12214 150.759 9.12214 150.429C9.12214 150.103 9.18293 149.816 9.30451 149.567C9.42748 149.318 9.59879 149.124 9.81847 148.985C10.0395 148.845 10.2979 148.775 10.5935 148.775C10.7732 148.775 10.9472 148.805 11.1158 148.864C11.2843 148.924 11.4356 149.017 11.5696 149.144C11.7037 149.271 11.8093 149.436 11.8867 149.64C11.9641 149.841 12.0028 150.086 12.0028 150.375V150.595H9.47238V150.131H11.3956C11.3956 149.968 11.3624 149.823 11.2961 149.698C11.2298 149.57 11.1365 149.47 11.0163 149.397C10.8975 149.324 10.758 149.287 10.5977 149.287C10.4236 149.287 10.2716 149.33 10.1418 149.416C10.0133 149.5 9.9138 149.611 9.84334 149.747C9.77426 149.883 9.73972 150.03 9.73972 150.189V150.551C9.73972 150.764 9.77702 150.945 9.85163 151.094C9.92761 151.244 10.0333 151.358 10.1687 151.436C10.3041 151.514 10.4623 151.552 10.6433 151.552C10.7607 151.552 10.8678 151.536 10.9645 151.503C11.0612 151.468 11.1448 151.417 11.2153 151.349C11.2857 151.282 11.3396 151.198 11.3769 151.099L11.9634 151.204C11.9164 151.377 11.8321 151.528 11.7106 151.658C11.5904 151.787 11.4391 151.887 11.2567 151.959C11.0757 152.029 10.8692 152.064 10.6371 152.064Z" fill="#E6E6E6"/>
<path d="M56.257 148.307V147.756H59.5417V148.307H58.2175V152H57.5792V148.307H56.257ZM59.7764 152V148.817H60.3753V149.322H60.4085C60.4665 149.151 60.5688 149.016 60.7152 148.918C60.863 148.819 61.0302 148.769 61.2167 148.769C61.2554 148.769 61.301 148.771 61.3535 148.773C61.4074 148.776 61.4495 148.779 61.4799 148.784V149.376C61.4551 149.369 61.4108 149.362 61.3473 149.354C61.2837 149.344 61.2202 149.339 61.1566 149.339C61.0102 149.339 60.8796 149.37 60.7649 149.432C60.6517 149.493 60.5619 149.578 60.4955 149.687C60.4292 149.795 60.3961 149.918 60.3961 150.056V152H59.7764ZM63.9217 150.68V148.817H64.5434V152H63.9342V151.449H63.901C63.8278 151.619 63.7103 151.76 63.5487 151.874C63.3884 151.985 63.1888 152.041 62.9498 152.041C62.7453 152.041 62.5643 151.997 62.4068 151.907C62.2507 151.816 62.1277 151.681 62.0379 151.503C61.9495 151.324 61.9053 151.104 61.9053 150.842V148.817H62.5249V150.767C62.5249 150.984 62.585 151.157 62.7052 151.285C62.8254 151.414 62.9815 151.478 63.1736 151.478C63.2896 151.478 63.405 151.449 63.5197 151.391C63.6357 151.333 63.7317 151.245 63.8077 151.128C63.8851 151.01 63.9231 150.861 63.9217 150.68ZM66.6371 152.064C66.3234 152.064 66.0533 151.997 65.8268 151.863C65.6016 151.728 65.4275 151.538 65.3045 151.293C65.1829 151.047 65.1221 150.759 65.1221 150.429C65.1221 150.103 65.1829 149.816 65.3045 149.567C65.4275 149.318 65.5988 149.124 65.8185 148.985C66.0395 148.845 66.2979 148.775 66.5935 148.775C66.7732 148.775 66.9472 148.805 67.1158 148.864C67.2843 148.924 67.4356 149.017 67.5696 149.144C67.7037 149.271 67.8093 149.436 67.8867 149.64C67.9641 149.841 68.0028 150.086 68.0028 150.375V150.595H65.4724V150.131H67.3956C67.3956 149.968 67.3624 149.823 67.2961 149.698C67.2298 149.57 67.1365 149.47 67.0163 149.397C66.8975 149.324 66.758 149.287 66.5977 149.287C66.4236 149.287 66.2716 149.33 66.1418 149.416C66.0133 149.5 65.9138 149.611 65.8433 149.747C65.7743 149.883 65.7397 150.03 65.7397 150.189V150.551C65.7397 150.764 65.777 150.945 65.8516 151.094C65.9276 151.244 66.0333 151.358 66.1687 151.436C66.3041 151.514 66.4623 151.552 66.6433 151.552C66.7607 151.552 66.8678 151.536 66.9645 151.503C67.0612 151.468 67.1448 151.417 67.2153 151.349C67.2857 151.282 67.3396 151.198 67.3769 151.099L67.9634 151.204C67.9164 151.377 67.8321 151.528 67.7106 151.658C67.5904 151.787 67.4391 151.887 67.2567 151.959C67.0757 152.029 66.8692 152.064 66.6371 152.064Z" fill="#E6E6E6"/>
<path d="M42.4663 122V117.756H45.0982V118.307H43.1067V119.6H44.9096V120.149H43.1067V122H42.4663ZM46.6401 122.07C46.4384 122.07 46.256 122.033 46.093 121.959C45.9299 121.883 45.8008 121.773 45.7054 121.629C45.6115 121.485 45.5645 121.309 45.5645 121.101C45.5645 120.921 45.5991 120.773 45.6681 120.657C45.7372 120.541 45.8305 120.449 45.9479 120.381C46.0653 120.314 46.1966 120.263 46.3417 120.228C46.4867 120.194 46.6346 120.167 46.7852 120.149C46.9758 120.127 47.1306 120.109 47.2494 120.095C47.3682 120.08 47.4545 120.056 47.5084 120.023C47.5623 119.99 47.5892 119.936 47.5892 119.861V119.847C47.5892 119.666 47.5381 119.526 47.4359 119.426C47.335 119.327 47.1844 119.277 46.9841 119.277C46.7755 119.277 46.6111 119.323 46.4909 119.416C46.3721 119.507 46.2899 119.608 46.2443 119.72L45.6619 119.588C45.731 119.394 45.8319 119.238 45.9645 119.119C46.0985 118.999 46.2525 118.912 46.4266 118.858C46.6007 118.803 46.7838 118.775 46.9758 118.775C47.1029 118.775 47.2376 118.791 47.3799 118.821C47.5236 118.85 47.6576 118.904 47.782 118.983C47.9077 119.061 48.0106 119.174 48.0908 119.32C48.1709 119.465 48.211 119.654 48.211 119.886V122H47.6058V121.565H47.581C47.5409 121.645 47.4808 121.724 47.4007 121.801C47.3205 121.878 47.2176 121.943 47.0919 121.994C46.9661 122.045 46.8155 122.07 46.6401 122.07ZM46.7748 121.573C46.9461 121.573 47.0926 121.539 47.2141 121.472C47.3371 121.404 47.4304 121.315 47.4939 121.206C47.5588 121.096 47.5913 120.978 47.5913 120.852V120.442C47.5692 120.464 47.5264 120.484 47.4628 120.504C47.4007 120.522 47.3295 120.538 47.2494 120.551C47.1692 120.564 47.0912 120.576 47.0152 120.587C46.9392 120.596 46.8756 120.605 46.8245 120.611C46.7043 120.627 46.5945 120.652 46.495 120.688C46.3969 120.724 46.3182 120.776 46.2588 120.844C46.2007 120.91 46.1717 120.998 46.1717 121.109C46.1717 121.262 46.2284 121.378 46.3417 121.457C46.455 121.534 46.5993 121.573 46.7748 121.573ZM49.5451 117.756V122H48.9254V117.756H49.5451ZM52.6531 119.594L52.0915 119.693C52.068 119.622 52.0307 119.553 51.9796 119.488C51.9299 119.423 51.8622 119.37 51.7765 119.329C51.6908 119.287 51.5838 119.267 51.4553 119.267C51.2798 119.267 51.1334 119.306 51.0159 119.385C50.8985 119.462 50.8398 119.562 50.8398 119.685C50.8398 119.792 50.8792 119.877 50.9579 119.942C51.0367 120.007 51.1638 120.06 51.3392 120.102L51.8449 120.218C52.1378 120.285 52.3561 120.39 52.4998 120.531C52.6435 120.672 52.7153 120.855 52.7153 121.08C52.7153 121.271 52.66 121.44 52.5495 121.59C52.4404 121.737 52.2877 121.854 52.0915 121.938C51.8967 122.022 51.6708 122.064 51.4138 122.064C51.0574 122.064 50.7666 121.988 50.5414 121.836C50.3162 121.683 50.178 121.465 50.1269 121.183L50.7258 121.092C50.7631 121.248 50.8398 121.367 50.9558 121.447C51.0719 121.525 51.2232 121.565 51.4097 121.565C51.6128 121.565 51.7751 121.523 51.8967 121.438C52.0183 121.353 52.0791 121.248 52.0791 121.125C52.0791 121.026 52.0418 120.942 51.9672 120.875C51.8939 120.807 51.7813 120.756 51.6294 120.721L51.0905 120.603C50.7935 120.536 50.5738 120.428 50.4315 120.28C50.2906 120.132 50.2201 119.945 50.2201 119.718C50.2201 119.53 50.2726 119.366 50.3776 119.225C50.4826 119.084 50.6277 118.974 50.8128 118.896C50.998 118.815 51.21 118.775 51.4491 118.775C51.7931 118.775 52.0639 118.85 52.2614 118.999C52.459 119.147 52.5896 119.345 52.6531 119.594ZM54.6576 122.064C54.344 122.064 54.0739 121.997 53.8473 121.863C53.6221 121.728 53.4481 121.538 53.3251 121.293C53.2035 121.047 53.1427 120.759 53.1427 120.429C53.1427 120.103 53.2035 119.816 53.3251 119.567C53.4481 119.318 53.6194 119.124 53.839 118.985C54.0601 118.845 54.3185 118.775 54.6141 118.775C54.7937 118.775 54.9678 118.805 55.1364 118.864C55.3049 118.924 55.4562 119.017 55.5902 119.144C55.7242 119.271 55.8299 119.436 55.9073 119.64C55.9847 119.841 56.0234 120.086 56.0234 120.375V120.595H53.493V120.131H55.4161C55.4161 119.968 55.383 119.823 55.3167 119.698C55.2503 119.57 55.1571 119.47 55.0369 119.397C54.9181 119.324 54.7785 119.287 54.6183 119.287C54.4442 119.287 54.2922 119.33 54.1623 119.416C54.0339 119.5 53.9344 119.611 53.8639 119.747C53.7948 119.883 53.7603 120.03 53.7603 120.189V120.551C53.7603 120.764 53.7976 120.945 53.8722 121.094C53.9482 121.244 54.0539 121.358 54.1893 121.436C54.3247 121.514 54.4829 121.552 54.6639 121.552C54.7813 121.552 54.8884 121.536 54.9851 121.503C55.0818 121.468 55.1654 121.417 55.2358 121.349C55.3063 121.282 55.3602 121.198 55.3975 121.099L55.984 121.204C55.937 121.377 55.8527 121.528 55.7311 121.658C55.6109 121.787 55.4597 121.887 55.2773 121.959C55.0963 122.029 54.8898 122.064 54.6576 122.064Z" fill="#E6E6E6"/>
<path d="M99.4663 122V117.756H102.098V118.307H100.107V119.6H101.91V120.149H100.107V122H99.4663ZM103.64 122.07C103.438 122.07 103.256 122.033 103.093 121.959C102.93 121.883 102.801 121.773 102.705 121.629C102.611 121.485 102.565 121.309 102.565 121.101C102.565 120.921 102.599 120.773 102.668 120.657C102.737 120.541 102.83 120.449 102.948 120.381C103.065 120.314 103.197 120.263 103.342 120.228C103.487 120.194 103.635 120.167 103.785 120.149C103.976 120.127 104.131 120.109 104.249 120.095C104.368 120.08 104.455 120.056 104.508 120.023C104.562 119.99 104.589 119.936 104.589 119.861V119.847C104.589 119.666 104.538 119.526 104.436 119.426C104.335 119.327 104.184 119.277 103.984 119.277C103.775 119.277 103.611 119.323 103.491 119.416C103.372 119.507 103.29 119.608 103.244 119.72L102.662 119.588C102.731 119.394 102.832 119.238 102.964 119.119C103.098 118.999 103.253 118.912 103.427 118.858C103.601 118.803 103.784 118.775 103.976 118.775C104.103 118.775 104.238 118.791 104.38 118.821C104.524 118.85 104.658 118.904 104.782 118.983C104.908 119.061 105.011 119.174 105.091 119.32C105.171 119.465 105.211 119.654 105.211 119.886V122H104.606V121.565H104.581C104.541 121.645 104.481 121.724 104.401 121.801C104.321 121.878 104.218 121.943 104.092 121.994C103.966 122.045 103.816 122.07 103.64 122.07ZM103.775 121.573C103.946 121.573 104.093 121.539 104.214 121.472C104.337 121.404 104.43 121.315 104.494 121.206C104.559 121.096 104.591 120.978 104.591 120.852V120.442C104.569 120.464 104.526 120.484 104.463 120.504C104.401 120.522 104.33 120.538 104.249 120.551C104.169 120.564 104.091 120.576 104.015 120.587C103.939 120.596 103.876 120.605 103.825 120.611C103.704 120.627 103.594 120.652 103.495 120.688C103.397 120.724 103.318 120.776 103.259 120.844C103.201 120.91 103.172 120.998 103.172 121.109C103.172 121.262 103.228 121.378 103.342 121.457C103.455 121.534 103.599 121.573 103.775 121.573ZM106.545 117.756V122H105.925V117.756H106.545ZM109.653 119.594L109.092 119.693C109.068 119.622 109.031 119.553 108.98 119.488C108.93 119.423 108.862 119.37 108.777 119.329C108.691 119.287 108.584 119.267 108.455 119.267C108.28 119.267 108.133 119.306 108.016 119.385C107.898 119.462 107.84 119.562 107.84 119.685C107.84 119.792 107.879 119.877 107.958 119.942C108.037 120.007 108.164 120.06 108.339 120.102L108.845 120.218C109.138 120.285 109.356 120.39 109.5 120.531C109.643 120.672 109.715 120.855 109.715 121.08C109.715 121.271 109.66 121.44 109.55 121.59C109.44 121.737 109.288 121.854 109.092 121.938C108.897 122.022 108.671 122.064 108.414 122.064C108.057 122.064 107.767 121.988 107.541 121.836C107.316 121.683 107.178 121.465 107.127 121.183L107.726 121.092C107.763 121.248 107.84 121.367 107.956 121.447C108.072 121.525 108.223 121.565 108.41 121.565C108.613 121.565 108.775 121.523 108.897 121.438C109.018 121.353 109.079 121.248 109.079 121.125C109.079 121.026 109.042 120.942 108.967 120.875C108.894 120.807 108.781 120.756 108.629 120.721L108.091 120.603C107.793 120.536 107.574 120.428 107.432 120.28C107.291 120.132 107.22 119.945 107.22 119.718C107.22 119.53 107.273 119.366 107.378 119.225C107.483 119.084 107.628 118.974 107.813 118.896C107.998 118.815 108.21 118.775 108.449 118.775C108.793 118.775 109.064 118.85 109.261 118.999C109.459 119.147 109.59 119.345 109.653 119.594ZM111.658 122.064C111.344 122.064 111.074 121.997 110.847 121.863C110.622 121.728 110.448 121.538 110.325 121.293C110.204 121.047 110.143 120.759 110.143 120.429C110.143 120.103 110.204 119.816 110.325 119.567C110.448 119.318 110.619 119.124 110.839 118.985C111.06 118.845 111.318 118.775 111.614 118.775C111.794 118.775 111.968 118.805 112.136 118.864C112.305 118.924 112.456 119.017 112.59 119.144C112.724 119.271 112.83 119.436 112.907 119.64C112.985 119.841 113.023 120.086 113.023 120.375V120.595H110.493V120.131H112.416C112.416 119.968 112.383 119.823 112.317 119.698C112.25 119.57 112.157 119.47 112.037 119.397C111.918 119.324 111.779 119.287 111.618 119.287C111.444 119.287 111.292 119.33 111.162 119.416C111.034 119.5 110.934 119.611 110.864 119.747C110.795 119.883 110.76 120.03 110.76 120.189V120.551C110.76 120.764 110.798 120.945 110.872 121.094C110.948 121.244 111.054 121.358 111.189 121.436C111.325 121.514 111.483 121.552 111.664 121.552C111.781 121.552 111.888 121.536 111.985 121.503C112.082 121.468 112.165 121.417 112.236 121.349C112.306 121.282 112.36 121.198 112.397 121.099L112.984 121.204C112.937 121.377 112.853 121.528 112.731 121.658C112.611 121.787 112.46 121.887 112.277 121.959C112.096 122.029 111.89 122.064 111.658 122.064Z" fill="#E6E6E6"/>
<rect x="62" y="160" width="31.1246" height="16" rx="3" stroke="white" stroke-width="1.5" stroke-linecap="round"/>
<path d="M78.0623 180C78.0623 179.724 77.8385 179.5 77.5623 179.5C77.2862 179.5 77.0623 179.724 77.0623 180H78.0623ZM39.7711 200.959C39.5758 201.155 39.5758 201.471 39.7711 201.667L42.9531 204.849C43.1483 205.044 43.4649 205.044 43.6602 204.849C43.8554 204.653 43.8554 204.337 43.6602 204.141L40.8317 201.313L43.6602 198.485C43.8554 198.289 43.8554 197.973 43.6602 197.777C43.4649 197.582 43.1483 197.582 42.9531 197.777L39.7711 200.959ZM77.5623 180H78.0623H77.5623ZM56.2493 200.813H40.1246V201.813H56.2493V200.813ZM77.0623 180C77.0623 191.495 67.744 200.813 56.2493 200.813V201.813C68.2963 201.813 78.0623 192.047 78.0623 180H77.0623Z" fill="white"/>
<path d="M72.9579 165.644H73.4364V170.932H72.9579V165.644ZM71.8199 167.57H73.098V167.967H71.8199V167.57ZM70.4368 166.403H70.8278V167.191C70.8278 168.329 70.1742 169.455 69.3397 169.887L69.0537 169.502C69.8124 169.128 70.4368 168.131 70.4368 167.191V166.403ZM70.536 166.403H70.9212V167.191C70.9212 168.072 71.5339 169.035 72.2984 169.397L72.0125 169.776C71.178 169.362 70.536 168.276 70.536 167.191V166.403ZM69.2463 166.187H72.1175V166.59H69.2463V166.187ZM75.7858 168.346H80.5654V168.743H75.7858V168.346ZM77.9684 168.592H78.4528V169.805H77.9684V168.592ZM76.3985 165.895H79.9468V167.751H76.3985V165.895ZM79.4682 166.286H76.8713V167.36H79.4682V166.286ZM76.3927 170.412H80.0343V170.809H76.3927V170.412ZM76.3927 169.298H76.8713V170.552H76.3927V169.298ZM82.3448 166.216H82.7417V166.642C82.7417 167.611 82.1581 168.422 81.271 168.743L81.0259 168.358C81.8196 168.078 82.3448 167.395 82.3448 166.642V166.216ZM82.4324 166.216H82.8292V166.637C82.8292 167.325 83.3311 167.944 84.1073 168.201L83.8738 168.58C82.9926 168.288 82.4324 167.535 82.4324 166.637V166.216ZM81.1718 166.041H83.9906V166.438H81.1718V166.041ZM84.6558 165.65H85.1402V168.831H84.6558V165.65ZM85.006 166.987H85.9222V167.395H85.006V166.987ZM83.4595 168.971C84.5333 168.971 85.1927 169.327 85.1927 169.94C85.1927 170.558 84.5333 170.914 83.4595 170.914C82.3857 170.914 81.7262 170.558 81.7262 169.94C81.7262 169.327 82.3857 168.971 83.4595 168.971ZM83.4595 169.362C82.6775 169.362 82.1989 169.572 82.1989 169.94C82.1989 170.313 82.6775 170.535 83.4595 170.535C84.2415 170.535 84.72 170.313 84.72 169.94C84.72 169.572 84.2415 169.362 83.4595 169.362Z" fill="#5D91F5"/>
<rect x="119" y="160" width="31.1246" height="16" rx="3" stroke="white" stroke-width="1.5" stroke-linecap="round"/>
<path d="M135.062 180C135.062 179.724 134.838 179.5 134.562 179.5C134.286 179.5 134.062 179.724 134.062 180H135.062ZM39.7711 200.959C39.5758 201.155 39.5758 201.471 39.7711 201.667L42.9531 204.849C43.1483 205.044 43.4649 205.044 43.6602 204.849C43.8554 204.653 43.8554 204.337 43.6602 204.141L40.8317 201.313L43.6602 198.485C43.8554 198.289 43.8554 197.973 43.6602 197.777C43.4649 197.582 43.1483 197.582 42.9531 197.777L39.7711 200.959ZM134.562 180H135.062H134.562ZM113.249 200.813H40.1246V201.813H113.249V200.813ZM134.062 180C134.062 191.495 124.744 200.813 113.249 200.813V201.813C125.296 201.813 135.062 192.047 135.062 180H134.062Z" fill="white"/>
<path d="M126.614 166.211H130.01V166.602H126.614V166.211ZM126.1 169.753H130.868V170.156H126.1V169.753ZM129.754 166.211H130.226V166.736C130.226 167.413 130.226 168.166 130.028 169.304L129.544 169.257C129.754 168.177 129.754 167.389 129.754 166.736V166.211ZM132.786 168.346H137.565V168.743H132.786V168.346ZM134.968 168.592H135.453V169.805H134.968V168.592ZM133.399 165.895H136.947V167.751H133.399V165.895ZM136.468 166.286H133.871V167.36H136.468V166.286ZM133.393 170.412H137.034V170.809H133.393V170.412ZM133.393 169.298H133.871V170.552H133.393V169.298ZM139.345 166.216H139.742V166.642C139.742 167.611 139.158 168.422 138.271 168.743L138.026 168.358C138.82 168.078 139.345 167.395 139.345 166.642V166.216ZM139.432 166.216H139.829V166.637C139.829 167.325 140.331 167.944 141.107 168.201L140.874 168.58C139.993 168.288 139.432 167.535 139.432 166.637V166.216ZM138.172 166.041H140.991V166.438H138.172V166.041ZM141.656 165.65H142.14V168.831H141.656V165.65ZM142.006 166.987H142.922V167.395H142.006V166.987ZM140.459 168.971C141.533 168.971 142.193 169.327 142.193 169.94C142.193 170.558 141.533 170.914 140.459 170.914C139.386 170.914 138.726 170.558 138.726 169.94C138.726 169.327 139.386 168.971 140.459 168.971ZM140.459 169.362C139.677 169.362 139.199 169.572 139.199 169.94C139.199 170.313 139.677 170.535 140.459 170.535C141.241 170.535 141.72 170.313 141.72 169.94C141.72 169.572 141.241 169.362 140.459 169.362Z" fill="#FD5555"/>
<path d="M77.1112 122.317C77.9558 121.894 78.9499 121.894 79.7945 122.317L96.2474 129.043C98.4586 130.149 98.4586 133.304 96.2474 134.41L79.7945 141.136C78.9499 141.558 77.9558 141.558 77.1112 141.136L60.6584 134.41C58.4472 133.304 58.4472 130.149 60.6584 129.043L77.1112 122.317Z" stroke="white" stroke-width="1.5" stroke-linecap="round"/>
<path d="M134.111 122.317C134.956 121.894 135.95 121.894 136.795 122.317L153.247 129.043C155.459 130.149 155.459 133.304 153.247 134.41L136.795 141.136C135.95 141.558 134.956 141.558 134.111 141.136L117.658 134.41C115.447 133.304 115.447 130.149 117.658 129.043L134.111 122.317Z" stroke="white" stroke-width="1.5" stroke-linecap="round"/>
<path d="M135.062 145.453C135.062 145.177 134.838 144.953 134.562 144.953C134.286 144.953 134.062 145.177 134.062 145.453H135.062ZM134.209 156.354C134.404 156.549 134.721 156.549 134.916 156.354L138.098 153.172C138.293 152.977 138.293 152.66 138.098 152.465C137.903 152.269 137.586 152.269 137.391 152.465L134.562 155.293L131.734 152.465C131.539 152.269 131.222 152.269 131.027 152.465C130.831 152.66 130.831 152.977 131.027 153.172L134.209 156.354ZM134.062 145.453V156H135.062V145.453H134.062Z" fill="white"/>
<path d="M78.9529 145.453C78.9529 145.177 78.729 144.953 78.4529 144.953C78.1767 144.953 77.9529 145.177 77.9529 145.453H78.9529ZM78.0993 156.354C78.2946 156.549 78.6112 156.549 78.8064 156.354L81.9884 153.172C82.1837 152.977 82.1837 152.66 81.9884 152.465C81.7932 152.269 81.4766 152.269 81.2813 152.465L78.4529 155.293L75.6245 152.465C75.4292 152.269 75.1126 152.269 74.9173 152.465C74.7221 152.66 74.7221 152.977 74.9173 153.172L78.0993 156.354ZM77.9529 145.453V156H78.9529V145.453H77.9529Z" fill="white"/>
<path d="M78.9529 145.453C78.9529 145.177 78.729 144.953 78.4529 144.953C78.1767 144.953 77.9529 145.177 77.9529 145.453H78.9529ZM78.0993 156.354C78.2946 156.549 78.6112 156.549 78.8064 156.354L81.9884 153.172C82.1837 152.977 82.1837 152.66 81.9884 152.465C81.7932 152.269 81.4766 152.269 81.2813 152.465L78.4529 155.293L75.6245 152.465C75.4292 152.269 75.1126 152.269 74.9173 152.465C74.7221 152.66 74.7221 152.977 74.9173 153.172L78.0993 156.354ZM77.9529 145.453V156H78.9529V145.453H77.9529Z" fill="white"/>
<path d="M43.9058 131.227C43.6296 131.227 43.4058 131.45 43.4058 131.727C43.4058 132.003 43.6296 132.227 43.9058 132.227V131.227ZM55.3535 132.08C55.5488 131.885 55.5488 131.568 55.3535 131.373L52.1716 128.191C51.9763 127.996 51.6597 127.996 51.4645 128.191C51.2692 128.386 51.2692 128.703 51.4645 128.898L54.2929 131.727L51.4645 134.555C51.2692 134.75 51.2692 135.067 51.4645 135.262C51.6597 135.457 51.9763 135.457 52.1716 135.262L55.3535 132.08ZM43.9058 132.227H55V131.227H43.9058V132.227Z" fill="white"/>
<path d="M73.9808 135.107C73.4581 135.107 73.0079 134.995 72.6303 134.772C72.255 134.546 71.9648 134.23 71.7599 133.822C71.5572 133.412 71.4559 132.932 71.4559 132.382C71.4559 131.838 71.5572 131.359 71.7599 130.945C71.9648 130.531 72.2503 130.207 72.6165 129.974C72.9849 129.742 73.4155 129.626 73.9083 129.626C74.2076 129.626 74.4977 129.675 74.7787 129.774C75.0596 129.873 75.3117 130.029 75.5351 130.24C75.7585 130.452 75.9346 130.727 76.0636 131.066C76.1925 131.402 76.257 131.811 76.257 132.292V132.658H72.0397V131.884H75.245C75.245 131.613 75.1897 131.372 75.0792 131.163C74.9686 130.951 74.8132 130.784 74.6129 130.662C74.4148 130.54 74.1823 130.479 73.9152 130.479C73.625 130.479 73.3717 130.55 73.1553 130.693C72.9411 130.833 72.7754 131.018 72.6579 131.246C72.5428 131.471 72.4852 131.716 72.4852 131.981V132.586C72.4852 132.94 72.5474 133.242 72.6717 133.491C72.7984 133.739 72.9745 133.929 73.2002 134.061C73.4259 134.189 73.6895 134.254 73.9912 134.254C74.1869 134.254 74.3653 134.226 74.5265 134.171C74.6877 134.113 74.827 134.028 74.9445 133.915C75.0619 133.803 75.1517 133.663 75.2139 133.498L76.1914 133.674C76.1131 133.961 75.9726 134.214 75.77 134.43C75.5696 134.644 75.3175 134.811 75.0135 134.931C74.7119 135.048 74.3676 135.107 73.9808 135.107ZM78.2216 127.926V135H77.1889V127.926H78.2216ZM79.397 135V129.695H80.4297V135H79.397ZM79.9185 128.876C79.7389 128.876 79.5847 128.816 79.4557 128.696C79.3291 128.574 79.2657 128.429 79.2657 128.261C79.2657 128.091 79.3291 127.946 79.4557 127.826C79.5847 127.704 79.7389 127.643 79.9185 127.643C80.0981 127.643 80.2513 127.704 80.3779 127.826C80.5069 127.946 80.5713 128.091 80.5713 128.261C80.5713 128.429 80.5069 128.574 80.3779 128.696C80.2513 128.816 80.0981 128.876 79.9185 128.876ZM84.13 129.695V130.524H81.1319V129.695H84.13ZM81.954 135V129.08C81.954 128.748 82.0265 128.473 82.1716 128.254C82.3166 128.033 82.5089 127.869 82.7484 127.76C82.9879 127.65 83.2481 127.595 83.529 127.595C83.7362 127.595 83.9135 127.612 84.0609 127.646C84.2083 127.679 84.3177 127.709 84.389 127.736L84.1473 128.572C84.0989 128.558 84.0367 128.542 83.9607 128.524C83.8848 128.503 83.7926 128.493 83.6844 128.493C83.4334 128.493 83.2538 128.555 83.1456 128.679C83.0397 128.804 82.9867 128.983 82.9867 129.218V135H81.954Z" fill="#E6E6E6"/>
<path d="M101.906 131.227C101.63 131.227 101.406 131.45 101.406 131.727C101.406 132.003 101.63 132.227 101.906 132.227V131.227ZM112.354 132.08C112.549 131.885 112.549 131.568 112.354 131.373L109.172 128.191C108.976 127.996 108.66 127.996 108.464 128.191C108.269 128.386 108.269 128.703 108.464 128.898L111.293 131.727L108.464 134.555C108.269 134.75 108.269 135.067 108.464 135.262C108.66 135.457 108.976 135.457 109.172 135.262L112.354 132.08ZM101.906 132.227H112V131.227H101.906V132.227Z" fill="white"/>
<path d="M128.981 135.107C128.458 135.107 128.008 134.995 127.63 134.772C127.255 134.546 126.965 134.23 126.76 133.822C126.557 133.412 126.456 132.932 126.456 132.382C126.456 131.838 126.557 131.359 126.76 130.945C126.965 130.531 127.25 130.207 127.616 129.974C127.985 129.742 128.415 129.626 128.908 129.626C129.208 129.626 129.498 129.675 129.779 129.774C130.06 129.873 130.312 130.029 130.535 130.24C130.758 130.452 130.935 130.727 131.064 131.066C131.193 131.402 131.257 131.811 131.257 132.292V132.658H127.04V131.884H130.245C130.245 131.613 130.19 131.372 130.079 131.163C129.969 130.951 129.813 130.784 129.613 130.662C129.415 130.54 129.182 130.479 128.915 130.479C128.625 130.479 128.372 130.55 128.155 130.693C127.941 130.833 127.775 131.018 127.658 131.246C127.543 131.471 127.485 131.716 127.485 131.981V132.586C127.485 132.94 127.547 133.242 127.672 133.491C127.798 133.739 127.975 133.929 128.2 134.061C128.426 134.189 128.69 134.254 128.991 134.254C129.187 134.254 129.365 134.226 129.527 134.171C129.688 134.113 129.827 134.028 129.944 133.915C130.062 133.803 130.152 133.663 130.214 133.498L131.191 133.674C131.113 133.961 130.973 134.214 130.77 134.43C130.57 134.644 130.317 134.811 130.014 134.931C129.712 135.048 129.368 135.107 128.981 135.107ZM133.222 127.926V135H132.189V127.926H133.222ZM138.373 130.99L137.437 131.156C137.397 131.036 137.335 130.922 137.25 130.814C137.167 130.706 137.054 130.617 136.911 130.548C136.769 130.479 136.59 130.444 136.376 130.444C136.084 130.444 135.84 130.51 135.644 130.641C135.448 130.77 135.35 130.937 135.35 131.142C135.35 131.319 135.416 131.462 135.547 131.57C135.678 131.678 135.89 131.767 136.183 131.836L137.025 132.03C137.514 132.142 137.877 132.316 138.117 132.551C138.356 132.786 138.476 133.091 138.476 133.466C138.476 133.784 138.384 134.067 138.2 134.316C138.018 134.562 137.763 134.756 137.437 134.896C137.112 135.037 136.735 135.107 136.307 135.107C135.713 135.107 135.228 134.98 134.853 134.727C134.478 134.472 134.247 134.109 134.162 133.639L135.16 133.487C135.222 133.747 135.35 133.944 135.544 134.078C135.737 134.209 135.989 134.275 136.3 134.275C136.639 134.275 136.909 134.204 137.112 134.064C137.314 133.921 137.416 133.747 137.416 133.542C137.416 133.377 137.354 133.237 137.229 133.124C137.107 133.012 136.92 132.926 136.666 132.869L135.768 132.672C135.273 132.559 134.907 132.38 134.67 132.133C134.435 131.887 134.318 131.575 134.318 131.197C134.318 130.884 134.405 130.61 134.58 130.375C134.755 130.14 134.997 129.957 135.305 129.826C135.614 129.692 135.967 129.626 136.366 129.626C136.939 129.626 137.39 129.75 137.72 129.999C138.049 130.245 138.267 130.575 138.373 130.99ZM141.684 135.107C141.162 135.107 140.711 134.995 140.334 134.772C139.958 134.546 139.668 134.23 139.463 133.822C139.261 133.412 139.159 132.932 139.159 132.382C139.159 131.838 139.261 131.359 139.463 130.945C139.668 130.531 139.954 130.207 140.32 129.974C140.688 129.742 141.119 129.626 141.612 129.626C141.911 129.626 142.201 129.675 142.482 129.774C142.763 129.873 143.015 130.029 143.239 130.24C143.462 130.452 143.638 130.727 143.767 131.066C143.896 131.402 143.96 131.811 143.96 132.292V132.658H139.743V131.884H142.948C142.948 131.613 142.893 131.372 142.783 131.163C142.672 130.951 142.517 130.784 142.316 130.662C142.118 130.54 141.886 130.479 141.619 130.479C141.328 130.479 141.075 130.55 140.859 130.693C140.645 130.833 140.479 131.018 140.361 131.246C140.246 131.471 140.189 131.716 140.189 131.981V132.586C140.189 132.94 140.251 133.242 140.375 133.491C140.502 133.739 140.678 133.929 140.904 134.061C141.129 134.189 141.393 134.254 141.695 134.254C141.89 134.254 142.069 134.226 142.23 134.171C142.391 134.113 142.53 134.028 142.648 133.915C142.765 133.803 142.855 133.663 142.917 133.498L143.895 133.674C143.816 133.961 143.676 134.214 143.473 134.43C143.273 134.644 143.021 134.811 142.717 134.931C142.415 135.048 142.071 135.107 141.684 135.107Z" fill="#E6E6E6"/>
<path d="M44 34C44 31.2386 46.2386 29 49 29H106C108.761 29 111 31.2386 111 34V100C111 102.761 108.761 105 106 105H49C46.2386 105 44 102.761 44 100V34Z" fill="#858F9F"/>
<path d="M71.0143 11.1083C70.4857 11.1083 70.0305 10.9953 69.6486 10.7695C69.2691 10.5413 68.9757 10.2211 68.7684 9.80894C68.5635 9.39445 68.4611 8.90895 68.4611 8.35242C68.4611 7.80288 68.5635 7.31854 68.7684 6.89939C68.9757 6.48025 69.2644 6.15309 69.6347 5.9179C70.0072 5.68272 70.4427 5.56512 70.941 5.56512C71.2437 5.56512 71.5371 5.61519 71.8212 5.71532C72.1053 5.81545 72.3602 5.97262 72.5861 6.18685C72.812 6.40108 72.9901 6.67934 73.1205 7.02164C73.2509 7.36161 73.3161 7.77493 73.3161 8.26161V8.63185H69.0513V7.84945H72.2927C72.2927 7.57468 72.2368 7.33134 72.1251 7.11944C72.0133 6.90521 71.8561 6.73639 71.6535 6.61298C71.4533 6.48957 71.2181 6.42786 70.948 6.42786C70.6546 6.42786 70.3984 6.50004 70.1795 6.64442C69.963 6.78646 69.7953 6.97274 69.6766 7.20327C69.5601 7.43147 69.5019 7.67946 69.5019 7.94725V8.5585C69.5019 8.9171 69.5648 9.22214 69.6905 9.47362C69.8186 9.72511 69.9967 9.91722 70.2249 10.0499C70.4531 10.1803 70.7198 10.2455 71.0248 10.2455C71.2227 10.2455 71.4032 10.2176 71.5662 10.1617C71.7292 10.1035 71.8701 10.0173 71.9888 9.90324C72.1076 9.78915 72.1984 9.64827 72.2613 9.48061L73.2498 9.65875C73.1706 9.94982 73.0285 10.2048 72.8236 10.4237C72.621 10.6402 72.3661 10.8091 72.0587 10.9301C71.7537 11.0489 71.4055 11.1083 71.0143 11.1083ZM75.3324 3.84664V11H74.288V3.84664H75.3324ZM80.5707 6.9448L79.6242 7.11246C79.5846 6.99137 79.5217 6.87611 79.4356 6.76667C79.3517 6.65722 79.2376 6.56757 79.0933 6.49772C78.9489 6.42786 78.7684 6.39293 78.5519 6.39293C78.2561 6.39293 78.0093 6.45929 77.8114 6.59202C77.6135 6.72242 77.5145 6.89124 77.5145 7.09849C77.5145 7.27779 77.5809 7.42216 77.7136 7.5316C77.8463 7.64104 78.0605 7.73069 78.3563 7.80055L79.2085 7.99615C79.7022 8.11025 80.0701 8.28606 80.3123 8.52357C80.5544 8.76108 80.6755 9.06962 80.6755 9.44917C80.6755 9.77052 80.5824 10.0569 80.3961 10.3084C80.2121 10.5576 79.9548 10.7532 79.6242 10.8952C79.2959 11.0373 78.9151 11.1083 78.482 11.1083C77.8812 11.1083 77.3911 10.9802 77.0115 10.7241C76.632 10.4656 76.3991 10.0988 76.313 9.62382L77.3224 9.47013C77.3853 9.73326 77.5145 9.93235 77.7101 10.0674C77.9057 10.2001 78.1607 10.2665 78.475 10.2665C78.8173 10.2665 79.0909 10.1955 79.2959 10.0534C79.5008 9.90907 79.6032 9.73326 79.6032 9.52602C79.6032 9.35836 79.5403 9.21748 79.4146 9.10338C79.2912 8.98928 79.1014 8.90313 78.8453 8.84491L77.9371 8.64582C77.4365 8.53172 77.0662 8.35009 76.8264 8.10093C76.5889 7.85178 76.4701 7.53626 76.4701 7.15437C76.4701 6.83769 76.5586 6.56059 76.7356 6.32307C76.9126 6.08556 77.1571 5.90044 77.4691 5.76771C77.7811 5.63265 78.1386 5.56512 78.5414 5.56512C79.1212 5.56512 79.5776 5.69087 79.9106 5.94235C80.2436 6.19151 80.4636 6.52566 80.5707 6.9448ZM83.9492 11.1083C83.4206 11.1083 82.9654 10.9953 82.5835 10.7695C82.2039 10.5413 81.9105 10.2211 81.7033 9.80894C81.4984 9.39445 81.3959 8.90895 81.3959 8.35242C81.3959 7.80288 81.4984 7.31854 81.7033 6.89939C81.9105 6.48025 82.1993 6.15309 82.5695 5.9179C82.9421 5.68272 83.3775 5.56512 83.8758 5.56512C84.1786 5.56512 84.4719 5.61519 84.756 5.71532C85.0401 5.81545 85.2951 5.97262 85.521 6.18685C85.7468 6.40108 85.925 6.67934 86.0554 7.02164C86.1858 7.36161 86.251 7.77493 86.251 8.26161V8.63185H81.9862V7.84945H85.2276C85.2276 7.57468 85.1717 7.33134 85.0599 7.11944C84.9481 6.90521 84.791 6.73639 84.5884 6.61298C84.3881 6.48957 84.1529 6.42786 83.8828 6.42786C83.5894 6.42786 83.3333 6.50004 83.1144 6.64442C82.8978 6.78646 82.7302 6.97274 82.6114 7.20327C82.495 7.43147 82.4368 7.67946 82.4368 7.94725V8.5585C82.4368 8.9171 82.4997 9.22214 82.6254 9.47362C82.7535 9.72511 82.9316 9.91722 83.1598 10.0499C83.388 10.1803 83.6546 10.2455 83.9597 10.2455C84.1576 10.2455 84.3381 10.2176 84.5011 10.1617C84.6641 10.1035 84.8049 10.0173 84.9237 9.90324C85.0424 9.78915 85.1333 9.64827 85.1961 9.48061L86.1846 9.65875C86.1054 9.94982 85.9634 10.2048 85.7585 10.4237C85.5559 10.6402 85.3009 10.8091 84.9935 10.9301C84.6885 11.0489 84.3404 11.1083 83.9492 11.1083Z" fill="white"/>
<path d="M46 21L111 21" stroke="white" stroke-linecap="round"/>
<path d="M64.4515 41V37.2713H65.3303V41H64.4515ZM64.8933 36.7421C64.7541 36.7421 64.6344 36.696 64.5341 36.6038C64.4337 36.5099 64.3835 36.3974 64.3835 36.2664C64.3835 36.1337 64.4337 36.0212 64.5341 35.9289C64.6344 35.8351 64.7541 35.7881 64.8933 35.7881C65.0341 35.7881 65.1539 35.8351 65.2526 35.9289C65.3529 36.0212 65.4031 36.1337 65.4031 36.2664C65.4031 36.3974 65.3529 36.5099 65.2526 36.6038C65.1539 36.696 65.0341 36.7421 64.8933 36.7421ZM67.9926 37.2713V37.951H65.7885V37.2713H67.9926ZM66.3395 41V36.9194C66.3395 36.6685 66.3913 36.4597 66.4949 36.2931C66.6001 36.1264 66.7409 36.0018 66.9172 35.9192C67.0936 35.8367 67.2895 35.7954 67.5047 35.7954C67.6568 35.7954 67.792 35.8076 67.9101 35.8318C68.0282 35.8561 68.1156 35.878 68.1723 35.8974L67.9975 36.5771C67.9603 36.5657 67.9133 36.5544 67.8567 36.5431C67.8001 36.5301 67.7369 36.5237 67.6674 36.5237C67.5039 36.5237 67.3882 36.5633 67.3202 36.6426C67.2539 36.7203 67.2207 36.832 67.2207 36.9776V41H66.3395ZM82.9752 41.0534C82.8279 41.0534 82.7017 41.0016 82.5965 40.898C82.4913 40.7945 82.4395 40.6682 82.4411 40.5194C82.4395 40.3737 82.4913 40.2491 82.5965 40.1455C82.7017 40.0419 82.8279 39.9902 82.9752 39.9902C83.1176 39.9902 83.2414 40.0419 83.3466 40.1455C83.4534 40.2491 83.5076 40.3737 83.5092 40.5194C83.5076 40.6181 83.4817 40.7079 83.4316 40.7888C83.383 40.8697 83.3183 40.9345 83.2374 40.983C83.1581 41.0299 83.0707 41.0534 82.9752 41.0534ZM82.9752 38.3929C82.8279 38.3929 82.7017 38.3411 82.5965 38.2375C82.4913 38.1323 82.4395 38.0061 82.4411 37.8588C82.4395 37.7132 82.4913 37.5885 82.5965 37.485C82.7017 37.3798 82.8279 37.3272 82.9752 37.3272C83.1176 37.3272 83.2414 37.3798 83.3466 37.485C83.4534 37.5885 83.5076 37.7132 83.5092 37.8588C83.5076 37.9559 83.4817 38.0449 83.4316 38.1258C83.383 38.2067 83.3183 38.2715 83.2374 38.32C83.1581 38.3686 83.0707 38.3929 82.9752 38.3929ZM66.1022 61.0728C65.7284 61.0728 65.4055 60.9951 65.1336 60.8398C64.8634 60.6828 64.6554 60.4611 64.5098 60.1746C64.3641 59.8866 64.2913 59.5475 64.2913 59.1575C64.2913 58.774 64.3641 58.4374 64.5098 58.1477C64.657 57.8564 64.8626 57.6298 65.1264 57.468C65.3902 57.3045 65.7001 57.2228 66.0561 57.2228C66.2859 57.2228 66.5028 57.26 66.7067 57.3345C66.9122 57.4073 67.0935 57.5206 67.2504 57.6743C67.409 57.8281 67.5336 58.0239 67.6243 58.2618C67.7149 58.498 67.7602 58.7796 67.7602 59.1065V59.376H64.704V58.7837H66.9179C66.9162 58.6154 66.8798 58.4657 66.8086 58.3346C66.7374 58.2019 66.6379 58.0975 66.51 58.0214C66.3838 57.9454 66.2365 57.9074 66.0682 57.9074C65.8886 57.9074 65.7308 57.951 65.5949 58.0384C65.4589 58.1242 65.3529 58.2375 65.2769 58.3783C65.2024 58.5175 65.1644 58.6704 65.1628 58.8371V59.3541C65.1628 59.571 65.2024 59.7571 65.2817 59.9125C65.361 60.0662 65.4719 60.1844 65.6143 60.2669C65.7567 60.3478 65.9234 60.3883 66.1144 60.3883C66.2422 60.3883 66.3579 60.3705 66.4615 60.3349C66.5651 60.2976 66.6549 60.2434 66.7309 60.1722C66.807 60.101 66.8645 60.0128 66.9033 59.9076L67.7238 59.9999C67.672 60.2167 67.5733 60.4061 67.4276 60.5679C67.2836 60.7281 67.0991 60.8527 66.8742 60.9417C66.6492 61.0291 66.3919 61.0728 66.1022 61.0728ZM69.2525 56.0285V61H68.3738V56.0285H69.2525ZM70.0263 61V57.2713H70.905V61H70.0263ZM70.4681 56.7421C70.3289 56.7421 70.2091 56.696 70.1088 56.6038C70.0085 56.5099 69.9583 56.3974 69.9583 56.2664C69.9583 56.1337 70.0085 56.0212 70.1088 55.9289C70.2091 55.8351 70.3289 55.7881 70.4681 55.7881C70.6089 55.7881 70.7286 55.8351 70.8274 55.9289C70.9277 56.0212 70.9779 56.1337 70.9779 56.2664C70.9779 56.3974 70.9277 56.5099 70.8274 56.6038C70.7286 56.696 70.6089 56.7421 70.4681 56.7421ZM73.5674 57.2713V57.951H71.3632V57.2713H73.5674ZM71.9143 61V56.9194C71.9143 56.6685 71.966 56.4597 72.0696 56.2931C72.1748 56.1264 72.3156 56.0018 72.492 55.9192C72.6684 55.8367 72.8642 55.7954 73.0795 55.7954C73.2316 55.7954 73.3667 55.8076 73.4849 55.8318C73.603 55.8561 73.6904 55.878 73.747 55.8974L73.5722 56.5771C73.535 56.5657 73.4881 56.5544 73.4315 56.5431C73.3748 56.5301 73.3117 56.5237 73.2421 56.5237C73.0787 56.5237 72.9629 56.5633 72.895 56.6426C72.8286 56.7203 72.7954 56.832 72.7954 56.9776V61H71.9143ZM88.5499 61.0534C88.4027 61.0534 88.2764 61.0016 88.1713 60.898C88.0661 60.7945 88.0143 60.6682 88.0159 60.5194C88.0143 60.3737 88.0661 60.2491 88.1713 60.1455C88.2764 60.0419 88.4027 59.9902 88.5499 59.9902C88.6924 59.9902 88.8162 60.0419 88.9214 60.1455C89.0282 60.2491 89.0824 60.3737 89.084 60.5194C89.0824 60.6181 89.0565 60.7079 89.0063 60.7888C88.9578 60.8697 88.893 60.9345 88.8121 60.983C88.7328 61.0299 88.6454 61.0534 88.5499 61.0534ZM88.5499 58.3929C88.4027 58.3929 88.2764 58.3411 88.1713 58.2375C88.0661 58.1323 88.0143 58.0061 88.0159 57.8588C88.0143 57.7132 88.0661 57.5885 88.1713 57.485C88.2764 57.3798 88.4027 57.3272 88.5499 57.3272C88.6924 57.3272 88.8162 57.3798 88.9214 57.485C89.0282 57.5885 89.0824 57.7132 89.084 57.8588C89.0824 57.9559 89.0565 58.0449 89.0063 58.1258C88.9578 58.2067 88.893 58.2715 88.8121 58.32C88.7328 58.3686 88.6454 58.3929 88.5499 58.3929ZM66.1022 81.0728C65.7284 81.0728 65.4055 80.9951 65.1336 80.8398C64.8634 80.6828 64.6554 80.4611 64.5098 80.1746C64.3641 79.8866 64.2913 79.5475 64.2913 79.1575C64.2913 78.774 64.3641 78.4374 64.5098 78.1477C64.657 77.8564 64.8626 77.6298 65.1264 77.468C65.3902 77.3045 65.7001 77.2228 66.0561 77.2228C66.2859 77.2228 66.5028 77.26 66.7067 77.3345C66.9122 77.4073 67.0935 77.5206 67.2504 77.6743C67.409 77.8281 67.5336 78.0239 67.6243 78.2618C67.7149 78.498 67.7602 78.7796 67.7602 79.1065V79.376H64.704V78.7837H66.9179C66.9162 78.6154 66.8798 78.4657 66.8086 78.3346C66.7374 78.2019 66.6379 78.0975 66.51 78.0214C66.3838 77.9454 66.2365 77.9074 66.0682 77.9074C65.8886 77.9074 65.7308 77.951 65.5949 78.0384C65.4589 78.1242 65.3529 78.2375 65.2769 78.3783C65.2024 78.5175 65.1644 78.6704 65.1628 78.8371V79.3541C65.1628 79.571 65.2024 79.7571 65.2817 79.9125C65.361 80.0662 65.4719 80.1844 65.6143 80.2669C65.7567 80.3478 65.9234 80.3883 66.1144 80.3883C66.2422 80.3883 66.3579 80.3705 66.4615 80.3349C66.5651 80.2976 66.6549 80.2434 66.7309 80.1722C66.807 80.101 66.8645 80.0128 66.9033 79.9076L67.7238 79.9999C67.672 80.2167 67.5733 80.4061 67.4276 80.5679C67.2836 80.7281 67.0991 80.8527 66.8742 80.9417C66.6492 81.0291 66.3919 81.0728 66.1022 81.0728ZM69.2525 76.0285V81H68.3738V76.0285H69.2525ZM72.9733 78.2569L72.1722 78.3443C72.1495 78.2634 72.1099 78.1873 72.0532 78.1161C71.9982 78.0449 71.9238 77.9875 71.8299 77.9438C71.736 77.9001 71.6211 77.8782 71.4852 77.8782C71.3023 77.8782 71.1486 77.9179 71.024 77.9972C70.901 78.0765 70.8403 78.1792 70.8419 78.3055C70.8403 78.4139 70.8799 78.5021 70.9609 78.5701C71.0434 78.638 71.1793 78.6939 71.3687 78.7376L72.0047 78.8735C72.3575 78.9496 72.6197 79.0701 72.7912 79.2352C72.9644 79.4003 73.0518 79.6163 73.0534 79.8833C73.0518 80.118 72.983 80.3252 72.847 80.5048C72.7127 80.6828 72.5258 80.822 72.2863 80.9223C72.0468 81.0227 71.7717 81.0728 71.4609 81.0728C71.0046 81.0728 70.6372 80.9773 70.3588 80.7864C70.0805 80.5938 69.9146 80.326 69.8612 79.9829L70.7181 79.9003C70.757 80.0686 70.8395 80.1957 70.9657 80.2815C71.0919 80.3672 71.2562 80.4101 71.4585 80.4101C71.6673 80.4101 71.8348 80.3672 71.961 80.2815C72.0888 80.1957 72.1528 80.0897 72.1528 79.9635C72.1528 79.8566 72.1115 79.7684 72.029 79.6989C71.9481 79.6293 71.8218 79.5759 71.6503 79.5386L71.0143 79.4051C70.6566 79.3307 70.392 79.2053 70.2205 79.0289C70.0489 78.8508 69.964 78.6259 69.9656 78.354C69.964 78.1242 70.0263 77.9252 70.1525 77.7568C70.2804 77.5869 70.4576 77.4558 70.6841 77.3636C70.9123 77.2697 71.1753 77.2228 71.4731 77.2228C71.91 77.2228 72.2539 77.3158 72.5048 77.502C72.7572 77.6881 72.9134 77.9397 72.9733 78.2569ZM75.2988 81.0728C74.925 81.0728 74.6021 80.9951 74.3302 80.8398C74.06 80.6828 73.852 80.4611 73.7064 80.1746C73.5607 79.8866 73.4879 79.5475 73.4879 79.1575C73.4879 78.774 73.5607 78.4374 73.7064 78.1477C73.8536 77.8564 74.0592 77.6298 74.323 77.468C74.5867 77.3045 74.8967 77.2228 75.2527 77.2228C75.4825 77.2228 75.6994 77.26 75.9033 77.3345C76.1088 77.4073 76.29 77.5206 76.447 77.6743C76.6056 77.8281 76.7302 78.0239 76.8209 78.2618C76.9115 78.498 76.9568 78.7796 76.9568 79.1065V79.376H73.9006V78.7837H76.1145C76.1128 78.6154 76.0764 78.4657 76.0052 78.3346C75.934 78.2019 75.8345 78.0975 75.7066 78.0214C75.5804 77.9454 75.4331 77.9074 75.2648 77.9074C75.0852 77.9074 74.9274 77.951 74.7915 78.0384C74.6555 78.1242 74.5495 78.2375 74.4735 78.3783C74.399 78.5175 74.361 78.6704 74.3594 78.8371V79.3541C74.3594 79.571 74.399 79.7571 74.4783 79.9125C74.5576 80.0662 74.6685 80.1844 74.8109 80.2669C74.9533 80.3478 75.12 80.3883 75.311 80.3883C75.4388 80.3883 75.5545 80.3705 75.6581 80.3349C75.7617 80.2976 75.8515 80.2434 75.9275 80.1722C76.0036 80.101 76.0611 80.0128 76.0999 79.9076L76.9204 79.9999C76.8686 80.2167 76.7699 80.4061 76.6242 80.5679C76.4802 80.7281 76.2957 80.8527 76.0708 80.9417C75.8458 81.0291 75.5885 81.0728 75.2988 81.0728ZM78.1117 81.0534C77.9644 81.0534 77.8382 81.0016 77.733 80.898C77.6278 80.7945 77.576 80.6682 77.5776 80.5194C77.576 80.3737 77.6278 80.2491 77.733 80.1455C77.8382 80.0419 77.9644 79.9902 78.1117 79.9902C78.2541 79.9902 78.3779 80.0419 78.4831 80.1455C78.5899 80.2491 78.6441 80.3737 78.6457 80.5194C78.6441 80.6181 78.6182 80.7079 78.5681 80.7888C78.5195 80.8697 78.4548 80.9345 78.3739 80.983C78.2946 81.0299 78.2072 81.0534 78.1117 81.0534ZM78.1117 78.3929C77.9644 78.3929 77.8382 78.3411 77.733 78.2375C77.6278 78.1323 77.576 78.0061 77.5776 77.8588C77.576 77.7132 77.6278 77.5885 77.733 77.485C77.8382 77.3798 77.9644 77.3272 78.1117 77.3272C78.2541 77.3272 78.3779 77.3798 78.4831 77.485C78.5899 77.5885 78.6441 77.7132 78.6457 77.8588C78.6441 77.9559 78.6182 78.0449 78.5681 78.1258C78.5195 78.2067 78.4548 78.2715 78.3739 78.32C78.2946 78.3686 78.2072 78.3929 78.1117 78.3929ZM68.3203 95.2715H69.2363V101.622H68.3203V95.2715ZM69.0312 97.6162H70.1523V98.3614H69.0312V97.6162ZM64.5195 99.3457H65.0527C66.1191 99.3457 66.9599 99.3115 67.8896 99.1475L67.9785 99.8994C67.0215 100.07 66.1533 100.098 65.0527 100.098H64.5195V99.3457ZM64.5195 95.8594H67.4726V96.5909H65.4219V99.708H64.5195V95.8594ZM73.2962 95.3946C74.6908 95.3946 75.5863 95.8663 75.5863 96.6319C75.5863 97.3975 74.6908 97.8623 73.2962 97.8623C71.9017 97.8623 71.0062 97.3975 71.0062 96.6319C71.0062 95.8663 71.9017 95.3946 73.2962 95.3946ZM73.2962 96.0987C72.4281 96.0987 71.9427 96.2696 71.9427 96.6319C71.9427 96.9873 72.4281 97.1651 73.2962 97.1651C74.1576 97.1651 74.6497 96.9873 74.6497 96.6319C74.6497 96.2696 74.1576 96.0987 73.2962 96.0987ZM71.0951 99.3799H75.4701V101.54H71.0951V99.3799ZM74.5814 100.098H71.9906V100.822H74.5814V100.098ZM70.432 98.2246H76.1536V98.9424H70.432V98.2246ZM76.5906 98.4024H82.3191V99.127H76.5906V98.4024ZM79.072 98.8604H79.988V100.193H79.072V98.8604ZM77.2947 95.545H81.5945V97.8965H77.2947V95.545ZM80.699 96.2559H78.1834V97.1856H80.699V96.2559ZM77.2537 100.774H81.6902V101.499H77.2537V100.774ZM77.2537 99.6602H78.156V101.014H77.2537V99.6602ZM84.1574 95.9825H84.9025V96.379C84.9025 97.5889 84.3351 98.6758 83.1115 99.0791L82.6603 98.3614C83.713 98.0127 84.1574 97.1856 84.1574 96.379V95.9825ZM84.3419 95.9825H85.0802V96.379C85.0802 97.1172 85.504 97.8418 86.5226 98.1494L86.0919 98.8604C84.8888 98.4981 84.3419 97.5069 84.3419 96.379V95.9825ZM82.8996 95.7022H86.3175V96.4268H82.8996V95.7022ZM86.8234 95.2784H87.7325V99.0313H86.8234V95.2784ZM87.4796 96.7344H88.5733V97.4795H87.4796V96.7344ZM85.6681 99.1475C86.9806 99.1475 87.8077 99.6055 87.8077 100.378C87.8077 101.15 86.9806 101.608 85.6681 101.608C84.3488 101.608 83.5216 101.15 83.5216 100.378C83.5216 99.6055 84.3488 99.1475 85.6681 99.1475ZM85.6681 99.8584C84.8615 99.8584 84.424 100.022 84.424 100.378C84.424 100.733 84.8615 100.911 85.6681 100.911C86.4747 100.911 86.9054 100.733 86.9054 100.378C86.9054 100.022 86.4747 99.8584 85.6681 99.8584Z" fill="white"/>
<path d="M69.9454 40.1387H75.6739V40.877H69.9454V40.1387ZM72.3517 38.7373H73.2608V40.3438H72.3517V38.7373ZM72.3243 36.1055H73.0899V36.3311C73.0899 37.6641 72.1329 38.7237 70.5197 39.0176L70.1642 38.2998C71.5724 38.0811 72.3243 37.2061 72.3243 36.3311V36.1055ZM72.5089 36.1055H73.2745V36.3311C73.2745 37.2061 74.0265 38.0537 75.4688 38.2657L75.1202 38.9834C73.4796 38.6963 72.5089 37.6641 72.5089 36.3311V36.1055ZM70.4171 35.7569H75.1817V36.4815H70.4171V35.7569ZM80.4858 35.2784H81.395V39.9063H80.4858V35.2784ZM79.3921 37.1172H80.6157V37.8555H79.3921V37.1172ZM78.4897 35.7501H79.4468C79.4468 37.459 78.3872 38.71 76.5484 39.291L76.1724 38.5664C77.6284 38.1084 78.4897 37.2334 78.4897 36.1602V35.7501ZM76.5005 35.7501H79.0708V36.4815H76.5005V35.7501ZM77.2456 40.7744H81.5522V41.499H77.2456V40.7744ZM77.2456 39.4483H78.1616V41.1914H77.2456V39.4483ZM75.5202 60.1387H81.2487V60.877H75.5202V60.1387ZM77.9264 58.7373H78.8356V60.3438H77.9264V58.7373ZM77.8991 56.1055H78.6647V56.3311C78.6647 57.6641 77.7077 58.7237 76.0944 59.0176L75.7389 58.2998C77.1471 58.0811 77.8991 57.2061 77.8991 56.3311V56.1055ZM78.0836 56.1055H78.8493V56.3311C78.8493 57.2061 79.6012 58.0537 81.0436 58.2657L80.6949 58.9834C79.0543 58.6963 78.0836 57.6641 78.0836 56.3311V56.1055ZM75.9919 55.7569H80.7565V56.4815H75.9919V55.7569ZM86.0606 55.2784H86.9697V59.9063H86.0606V55.2784ZM84.9668 57.1172H86.1905V57.8555H84.9668V57.1172ZM84.0645 55.7501H85.0215C85.0215 57.459 83.962 58.71 82.1231 59.291L81.7471 58.5664C83.2032 58.1084 84.0645 57.2334 84.0645 56.1602V55.7501ZM82.0753 55.7501H84.6455V56.4815H82.0753V55.7501ZM82.8204 60.7744H87.127V61.499H82.8204V60.7744ZM82.8204 59.4483H83.7364V61.1914H82.8204V59.4483Z" fill="#7737FF"/>
<path d="M74.8771 45.2715H75.7932V51.6221H74.8771V45.2715ZM72.3821 45.7159C73.3391 45.7159 74.0432 46.5909 74.0432 47.9717C74.0432 49.3662 73.3391 50.2412 72.3821 50.2412C71.425 50.2412 70.7209 49.3662 70.7209 47.9717C70.7209 46.5909 71.425 45.7159 72.3821 45.7159ZM72.3821 46.543C71.9104 46.543 71.5891 47.042 71.5891 47.9717C71.5891 48.9151 71.9104 49.4209 72.3821 49.4209C72.8537 49.4209 73.1682 48.9151 73.1682 47.9717C73.1682 47.042 72.8537 46.543 72.3821 46.543ZM76.695 48.4024H82.4234V49.127H76.695V48.4024ZM79.1764 48.8604H80.0924V50.1934H79.1764V48.8604ZM77.399 45.545H81.6988V47.8965H77.399V45.545ZM80.8033 46.2559H78.2877V47.1856H80.8033V46.2559ZM77.358 50.7744H81.7945V51.499H77.358V50.7744ZM77.358 49.6602H78.2604V51.0137H77.358V49.6602ZM84.2617 45.9825H85.0068V46.379C85.0068 47.5889 84.4395 48.6758 83.2158 49.0791L82.7647 48.3614C83.8174 48.0127 84.2617 47.1856 84.2617 46.379V45.9825ZM84.4463 45.9825H85.1846V46.379C85.1846 47.1172 85.6084 47.8418 86.6269 48.1494L86.1963 48.8604C84.9932 48.4981 84.4463 47.5069 84.4463 46.379V45.9825ZM83.0039 45.7022H86.4219V46.4268H83.0039V45.7022ZM86.9277 45.2784H87.8369V49.0313H86.9277V45.2784ZM87.584 46.7344H88.6777V47.4795H87.584V46.7344ZM85.7724 49.1475C87.0849 49.1475 87.9121 49.6055 87.9121 50.3779C87.9121 51.1504 87.0849 51.6084 85.7724 51.6084C84.4531 51.6084 83.626 51.1504 83.626 50.3779C83.626 49.6055 84.4531 49.1475 85.7724 49.1475ZM85.7724 49.8584C84.9658 49.8584 84.5283 50.0225 84.5283 50.3779C84.5283 50.7334 84.9658 50.9111 85.7724 50.9111C86.5791 50.9111 87.0097 50.7334 87.0097 50.3779C87.0097 50.0225 86.5791 49.8584 85.7724 49.8584Z" fill="#70D84B"/>
<path d="M74.9387 65.2715H75.8478V71.6221H74.9387V65.2715ZM73.8313 67.4864H75.1506V68.2178H73.8313V67.4864ZM71.9992 66.2764H72.717V66.837C72.717 68.3819 72.1565 69.8584 70.9739 70.4395L70.4407 69.7217C71.5002 69.2227 71.9992 68.0127 71.9992 66.837V66.2764ZM72.2112 66.2764H72.9221V66.837C72.9221 67.9512 73.4143 69.1201 74.4738 69.5986L73.9475 70.3096C72.758 69.749 72.2112 68.334 72.2112 66.837V66.2764ZM70.7004 65.8868H74.2209V66.6182H70.7004V65.8868ZM76.695 68.4024H82.4234V69.127H76.695V68.4024ZM79.1764 68.8604H80.0924V70.1934H79.1764V68.8604ZM77.399 65.545H81.6988V67.8965H77.399V65.545ZM80.8033 66.2559H78.2877V67.1856H80.8033V66.2559ZM77.358 70.7744H81.7945V71.499H77.358V70.7744ZM77.358 69.6602H78.2604V71.0137H77.358V69.6602ZM84.2617 65.9825H85.0068V66.379C85.0068 67.5889 84.4395 68.6758 83.2158 69.0791L82.7647 68.3614C83.8174 68.0127 84.2617 67.1856 84.2617 66.379V65.9825ZM84.4463 65.9825H85.1846V66.379C85.1846 67.1172 85.6084 67.8418 86.6269 68.1494L86.1963 68.8604C84.9932 68.4981 84.4463 67.5069 84.4463 66.379V65.9825ZM83.0039 65.7022H86.4219V66.4268H83.0039V65.7022ZM86.9277 65.2784H87.8369V69.0313H86.9277V65.2784ZM87.584 66.7344H88.6777V67.4795H87.584V66.7344ZM85.7724 69.1475C87.0849 69.1475 87.9121 69.6055 87.9121 70.3779C87.9121 71.1504 87.0849 71.6084 85.7724 71.6084C84.4531 71.6084 83.626 71.1504 83.626 70.3779C83.626 69.6055 84.4531 69.1475 85.7724 69.1475ZM85.7724 69.8584C84.9658 69.8584 84.5283 70.0225 84.5283 70.3779C84.5283 70.7334 84.9658 70.9111 85.7724 70.9111C86.5791 70.9111 87.0097 70.7334 87.0097 70.3779C87.0097 70.0225 86.5791 69.8584 85.7724 69.8584Z" fill="#175EE7"/>
<path d="M71.1243 85.8594H75.1369V86.5772H71.1243V85.8594ZM70.5432 90.043H76.2648V90.7813H70.5432V90.043ZM74.6584 85.8594H75.5607V86.6114C75.5607 87.5 75.5607 88.3614 75.3351 89.6602L74.426 89.585C74.6584 88.3682 74.6584 87.4659 74.6584 86.6114V85.8594ZM76.695 88.4024H82.4234V89.127H76.695V88.4024ZM79.1764 88.8604H80.0924V90.1934H79.1764V88.8604ZM77.399 85.545H81.6988V87.8965H77.399V85.545ZM80.8033 86.2559H78.2877V87.1856H80.8033V86.2559ZM77.358 90.7744H81.7945V91.499H77.358V90.7744ZM77.358 89.6602H78.2604V91.0137H77.358V89.6602ZM84.2617 85.9825H85.0068V86.379C85.0068 87.5889 84.4395 88.6758 83.2158 89.0791L82.7647 88.3614C83.8174 88.0127 84.2617 87.1856 84.2617 86.379V85.9825ZM84.4463 85.9825H85.1846V86.379C85.1846 87.1172 85.6084 87.8418 86.6269 88.1494L86.1963 88.8604C84.9932 88.4981 84.4463 87.5069 84.4463 86.379V85.9825ZM83.0039 85.7022H86.4219V86.4268H83.0039V85.7022ZM86.9277 85.2784H87.8369V89.0313H86.9277V85.2784ZM87.584 86.7344H88.6777V87.4795H87.584V86.7344ZM85.7724 89.1475C87.0849 89.1475 87.9121 89.6055 87.9121 90.3779C87.9121 91.1504 87.0849 91.6084 85.7724 91.6084C84.4531 91.6084 83.626 91.1504 83.626 90.3779C83.626 89.6055 84.4531 89.1475 85.7724 89.1475ZM85.7724 89.8584C84.9658 89.8584 84.5283 90.0225 84.5283 90.3779C84.5283 90.7334 84.9658 90.9111 85.7724 90.9111C86.5791 90.9111 87.0097 90.7334 87.0097 90.3779C87.0097 90.0225 86.5791 89.8584 85.7724 89.8584Z" fill="#FD5555"/>
</svg>
