<svg width="156" height="83" viewBox="0 0 156 83" fill="none" xmlns="http://www.w3.org/2000/svg">
<path d="M26.926 14L24.7854 6.42424H26.6054L27.937 11.7509H28.0061L29.3674 6.42424H31.1676L32.5289 11.7214H32.6028L33.9148 6.42424H35.7397L33.5942 14H31.7348L30.3143 8.88045H30.2108L28.7903 14H26.926ZM38.7717 9.56108V14H36.9863V3.89899H38.7323V7.71153H38.821C38.9986 7.28408 39.2731 6.94705 39.6447 6.70044C40.0195 6.45055 40.4963 6.3256 41.075 6.3256C41.6011 6.3256 42.0598 6.43575 42.4511 6.65605C42.8424 6.87635 43.1449 7.19859 43.3586 7.62275C43.5756 8.04691 43.6841 8.56479 43.6841 9.17637V14H41.8987V9.45257C41.8987 8.94292 41.7672 8.5467 41.5041 8.26393C41.2444 7.97786 40.8794 7.83483 40.4092 7.83483C40.0935 7.83483 39.8107 7.90388 39.5609 8.04198C39.3142 8.17679 39.1202 8.37244 38.9789 8.62891C38.8408 8.88538 38.7717 9.1961 38.7717 9.56108ZM45.5041 14V6.42424H47.2895V14H45.5041ZM46.4017 5.34904C46.1189 5.34904 45.8756 5.25533 45.6718 5.06791C45.4679 4.8772 45.366 4.64867 45.366 4.38234C45.366 4.11272 45.4679 3.88419 45.6718 3.69677C45.8756 3.50606 46.1189 3.41071 46.4017 3.41071C46.6878 3.41071 46.9311 3.50606 47.1317 3.69677C47.3355 3.88419 47.4375 4.11272 47.4375 4.38234C47.4375 4.64867 47.3355 4.8772 47.1317 5.06791C46.9311 5.25533 46.6878 5.34904 46.4017 5.34904ZM50.9109 3.89899V14H49.1255V3.89899H50.9109ZM56.1008 14.148C55.3412 14.148 54.6852 13.9901 54.1328 13.6745C53.5837 13.3555 53.1612 12.9051 52.8653 12.3231C52.5694 11.7378 52.4214 11.0489 52.4214 10.2565C52.4214 9.47723 52.5694 8.79331 52.8653 8.20474C53.1645 7.61289 53.5821 7.15255 54.118 6.82375C54.654 6.49165 55.2837 6.3256 56.0071 6.3256C56.474 6.3256 56.9146 6.40123 57.3289 6.55248C57.7465 6.70044 58.1147 6.93061 58.4337 7.24298C58.7559 7.55535 59.0091 7.9532 59.1932 8.43655C59.3773 8.91661 59.4694 9.48874 59.4694 10.1529V10.7004H53.2599V9.49696H57.758C57.7547 9.155 57.6807 8.85085 57.536 8.58452C57.3913 8.31489 57.1891 8.10281 56.9294 7.94827C56.6729 7.79373 56.3737 7.71646 56.0317 7.71646C55.6667 7.71646 55.3461 7.80524 55.0699 7.9828C54.7937 8.15707 54.5784 8.38723 54.4238 8.6733C54.2726 8.95607 54.1953 9.2668 54.192 9.60547V10.656C54.192 11.0966 54.2726 11.4747 54.4337 11.7904C54.5948 12.1028 54.8201 12.3428 55.1094 12.5105C55.3988 12.6749 55.7374 12.7571 56.1254 12.7571C56.3852 12.7571 56.6203 12.7209 56.8307 12.6486C57.0412 12.573 57.2236 12.4628 57.3782 12.3181C57.5327 12.1735 57.6495 11.9943 57.7284 11.7805L59.3954 11.968C59.2902 12.4086 59.0896 12.7933 58.7937 13.1221C58.5011 13.4476 58.1262 13.7008 57.6692 13.8816C57.2121 14.0592 56.6893 14.148 56.1008 14.148ZM65.5248 14.1085C65.2256 14.1085 64.9692 14.0033 64.7554 13.7929C64.5417 13.5824 64.4365 13.3259 64.4398 13.0234C64.4365 12.7275 64.5417 12.4743 64.7554 12.2639C64.9692 12.0535 65.2256 11.9482 65.5248 11.9482C65.8142 11.9482 66.0657 12.0535 66.2795 12.2639C66.4965 12.4743 66.6066 12.7275 66.6099 13.0234C66.6066 13.224 66.554 13.4065 66.4521 13.5709C66.3534 13.7353 66.2219 13.8668 66.0575 13.9655C65.8964 14.0608 65.7188 14.1085 65.5248 14.1085ZM65.5248 8.70289C65.2256 8.70289 64.9692 8.59767 64.7554 8.38723C64.5417 8.17351 64.4365 7.91703 64.4398 7.61782C64.4365 7.32189 64.5417 7.06871 64.7554 6.85827C64.9692 6.64454 65.2256 6.53768 65.5248 6.53768C65.8142 6.53768 66.0657 6.64454 66.2795 6.85827C66.4965 7.06871 66.6066 7.32189 66.6099 7.61782C66.6066 7.8151 66.554 7.99595 66.4521 8.16035C66.3534 8.32476 66.2219 8.45628 66.0575 8.55492C65.8964 8.65357 65.7188 8.70289 65.5248 8.70289ZM72.071 11.1838C72.0546 10.5853 72.1335 10.0872 72.3078 9.68932C72.4853 9.29146 72.7319 8.99388 73.0476 8.7966C73.3665 8.59603 73.7315 8.49574 74.1425 8.49574C74.4615 8.49574 74.7607 8.56314 75.0402 8.69796C75.3196 8.82948 75.6402 9.05471 76.0019 9.37366C76.2091 9.55122 76.3801 9.68438 76.5149 9.77316C76.6497 9.86194 76.8042 9.90633 76.9785 9.90633C77.2284 9.90633 77.4306 9.81097 77.5851 9.62027C77.743 9.42627 77.8169 9.13363 77.8071 8.74235H79.2374C79.2538 9.33749 79.1716 9.83399 78.9908 10.2318C78.8132 10.6297 78.565 10.9289 78.246 11.1295C77.9271 11.3268 77.5671 11.4254 77.1659 11.4254C76.8371 11.4254 76.5313 11.3564 76.2485 11.2183C75.9658 11.0802 75.6485 10.8582 75.2966 10.5524C75.0796 10.3617 74.9053 10.2253 74.7738 10.1431C74.6456 10.0609 74.496 10.0198 74.325 10.0198C74.085 10.0198 73.8844 10.1102 73.7233 10.291C73.5654 10.4686 73.4898 10.7662 73.4964 11.1838H72.071ZM89.1317 2.375H90.9651V15.2361H89.1317V2.375ZM90.5484 7.38889H92.8262V8.93056H90.5484V7.38889ZM80.8262 4.27778H88.3123V5.75H80.8262V4.27778ZM84.5901 6.47222C86.4651 6.47222 87.854 7.75 87.854 9.54167C87.854 11.3333 86.4651 12.6111 84.5901 12.6111C82.7151 12.6111 81.3262 11.3333 81.3262 9.54167C81.3262 7.75 82.7151 6.47222 84.5901 6.47222ZM84.5901 7.97222C83.7151 7.97222 83.0901 8.55556 83.0901 9.54167C83.0901 10.5278 83.7151 11.1111 84.5901 11.1111C85.4651 11.1111 86.0901 10.5278 86.0901 9.54167C86.0901 8.55556 85.4651 7.97222 84.5901 7.97222ZM83.6595 2.58333H85.5067V4.83333H83.6595V2.58333ZM95.1029 5.84722H104.02V7.30556H95.1029V5.84722ZM93.6584 8.63889H105.311V10.1111H93.6584V8.63889ZM95.1029 2.83333H96.9362V6.56944H95.1029V2.83333ZM94.9779 13.4861H104.089V14.9583H94.9779V13.4861ZM94.9779 11.1389H96.8251V13.875H94.9779V11.1389ZM109.894 8.41667H121.533V9.88889H109.894V8.41667ZM114.797 6.48611H116.63V8.98611H114.797V6.48611ZM111.297 5.90278H120.214V7.36111H111.297V5.90278ZM111.297 2.93056H120.144V4.375H113.13V6.83333H111.297V2.93056ZM115.672 10.5278C118.45 10.5278 120.13 11.375 120.13 12.8889C120.13 14.4028 118.45 15.25 115.672 15.25C112.894 15.25 111.2 14.4028 111.2 12.8889C111.2 11.375 112.894 10.5278 115.672 10.5278ZM115.672 11.9167C113.95 11.9167 113.075 12.2361 113.075 12.8889C113.075 13.5556 113.95 13.8472 115.672 13.8472C117.394 13.8472 118.269 13.5556 118.269 12.8889C118.269 12.2361 117.394 11.9167 115.672 11.9167ZM130.935 2.375H132.782V11.7222H130.935V2.375ZM132.254 6.05556H134.49V7.56944H132.254V6.05556ZM124.49 13.5417H133.24V15.0139H124.49V13.5417ZM124.49 10.75H126.337V14.1944H124.49V10.75ZM126.24 3.19444C128.212 3.19444 129.74 4.56944 129.74 6.47222C129.74 8.36111 128.212 9.73611 126.24 9.73611C124.268 9.73611 122.74 8.36111 122.74 6.47222C122.74 4.56944 124.268 3.19444 126.24 3.19444ZM126.24 4.80556C125.296 4.80556 124.546 5.41667 124.546 6.47222C124.546 7.51389 125.296 8.125 126.24 8.125C127.199 8.125 127.935 7.51389 127.935 6.47222C127.935 5.41667 127.199 4.80556 126.24 4.80556Z" fill="white"/>
<path d="M62.8652 36L61.2864 30.635H62.3657L63.4171 34.5749H63.4694L64.5243 30.635H65.6036L66.6514 34.5575H66.7038L67.7482 30.635H68.8275L67.2522 36H66.1869L65.0971 32.1264H65.0168L63.927 36H62.8652ZM70.6761 32.8145V36H69.6317V28.8466H70.6621V31.5082H70.7284C70.8542 31.2195 71.0463 30.9901 71.3048 30.8201C71.5632 30.6501 71.9009 30.5651 72.3177 30.5651C72.6856 30.5651 73.007 30.6408 73.2817 30.7922C73.5588 30.9435 73.773 31.1694 73.9244 31.4698C74.0781 31.7678 74.1549 32.1404 74.1549 32.5875V36H73.1106V32.7132C73.1106 32.3197 73.0093 32.0147 72.8067 31.7981C72.6041 31.5792 72.3224 31.4698 71.9614 31.4698C71.7146 31.4698 71.4934 31.5222 71.2978 31.627C71.1045 31.7317 70.952 31.8854 70.8402 32.088C70.7308 32.2883 70.6761 32.5304 70.6761 32.8145ZM75.3617 36V30.635H76.4061V36H75.3617ZM75.8891 29.8072C75.7075 29.8072 75.5515 29.7466 75.4211 29.6255C75.293 29.5021 75.229 29.3554 75.229 29.1854C75.229 29.0131 75.293 28.8664 75.4211 28.7453C75.5515 28.6219 75.7075 28.5602 75.8891 28.5602C76.0707 28.5602 76.2256 28.6219 76.3537 28.7453C76.4841 28.8664 76.5493 29.0131 76.5493 29.1854C76.5493 29.3554 76.4841 29.5021 76.3537 29.6255C76.2256 29.7466 76.0707 29.8072 75.8891 29.8072ZM78.6685 28.8466V36H77.6242V28.8466H78.6685ZM82.1989 36.1083C81.6703 36.1083 81.2151 35.9953 80.8332 35.7695C80.4537 35.5413 80.1603 35.2211 79.953 34.8089C79.7481 34.3945 79.6457 33.9089 79.6457 33.3524C79.6457 32.8029 79.7481 32.3185 79.953 31.8994C80.1603 31.4803 80.449 31.1531 80.8193 30.9179C81.1918 30.6827 81.6273 30.5651 82.1256 30.5651C82.4283 30.5651 82.7217 30.6152 83.0058 30.7153C83.2899 30.8154 83.5448 30.9726 83.7707 31.1869C83.9966 31.4011 84.1747 31.6793 84.3051 32.0216C84.4355 32.3616 84.5007 32.7749 84.5007 33.2616V33.6318H80.2359V32.8494H83.4773C83.4773 32.5747 83.4214 32.3313 83.3097 32.1194C83.1979 31.9052 83.0407 31.7364 82.8381 31.613C82.6379 31.4896 82.4027 31.4279 82.1326 31.4279C81.8392 31.4279 81.583 31.5 81.3641 31.6444C81.1476 31.7865 80.9799 31.9727 80.8612 32.2033C80.7447 32.4315 80.6865 32.6795 80.6865 32.9472V33.5585C80.6865 33.9171 80.7494 34.2221 80.8751 34.4736C81.0032 34.7251 81.1813 34.9172 81.4095 35.0499C81.6377 35.1803 81.9044 35.2455 82.2094 35.2455C82.4073 35.2455 82.5878 35.2176 82.7508 35.1617C82.9138 35.1035 83.0547 35.0173 83.1734 34.9032C83.2922 34.7891 83.383 34.6483 83.4459 34.4806L84.4344 34.6587C84.3552 34.9498 84.2131 35.2048 84.0082 35.4237C83.8056 35.6402 83.5507 35.8091 83.2433 35.9301C82.9382 36.0489 82.5901 36.1083 82.1989 36.1083Z" fill="white"/>
<path d="M32 53C32 50.2386 34.2386 48 37 48H114C116.761 48 119 50.2386 119 53V72C119 74.7614 116.761 77 114 77H37C34.2386 77 32 74.7614 32 72V53Z" fill="#858F9F"/>
<path d="M55.221 60L54.1675 56.2713H55.0632L55.7187 58.8931H55.7527L56.4227 56.2713H57.3087L57.9787 58.8785H58.0151L58.6608 56.2713H59.559L58.503 60H57.5879L56.8887 57.4802H56.8378L56.1386 60H55.221ZM60.9214 57.8152V60H60.0427V55.0285H60.902V56.9049H60.9457C61.0331 56.6945 61.1682 56.5287 61.3511 56.4073C61.5356 56.2843 61.7702 56.2228 62.0551 56.2228C62.314 56.2228 62.5398 56.277 62.7323 56.3854C62.9249 56.4939 63.0738 56.6525 63.179 56.8612C63.2858 57.07 63.3392 57.3249 63.3392 57.6259V60H62.4605V57.7618C62.4605 57.511 62.3957 57.316 62.2663 57.1768C62.1384 57.036 61.9588 56.9656 61.7274 56.9656C61.572 56.9656 61.4328 56.9996 61.3098 57.0676C61.1885 57.1339 61.093 57.2302 61.0234 57.3564C60.9554 57.4827 60.9214 57.6356 60.9214 57.8152ZM64.1051 60V56.2713H64.9839V60H64.1051ZM64.5469 55.7421C64.4077 55.7421 64.288 55.696 64.1876 55.6038C64.0873 55.5099 64.0371 55.3974 64.0371 55.2664C64.0371 55.1337 64.0873 55.0212 64.1876 54.9289C64.288 54.8351 64.4077 54.7881 64.5469 54.7881C64.6877 54.7881 64.8075 54.8351 64.9062 54.9289C65.0065 55.0212 65.0567 55.1337 65.0567 55.2664C65.0567 55.3974 65.0065 55.5099 64.9062 55.6038C64.8075 55.696 64.6877 55.7421 64.5469 55.7421ZM66.6364 55.0285V60H65.7576V55.0285H66.6364ZM69.0608 60.0728C68.687 60.0728 68.3641 59.9951 68.0923 59.8398C67.822 59.6828 67.614 59.4611 67.4684 59.1746C67.3227 58.8866 67.2499 58.5475 67.2499 58.1575C67.2499 57.774 67.3227 57.4374 67.4684 57.1477C67.6157 56.8564 67.8212 56.6298 68.085 56.468C68.3488 56.3045 68.6587 56.2228 69.0147 56.2228C69.2445 56.2228 69.4614 56.26 69.6653 56.3345C69.8708 56.4073 70.0521 56.5206 70.209 56.6743C70.3676 56.8281 70.4923 57.0239 70.5829 57.2618C70.6735 57.498 70.7188 57.7796 70.7188 58.1065V58.376H67.6626V57.7837H69.8765C69.8749 57.6154 69.8385 57.4657 69.7672 57.3346C69.696 57.2019 69.5965 57.0975 69.4687 57.0214C69.3424 56.9454 69.1952 56.9074 69.0269 56.9074C68.8472 56.9074 68.6894 56.951 68.5535 57.0384C68.4175 57.1242 68.3115 57.2375 68.2355 57.3783C68.161 57.5175 68.123 57.6704 68.1214 57.8371V58.3541C68.1214 58.571 68.161 58.7571 68.2403 58.9125C68.3196 59.0662 68.4305 59.1844 68.5729 59.2669C68.7153 59.3478 68.882 59.3883 69.073 59.3883C69.2008 59.3883 69.3165 59.3705 69.4201 59.3349C69.5237 59.2976 69.6135 59.2434 69.6896 59.1722C69.7656 59.101 69.8231 59.0128 69.8619 58.9076L70.6824 58.9999C70.6306 59.2167 70.5319 59.4061 70.3863 59.5679C70.2422 59.7281 70.0577 59.8527 69.8328 59.9417C69.6078 60.0291 69.3505 60.0728 69.0608 60.0728ZM85.7566 60.0534C85.6093 60.0534 85.4831 60.0016 85.3779 59.898C85.2727 59.7945 85.2209 59.6682 85.2225 59.5194C85.2209 59.3737 85.2727 59.2491 85.3779 59.1455C85.4831 59.0419 85.6093 58.9902 85.7566 58.9902C85.899 58.9902 86.0228 59.0419 86.128 59.1455C86.2348 59.2491 86.289 59.3737 86.2907 59.5194C86.289 59.6181 86.2631 59.7079 86.213 59.7888C86.1644 59.8697 86.0997 59.9345 86.0188 59.983C85.9395 60.0299 85.8521 60.0534 85.7566 60.0534ZM85.7566 57.3929C85.6093 57.3929 85.4831 57.3411 85.3779 57.2375C85.2727 57.1323 85.2209 57.0061 85.2225 56.8588C85.2209 56.7132 85.2727 56.5885 85.3779 56.485C85.4831 56.3798 85.6093 56.3272 85.7566 56.3272C85.899 56.3272 86.0228 56.3798 86.128 56.485C86.2348 56.5885 86.289 56.7132 86.2907 56.8588C86.289 56.9559 86.2631 57.0449 86.213 57.1258C86.1644 57.2067 86.0997 57.2715 86.0188 57.32C85.9395 57.3686 85.8521 57.3929 85.7566 57.3929ZM64.6105 64.2852H65.5197V68.9404H64.6105V64.2852ZM65.26 66.0625H66.3605V66.8077H65.26V66.0625ZM61.4387 69.7744H65.7453V70.499H61.4387V69.7744ZM61.4387 68.4688H62.3479V69.9316H61.4387V68.4688ZM60.7209 64.7295H61.6233V65.6387H62.8606V64.7295H63.7629V67.9424H60.7209V64.7295ZM61.6233 66.3291V67.2315H62.8606V66.3291H61.6233ZM66.695 67.4024H72.4166V68.1338H66.695V67.4024ZM69.0943 66.5957H70.0035V67.5596H69.0943V66.5957ZM67.3307 68.5645H71.7262V70.6084H70.817V69.2822H67.3307V68.5645ZM67.4264 64.4356H68.3219V64.9961H70.7896V64.4356H71.692V66.8828H67.4264V64.4356ZM68.3219 65.6729V66.1719H70.7896V65.6729H68.3219ZM75.2393 64.4629H76.039V64.7569C76.039 65.9737 75.082 67.0059 73.4209 67.252L73.0654 66.5205C74.5215 66.3291 75.2393 65.502 75.2393 64.7569V64.4629ZM75.4101 64.4629H76.2031V64.7569C76.2031 65.4952 76.9277 66.3291 78.3769 66.5205L78.0283 67.252C76.3672 67.0059 75.4101 65.9737 75.4101 64.7569V64.4629ZM75.2461 68.291H76.1484V70.6084H75.2461V68.291ZM72.8604 67.7168H78.582V68.4551H72.8604V67.7168ZM83.5443 64.2784H84.4056V68.2432H83.5443V64.2784ZM82.7718 65.837H83.7836V66.5752H82.7718V65.837ZM82.2318 64.4014H83.0795V68.0381H82.2318V64.4014ZM78.9848 64.9278H82.0541V65.625H78.9848V64.9278ZM80.5297 65.8301C81.3226 65.8301 81.8969 66.2813 81.8969 66.9375C81.8969 67.5938 81.3226 68.0381 80.5297 68.0381C79.7367 68.0381 79.1625 67.5938 79.1625 66.9375C79.1625 66.2813 79.7367 65.8301 80.5297 65.8301ZM80.5297 66.4795C80.1947 66.4795 79.9691 66.6436 79.9691 66.9375C79.9691 67.2315 80.1947 67.3955 80.5297 67.3955C80.8578 67.3955 81.0834 67.2315 81.0834 66.9375C81.0834 66.6436 80.8578 66.4795 80.5297 66.4795ZM80.0717 64.3399H80.9672V65.4063H80.0717V64.3399ZM82.266 68.3115C83.6195 68.3115 84.4398 68.7217 84.4398 69.46C84.4398 70.1914 83.6195 70.6084 82.266 70.6084C80.9057 70.6084 80.0853 70.1914 80.0853 69.46C80.0853 68.7217 80.9057 68.3115 82.266 68.3115ZM82.266 68.9883C81.4183 68.9883 80.9945 69.1318 80.9945 69.46C80.9945 69.7813 81.4183 69.9316 82.266 69.9316C83.1068 69.9316 83.5306 69.7813 83.5306 69.46C83.5306 69.1318 83.1068 68.9883 82.266 68.9883ZM85.1707 67.4024H90.8992V68.127H85.1707V67.4024ZM87.6521 67.8604H88.5681V69.1934H87.6521V67.8604ZM85.8748 64.545H90.1746V66.8965H85.8748V64.545ZM89.2791 65.2559H86.7635V66.1856H89.2791V65.2559ZM85.8338 69.7744H90.2703V70.499H85.8338V69.7744ZM85.8338 68.6602H86.7361V70.0137H85.8338V68.6602ZM92.7375 64.9825H93.4826V65.379C93.4826 66.5889 92.9152 67.6758 91.6916 68.0791L91.2404 67.3614C92.2931 67.0127 92.7375 66.1856 92.7375 65.379V64.9825ZM92.922 64.9825H93.6603V65.379C93.6603 66.1172 94.0841 66.8418 95.1027 67.1494L94.672 67.8604C93.4689 67.4981 92.922 66.5069 92.922 65.379V64.9825ZM91.4797 64.7022H94.8976V65.4268H91.4797V64.7022ZM95.4035 64.2784H96.3126V68.0313H95.4035V64.2784ZM96.0597 65.7344H97.1534V66.4795H96.0597V65.7344ZM94.2482 68.1475C95.5607 68.1475 96.3878 68.6055 96.3878 69.3779C96.3878 70.1504 95.5607 70.6084 94.2482 70.6084C92.9289 70.6084 92.1017 70.1504 92.1017 69.3779C92.1017 68.6055 92.9289 68.1475 94.2482 68.1475ZM94.2482 68.8584C93.4416 68.8584 93.0041 69.0225 93.0041 69.3779C93.0041 69.7334 93.4416 69.9111 94.2482 69.9111C95.0548 69.9111 95.4855 69.7334 95.4855 69.3779C95.4855 69.0225 95.0548 68.8584 94.2482 68.8584Z" fill="white"/>
<path d="M72.7269 59.1387H78.4553V59.877H72.7269V59.1387ZM75.1331 57.7373H76.0423V59.3438H75.1331V57.7373ZM75.1057 55.1055H75.8714V55.3311C75.8714 56.6641 74.9143 57.7237 73.3011 58.0176L72.9456 57.2998C74.3538 57.0811 75.1057 56.2061 75.1057 55.3311V55.1055ZM75.2903 55.1055H76.0559V55.3311C76.0559 56.2061 76.8079 57.0537 78.2502 57.2657L77.9016 57.9834C76.261 57.6963 75.2903 56.6641 75.2903 55.3311V55.1055ZM73.1985 54.7569H77.9631V55.4815H73.1985V54.7569ZM83.2672 54.2784H84.1764V58.9063H83.2672V54.2784ZM82.1735 56.1172H83.3971V56.8555H82.1735V56.1172ZM81.2712 54.7501H82.2282C82.2282 56.459 81.1686 57.71 79.3298 58.291L78.9538 57.5664C80.4098 57.1084 81.2712 56.2334 81.2712 55.1602V54.7501ZM79.2819 54.7501H81.8522V55.4815H79.2819V54.7501ZM80.027 59.7744H84.3336V60.499H80.027V59.7744ZM80.027 58.4483H80.943V60.1914H80.027V58.4483Z" fill="#7737FF"/>
<path d="M35 42L119 42" stroke="white" stroke-linecap="round"/>
</svg>
