<svg width="114" height="113" viewBox="0 0 114 113" fill="none" xmlns="http://www.w3.org/2000/svg">
<path d="M0.996291 14V3.89899H2.78172V7.677H2.85571C2.94777 7.49287 3.07765 7.29723 3.24534 7.09008C3.41304 6.87964 3.63991 6.70044 3.92598 6.55248C4.21204 6.40123 4.57702 6.3256 5.02091 6.3256C5.60619 6.3256 6.13393 6.47521 6.60413 6.77442C7.07761 7.07035 7.45245 7.50931 7.72865 8.0913C8.00814 8.67001 8.14789 9.38023 8.14789 10.222C8.14789 11.0539 8.01143 11.7608 7.73852 12.3428C7.46561 12.9248 7.09405 13.3687 6.62386 13.6745C6.15366 13.9803 5.62099 14.1332 5.02584 14.1332C4.59182 14.1332 4.23177 14.0608 3.94571 13.9162C3.65964 13.7715 3.42948 13.5972 3.25521 13.3933C3.08423 13.1862 2.95106 12.9906 2.85571 12.8064H2.75213V14H0.996291ZM2.7472 10.2121C2.7472 10.702 2.81625 11.1311 2.95435 11.4994C3.09574 11.8677 3.29795 12.1554 3.561 12.3625C3.82734 12.5664 4.14957 12.6683 4.5277 12.6683C4.92227 12.6683 5.25272 12.5631 5.51906 12.3527C5.78539 12.1389 5.98597 11.8479 6.12078 11.4797C6.25888 11.1081 6.32793 10.6856 6.32793 10.2121C6.32793 9.74192 6.26052 9.32434 6.12571 8.95936C5.9909 8.59438 5.79033 8.30832 5.52399 8.10117C5.25765 7.89402 4.92556 7.79044 4.5277 7.79044C4.14628 7.79044 3.8224 7.89073 3.55607 8.0913C3.28973 8.29188 3.08752 8.57301 2.94942 8.9347C2.8146 9.29639 2.7472 9.7222 2.7472 10.2121ZM9.66575 14V6.42424H11.3969V7.68687H11.4758C11.6139 7.24955 11.8507 6.91252 12.1861 6.67578C12.5247 6.43575 12.9111 6.31574 13.3451 6.31574C13.4438 6.31574 13.5539 6.32067 13.6756 6.33053C13.8005 6.33711 13.9041 6.34862 13.9863 6.36506V8.00746C13.9107 7.98115 13.7907 7.95814 13.6263 7.93841C13.4651 7.91539 13.309 7.90388 13.1577 7.90388C12.8322 7.90388 12.5395 7.97458 12.2798 8.11596C12.0233 8.25406 11.8211 8.44642 11.6731 8.69302C11.5252 8.93963 11.4512 9.22405 11.4512 9.54628V14H9.66575ZM18.2144 14.148C17.4548 14.148 16.7988 13.9901 16.2464 13.6745C15.6973 13.3555 15.2748 12.9051 14.9789 12.3231C14.683 11.7378 14.535 11.0489 14.535 10.2565C14.535 9.47723 14.683 8.79331 14.9789 8.20474C15.2781 7.61289 15.6957 7.15255 16.2317 6.82375C16.7676 6.49165 17.3973 6.3256 18.1207 6.3256C18.5876 6.3256 19.0282 6.40123 19.4425 6.55248C19.8601 6.70044 20.2283 6.93061 20.5473 7.24298C20.8695 7.55535 21.1227 7.9532 21.3068 8.43655C21.491 8.91661 21.583 9.48874 21.583 10.1529V10.7004H15.3735V9.49696H19.8716C19.8683 9.155 19.7943 8.85085 19.6496 8.58452C19.5049 8.31489 19.3027 8.10281 19.043 7.94827C18.7865 7.79373 18.4873 7.71646 18.1453 7.71646C17.7803 7.71646 17.4598 7.80524 17.1836 7.9828C16.9074 8.15707 16.692 8.38723 16.5374 8.6733C16.3862 8.95607 16.3089 9.2668 16.3056 9.60547V10.656C16.3056 11.0966 16.3862 11.4747 16.5473 11.7904C16.7084 12.1028 16.9337 12.3428 17.223 12.5105C17.5124 12.6749 17.851 12.7571 18.239 12.7571C18.4988 12.7571 18.7339 12.7209 18.9443 12.6486C19.1548 12.573 19.3373 12.4628 19.4918 12.3181C19.6463 12.1735 19.7631 11.9943 19.842 11.7805L21.509 11.968C21.4038 12.4086 21.2032 12.7933 20.9073 13.1221C20.6147 13.4476 20.2398 13.7008 19.7828 13.8816C19.3257 14.0592 18.8029 14.148 18.2144 14.148ZM25.2735 14.1529C24.7934 14.1529 24.361 14.0674 23.9763 13.8964C23.5949 13.7222 23.2924 13.4657 23.0688 13.127C22.8485 12.7883 22.7384 12.3708 22.7384 11.8743C22.7384 11.4468 22.8173 11.0933 22.9751 10.8138C23.1329 10.5344 23.3483 10.3108 23.6212 10.1431C23.8941 9.97538 24.2016 9.84879 24.5435 9.7633C24.8888 9.67452 25.2455 9.6104 25.6138 9.57094C26.0577 9.52491 26.4177 9.48381 26.6939 9.44764C26.9701 9.40818 27.1707 9.349 27.2957 9.27008C27.4239 9.18788 27.488 9.06129 27.488 8.89031V8.86072C27.488 8.48916 27.3779 8.20145 27.1576 7.99759C26.9373 7.79373 26.62 7.6918 26.2057 7.6918C25.7683 7.6918 25.4214 7.78716 25.165 7.97786C24.9118 8.16857 24.7408 8.39381 24.652 8.65357L22.985 8.41682C23.1165 7.95649 23.3335 7.57179 23.636 7.26271C23.9385 6.95034 24.3084 6.71688 24.7457 6.56234C25.1831 6.40451 25.6664 6.3256 26.1958 6.3256C26.5608 6.3256 26.9241 6.36835 27.2858 6.45384C27.6475 6.53933 27.9779 6.68071 28.2772 6.878C28.5764 7.072 28.8164 7.33669 28.9972 7.67207C29.1814 8.00746 29.2734 8.42669 29.2734 8.92977V14H27.5571V12.9593H27.4979C27.3894 13.1698 27.2365 13.367 27.0392 13.5512C26.8452 13.732 26.6002 13.8783 26.3043 13.9901C26.0117 14.0986 25.6681 14.1529 25.2735 14.1529ZM25.7371 12.8409C26.0955 12.8409 26.4062 12.7703 26.6693 12.6289C26.9323 12.4842 27.1345 12.2935 27.2759 12.0567C27.4206 11.82 27.4929 11.5619 27.4929 11.2824V10.3897C27.437 10.4357 27.3417 10.4785 27.2069 10.5179C27.0754 10.5574 26.9274 10.5919 26.763 10.6215C26.5986 10.6511 26.4358 10.6774 26.2747 10.7004C26.1136 10.7234 25.9738 10.7431 25.8555 10.7596C25.5891 10.7958 25.3508 10.8549 25.1403 10.9371C24.9299 11.0193 24.7638 11.1344 24.6422 11.2824C24.5205 11.4271 24.4597 11.6145 24.4597 11.8447C24.4597 12.1735 24.5797 12.4217 24.8197 12.5894C25.0598 12.7571 25.3656 12.8409 25.7371 12.8409ZM32.6963 11.6227L32.6914 9.46737H32.9775L35.7 6.42424H37.7863L34.4374 10.1529H34.0675L32.6963 11.6227ZM31.0687 14V3.89899H32.8542V14H31.0687ZM35.8233 14L33.3573 10.5524L34.5607 9.29474L37.9589 14H35.8233ZM43.5211 14.1085C43.2219 14.1085 42.9655 14.0033 42.7517 13.7929C42.538 13.5824 42.4328 13.3259 42.4361 13.0234C42.4328 12.7275 42.538 12.4743 42.7517 12.2639C42.9655 12.0535 43.2219 11.9482 43.5211 11.9482C43.8105 11.9482 44.062 12.0535 44.2758 12.2639C44.4928 12.4743 44.6029 12.7275 44.6062 13.0234C44.6029 13.224 44.5503 13.4065 44.4484 13.5709C44.3497 13.7353 44.2182 13.8668 44.0538 13.9655C43.8927 14.0608 43.7151 14.1085 43.5211 14.1085ZM43.5211 8.70289C43.2219 8.70289 42.9655 8.59767 42.7517 8.38723C42.538 8.17351 42.4328 7.91703 42.4361 7.61782C42.4328 7.32189 42.538 7.06871 42.7517 6.85827C42.9655 6.64454 43.2219 6.53768 43.5211 6.53768C43.8105 6.53768 44.062 6.64454 44.2758 6.85827C44.4928 7.06871 44.6029 7.32189 44.6062 7.61782C44.6029 7.8151 44.5503 7.99595 44.4484 8.16035C44.3497 8.32476 44.2182 8.45628 44.0538 8.55492C43.8927 8.65357 43.7151 8.70289 43.5211 8.70289ZM51.4582 14L49.3176 6.42424H51.1376L52.4693 11.7509H52.5383L53.8996 6.42424H55.6998L57.0611 11.7214H57.1351L58.447 6.42424H60.2719L58.1264 14H56.267L54.8466 8.88045H54.743L53.3225 14H51.4582ZM63.3039 9.56108V14H61.5185V3.89899H63.2645V7.71153H63.3533C63.5308 7.28408 63.8054 6.94705 64.1769 6.70044C64.5518 6.45055 65.0285 6.3256 65.6072 6.3256C66.1333 6.3256 66.592 6.43575 66.9833 6.65605C67.3746 6.87635 67.6771 7.19859 67.8908 7.62275C68.1078 8.04691 68.2163 8.56479 68.2163 9.17637V14H66.4309V9.45257C66.4309 8.94292 66.2994 8.5467 66.0363 8.26393C65.7766 7.97786 65.4116 7.83483 64.9414 7.83483C64.6257 7.83483 64.343 7.90388 64.0931 8.04198C63.8465 8.17679 63.6525 8.37244 63.5111 8.62891C63.373 8.88538 63.3039 9.1961 63.3039 9.56108ZM70.0363 14V6.42424H71.8217V14H70.0363ZM70.9339 5.34904C70.6512 5.34904 70.4079 5.25533 70.204 5.06791C70.0001 4.8772 69.8982 4.64867 69.8982 4.38234C69.8982 4.11272 70.0001 3.88419 70.204 3.69677C70.4079 3.50606 70.6512 3.41071 70.9339 3.41071C71.22 3.41071 71.4633 3.50606 71.6639 3.69677C71.8678 3.88419 71.9697 4.11272 71.9697 4.38234C71.9697 4.64867 71.8678 4.8772 71.6639 5.06791C71.4633 5.25533 71.22 5.34904 70.9339 5.34904ZM75.4432 3.89899V14H73.6577V3.89899H75.4432ZM80.633 14.148C79.8734 14.148 79.2175 13.9901 78.6651 13.6745C78.116 13.3555 77.6934 12.9051 77.3975 12.3231C77.1016 11.7378 76.9536 11.0489 76.9536 10.2565C76.9536 9.47723 77.1016 8.79331 77.3975 8.20474C77.6967 7.61289 78.1143 7.15255 78.6503 6.82375C79.1862 6.49165 79.8159 6.3256 80.5393 6.3256C81.0062 6.3256 81.4468 6.40123 81.8611 6.55248C82.2787 6.70044 82.6469 6.93061 82.9659 7.24298C83.2881 7.55535 83.5413 7.9532 83.7254 8.43655C83.9096 8.91661 84.0016 9.48874 84.0016 10.1529V10.7004H77.7921V9.49696H82.2902C82.2869 9.155 82.2129 8.85085 82.0682 8.58452C81.9236 8.31489 81.7213 8.10281 81.4616 7.94827C81.2051 7.79373 80.9059 7.71646 80.5639 7.71646C80.199 7.71646 79.8784 7.80524 79.6022 7.9828C79.326 8.15707 79.1106 8.38723 78.9561 8.6733C78.8048 8.95607 78.7275 9.2668 78.7243 9.60547V10.656C78.7243 11.0966 78.8048 11.4747 78.9659 11.7904C79.127 12.1028 79.3523 12.3428 79.6416 12.5105C79.931 12.6749 80.2697 12.7571 80.6577 12.7571C80.9174 12.7571 81.1525 12.7209 81.3629 12.6486C81.5734 12.573 81.7559 12.4628 81.9104 12.3181C82.065 12.1735 82.1817 11.9943 82.2606 11.7805L83.9277 11.968C83.8224 12.4086 83.6219 12.7933 83.3259 13.1221C83.0333 13.4476 82.6585 13.7008 82.2014 13.8816C81.7444 14.0592 81.2216 14.148 80.633 14.148ZM89.0676 7.34722H90.137C92.7204 7.34722 94.1509 7.31944 95.8732 7.05556L96.0259 8.48611C94.2898 8.75 92.762 8.77778 90.137 8.77778H89.0676V7.34722ZM89.0676 2.88889H95.1093V4.31944H90.9148V8.22222H89.0676V2.88889ZM90.3454 5.11111H94.8315V6.48611H90.3454V5.11111ZM96.8732 2.375H98.7204V8.97222H96.8732V2.375ZM97.9704 4.88889H100.415V6.375H97.9704V4.88889ZM90.2204 9.51389H98.7204V12.9444H92.0815V14.4861H90.2482V11.6389H96.9009V10.9167H90.2204V9.51389ZM90.2482 13.75H99.0954V15.1528H90.2482V13.75ZM106.261 8.91667H108.108V10.7778H106.261V8.91667ZM101.4 7.83333H112.983V9.18056H101.4V7.83333ZM106.261 2.36111H108.094V3.91667H106.261V2.36111ZM106.15 4H107.775V4.25C107.775 6.09722 105.9 7.31944 102.344 7.51389L101.83 6.13889C104.969 6.01389 106.15 5.13889 106.15 4.25V4ZM106.58 4H108.205V4.25C108.205 5.13889 109.386 6.01389 112.511 6.13889L111.997 7.51389C108.455 7.31944 106.58 6.09722 106.58 4.25V4ZM102.483 3.375H111.886V4.72222H102.483V3.375ZM102.705 9.95833H111.594V13.1389H104.539V14.3611H102.719V11.9028H109.775V11.2917H102.705V9.95833ZM102.719 13.8056H111.928V15.1528H102.719V13.8056Z" fill="white"/>
<path d="M40.7859 34V26.8466H41.8303V29.5047H41.8931C41.9537 29.3929 42.041 29.2637 42.1551 29.117C42.2692 28.9703 42.4275 28.8422 42.6301 28.7328C42.8327 28.621 43.1005 28.5651 43.4335 28.5651C43.8666 28.5651 44.2531 28.6746 44.5931 28.8935C44.9331 29.1123 45.1997 29.4279 45.393 29.84C45.5886 30.2522 45.6864 30.7482 45.6864 31.328C45.6864 31.9078 45.5897 32.4049 45.3965 32.8194C45.2032 33.2316 44.9377 33.5494 44.6001 33.773C44.2624 33.9942 43.8771 34.1048 43.444 34.1048C43.118 34.1048 42.8513 34.0501 42.6441 33.9406C42.4392 33.8312 42.2785 33.7031 42.1621 33.5564C42.0456 33.4097 41.956 33.2793 41.8931 33.1652H41.8058V34H40.7859ZM41.8093 31.3175C41.8093 31.6947 41.864 32.0254 41.9735 32.3095C42.0829 32.5935 42.2412 32.8159 42.4485 32.9766C42.6557 33.1349 42.9095 33.2141 43.2099 33.2141C43.522 33.2141 43.7828 33.1314 43.9923 32.9661C44.2019 32.7985 44.3602 32.5714 44.4674 32.285C44.5768 31.9986 44.6315 31.6761 44.6315 31.3175C44.6315 30.9635 44.578 30.6457 44.4708 30.3639C44.3661 30.0822 44.2077 29.8598 43.9958 29.6968C43.7862 29.5338 43.5243 29.4523 43.2099 29.4523C42.9072 29.4523 42.6511 29.5303 42.4415 29.6863C42.2343 29.8423 42.0771 30.0601 41.97 30.3395C41.8629 30.6189 41.8093 30.9449 41.8093 31.3175ZM46.6722 34V28.635H47.6816V29.4872H47.7375C47.8353 29.1985 48.0076 28.9715 48.2545 28.8061C48.5036 28.6385 48.7854 28.5546 49.0997 28.5546C49.1649 28.5546 49.2418 28.557 49.3303 28.5616C49.4211 28.5663 49.4921 28.5721 49.5433 28.5791V29.5781C49.5014 29.5664 49.4269 29.5536 49.3198 29.5396C49.2127 29.5233 49.1056 29.5152 48.9984 29.5152C48.7516 29.5152 48.5316 29.5676 48.3383 29.6724C48.1474 29.7748 47.996 29.918 47.8842 30.102C47.7725 30.2836 47.7166 30.4908 47.7166 30.7237V34H46.6722ZM52.3804 34.1083C51.8518 34.1083 51.3966 33.9953 51.0147 33.7695C50.6351 33.5413 50.3417 33.2211 50.1345 32.8089C49.9296 32.3945 49.8271 31.9089 49.8271 31.3524C49.8271 30.8029 49.9296 30.3185 50.1345 29.8994C50.3417 29.4803 50.6305 29.1531 51.0007 28.9179C51.3733 28.6827 51.8087 28.5651 52.307 28.5651C52.6097 28.5651 52.9031 28.6152 53.1872 28.7153C53.4713 28.8154 53.7263 28.9726 53.9522 29.1869C54.178 29.4011 54.3562 29.6793 54.4866 30.0216C54.617 30.3616 54.6822 30.7749 54.6822 31.2616V31.6318H50.4174V30.8494H53.6588C53.6588 30.5747 53.6029 30.3313 53.4911 30.1194C53.3793 29.9052 53.2222 29.7364 53.0196 29.613C52.8193 29.4896 52.5841 29.4279 52.314 29.4279C52.0206 29.4279 51.7645 29.5 51.5456 29.6444C51.329 29.7865 51.1614 29.9727 51.0426 30.2033C50.9262 30.4315 50.868 30.6795 50.868 30.9472V31.5585C50.868 31.9171 50.9308 32.2221 51.0566 32.4736C51.1847 32.7251 51.3628 32.9172 51.591 33.0499C51.8192 33.1803 52.0858 33.2455 52.3909 33.2455C52.5888 33.2455 52.7693 33.2176 52.9323 33.1617C53.0953 33.1035 53.2361 33.0173 53.3549 32.9032C53.4736 32.7891 53.5645 32.6483 53.6273 32.4806L54.6158 32.6587C54.5366 32.9498 54.3946 33.2048 54.1897 33.4237C53.9871 33.6402 53.7321 33.8091 53.4247 33.9301C53.1197 34.0489 52.7716 34.1083 52.3804 34.1083ZM57.2153 34.1188C56.8754 34.1188 56.568 34.0559 56.2932 33.9301C56.0185 33.8021 55.8007 33.617 55.6401 33.3748C55.4817 33.1326 55.4026 32.8357 55.4026 32.4841C55.4026 32.1814 55.4608 31.9322 55.5772 31.7366C55.6936 31.541 55.8508 31.3862 56.0487 31.2721C56.2467 31.158 56.4679 31.0718 56.7124 31.0136C56.9569 30.9554 57.206 30.9112 57.4598 30.8809C57.7812 30.8436 58.042 30.8134 58.2422 30.7901C58.4425 30.7645 58.588 30.7237 58.6788 30.6678C58.7697 30.6119 58.8151 30.5211 58.8151 30.3954V30.3709C58.8151 30.0659 58.7289 29.8295 58.5566 29.6619C58.3866 29.4942 58.1328 29.4104 57.7952 29.4104C57.4435 29.4104 57.1664 29.4884 56.9639 29.6444C56.7636 29.7981 56.6251 29.9693 56.5482 30.1579L55.5667 29.9343C55.6831 29.6083 55.8531 29.3452 56.0767 29.1449C56.3025 28.9424 56.5622 28.7957 56.8556 28.7048C57.149 28.6117 57.4575 28.5651 57.7812 28.5651C57.9954 28.5651 58.2225 28.5907 58.4623 28.642C58.7045 28.6909 58.9303 28.7817 59.1399 28.9144C59.3518 29.0471 59.5253 29.2369 59.6603 29.4837C59.7954 29.7282 59.8629 30.0461 59.8629 30.4373V34H58.843V33.2665H58.8011C58.7336 33.4016 58.6323 33.5343 58.4972 33.6647C58.3622 33.7951 58.1887 33.9034 57.9768 33.9895C57.7649 34.0757 57.5111 34.1188 57.2153 34.1188ZM57.4424 33.2805C57.7311 33.2805 57.978 33.2234 58.1829 33.1093C58.3901 32.9952 58.5473 32.8462 58.6544 32.6622C58.7638 32.476 58.8186 32.2769 58.8186 32.065V31.3734C58.7813 31.4106 58.7091 31.4456 58.602 31.4782C58.4972 31.5084 58.3773 31.5352 58.2422 31.5585C58.1072 31.5795 57.9756 31.5992 57.8476 31.6179C57.7195 31.6342 57.6124 31.6481 57.5262 31.6598C57.3236 31.6854 57.1385 31.7285 56.9708 31.789C56.8055 31.8496 56.6728 31.9369 56.5727 32.051C56.4749 32.1628 56.426 32.3118 56.426 32.4981C56.426 32.7565 56.5214 32.9521 56.7124 33.0849C56.9033 33.2153 57.1467 33.2805 57.4424 33.2805ZM62.0276 32.1802L62.0206 30.9053H62.2022L64.3399 28.635H65.5903L63.1523 31.2197H62.9881L62.0276 32.1802ZM61.0671 34V26.8466H62.1114V34H61.0671ZM64.4551 34L62.5341 31.4502L63.2536 30.7202L65.737 34H64.4551Z" fill="white"/>
<path d="M11 51C11 48.2386 13.2386 46 16 46H93C95.7614 46 98 48.2386 98 51V92C98 94.7614 95.7614 97 93 97H16C13.2386 97 11 94.7614 11 92V51Z" fill="#858F9F"/>
<path d="M14 40L98 40" stroke="white" stroke-linecap="round"/>
<path d="M34.221 60L33.1675 56.2713H34.0632L34.7187 58.8931H34.7527L35.4227 56.2713H36.3087L36.9787 58.8785H37.0151L37.6608 56.2713H38.559L37.503 60H36.5879L35.8887 57.4802H35.8378L35.1386 60H34.221ZM39.9214 57.8152V60H39.0427V55.0285H39.902V56.9049H39.9457C40.0331 56.6945 40.1682 56.5287 40.3511 56.4073C40.5356 56.2843 40.7702 56.2228 41.0551 56.2228C41.314 56.2228 41.5398 56.277 41.7323 56.3854C41.9249 56.4939 42.0738 56.6525 42.179 56.8612C42.2858 57.07 42.3392 57.3249 42.3392 57.6259V60H41.4605V57.7618C41.4605 57.511 41.3957 57.316 41.2663 57.1768C41.1384 57.036 40.9588 56.9656 40.7274 56.9656C40.572 56.9656 40.4328 56.9996 40.3098 57.0676C40.1885 57.1339 40.093 57.2302 40.0234 57.3564C39.9554 57.4827 39.9214 57.6356 39.9214 57.8152ZM43.1051 60V56.2713H43.9839V60H43.1051ZM43.5469 55.7421C43.4077 55.7421 43.288 55.696 43.1876 55.6038C43.0873 55.5099 43.0371 55.3974 43.0371 55.2664C43.0371 55.1337 43.0873 55.0212 43.1876 54.9289C43.288 54.8351 43.4077 54.7881 43.5469 54.7881C43.6877 54.7881 43.8075 54.8351 43.9062 54.9289C44.0065 55.0212 44.0567 55.1337 44.0567 55.2664C44.0567 55.3974 44.0065 55.5099 43.9062 55.6038C43.8075 55.696 43.6877 55.7421 43.5469 55.7421ZM45.6364 55.0285V60H44.7576V55.0285H45.6364ZM48.0608 60.0728C47.687 60.0728 47.3641 59.9951 47.0923 59.8398C46.822 59.6828 46.614 59.4611 46.4684 59.1746C46.3227 58.8866 46.2499 58.5475 46.2499 58.1575C46.2499 57.774 46.3227 57.4374 46.4684 57.1477C46.6157 56.8564 46.8212 56.6298 47.085 56.468C47.3488 56.3045 47.6587 56.2228 48.0147 56.2228C48.2445 56.2228 48.4614 56.26 48.6653 56.3345C48.8708 56.4073 49.0521 56.5206 49.209 56.6743C49.3676 56.8281 49.4923 57.0239 49.5829 57.2618C49.6735 57.498 49.7188 57.7796 49.7188 58.1065V58.376H46.6626V57.7837H48.8765C48.8749 57.6154 48.8385 57.4657 48.7672 57.3346C48.696 57.2019 48.5965 57.0975 48.4687 57.0214C48.3424 56.9454 48.1952 56.9074 48.0269 56.9074C47.8472 56.9074 47.6894 56.951 47.5535 57.0384C47.4175 57.1242 47.3115 57.2375 47.2355 57.3783C47.161 57.5175 47.123 57.6704 47.1214 57.8371V58.3541C47.1214 58.571 47.161 58.7571 47.2403 58.9125C47.3196 59.0662 47.4305 59.1844 47.5729 59.2669C47.7153 59.3478 47.882 59.3883 48.073 59.3883C48.2008 59.3883 48.3165 59.3705 48.4201 59.3349C48.5237 59.2976 48.6135 59.2434 48.6896 59.1722C48.7656 59.101 48.8231 59.0128 48.8619 58.9076L49.6824 58.9999C49.6306 59.2167 49.5319 59.4061 49.3863 59.5679C49.2422 59.7281 49.0577 59.8527 48.8328 59.9417C48.6078 60.0291 48.3505 60.0728 48.0608 60.0728ZM64.7566 60.0534C64.6093 60.0534 64.4831 60.0016 64.3779 59.898C64.2727 59.7945 64.2209 59.6682 64.2225 59.5194C64.2209 59.3737 64.2727 59.2491 64.3779 59.1455C64.4831 59.0419 64.6093 58.9902 64.7566 58.9902C64.899 58.9902 65.0228 59.0419 65.128 59.1455C65.2348 59.2491 65.289 59.3737 65.2907 59.5194C65.289 59.6181 65.2631 59.7079 65.213 59.7888C65.1644 59.8697 65.0997 59.9345 65.0188 59.983C64.9395 60.0299 64.8521 60.0534 64.7566 60.0534ZM64.7566 57.3929C64.6093 57.3929 64.4831 57.3411 64.3779 57.2375C64.2727 57.1323 64.2209 57.0061 64.2225 56.8588C64.2209 56.7132 64.2727 56.5885 64.3779 56.485C64.4831 56.3798 64.6093 56.3272 64.7566 56.3272C64.899 56.3272 65.0228 56.3798 65.128 56.485C65.2348 56.5885 65.289 56.7132 65.2907 56.8588C65.289 56.9559 65.2631 57.0449 65.213 57.1258C65.1644 57.2067 65.0997 57.2715 65.0188 57.32C64.9395 57.3686 64.8521 57.3929 64.7566 57.3929ZM43.6105 64.2852H44.5197V68.9404H43.6105V64.2852ZM44.26 66.0625H45.3605V66.8077H44.26V66.0625ZM40.4387 69.7744H44.7453V70.499H40.4387V69.7744ZM40.4387 68.4688H41.3479V69.9316H40.4387V68.4688ZM39.7209 64.7295H40.6233V65.6387H41.8606V64.7295H42.7629V67.9424H39.7209V64.7295ZM40.6233 66.3291V67.2315H41.8606V66.3291H40.6233ZM45.695 67.4024H51.4166V68.1338H45.695V67.4024ZM48.0943 66.5957H49.0035V67.5596H48.0943V66.5957ZM46.3307 68.5645H50.7262V70.6084H49.817V69.2822H46.3307V68.5645ZM46.4264 64.4356H47.3219V64.9961H49.7896V64.4356H50.692V66.8828H46.4264V64.4356ZM47.3219 65.6729V66.1719H49.7896V65.6729H47.3219ZM54.2393 64.4629H55.039V64.7569C55.039 65.9737 54.082 67.0059 52.4209 67.252L52.0654 66.5205C53.5215 66.3291 54.2393 65.502 54.2393 64.7569V64.4629ZM54.4101 64.4629H55.2031V64.7569C55.2031 65.4952 55.9277 66.3291 57.3769 66.5205L57.0283 67.252C55.3672 67.0059 54.4101 65.9737 54.4101 64.7569V64.4629ZM54.2461 68.291H55.1484V70.6084H54.2461V68.291ZM51.8604 67.7168H57.582V68.4551H51.8604V67.7168ZM62.5443 64.2784H63.4056V68.2432H62.5443V64.2784ZM61.7718 65.837H62.7836V66.5752H61.7718V65.837ZM61.2318 64.4014H62.0795V68.0381H61.2318V64.4014ZM57.9848 64.9278H61.0541V65.625H57.9848V64.9278ZM59.5297 65.8301C60.3226 65.8301 60.8969 66.2813 60.8969 66.9375C60.8969 67.5938 60.3226 68.0381 59.5297 68.0381C58.7367 68.0381 58.1625 67.5938 58.1625 66.9375C58.1625 66.2813 58.7367 65.8301 59.5297 65.8301ZM59.5297 66.4795C59.1947 66.4795 58.9691 66.6436 58.9691 66.9375C58.9691 67.2315 59.1947 67.3955 59.5297 67.3955C59.8578 67.3955 60.0834 67.2315 60.0834 66.9375C60.0834 66.6436 59.8578 66.4795 59.5297 66.4795ZM59.0717 64.3399H59.9672V65.4063H59.0717V64.3399ZM61.266 68.3115C62.6195 68.3115 63.4398 68.7217 63.4398 69.46C63.4398 70.1914 62.6195 70.6084 61.266 70.6084C59.9057 70.6084 59.0853 70.1914 59.0853 69.46C59.0853 68.7217 59.9057 68.3115 61.266 68.3115ZM61.266 68.9883C60.4183 68.9883 59.9945 69.1318 59.9945 69.46C59.9945 69.7813 60.4183 69.9316 61.266 69.9316C62.1068 69.9316 62.5306 69.7813 62.5306 69.46C62.5306 69.1318 62.1068 68.9883 61.266 68.9883ZM64.1707 67.4024H69.8992V68.127H64.1707V67.4024ZM66.6521 67.8604H67.5681V69.1934H66.6521V67.8604ZM64.8748 64.545H69.1746V66.8965H64.8748V64.545ZM68.2791 65.2559H65.7635V66.1856H68.2791V65.2559ZM64.8338 69.7744H69.2703V70.499H64.8338V69.7744ZM64.8338 68.6602H65.7361V70.0137H64.8338V68.6602ZM71.7375 64.9825H72.4826V65.379C72.4826 66.5889 71.9152 67.6758 70.6916 68.0791L70.2404 67.3614C71.2931 67.0127 71.7375 66.1856 71.7375 65.379V64.9825ZM71.922 64.9825H72.6603V65.379C72.6603 66.1172 73.0841 66.8418 74.1027 67.1494L73.672 67.8604C72.4689 67.4981 71.922 66.5069 71.922 65.379V64.9825ZM70.4797 64.7022H73.8976V65.4268H70.4797V64.7022ZM74.4035 64.2784H75.3126V68.0313H74.4035V64.2784ZM75.0597 65.7344H76.1534V66.4795H75.0597V65.7344ZM73.2482 68.1475C74.5607 68.1475 75.3878 68.6055 75.3878 69.3779C75.3878 70.1504 74.5607 70.6084 73.2482 70.6084C71.9289 70.6084 71.1017 70.1504 71.1017 69.3779C71.1017 68.6055 71.9289 68.1475 73.2482 68.1475ZM73.2482 68.8584C72.4416 68.8584 72.0041 69.0225 72.0041 69.3779C72.0041 69.7334 72.4416 69.9111 73.2482 69.9111C74.0548 69.9111 74.4855 69.7334 74.4855 69.3779C74.4855 69.0225 74.0548 68.8584 73.2482 68.8584ZM39.7145 80V76.2713H40.5932V80H39.7145ZM40.1563 75.7421C40.0171 75.7421 39.8973 75.696 39.797 75.6038C39.6967 75.5099 39.6465 75.3974 39.6465 75.2664C39.6465 75.1337 39.6967 75.0212 39.797 74.9289C39.8973 74.8351 40.0171 74.7881 40.1563 74.7881C40.2971 74.7881 40.4168 74.8351 40.5155 74.9289C40.6159 75.0212 40.666 75.1337 40.666 75.2664C40.666 75.3974 40.6159 75.5099 40.5155 75.6038C40.4168 75.696 40.2971 75.7421 40.1563 75.7421ZM43.2556 76.2713V76.951H41.0514V76.2713H43.2556ZM41.6024 80V75.9194C41.6024 75.6685 41.6542 75.4597 41.7578 75.2931C41.863 75.1264 42.0038 75.0018 42.1802 74.9192C42.3566 74.8367 42.5524 74.7954 42.7676 74.7954C42.9198 74.7954 43.0549 74.8076 43.173 74.8318C43.2912 74.8561 43.3786 74.878 43.4352 74.8974L43.2604 75.5771C43.2232 75.5657 43.1763 75.5544 43.1196 75.5431C43.063 75.5301 42.9999 75.5237 42.9303 75.5237C42.7668 75.5237 42.6511 75.5633 42.5832 75.6426C42.5168 75.7203 42.4836 75.832 42.4836 75.9776V80H41.6024ZM45.2084 79.1387H50.9368V79.877H45.2084V79.1387ZM47.6146 77.7373H48.5238V79.3438H47.6146V77.7373ZM47.5873 75.1055H48.3529V75.3311C48.3529 76.6641 47.3959 77.7237 45.7826 78.0176L45.4271 77.2998C46.8353 77.0811 47.5873 76.2061 47.5873 75.3311V75.1055ZM47.7718 75.1055H48.5374V75.3311C48.5374 76.2061 49.2894 77.0537 50.7318 77.2657L50.3831 77.9834C48.7425 77.6963 47.7718 76.6641 47.7718 75.3311V75.1055ZM45.6801 74.7569H50.4447V75.4815H45.6801V74.7569ZM55.7488 74.2784H56.6579V78.9063H55.7488V74.2784ZM54.655 76.1172H55.8786V76.8555H54.655V76.1172ZM53.7527 74.7501H54.7097C54.7097 76.459 53.6501 77.71 51.8113 78.291L51.4353 77.5664C52.8914 77.1084 53.7527 76.2334 53.7527 75.1602V74.7501ZM51.7634 74.7501H54.3337V75.4815H51.7634V74.7501ZM52.5085 79.7744H56.8151V80.499H52.5085V79.7744ZM52.5085 78.4483H53.4246V80.1914H52.5085V78.4483ZM58.2381 80.0534C58.0909 80.0534 57.9646 80.0016 57.8594 79.898C57.7542 79.7945 57.7025 79.6682 57.7041 79.5194C57.7025 79.3737 57.7542 79.2491 57.8594 79.1455C57.9646 79.0419 58.0909 78.9902 58.2381 78.9902C58.3805 78.9902 58.5043 79.0419 58.6095 79.1455C58.7163 79.2491 58.7706 79.3737 58.7722 79.5194C58.7706 79.6181 58.7447 79.7079 58.6945 79.7888C58.6459 79.8697 58.5812 79.9345 58.5003 79.983C58.421 80.0299 58.3336 80.0534 58.2381 80.0534ZM58.2381 77.3929C58.0909 77.3929 57.9646 77.3411 57.8594 77.2375C57.7542 77.1323 57.7025 77.0061 57.7041 76.8588C57.7025 76.7132 57.7542 76.5885 57.8594 76.485C57.9646 76.3798 58.0909 76.3272 58.2381 76.3272C58.3805 76.3272 58.5043 76.3798 58.6095 76.485C58.7163 76.5885 58.7706 76.7132 58.7722 76.8588C58.7706 76.9559 58.7447 77.0449 58.6945 77.1258C58.6459 77.2067 58.5812 77.2715 58.5003 77.32C58.421 77.3686 58.3336 77.3929 58.2381 77.3929ZM46.0162 90V85.0285H46.895V86.8879H46.9314C46.9767 86.7973 47.0406 86.701 47.1232 86.5991C47.2057 86.4955 47.3174 86.4073 47.4582 86.3345C47.599 86.26 47.7786 86.2228 47.9971 86.2228C48.2851 86.2228 48.5449 86.2964 48.7763 86.4437C49.0093 86.5893 49.1938 86.8054 49.3298 87.0918C49.4673 87.3767 49.5361 87.7262 49.5361 88.1405C49.5361 88.55 49.469 88.8979 49.3346 89.1844C49.2003 89.4708 49.0174 89.6893 48.786 89.8398C48.5546 89.9903 48.2924 90.0655 47.9995 90.0655C47.7859 90.0655 47.6087 90.0299 47.4679 89.9587C47.3271 89.8875 47.2138 89.8018 47.128 89.7014C47.0439 89.5995 46.9783 89.5032 46.9314 89.4125H46.8804V90H46.0162ZM46.878 88.1357C46.878 88.3768 46.912 88.588 46.9799 88.7693C47.0495 88.9505 47.1491 89.0921 47.2785 89.1941C47.4096 89.2944 47.5682 89.3446 47.7543 89.3446C47.9485 89.3446 48.1112 89.2928 48.2423 89.1892C48.3733 89.084 48.4721 88.9408 48.5384 88.7595C48.6064 88.5767 48.6404 88.3687 48.6404 88.1357C48.6404 87.9043 48.6072 87.6987 48.5408 87.5191C48.4745 87.3394 48.3758 87.1987 48.2447 87.0967C48.1136 86.9947 47.9501 86.9438 47.7543 86.9438C47.5666 86.9438 47.4072 86.9931 47.2761 87.0918C47.145 87.1906 47.0455 87.3289 46.9775 87.5069C46.9112 87.685 46.878 87.8945 46.878 88.1357ZM50.1533 90V86.2713H51.0054V86.8928H51.0442C51.1122 86.6775 51.2287 86.5117 51.3938 86.3951C51.5604 86.277 51.7506 86.2179 51.9642 86.2179C52.0128 86.2179 52.067 86.2204 52.1269 86.2252C52.1884 86.2285 52.2393 86.2341 52.2798 86.2422V87.0506C52.2426 87.0376 52.1835 87.0263 52.1026 87.0166C52.0233 87.0053 51.9464 86.9996 51.872 86.9996C51.7118 86.9996 51.5677 87.0344 51.4399 87.104C51.3137 87.172 51.2141 87.2666 51.1413 87.388C51.0685 87.5094 51.0321 87.6494 51.0321 87.808V90H50.1533ZM54.2309 90.0728C53.8571 90.0728 53.5342 89.9951 53.2623 89.8398C52.9921 89.6828 52.7841 89.4611 52.6385 89.1746C52.4928 88.8866 52.42 88.5475 52.42 88.1575C52.42 87.774 52.4928 87.4374 52.6385 87.1477C52.7857 86.8564 52.9913 86.6298 53.255 86.468C53.5188 86.3045 53.8287 86.2228 54.1848 86.2228C54.4146 86.2228 54.6314 86.26 54.8354 86.3345C55.0409 86.4073 55.2221 86.5206 55.3791 86.6743C55.5377 86.8281 55.6623 87.0239 55.7529 87.2618C55.8436 87.498 55.8889 87.7796 55.8889 88.1065V88.376H52.8327V87.7837H55.0465C55.0449 87.6154 55.0085 87.4657 54.9373 87.3346C54.8661 87.2019 54.7666 87.0975 54.6387 87.0214C54.5125 86.9454 54.3652 86.9074 54.1969 86.9074C54.0173 86.9074 53.8595 86.951 53.7236 87.0384C53.5876 87.1242 53.4816 87.2375 53.4055 87.3783C53.3311 87.5175 53.2931 87.6704 53.2915 87.8371V88.3541C53.2915 88.571 53.3311 88.7571 53.4104 88.9125C53.4897 89.0662 53.6006 89.1844 53.743 89.2669C53.8854 89.3478 54.0521 89.3883 54.243 89.3883C54.3709 89.3883 54.4866 89.3705 54.5902 89.3349C54.6937 89.2976 54.7836 89.2434 54.8596 89.1722C54.9357 89.101 54.9931 89.0128 55.032 88.9076L55.8525 88.9999C55.8007 89.2167 55.702 89.4061 55.5563 89.5679C55.4123 89.7281 55.2278 89.8527 55.0028 89.9417C54.7779 90.0291 54.5206 90.0728 54.2309 90.0728ZM57.5754 90.0753C57.3391 90.0753 57.1263 90.0332 56.937 89.949C56.7492 89.8633 56.6003 89.737 56.4903 89.5703C56.3819 89.4036 56.3277 89.1981 56.3277 88.9537C56.3277 88.7434 56.3665 88.5694 56.4442 88.4318C56.5219 88.2943 56.6279 88.1842 56.7622 88.1017C56.8965 88.0192 57.0478 87.9568 57.2161 87.9148C57.386 87.8711 57.5616 87.8395 57.7429 87.8201C57.9614 87.7974 58.1386 87.7772 58.2745 87.7594C58.4105 87.74 58.5092 87.7109 58.5707 87.672C58.6338 87.6316 58.6653 87.5693 58.6653 87.4851V87.4705C58.6653 87.2877 58.6111 87.1461 58.5027 87.0457C58.3943 86.9454 58.2381 86.8952 58.0342 86.8952C57.819 86.8952 57.6482 86.9421 57.522 87.036C57.3974 87.1299 57.3132 87.2407 57.2695 87.3686L56.449 87.2521C56.5138 87.0255 56.6206 86.8361 56.7695 86.684C56.9183 86.5303 57.1004 86.4154 57.3156 86.3393C57.5309 86.2616 57.7688 86.2228 58.0293 86.2228C58.209 86.2228 58.3878 86.2438 58.5658 86.2859C58.7438 86.328 58.9065 86.3976 59.0537 86.4947C59.201 86.5902 59.3192 86.7204 59.4082 86.8855C59.4988 87.0506 59.5441 87.2569 59.5441 87.5045V90H58.6993V89.4878H58.6702C58.6168 89.5914 58.5415 89.6885 58.4444 89.7791C58.349 89.8681 58.2284 89.9401 58.0827 89.9951C57.9387 90.0486 57.7696 90.0753 57.5754 90.0753ZM57.8036 89.4295C57.98 89.4295 58.1329 89.3947 58.2624 89.3252C58.3918 89.2539 58.4914 89.1601 58.561 89.0436C58.6322 88.927 58.6678 88.8 58.6678 88.6624V88.2231C58.6403 88.2457 58.5933 88.2668 58.527 88.2862C58.4622 88.3056 58.3894 88.3226 58.3085 88.3372C58.2276 88.3517 58.1475 88.3647 58.0682 88.376C57.9889 88.3873 57.9201 88.397 57.8618 88.4051C57.7308 88.4229 57.6134 88.4521 57.5098 88.4925C57.4063 88.533 57.3246 88.5896 57.2647 88.6624C57.2048 88.7336 57.1749 88.8259 57.1749 88.9392C57.1749 89.101 57.2339 89.2232 57.3521 89.3057C57.4702 89.3883 57.6207 89.4295 57.8036 89.4295ZM61.0989 88.8299L61.0965 87.7691H61.2373L62.5773 86.2713H63.6041L61.9558 88.1065H61.7738L61.0989 88.8299ZM60.2978 90V85.0285H61.1766V90H60.2978ZM62.638 90L61.4242 88.3032L62.0165 87.6842L63.6891 90H62.638Z" fill="white"/>
<path d="M51.7269 59.1387H57.4553V59.877H51.7269V59.1387ZM54.1331 57.7373H55.0423V59.3438H54.1331V57.7373ZM54.1057 55.1055H54.8714V55.3311C54.8714 56.6641 53.9143 57.7237 52.3011 58.0176L51.9456 57.2998C53.3538 57.0811 54.1057 56.2061 54.1057 55.3311V55.1055ZM54.2903 55.1055H55.0559V55.3311C55.0559 56.2061 55.8079 57.0537 57.2502 57.2657L56.9016 57.9834C55.261 57.6963 54.2903 56.6641 54.2903 55.3311V55.1055ZM52.1985 54.7569H56.9631V55.4815H52.1985V54.7569ZM62.2672 54.2784H63.1764V58.9063H62.2672V54.2784ZM61.1735 56.1172H62.3971V56.8555H61.1735V56.1172ZM60.2712 54.7501H61.2282C61.2282 56.459 60.1686 57.71 58.3298 58.291L57.9538 57.5664C59.4098 57.1084 60.2712 56.2334 60.2712 55.1602V54.7501ZM58.2819 54.7501H60.8522V55.4815H58.2819V54.7501ZM59.027 59.7744H63.3336V60.499H59.027V59.7744ZM59.027 58.4483H59.943V60.1914H59.027V58.4483Z" fill="#7737FF"/>
</svg>
