<svg width="4400" height="2000" viewBox="0 0 4400 2000" fill="none" xmlns="http://www.w3.org/2000/svg">
<rect x="4400" y="2000" width="1100" height="2000" transform="rotate(-180 4400 2000)" fill="#343434"/>
<path d="M3300 260C3397.18 260 3493.4 279.141 3583.19 316.329C3672.97 353.518 3754.54 408.026 3823.26 476.741C3891.97 545.456 3946.48 627.033 3983.67 716.814C4020.86 806.595 4040 902.822 4040 1000C4040 1097.18 4020.86 1193.4 3983.67 1283.19C3946.48 1372.97 3891.97 1454.54 3823.26 1523.26C3754.54 1591.97 3672.97 1646.48 3583.19 1683.67C3493.4 1720.86 3397.18 1740 3300 1740" stroke="white" stroke-width="20"/>
<path d="M3300 673C3342.94 673 3385.46 681.458 3425.14 697.891C3464.81 714.325 3500.86 738.411 3531.22 768.776C3561.59 799.141 3585.68 835.189 3602.11 874.863C3618.54 914.536 3627 957.058 3627 1000C3627 1042.94 3618.54 1085.46 3602.11 1125.14C3585.68 1164.81 3561.59 1200.86 3531.22 1231.22C3500.86 1261.59 3464.81 1285.68 3425.14 1302.11C3385.46 1318.54 3342.94 1327 3300 1327" stroke="white" stroke-width="20"/>
<path d="M4375.1 64.9489V69.6364H4342.38V64.9489H4356.1V26H4361.38V64.9489H4375.1ZM4337.97 69.6364H4331.92L4319.82 49.267H4319.31L4307.2 69.6364H4301.15L4316.92 43.983V26H4322.2V43.983L4337.97 69.6364ZM4294.32 26V69.6364H4279.57C4276.15 69.6364 4273.35 69.0185 4271.18 67.7827C4268.99 66.5611 4267.37 64.9062 4266.32 62.8182C4265.27 60.7301 4264.74 58.4006 4264.74 55.8295C4264.74 53.2585 4265.27 50.9219 4266.32 48.8196C4267.36 46.7173 4268.96 45.0412 4271.14 43.7912C4273.31 42.5554 4276.09 41.9375 4279.49 41.9375H4290.06V46.625H4279.66C4277.31 46.625 4275.43 47.0298 4274.01 47.8395C4272.59 48.6491 4271.56 49.7429 4270.92 51.1207C4270.27 52.5128 4269.94 54.0824 4269.94 55.8295C4269.94 57.5767 4270.27 59.1392 4270.92 60.517C4271.56 61.8949 4272.6 62.9744 4274.03 63.7557C4275.47 64.5511 4277.37 64.9489 4279.74 64.9489H4289.03V26L4294.32 26ZM4256.23 26V69.6364H4229.9V64.9489H4250.95V50.2045L4231.26 50.2045V45.517L4250.95 45.517V30.6875L4229.56 30.6875V26L4256.23 26ZM4202.3 50.1619V45.4744H4221.39V50.1619H4202.3ZM4179.31 25.4034C4182.52 25.4034 4185.25 26.277 4187.51 28.0241C4189.77 29.7855 4191.5 32.3352 4192.69 35.6733C4193.88 39.0256 4194.48 43.0739 4194.48 47.8182C4194.48 52.5341 4193.88 56.5611 4192.69 59.8991C4191.48 63.2514 4189.75 65.8082 4187.49 67.5696C4185.22 69.3452 4182.49 70.233 4179.31 70.233C4176.13 70.233 4173.41 69.3452 4171.15 67.5696C4168.88 65.8082 4167.14 63.2514 4165.95 59.8991C4164.74 56.5611 4164.14 52.5341 4164.14 47.8182C4164.14 43.0739 4164.73 39.0256 4165.93 35.6733C4167.12 32.3352 4168.85 29.7855 4171.11 28.0241C4173.36 26.277 4176.1 25.4034 4179.31 25.4034ZM4179.31 30.0909C4176.13 30.0909 4173.66 31.625 4171.89 34.6932C4170.13 37.7614 4169.25 42.1364 4169.25 47.8182C4169.25 51.5966 4169.66 54.8139 4170.47 57.4702C4171.26 60.1264 4172.41 62.1506 4173.92 63.5426C4175.41 64.9347 4177.21 65.6307 4179.31 65.6307C4182.46 65.6307 4184.93 64.0753 4186.7 60.9645C4188.48 57.8679 4189.37 53.4858 4189.37 47.8182C4189.37 44.0398 4188.97 40.8295 4188.17 38.1875C4187.38 35.5455 4186.23 33.5355 4184.74 32.1577C4183.24 30.7798 4181.43 30.0909 4179.31 30.0909Z" fill="#7E7E7E"/>
<rect x="1100" width="1100" height="2000" fill="#343434"/>
<rect x="1100" y="250" width="1100" height="20" fill="white"/>
<rect x="1100" y="663" width="1100" height="20" fill="white"/>
<rect x="1100" y="1317" width="1100" height="20" fill="white"/>
<rect x="1100" y="1730" width="1100" height="20" fill="white"/>
<path d="M1541.9 1946.05V1941.36H1574.62V1946.05H1560.9V1985H1555.62V1946.05H1541.9ZM1579.03 1941.36H1585.08L1597.18 1961.73H1597.69L1609.8 1941.36H1615.85L1600.08 1967.02V1985H1594.8V1967.02L1579.03 1941.36ZM1622.68 1985V1941.36H1637.43C1640.85 1941.36 1643.65 1941.98 1645.82 1943.22C1648.01 1944.44 1649.63 1946.09 1650.68 1948.18C1651.73 1950.27 1652.26 1952.6 1652.26 1955.17C1652.26 1957.74 1651.73 1960.08 1650.68 1962.18C1649.64 1964.28 1648.04 1965.96 1645.86 1967.21C1643.69 1968.44 1640.91 1969.06 1637.51 1969.06H1626.94V1964.38H1637.34C1639.69 1964.38 1641.57 1963.97 1642.99 1963.16C1644.41 1962.35 1645.44 1961.26 1646.08 1959.88C1646.73 1958.49 1647.06 1956.92 1647.06 1955.17C1647.06 1953.42 1646.73 1951.86 1646.08 1950.48C1645.44 1949.11 1644.4 1948.03 1642.97 1947.24C1641.53 1946.45 1639.63 1946.05 1637.26 1946.05H1627.97V1985H1622.68ZM1660.77 1985V1941.36H1687.1V1946.05H1666.05V1960.8H1685.74V1965.48H1666.05V1980.31H1687.44V1985H1660.77ZM1714.7 1960.84V1965.53H1695.61V1960.84H1714.7ZM1726.02 1985H1720.48L1736.5 1941.36H1741.95L1757.98 1985H1752.44L1739.4 1948.27H1739.06L1726.02 1985ZM1728.06 1967.95H1750.39V1972.64H1728.06V1967.95Z" fill="#7E7E7E"/>
<rect width="1100" height="2000" fill="#343434"/>
<path d="M1100 1740C1002.82 1740 906.595 1720.86 816.814 1683.67C727.033 1646.48 645.456 1591.97 576.741 1523.26C508.026 1454.54 453.518 1372.97 416.329 1283.19C379.141 1193.4 360 1097.18 360 1000C360 902.822 379.141 806.595 416.329 716.814C453.518 627.033 508.026 545.456 576.741 476.741C645.456 408.026 727.033 353.518 816.814 316.329C906.595 279.141 1002.82 260 1100 260" stroke="white" stroke-width="20"/>
<path d="M1100 1327C1057.06 1327 1014.54 1318.54 974.863 1302.11C935.189 1285.68 899.141 1261.59 868.776 1231.22C838.411 1200.86 814.325 1164.81 797.891 1125.14C781.458 1085.46 773 1042.94 773 1000C773 957.058 781.458 914.536 797.891 874.863C814.325 835.189 838.411 799.141 868.776 768.776C899.141 738.411 935.189 714.325 974.863 697.891C1014.54 681.458 1057.06 673 1100 673" stroke="white" stroke-width="20"/>
<path d="M24.8977 1935.05V1930.36H57.625V1935.05H43.9034V1974H38.6193V1935.05H24.8977ZM62.0302 1930.36H68.0813L80.1836 1950.73H80.695L92.7972 1930.36H98.8484L83.0813 1956.02V1974H77.7972V1956.02L62.0302 1930.36ZM105.683 1974V1930.36H120.427C123.85 1930.36 126.648 1930.98 128.822 1932.22C131.009 1933.44 132.629 1935.09 133.68 1937.18C134.731 1939.27 135.256 1941.6 135.256 1944.17C135.256 1946.74 134.731 1949.08 133.68 1951.18C132.643 1953.28 131.038 1954.96 128.864 1956.21C126.691 1957.44 123.907 1958.06 120.512 1958.06H109.944V1953.38H120.342C122.685 1953.38 124.567 1952.97 125.988 1952.16C127.408 1951.35 128.438 1950.26 129.077 1948.88C129.731 1947.49 130.058 1945.92 130.058 1944.17C130.058 1942.42 129.731 1940.86 129.077 1939.48C128.438 1938.11 127.401 1937.03 125.967 1936.24C124.532 1935.45 122.629 1935.05 120.256 1935.05H110.967V1974H105.683ZM143.768 1974V1930.36H170.104V1935.05H149.053V1949.8H168.74V1954.48H149.053V1969.31H170.445V1974H143.768ZM197.696 1949.84V1954.53H178.605V1949.84H197.696ZM220.691 1974.6C217.481 1974.6 214.747 1973.72 212.488 1971.98C210.23 1970.21 208.504 1967.66 207.311 1964.33C206.118 1960.97 205.521 1956.93 205.521 1952.18C205.521 1947.47 206.118 1943.44 207.311 1940.1C208.518 1936.75 210.251 1934.19 212.51 1932.43C214.782 1930.65 217.51 1929.77 220.691 1929.77C223.873 1929.77 226.593 1930.65 228.852 1932.43C231.125 1934.19 232.858 1936.75 234.051 1940.1C235.258 1943.44 235.862 1947.47 235.862 1952.18C235.862 1956.93 235.265 1960.97 234.072 1964.33C232.879 1967.66 231.153 1970.21 228.895 1971.98C226.636 1973.72 223.902 1974.6 220.691 1974.6ZM220.691 1969.91C223.873 1969.91 226.345 1968.37 228.106 1965.31C229.868 1962.24 230.748 1957.86 230.748 1952.18C230.748 1948.4 230.343 1945.19 229.534 1942.53C228.738 1939.87 227.588 1937.85 226.082 1936.46C224.591 1935.07 222.794 1934.37 220.691 1934.37C217.538 1934.37 215.074 1935.92 213.298 1939.04C211.522 1942.13 210.635 1946.51 210.635 1952.18C210.635 1955.96 211.032 1959.17 211.828 1961.81C212.623 1964.45 213.767 1966.46 215.258 1967.84C216.764 1969.22 218.575 1969.91 220.691 1969.91Z" fill="#7E7E7E"/>
<rect x="2200" width="1100" height="2000" fill="#343434"/>
<rect x="2200" y="250" width="1100" height="20" fill="white"/>
<rect x="2200" y="1730" width="1100" height="20" fill="white"/>
<rect x="2200" y="663" width="20" height="674" fill="white"/>
<rect x="3280" y="663" width="20" height="674" fill="white"/>
<rect x="2220" y="990" width="1060" height="20" fill="white"/>
<rect x="2560" y="1010" width="20" height="327" fill="white"/>
<rect width="180" height="20" rx="5" transform="matrix(-1 0 0 1 2660 1317)" fill="white"/>
<rect width="180" height="20" rx="5" transform="matrix(-1 0 0 1 3020 1317)" fill="white"/>
<rect width="100" height="20" rx="3" transform="matrix(-1 0 0 1 3009 1623)" fill="white"/>
<rect width="100" height="20" rx="3" transform="matrix(-1 0 0 1 3009 1573)" fill="white"/>
<rect width="100" height="20" rx="3" transform="matrix(-1 0 0 1 3009 1523)" fill="white"/>
<rect width="100" height="20" rx="3" transform="matrix(-1 0 0 1 3009 1473)" fill="white"/>
<rect width="100" height="20" rx="3" transform="matrix(-1 0 0 1 3009 1423)" fill="white"/>
<rect width="100" height="20" rx="3" transform="matrix(-1 0 0 1 3009 1373)" fill="white"/>
<rect width="100" height="20" rx="3" transform="matrix(-1 0 0 1 3009 1673)" fill="white"/>
<rect width="100" height="20" rx="5" transform="matrix(-1 0 0 1 3300 1317)" fill="white"/>
<rect width="100" height="20" rx="5" transform="matrix(-1 0 0 1 2300 1317)" fill="white"/>
<rect x="2920" y="1010" width="20" height="327" fill="white"/>
<rect x="2858" y="1337" width="22" height="393" fill="white"/>
<path d="M2371.43 1190H2364.05L2385.41 1131.82H2392.68L2414.05 1190H2406.66L2389.27 1141.02H2388.82L2371.43 1190ZM2374.16 1167.27H2403.93V1173.52H2374.16V1167.27Z" fill="white"/>
<path d="M2734.05 1190V1131.82H2754.39C2758.44 1131.82 2761.78 1132.52 2764.41 1133.92C2767.05 1135.3 2769.01 1137.17 2770.3 1139.52C2771.58 1141.85 2772.23 1144.43 2772.23 1147.27C2772.23 1149.77 2771.78 1151.84 2770.89 1153.47C2770.02 1155.09 2768.87 1156.38 2767.43 1157.33C2766.01 1158.28 2764.46 1158.98 2762.8 1159.43V1160C2764.58 1160.11 2766.37 1160.74 2768.16 1161.88C2769.96 1163.01 2771.47 1164.64 2772.68 1166.76C2773.89 1168.88 2774.5 1171.48 2774.5 1174.55C2774.5 1177.46 2773.84 1180.09 2772.51 1182.41C2771.19 1184.74 2769.09 1186.59 2766.23 1187.95C2763.37 1189.32 2759.65 1190 2755.07 1190H2734.05ZM2741.09 1183.75H2755.07C2759.67 1183.75 2762.94 1182.86 2764.87 1181.08C2766.82 1179.28 2767.8 1177.1 2767.8 1174.55C2767.8 1172.58 2767.29 1170.76 2766.29 1169.09C2765.29 1167.41 2763.86 1166.06 2762 1165.06C2760.14 1164.03 2757.95 1163.52 2755.41 1163.52H2741.09V1183.75ZM2741.09 1157.39H2754.16C2756.28 1157.39 2758.19 1156.97 2759.9 1156.14C2761.62 1155.3 2762.98 1154.13 2763.99 1152.61C2765.01 1151.1 2765.52 1149.32 2765.52 1147.27C2765.52 1144.72 2764.63 1142.55 2762.85 1140.77C2761.07 1138.97 2758.25 1138.07 2754.39 1138.07H2741.09V1157.39Z" fill="white"/>
<path d="M3138.86 1147H3131.82C3131.4 1144.97 3130.67 1143.19 3129.63 1141.66C3128.61 1140.12 3127.36 1138.84 3125.88 1137.8C3124.42 1136.73 3122.8 1135.94 3121.02 1135.41C3119.24 1134.88 3117.39 1134.61 3115.45 1134.61C3111.93 1134.61 3108.74 1135.5 3105.88 1137.28C3103.04 1139.06 3100.78 1141.69 3099.09 1145.15C3097.42 1148.62 3096.59 1152.87 3096.59 1157.91C3096.59 1162.95 3097.42 1167.2 3099.09 1170.66C3100.78 1174.13 3103.04 1176.75 3105.88 1178.53C3108.74 1180.31 3111.93 1181.2 3115.45 1181.2C3117.39 1181.2 3119.24 1180.94 3121.02 1180.41C3122.8 1179.88 3124.42 1179.09 3125.88 1178.05C3127.36 1176.99 3128.61 1175.69 3129.63 1174.16C3130.67 1172.61 3131.4 1170.83 3131.82 1168.82H3138.86C3138.33 1171.79 3137.37 1174.45 3135.97 1176.8C3134.56 1179.15 3132.82 1181.15 3130.74 1182.8C3128.66 1184.42 3126.32 1185.66 3123.72 1186.52C3121.15 1187.37 3118.39 1187.8 3115.45 1187.8C3110.49 1187.8 3106.08 1186.58 3102.22 1184.16C3098.35 1181.73 3095.31 1178.29 3093.1 1173.82C3090.88 1169.35 3089.77 1164.05 3089.77 1157.91C3089.77 1151.77 3090.88 1146.47 3093.1 1142C3095.31 1137.53 3098.35 1134.08 3102.22 1131.66C3106.08 1129.23 3110.49 1128.02 3115.45 1128.02C3118.39 1128.02 3121.15 1128.45 3123.72 1129.3C3126.32 1130.15 3128.66 1131.4 3130.74 1133.05C3132.82 1134.68 3134.56 1136.67 3135.97 1139.02C3137.37 1141.35 3138.33 1144.01 3138.86 1147Z" fill="white"/>
<path d="M2642.9 1934.05V1929.36H2675.62V1934.05H2661.9V1973H2656.62V1934.05H2642.9ZM2680.03 1929.36H2686.08L2698.18 1949.73H2698.69L2710.8 1929.36H2716.85L2701.08 1955.02V1973H2695.8V1955.02L2680.03 1929.36ZM2723.68 1973V1929.36H2738.43C2741.85 1929.36 2744.65 1929.98 2746.82 1931.22C2749.01 1932.44 2750.63 1934.09 2751.68 1936.18C2752.73 1938.27 2753.26 1940.6 2753.26 1943.17C2753.26 1945.74 2752.73 1948.08 2751.68 1950.18C2750.64 1952.28 2749.04 1953.96 2746.86 1955.21C2744.69 1956.44 2741.91 1957.06 2738.51 1957.06H2727.94V1952.38H2738.34C2740.69 1952.38 2742.57 1951.97 2743.99 1951.16C2745.41 1950.35 2746.44 1949.26 2747.08 1947.88C2747.73 1946.49 2748.06 1944.92 2748.06 1943.17C2748.06 1941.42 2747.73 1939.86 2747.08 1938.48C2746.44 1937.11 2745.4 1936.03 2743.97 1935.24C2742.53 1934.45 2740.63 1934.05 2738.26 1934.05H2728.97V1973H2723.68ZM2761.77 1973V1929.36H2788.1V1934.05H2767.05V1948.8H2786.74V1953.48H2767.05V1968.31H2788.44V1973H2761.77ZM2815.7 1948.84V1953.53H2796.61V1948.84H2815.7ZM2825.23 1973V1929.36H2840.48C2843.52 1929.36 2846.03 1929.89 2848 1930.94C2849.98 1931.98 2851.45 1933.38 2852.41 1935.14C2853.38 1936.88 2853.86 1938.82 2853.86 1940.95C2853.86 1942.83 2853.53 1944.38 2852.86 1945.6C2852.21 1946.82 2851.34 1947.79 2850.26 1948.5C2849.2 1949.21 2848.04 1949.73 2846.79 1950.07V1950.5C2848.12 1950.59 2849.47 1951.05 2850.81 1951.91C2852.16 1952.76 2853.29 1953.98 2854.2 1955.57C2855.11 1957.16 2855.57 1959.11 2855.57 1961.41C2855.57 1963.6 2855.07 1965.56 2854.07 1967.31C2853.08 1969.06 2851.51 1970.44 2849.37 1971.47C2847.22 1972.49 2844.43 1973 2840.99 1973H2825.23ZM2830.51 1968.31H2840.99C2844.44 1968.31 2846.89 1967.64 2848.34 1966.31C2849.81 1964.96 2850.54 1963.33 2850.54 1961.41C2850.54 1959.93 2850.16 1958.57 2849.41 1957.32C2848.66 1956.05 2847.58 1955.05 2846.19 1954.29C2844.8 1953.53 2843.15 1953.14 2841.25 1953.14H2830.51V1968.31ZM2830.51 1948.54H2840.31C2841.9 1948.54 2843.34 1948.23 2844.61 1947.6C2845.91 1946.98 2846.93 1946.1 2847.68 1944.96C2848.45 1943.82 2848.83 1942.49 2848.83 1940.95C2848.83 1939.04 2848.17 1937.41 2846.83 1936.08C2845.5 1934.73 2843.38 1934.05 2840.48 1934.05H2830.51V1948.54Z" fill="#7E7E7E"/>
<rect x="2584" y="330" width="392" height="263" rx="5" fill="#D9D9D9"/>
<path d="M2706.76 438.96H2713.3V442.44C2713.3 453.06 2708.32 462.6 2697.58 466.14L2693.62 459.84C2702.86 456.78 2706.76 449.52 2706.76 442.44V438.96ZM2708.38 438.96H2714.86V442.44C2714.86 448.92 2718.58 455.28 2727.52 457.98L2723.74 464.22C2713.18 461.04 2708.38 452.34 2708.38 442.44V438.96ZM2695.72 436.5H2725.72V442.86H2695.72V436.5ZM2730.16 432.78H2738.14V465.72H2730.16V432.78ZM2735.92 445.56H2745.52V452.1H2735.92V445.56ZM2720.02 466.74C2731.54 466.74 2738.8 470.76 2738.8 477.54C2738.8 484.32 2731.54 488.34 2720.02 488.34C2708.44 488.34 2701.18 484.32 2701.18 477.54C2701.18 470.76 2708.44 466.74 2720.02 466.74ZM2720.02 472.98C2712.94 472.98 2709.1 474.42 2709.1 477.54C2709.1 480.66 2712.94 482.22 2720.02 482.22C2727.1 482.22 2730.88 480.66 2730.88 477.54C2730.88 474.42 2727.1 472.98 2720.02 472.98ZM2762.08 436.68C2769.46 436.68 2774.2 444.3 2774.2 456.84C2774.2 469.44 2769.46 477.06 2762.08 477.06C2754.76 477.06 2750.08 469.44 2750.08 456.84C2750.08 444.3 2754.76 436.68 2762.08 436.68ZM2762.08 444.18C2759.08 444.18 2757.34 448.38 2757.34 456.84C2757.34 465.36 2759.08 469.5 2762.08 469.5C2765.14 469.5 2766.88 465.36 2766.88 456.84C2766.88 448.38 2765.14 444.18 2762.08 444.18ZM2789.74 432.78H2797.36V488.34H2789.74V432.78ZM2783.08 453.96H2792.26V460.38H2783.08V453.96ZM2777.56 433.62H2785.06V485.82H2777.56V433.62ZM2825.85 459.48H2833.83V467.22H2825.85V459.48ZM2804.79 454.8H2855.01V461.04H2804.79V454.8ZM2810.97 434.4H2848.65V451.86H2810.97V434.4ZM2840.79 440.58H2818.83V445.74H2840.79V440.58ZM2810.55 464.52H2848.95V478.8H2818.47V483.72H2810.61V473.28H2841.09V470.46H2810.55V464.52ZM2810.61 481.98H2850.39V487.98H2810.61V481.98Z" fill="black"/>
</svg>
