<svg width="121" height="97" viewBox="0 0 121 97" fill="none" xmlns="http://www.w3.org/2000/svg">
<path d="M8.51776 6.59257C8.41554 6.27181 8.27807 5.98453 8.10535 5.73074C7.93616 5.47343 7.73348 5.25489 7.49732 5.07513C7.26115 4.89184 6.9915 4.7526 6.68837 4.65743C6.38876 4.56226 6.05919 4.51468 5.69965 4.51468C5.08986 4.51468 4.53998 4.67153 4.05003 4.98524C3.56008 5.29895 3.17235 5.75894 2.88684 6.36521C2.60485 6.96796 2.46386 7.70641 2.46386 8.58057C2.46386 9.45825 2.60661 10.2002 2.89212 10.8065C3.17764 11.4128 3.56889 11.8728 4.06589 12.1865C4.56289 12.5002 5.12863 12.657 5.7631 12.657C6.35175 12.657 6.86461 12.5372 7.30169 12.2975C7.74229 12.0578 8.08244 11.7194 8.32213 11.2824C8.56534 10.8418 8.68695 10.3236 8.68695 9.7279L9.10993 9.80721H6.0116V8.45896H10.2678V9.69089C10.2678 10.6003 10.074 11.3899 9.68624 12.0596C9.30203 12.7258 8.76978 13.2404 8.08949 13.6035C7.41272 13.9665 6.63726 14.148 5.7631 14.148C4.7832 14.148 3.92314 13.9225 3.18292 13.4713C2.44623 13.0201 1.87169 12.3803 1.45928 11.552C1.04687 10.7201 0.840672 9.73319 0.840672 8.59115C0.840672 7.72756 0.960517 6.9521 1.20021 6.26476C1.43989 5.57741 1.77652 4.99406 2.21007 4.51468C2.64715 4.03178 3.16001 3.66343 3.74866 3.40964C4.34083 3.15233 4.98764 3.02367 5.68908 3.02367C6.2742 3.02367 6.81879 3.11003 7.32284 3.28275C7.83041 3.45547 8.28159 3.70044 8.67637 4.01768C9.07468 4.33491 9.40425 4.71207 9.66509 5.14915C9.92593 5.5827 10.1022 6.06384 10.1938 6.59257H8.51776ZM12.2149 14V5.87879H13.7429V7.16888H13.8275C13.9755 6.7318 14.2364 6.38813 14.61 6.13786C14.9871 5.88408 15.4136 5.75718 15.8895 5.75718C15.9882 5.75718 16.1045 5.76071 16.2385 5.76776C16.3759 5.77481 16.4834 5.78362 16.561 5.79419V7.30634C16.4975 7.28872 16.3847 7.26933 16.2226 7.24819C16.0605 7.22351 15.8983 7.21117 15.7362 7.21117C15.3625 7.21117 15.0294 7.29048 14.7369 7.4491C14.4478 7.60419 14.2187 7.82097 14.0495 8.09943C13.8803 8.37437 13.7958 8.68808 13.7958 9.04056V14H12.2149ZM20.2198 14.1798C19.7051 14.1798 19.2399 14.0846 18.8239 13.8943C18.408 13.7004 18.0784 13.4202 17.8352 13.0536C17.5955 12.687 17.4757 12.2376 17.4757 11.7053C17.4757 11.2471 17.5638 10.8699 17.74 10.5739C17.9163 10.2778 18.1542 10.0434 18.4538 9.87066C18.7534 9.69794 19.0883 9.56752 19.4584 9.4794C19.8285 9.39128 20.2057 9.32431 20.5899 9.27849C21.0763 9.22209 21.4711 9.17627 21.7742 9.14102C22.0773 9.10225 22.2976 9.04056 22.4351 8.95597C22.5726 8.87137 22.6413 8.7339 22.6413 8.54356V8.50655C22.6413 8.0448 22.5109 7.68703 22.2501 7.43324C21.9927 7.17945 21.6085 7.05256 21.0974 7.05256C20.5652 7.05256 20.1457 7.17064 19.8391 7.4068C19.5359 7.63944 19.3262 7.89852 19.2099 8.18403L17.7242 7.84564C17.9004 7.35217 18.1577 6.95386 18.4961 6.65073C18.838 6.34407 19.231 6.122 19.6752 5.98453C20.1193 5.84354 20.5863 5.77304 21.0763 5.77304C21.4006 5.77304 21.7442 5.81182 22.1073 5.88936C22.4739 5.96338 22.8158 6.10085 23.133 6.30177C23.4538 6.50268 23.7164 6.78996 23.9208 7.16359C24.1253 7.5337 24.2275 8.01484 24.2275 8.60701V14H22.6836V12.8897H22.6202C22.5179 13.0941 22.3646 13.295 22.1602 13.4924C21.9557 13.6898 21.6931 13.8537 21.3724 13.9841C21.0516 14.1146 20.6674 14.1798 20.2198 14.1798ZM20.5634 12.9108C21.0005 12.9108 21.3741 12.8245 21.6843 12.6518C21.998 12.479 22.236 12.2534 22.3981 11.975C22.5638 11.693 22.6466 11.3916 22.6466 11.0709V10.024C22.5902 10.0804 22.4809 10.1333 22.3188 10.1826C22.1602 10.2284 21.9786 10.269 21.7742 10.3042C21.5698 10.3359 21.3706 10.3659 21.1767 10.3941C20.9829 10.4188 20.8207 10.4399 20.6903 10.4575C20.3837 10.4963 20.1034 10.5615 19.8496 10.6532C19.5994 10.7448 19.3985 10.877 19.2469 11.0497C19.0989 11.2189 19.0248 11.4445 19.0248 11.7265C19.0248 12.1177 19.1694 12.4138 19.4584 12.6147C19.7474 12.8121 20.1158 12.9108 20.5634 12.9108ZM27.0416 17.0455C26.8055 17.0455 26.5904 17.0261 26.3966 16.9873C26.2027 16.952 26.0582 16.9133 25.963 16.871L26.3437 15.5756C26.6327 15.6531 26.8901 15.6866 27.1156 15.6761C27.3412 15.6655 27.5404 15.5809 27.7131 15.4223C27.8893 15.2637 28.0444 15.0046 28.1784 14.645L28.374 14.1057L25.4026 5.87879H27.0945L29.1512 12.1812H29.2358L31.2926 5.87879H32.9898L29.643 15.0839C29.4879 15.5069 29.2905 15.8646 29.0508 16.1572C28.8111 16.4533 28.5256 16.6753 28.1942 16.8234C27.8629 16.9714 27.4787 17.0455 27.0416 17.0455ZM40.5611 7.86151L39.1283 8.11529C39.0684 7.932 38.9732 7.75752 38.8428 7.59186C38.7159 7.42619 38.5432 7.29048 38.3246 7.18474C38.1061 7.07899 37.8329 7.02612 37.5051 7.02612C37.0574 7.02612 36.6838 7.12658 36.3842 7.32749C36.0846 7.52488 35.9348 7.78043 35.9348 8.09414C35.9348 8.36556 36.0352 8.5841 36.2361 8.74976C36.4371 8.91543 36.7613 9.05114 37.209 9.15688L38.4991 9.45297C39.2464 9.62568 39.8033 9.89181 40.1699 10.2513C40.5364 10.6109 40.7197 11.0779 40.7197 11.6525C40.7197 12.1389 40.5787 12.5724 40.2968 12.9531C40.0183 13.3303 39.6288 13.6264 39.1283 13.8414C38.6313 14.0564 38.055 14.1639 37.3993 14.1639C36.4899 14.1639 35.748 13.97 35.1734 13.5823C34.5989 13.1911 34.2464 12.6359 34.116 11.9168L35.644 11.6842C35.7391 12.0825 35.9348 12.3839 36.2309 12.5883C36.5269 12.7892 36.9129 12.8897 37.3888 12.8897C37.9069 12.8897 38.3211 12.7822 38.6313 12.5672C38.9415 12.3486 39.0965 12.0825 39.0965 11.7688C39.0965 11.515 39.0014 11.3017 38.811 11.129C38.6242 10.9563 38.3369 10.8259 37.9492 10.7378L36.5745 10.4364C35.8167 10.2637 35.2562 9.98874 34.8932 9.61158C34.5337 9.23443 34.3539 8.75681 34.3539 8.17874C34.3539 7.69936 34.4878 7.27991 34.7557 6.92038C35.0236 6.56084 35.3937 6.28062 35.866 6.0797C36.3384 5.87526 36.8794 5.77304 37.4892 5.77304C38.3669 5.77304 39.0578 5.96338 39.5618 6.34407C40.0659 6.72122 40.399 7.22704 40.5611 7.86151ZM45.8788 14.1639C45.0927 14.1639 44.416 13.9859 43.8485 13.6299C43.2845 13.2704 42.8509 12.7751 42.5478 12.1442C42.2447 11.5132 42.0931 10.7906 42.0931 9.9764C42.0931 9.15159 42.2482 8.42372 42.5584 7.79277C42.8686 7.1583 43.3056 6.66306 43.8696 6.30705C44.4336 5.95105 45.098 5.77304 45.8629 5.77304C46.4797 5.77304 47.0296 5.8876 47.5125 6.11671C47.9954 6.3423 48.3849 6.65954 48.681 7.06842C48.9806 7.4773 49.1586 7.95491 49.215 8.50126H47.6764C47.5918 8.12058 47.398 7.79277 47.0948 7.51783C46.7952 7.2429 46.3934 7.10543 45.8893 7.10543C45.4487 7.10543 45.0628 7.22175 44.7314 7.45439C44.4036 7.6835 44.1481 8.01131 43.9648 8.43782C43.7815 8.8608 43.6898 9.36132 43.6898 9.93939C43.6898 10.5316 43.7797 11.0427 43.9595 11.4727C44.1393 11.9027 44.393 12.2358 44.7209 12.472C45.0522 12.7081 45.4417 12.8262 45.8893 12.8262C46.189 12.8262 46.4604 12.7716 46.7036 12.6623C46.9503 12.5495 47.1565 12.3892 47.3222 12.1812C47.4914 11.9732 47.6095 11.723 47.6764 11.4304H49.215C49.1586 11.9556 48.9877 12.4244 48.7022 12.8368C48.4166 13.2492 48.0342 13.5735 47.5548 13.8097C47.079 14.0458 46.5203 14.1639 45.8788 14.1639ZM53.269 14.1798C52.7544 14.1798 52.2891 14.0846 51.8732 13.8943C51.4573 13.7004 51.1277 13.4202 50.8845 13.0536C50.6448 12.687 50.5249 12.2376 50.5249 11.7053C50.5249 11.2471 50.6131 10.8699 50.7893 10.5739C50.9655 10.2778 51.2035 10.0434 51.5031 9.87066C51.8027 9.69794 52.1375 9.56752 52.5077 9.4794C52.8778 9.39128 53.2549 9.32431 53.6391 9.27849C54.1256 9.22209 54.5203 9.17627 54.8235 9.14102C55.1266 9.10225 55.3469 9.04056 55.4844 8.95597C55.6218 8.87137 55.6906 8.7339 55.6906 8.54356V8.50655C55.6906 8.0448 55.5602 7.68703 55.2993 7.43324C55.042 7.17945 54.6578 7.05256 54.1467 7.05256C53.6145 7.05256 53.195 7.17064 52.8883 7.4068C52.5852 7.63944 52.3755 7.89852 52.2592 8.18403L50.7734 7.84564C50.9497 7.35217 51.207 6.95386 51.5454 6.65073C51.8873 6.34407 52.2803 6.122 52.7244 5.98453C53.1686 5.84354 53.6356 5.77304 54.1256 5.77304C54.4498 5.77304 54.7935 5.81182 55.1566 5.88936C55.5231 5.96338 55.8651 6.10085 56.1823 6.30177C56.503 6.50268 56.7656 6.78996 56.9701 7.16359C57.1745 7.5337 57.2768 8.01484 57.2768 8.60701V14H55.7329V12.8897H55.6694C55.5672 13.0941 55.4139 13.295 55.2094 13.4924C55.005 13.6898 54.7424 13.8537 54.4216 13.9841C54.1009 14.1146 53.7167 14.1798 53.269 14.1798ZM53.6127 12.9108C54.0498 12.9108 54.4234 12.8245 54.7336 12.6518C55.0473 12.479 55.2852 12.2534 55.4474 11.975C55.613 11.693 55.6959 11.3916 55.6959 11.0709V10.024C55.6395 10.0804 55.5302 10.1333 55.3681 10.1826C55.2094 10.2284 55.0279 10.269 54.8235 10.3042C54.619 10.3359 54.4199 10.3659 54.226 10.3941C54.0321 10.4188 53.87 10.4399 53.7396 10.4575C53.4329 10.4963 53.1527 10.5615 52.8989 10.6532C52.6486 10.7448 52.4477 10.877 52.2962 11.0497C52.1481 11.2189 52.0741 11.4445 52.0741 11.7265C52.0741 12.1177 52.2186 12.4138 52.5077 12.6147C52.7967 12.8121 53.165 12.9108 53.6127 12.9108ZM60.9633 3.17172V14H59.3824V3.17172H60.9633ZM66.5902 14.1639C65.7901 14.1639 65.101 13.993 64.5229 13.651C63.9484 13.3056 63.5042 12.8209 63.1905 12.197C62.8804 11.5696 62.7253 10.8347 62.7253 9.99227C62.7253 9.16041 62.8804 8.42724 63.1905 7.79277C63.5042 7.1583 63.9413 6.66306 64.5018 6.30705C65.0657 5.95105 65.7249 5.77304 66.4792 5.77304C66.9374 5.77304 67.3816 5.84883 67.8116 6.00039C68.2416 6.15196 68.6276 6.38989 68.9695 6.71417C69.3114 7.03846 69.5811 7.45967 69.7784 7.97783C69.9758 8.49245 70.0745 9.11811 70.0745 9.8548V10.4152H63.6188V9.2309H68.5254C68.5254 8.81497 68.4408 8.44663 68.2716 8.12587C68.1024 7.80158 67.8645 7.54603 67.5578 7.35922C67.2547 7.1724 66.8987 7.07899 66.4898 7.07899C66.0457 7.07899 65.6579 7.18826 65.3266 7.4068C64.9988 7.62182 64.745 7.9038 64.5652 8.25276C64.389 8.5982 64.3009 8.97359 64.3009 9.37895V10.3042C64.3009 10.847 64.396 11.3088 64.5864 11.6895C64.7802 12.0702 65.0499 12.361 65.3953 12.5619C65.7408 12.7593 66.1443 12.858 66.6061 12.858C66.9057 12.858 67.1789 12.8157 67.4256 12.7311C67.6724 12.6429 67.8856 12.5125 68.0654 12.3398C68.2451 12.1671 68.3826 11.9538 68.4778 11.7L69.9741 11.9697C69.8542 12.4103 69.6392 12.7963 69.329 13.1276C69.0224 13.4554 68.6364 13.711 68.1711 13.8943C67.7094 14.074 67.1824 14.1639 66.5902 14.1639ZM72.8702 14.1005C72.5811 14.1005 72.3326 13.9982 72.1247 13.7938C71.9167 13.5858 71.8127 13.3356 71.8127 13.043C71.8127 12.754 71.9167 12.5072 72.1247 12.3028C72.3326 12.0948 72.5811 11.9908 72.8702 11.9908C73.1592 11.9908 73.4077 12.0948 73.6157 12.3028C73.8236 12.5072 73.9276 12.754 73.9276 13.043C73.9276 13.2369 73.8783 13.4149 73.7796 13.577C73.6844 13.7356 73.5575 13.8625 73.3989 13.9577C73.2403 14.0529 73.064 14.1005 72.8702 14.1005ZM72.8702 8.18931C72.5811 8.18931 72.3326 8.08533 72.1247 7.87737C71.9167 7.6694 71.8127 7.4209 71.8127 7.13187C71.8127 6.84283 71.9167 6.59609 72.1247 6.39165C72.3326 6.18369 72.5811 6.0797 72.8702 6.0797C73.1592 6.0797 73.4077 6.18369 73.6157 6.39165C73.8236 6.59609 73.9276 6.84283 73.9276 7.13187C73.9276 7.32573 73.8783 7.50374 73.7796 7.66588C73.6844 7.82449 73.5575 7.95139 73.3989 8.04656C73.2403 8.14173 73.064 8.18931 72.8702 8.18931ZM83.4936 9.77156H84.7443V11.99H83.4936V9.77156ZM89.3896 1.70178H90.6254V15.1613H89.3896V1.70178ZM79.9054 12.6004L79.7416 11.5731C82.2876 11.5582 85.6376 11.5284 88.541 11.1562L88.6303 12.0644C85.6376 12.5707 82.3918 12.6004 79.9054 12.6004ZM80.0245 3.33956H88.1985V4.33711H80.0245V3.33956ZM84.1041 5.11133C86.0396 5.11133 87.3498 6.094 87.3498 7.59778C87.3498 9.11644 86.0396 10.0842 84.1041 10.0842C82.1834 10.0842 80.8732 9.11644 80.8732 7.59778C80.8732 6.094 82.1834 5.11133 84.1041 5.11133ZM84.1041 6.06422C82.8981 6.06422 82.0494 6.67467 82.0494 7.59778C82.0494 8.52089 82.8981 9.13133 84.1041 9.13133C85.325 9.13133 86.1736 8.52089 86.1736 7.59778C86.1736 6.67467 85.325 6.06422 84.1041 6.06422ZM83.4936 1.70178H84.7294V3.89044H83.4936V1.70178ZM96.1778 2.50578H97.1605V4.30733C97.1605 6.33222 96.014 8.46133 94.0338 9.36956L93.3638 8.40178C95.1207 7.61267 96.1778 5.84089 96.1778 4.30733V2.50578ZM96.3714 2.50578H97.354V4.30733C97.354 5.84089 98.3516 7.37444 100.079 8.07422L99.4236 9.02711C97.4731 8.20822 96.3714 6.31733 96.3714 4.30733V2.50578ZM103.518 1.71667H104.694V9.846H103.518V1.71667ZM101.344 5.20067H103.89V6.228H101.344V5.20067ZM100.63 1.94H101.806V9.77156H100.63V1.94ZM95.6716 10.5756H104.694V15.1613H103.473V11.588H95.6716V10.5756ZM107.06 12.4069H119.254V13.4342H107.06V12.4069ZM112.54 9.14622H113.76V12.7493H112.54V9.14622ZM112.51 3.39911H113.552V4.23289C113.552 6.98733 110.798 9.07178 108.147 9.62267L107.641 8.64C109.964 8.25289 112.51 6.362 112.51 4.23289V3.39911ZM112.733 3.39911H113.775V4.23289C113.775 6.362 116.336 8.20822 118.689 8.59533L118.197 9.578C115.502 9.042 112.733 6.98733 112.733 4.23289V3.39911ZM108.058 2.92267H118.227V3.93511H108.058V2.92267Z" fill="white"/>
<rect x="23" y="29" width="68" height="68" fill="#878787"/>
<line x1="29.25" y1="29" x2="29.25" y2="97" stroke="#B7B7B7" stroke-width="0.5"/>
<line x1="36.25" y1="29" x2="36.25" y2="97" stroke="#B7B7B7" stroke-width="0.5"/>
<line x1="43.25" y1="29" x2="43.25" y2="97" stroke="#B7B7B7" stroke-width="0.5"/>
<line x1="50.25" y1="29" x2="50.25" y2="97" stroke="#B7B7B7" stroke-width="0.5"/>
<line x1="57.25" y1="29" x2="57.25" y2="97" stroke="#B7B7B7" stroke-width="0.5"/>
<line x1="64.25" y1="29" x2="64.25" y2="97" stroke="#B7B7B7" stroke-width="0.5"/>
<line x1="71.25" y1="29" x2="71.25" y2="97" stroke="#B7B7B7" stroke-width="0.5"/>
<line x1="78.25" y1="29" x2="78.25" y2="97" stroke="#B7B7B7" stroke-width="0.5"/>
<line x1="85.25" y1="29" x2="85.25" y2="97" stroke="#B7B7B7" stroke-width="0.5"/>
<line x1="23" y1="90.75" x2="91" y2="90.75" stroke="#B7B7B7" stroke-width="0.5"/>
<line x1="23" y1="83.75" x2="91" y2="83.75" stroke="#B7B7B7" stroke-width="0.5"/>
<line x1="23" y1="76.75" x2="91" y2="76.75" stroke="#B7B7B7" stroke-width="0.5"/>
<line x1="23" y1="69.75" x2="91" y2="69.75" stroke="#B7B7B7" stroke-width="0.5"/>
<line x1="23" y1="62.75" x2="91" y2="62.75" stroke="#B7B7B7" stroke-width="0.5"/>
<line x1="23" y1="55.75" x2="91" y2="55.75" stroke="#B7B7B7" stroke-width="0.5"/>
<line x1="23" y1="48.75" x2="91" y2="48.75" stroke="#B7B7B7" stroke-width="0.5"/>
<line x1="23" y1="41.75" x2="91" y2="41.75" stroke="#B7B7B7" stroke-width="0.5"/>
<line x1="23" y1="34.75" x2="91" y2="34.75" stroke="#B7B7B7" stroke-width="0.5"/>
</svg>
