<svg width="123" height="18" viewBox="0 0 123 18" fill="none" xmlns="http://www.w3.org/2000/svg">
<path d="M7.892 3.724H12.14V5.614H7.892V3.724ZM7.892 7.306H12.212V9.196H7.892V7.306ZM11.276 0.952H13.67V13.246H11.276V0.952ZM2.636 15.406H14.03V17.314H2.636V15.406ZM2.636 12.04H5.048V16.504H2.636V12.04ZM0.422 2.032H2.798V4.57H5.966V2.032H8.306V10.636H0.422V2.032ZM2.798 6.388V8.746H5.966V6.388H2.798ZM22.5606 1.42H24.6666V2.194C24.6666 5.398 22.1466 8.116 17.7726 8.764L16.8366 6.838C20.6706 6.334 22.5606 4.156 22.5606 2.194V1.42ZM23.0106 1.42H25.0986V2.194C25.0986 4.138 27.0066 6.334 30.8226 6.838L29.9046 8.764C25.5306 8.116 23.0106 5.398 23.0106 2.194V1.42ZM22.5786 11.5H24.9546V17.602H22.5786V11.5ZM16.2966 9.988H31.3626V11.932H16.2966V9.988ZM44.2672 0.915999H46.6792V17.638H44.2672V0.915999ZM37.6972 2.086C40.2172 2.086 42.0712 4.39 42.0712 8.026C42.0712 11.698 40.2172 14.002 37.6972 14.002C35.1772 14.002 33.3232 11.698 33.3232 8.026C33.3232 4.39 35.1772 2.086 37.6972 2.086ZM37.6972 4.264C36.4552 4.264 35.6092 5.578 35.6092 8.026C35.6092 10.51 36.4552 11.842 37.6972 11.842C38.9392 11.842 39.7672 10.51 39.7672 8.026C39.7672 5.578 38.9392 4.264 37.6972 4.264ZM49.3958 9.34H64.4978V11.23H49.3958V9.34ZM51.2498 1.24H62.6618V5.704H53.6438V7.522H51.2678V4.012H60.3038V3.058H51.2498V1.24ZM51.2678 6.64H62.9858V8.458H51.2678V6.64ZM51.3038 12.238H62.7518V17.422H51.3038V12.238ZM60.3938 14.11H53.6438V15.532H60.3938V14.11ZM75.2667 9.77415V7.50497H84.0941V9.77415H75.2667ZM75.2667 14.0185V11.7493H84.0941V14.0185H75.2667ZM99.7228 4.966H102.891V6.91H99.7228V4.966ZM102.243 0.934H104.637V10.834H102.243V0.934ZM98.9848 11.194C102.513 11.194 104.691 12.4 104.691 14.416C104.691 16.45 102.513 17.62 98.9848 17.62C95.4568 17.62 93.2788 16.45 93.2788 14.416C93.2788 12.4 95.4568 11.194 98.9848 11.194ZM98.9848 13.012C96.8248 13.012 95.6728 13.462 95.6728 14.416C95.6728 15.352 96.8248 15.802 98.9848 15.802C101.163 15.802 102.315 15.352 102.315 14.416C102.315 13.462 101.163 13.012 98.9848 13.012ZM94.5388 2.608H96.4828V3.652C96.4828 6.838 95.0068 9.754 91.8208 10.834L90.5968 8.944C93.3508 8.008 94.5388 5.794 94.5388 3.652V2.608ZM95.0428 2.608H96.9688V3.652C96.9688 5.614 98.1028 7.648 100.731 8.53L99.5608 10.42C96.4648 9.394 95.0428 6.622 95.0428 3.652V2.608ZM91.2448 1.942H100.209V3.85H91.2448V1.942ZM107.263 13.732H122.347V15.676H107.263V13.732ZM113.581 10.168H115.975V14.2H113.581V10.168ZM108.847 1.996H111.223V4.552H118.333V1.996H120.709V10.672H108.847V1.996ZM111.223 6.424V8.764H118.333V6.424H111.223Z" fill="url(#paint0_linear_725_1594)"/>
<defs>
<linearGradient id="paint0_linear_725_1594" x1="-1" y1="9" x2="124" y2="9" gradientUnits="userSpaceOnUse">
<stop stop-color="#F29C1F"/>
<stop offset="1" stop-color="#F0C419"/>
</linearGradient>
</defs>
</svg>
