<svg width="119" height="85" viewBox="0 0 119 85" fill="none" xmlns="http://www.w3.org/2000/svg">
<path d="M10.1997 6.42424V7.80524H5.72129V6.42424H10.1997ZM6.84089 14V5.70908C6.84089 5.19943 6.94611 4.77527 7.15655 4.43659C7.37027 4.09792 7.65634 3.84474 8.01474 3.67704C8.37314 3.50935 8.771 3.4255 9.20831 3.4255C9.51739 3.4255 9.79195 3.45017 10.032 3.49949C10.272 3.54881 10.4496 3.5932 10.5647 3.63265L10.2095 5.01365C10.1339 4.99064 10.0386 4.96762 9.92347 4.9446C9.80839 4.9183 9.68015 4.90515 9.53877 4.90515C9.20667 4.90515 8.97157 4.9857 8.83347 5.14682C8.69866 5.30465 8.63125 5.53153 8.63125 5.82745V14H6.84089ZM14.6176 14.148C13.8778 14.148 13.2366 13.9852 12.6941 13.6597C12.1516 13.3342 11.7307 12.8788 11.4315 12.2935C11.1355 11.7082 10.9876 11.0243 10.9876 10.2417C10.9876 9.45915 11.1355 8.77358 11.4315 8.18501C11.7307 7.59645 12.1516 7.1394 12.6941 6.81388C13.2366 6.48836 13.8778 6.3256 14.6176 6.3256C15.3575 6.3256 15.9986 6.48836 16.5412 6.81388C17.0837 7.1394 17.5029 7.59645 17.7989 8.18501C18.0981 8.77358 18.2477 9.45915 18.2477 10.2417C18.2477 11.0243 18.0981 11.7082 17.7989 12.2935C17.5029 12.8788 17.0837 13.3342 16.5412 13.6597C15.9986 13.9852 15.3575 14.148 14.6176 14.148ZM14.6275 12.7176C15.0286 12.7176 15.364 12.6075 15.6337 12.3872C15.9033 12.1636 16.1038 11.8644 16.2354 11.4895C16.3702 11.1147 16.4376 10.6971 16.4376 10.2368C16.4376 9.77316 16.3702 9.35393 16.2354 8.97909C16.1038 8.60096 15.9033 8.3001 15.6337 8.07651C15.364 7.85292 15.0286 7.74112 14.6275 7.74112C14.2165 7.74112 13.8745 7.85292 13.6016 8.07651C13.332 8.3001 13.1298 8.60096 12.995 8.97909C12.8634 9.35393 12.7977 9.77316 12.7977 10.2368C12.7977 10.6971 12.8634 11.1147 12.995 11.4895C13.1298 11.8644 13.332 12.1636 13.6016 12.3872C13.8745 12.6075 14.2165 12.7176 14.6275 12.7176ZM19.7631 14V6.42424H21.4943V7.68687H21.5732C21.7113 7.24955 21.948 6.91252 22.2834 6.67578C22.6221 6.43575 23.0084 6.31574 23.4425 6.31574C23.5411 6.31574 23.6512 6.32067 23.7729 6.33053C23.8979 6.33711 24.0014 6.34862 24.0836 6.36506V8.00746C24.008 7.98115 23.888 7.95814 23.7236 7.93841C23.5625 7.91539 23.4063 7.90388 23.255 7.90388C22.9295 7.90388 22.6369 7.97458 22.3771 8.11596C22.1206 8.25406 21.9184 8.44642 21.7705 8.69302C21.6225 8.93963 21.5485 9.22405 21.5485 9.54628V14H19.7631ZM29.8148 14.1085C29.5156 14.1085 29.2591 14.0033 29.0454 13.7929C28.8316 13.5824 28.7264 13.3259 28.7297 13.0234C28.7264 12.7275 28.8316 12.4743 29.0454 12.2639C29.2591 12.0535 29.5156 11.9482 29.8148 11.9482C30.1041 11.9482 30.3557 12.0535 30.5694 12.2639C30.7864 12.4743 30.8965 12.7275 30.8998 13.0234C30.8965 13.224 30.8439 13.4065 30.742 13.5709C30.6434 13.7353 30.5118 13.8668 30.3474 13.9655C30.1863 14.0608 30.0088 14.1085 29.8148 14.1085ZM29.8148 8.70289C29.5156 8.70289 29.2591 8.59767 29.0454 8.38723C28.8316 8.17351 28.7264 7.91703 28.7297 7.61782C28.7264 7.32189 28.8316 7.06871 29.0454 6.85827C29.2591 6.64454 29.5156 6.53768 29.8148 6.53768C30.1041 6.53768 30.3557 6.64454 30.5694 6.85827C30.7864 7.06871 30.8965 7.32189 30.8998 7.61782C30.8965 7.8151 30.8439 7.99595 30.742 8.16035C30.6434 8.32476 30.5118 8.45628 30.3474 8.55492C30.1863 8.65357 30.0088 8.70289 29.8148 8.70289ZM35.8126 9.05556H47.4515V10.5139H35.8126V9.05556ZM37.1182 11.3333H46.0348V15.2361H44.1876V12.7917H37.1182V11.3333ZM37.2571 6.875H46.2154V8.27778H37.2571V6.875ZM37.2571 2.66667H46.1182V4.06944H39.0904V7.58333H37.2571V2.66667ZM38.5765 4.77778H45.8265V6.125H38.5765V4.77778ZM55.5754 5.48611H58.0199V6.98611H55.5754V5.48611ZM57.5199 2.375H59.3671V10.0139H57.5199V2.375ZM55.006 10.2917C57.7282 10.2917 59.4087 11.2222 59.4087 12.7778C59.4087 14.3472 57.7282 15.25 55.006 15.25C52.2837 15.25 50.6032 14.3472 50.6032 12.7778C50.6032 11.2222 52.2837 10.2917 55.006 10.2917ZM55.006 11.6944C53.3393 11.6944 52.4504 12.0417 52.4504 12.7778C52.4504 13.5 53.3393 13.8472 55.006 13.8472C56.6865 13.8472 57.5754 13.5 57.5754 12.7778C57.5754 12.0417 56.6865 11.6944 55.006 11.6944ZM51.5754 3.66667H53.0754V4.47222C53.0754 6.93056 51.9365 9.18056 49.4782 10.0139L48.5337 8.55556C50.6587 7.83333 51.5754 6.125 51.5754 4.47222V3.66667ZM51.9643 3.66667H53.4504V4.47222C53.4504 5.98611 54.3254 7.55556 56.3532 8.23611L55.4504 9.69444C53.0615 8.90278 51.9643 6.76389 51.9643 4.47222V3.66667ZM49.0337 3.15278H55.9504V4.625H49.0337V3.15278ZM73.6861 2.375H75.5472V11.9167H73.6861V2.375ZM65.2555 3.33333H72.8111V4.65278H65.2555V3.33333ZM69.0333 4.98611C70.95 4.98611 72.2278 5.70833 72.2278 6.86111C72.2278 8 70.95 8.73611 69.0333 8.73611C67.1166 8.73611 65.8389 8 65.8389 6.86111C65.8389 5.70833 67.1166 4.98611 69.0333 4.98611ZM69.0333 6.19444C68.1583 6.19444 67.6028 6.40278 67.6028 6.86111C67.6028 7.30556 68.1583 7.52778 69.0333 7.52778C69.9083 7.52778 70.4639 7.30556 70.4639 6.86111C70.4639 6.40278 69.9083 6.19444 69.0333 6.19444ZM68.1028 2.29167H69.9639V3.95833H68.1028V2.29167ZM68.1028 8.125H69.9639V9.88889H68.1028V8.125ZM65.1166 10.8333L64.8944 9.44444C67.2139 9.44444 70.2972 9.41667 72.9222 9.08333L73.0611 10.3333C70.3389 10.7917 67.3805 10.8333 65.1166 10.8333ZM70.1305 11.2778H71.7139V11.4167C71.7139 13.4167 69.9639 14.8889 66.7 15.1944L66.0889 13.8194C68.9361 13.5556 70.1305 12.4861 70.1305 11.4167V11.2778ZM70.4361 11.2778H72.0333V11.4167C72.0333 12.4861 73.2139 13.5556 76.075 13.8194L75.4639 15.1944C72.1861 14.8889 70.4361 13.4167 70.4361 11.4167V11.2778ZM82.4489 2.75H84.0739V3.34722C84.0739 5.81944 82.1294 7.91667 78.7544 8.41667L78.0322 6.93056C80.9906 6.54167 82.4489 4.86111 82.4489 3.34722V2.75ZM82.7961 2.75H84.4072V3.34722C84.4072 4.84722 85.8794 6.54167 88.8239 6.93056L88.1156 8.41667C84.7406 7.91667 82.7961 5.81944 82.7961 3.34722V2.75ZM82.4628 10.5278H84.2961V15.2361H82.4628V10.5278ZM77.6156 9.36111H89.2406V10.8611H77.6156V9.36111ZM102.101 2.38889H103.948V11.8472H102.101V2.38889ZM103.421 6H105.657V7.51389H103.421V6ZM95.6568 13.5417H104.407V15.0139H95.6568V13.5417ZM95.6568 10.8889H97.504V13.8611H95.6568V10.8889ZM94.1985 3.29167H96.0318V5.13889H98.5457V3.29167H100.379V9.81944H94.1985V3.29167ZM96.0318 6.54167V8.375H98.5457V6.54167H96.0318ZM106.6 8.72222H118.225V10.2083H106.6V8.72222ZM111.475 7.08333H113.322V9.04167H111.475V7.08333ZM107.892 11.0833H116.822V15.2361H114.975V12.5417H107.892V11.0833ZM108.086 2.69444H109.906V3.83333H114.92V2.69444H116.753V7.66667H108.086V2.69444ZM109.906 5.20833V6.22222H114.92V5.20833H109.906Z" fill="white"/>
<path d="M53.2553 27.635V28.4733H50.2235V27.635H53.2553ZM51.0548 33V27.0133C51.0548 26.6779 51.1282 26.3997 51.2749 26.1785C51.4216 25.9549 51.616 25.7884 51.8582 25.679C52.1004 25.5672 52.3635 25.5113 52.6476 25.5113C52.8572 25.5113 53.0365 25.5288 53.1855 25.5637C53.3345 25.5963 53.4451 25.6266 53.5173 25.6545L53.2728 26.4998C53.2239 26.4858 53.161 26.4695 53.0842 26.4509C53.0073 26.4299 52.9142 26.4195 52.8048 26.4195C52.5509 26.4195 52.3693 26.4823 52.2599 26.6081C52.1528 26.7338 52.0992 26.9155 52.0992 27.153V33H51.0548ZM56.1946 33.1083C55.6916 33.1083 55.2527 32.993 54.8778 32.7625C54.5029 32.532 54.2118 32.2095 54.0045 31.795C53.7973 31.3805 53.6937 30.8961 53.6937 30.3419C53.6937 29.7854 53.7973 29.2987 54.0045 28.8819C54.2118 28.4651 54.5029 28.1414 54.8778 27.9109C55.2527 27.6804 55.6916 27.5651 56.1946 27.5651C56.6975 27.5651 57.1365 27.6804 57.5114 27.9109C57.8863 28.1414 58.1773 28.4651 58.3846 28.8819C58.5918 29.2987 58.6954 29.7854 58.6954 30.3419C58.6954 30.8961 58.5918 31.3805 58.3846 31.795C58.1773 32.2095 57.8863 32.532 57.5114 32.7625C57.1365 32.993 56.6975 33.1083 56.1946 33.1083ZM56.198 32.2316C56.524 32.2316 56.7942 32.1454 57.0084 31.9731C57.2226 31.8008 57.381 31.5714 57.4834 31.285C57.5882 30.9986 57.6406 30.6831 57.6406 30.3384C57.6406 29.9961 57.5882 29.6818 57.4834 29.3954C57.381 29.1066 57.2226 28.8749 57.0084 28.7003C56.7942 28.5257 56.524 28.4383 56.198 28.4383C55.8697 28.4383 55.5973 28.5257 55.3807 28.7003C55.1665 28.8749 55.007 29.1066 54.9022 29.3954C54.7997 29.6818 54.7485 29.9961 54.7485 30.3384C54.7485 30.6831 54.7997 30.9986 54.9022 31.285C55.007 31.5714 55.1665 31.8008 55.3807 31.9731C55.5973 32.1454 55.8697 32.2316 56.198 32.2316ZM59.6743 33V27.635H60.6837V28.4872H60.7396C60.8374 28.1985 61.0097 27.9715 61.2566 27.8061C61.5057 27.6385 61.7875 27.5546 62.1018 27.5546C62.167 27.5546 62.2439 27.557 62.3324 27.5616C62.4232 27.5663 62.4942 27.5721 62.5454 27.5791V28.5781C62.5035 28.5664 62.429 28.5536 62.3219 28.5396C62.2148 28.5233 62.1076 28.5152 62.0005 28.5152C61.7537 28.5152 61.5337 28.5676 61.3404 28.6724C61.1494 28.7748 60.9981 28.918 60.8863 29.102C60.7745 29.2836 60.7187 29.4908 60.7187 29.7237V33H59.6743Z" fill="white"/>
<path d="M0 55C0 52.2386 2.23858 50 5 50H101C103.761 50 106 52.2386 106 55V74C106 76.7614 103.761 79 101 79H5C2.23858 79 0 76.7614 0 74V55Z" fill="#858F9F"/>
<path d="M8.34012 58.2713V58.951H6.13594V58.2713H8.34012ZM6.68699 62V57.9194C6.68699 57.6685 6.73877 57.4597 6.84235 57.2931C6.94754 57.1264 7.08833 57.0018 7.26473 56.9192C7.44113 56.8367 7.63695 56.7954 7.85219 56.7954C8.00431 56.7954 8.13945 56.8076 8.25758 56.8318C8.37572 56.8561 8.46311 56.878 8.51976 56.8974L8.34497 57.5771C8.30775 57.5657 8.26082 57.5544 8.20418 57.5431C8.14754 57.5301 8.08442 57.5237 8.01483 57.5237C7.85138 57.5237 7.73567 57.5633 7.6677 57.6426C7.60135 57.7203 7.56817 57.832 7.56817 57.9776V62H6.68699ZM10.3847 62.0728C10.0206 62.0728 9.70498 61.9927 9.43795 61.8325C9.17092 61.6723 8.96378 61.4481 8.81651 61.1601C8.67086 60.872 8.59803 60.5354 8.59803 60.1502C8.59803 59.7651 8.67086 59.4276 8.81651 59.138C8.96378 58.8483 9.17092 58.6233 9.43795 58.4631C9.70498 58.3029 10.0206 58.2228 10.3847 58.2228C10.7488 58.2228 11.0644 58.3029 11.3314 58.4631C11.5984 58.6233 11.8048 58.8483 11.9504 59.138C12.0977 59.4276 12.1713 59.7651 12.1713 60.1502C12.1713 60.5354 12.0977 60.872 11.9504 61.1601C11.8048 61.4481 11.5984 61.6723 11.3314 61.8325C11.0644 61.9927 10.7488 62.0728 10.3847 62.0728ZM10.3895 61.3688C10.587 61.3688 10.752 61.3146 10.8847 61.2062C11.0175 61.0962 11.1162 60.9489 11.1809 60.7644C11.2473 60.5799 11.2804 60.3744 11.2804 60.1478C11.2804 59.9196 11.2473 59.7133 11.1809 59.5288C11.1162 59.3427 11.0175 59.1946 10.8847 59.0846C10.752 58.9745 10.587 58.9195 10.3895 58.9195C10.1872 58.9195 10.0189 58.9745 9.88461 59.0846C9.75191 59.1946 9.65238 59.3427 9.58603 59.5288C9.5213 59.7133 9.48893 59.9196 9.48893 60.1478C9.48893 60.3744 9.5213 60.5799 9.58603 60.7644C9.65238 60.9489 9.75191 61.0962 9.88461 61.2062C10.0189 61.3146 10.1872 61.3688 10.3895 61.3688ZM12.7873 62V58.2713H13.6394V58.8928H13.6782C13.7462 58.6775 13.8627 58.5117 14.0278 58.3951C14.1944 58.277 14.3846 58.2179 14.5982 58.2179C14.6468 58.2179 14.701 58.2204 14.7609 58.2252C14.8224 58.2285 14.8733 58.2341 14.9138 58.2422V59.0506C14.8766 59.0376 14.8175 59.0263 14.7366 59.0166C14.6573 59.0053 14.5804 58.9996 14.506 58.9996C14.3458 58.9996 14.2017 59.0344 14.0739 59.104C13.9476 59.172 13.8481 59.2666 13.7753 59.388C13.7025 59.5094 13.6661 59.6494 13.6661 59.808V62H12.7873ZM30.8164 62V58.2713H31.6951V62H30.8164ZM31.2582 57.7421C31.119 57.7421 30.9992 57.696 30.8989 57.6038C30.7986 57.5099 30.7484 57.3974 30.7484 57.2664C30.7484 57.1337 30.7986 57.0212 30.8989 56.9289C30.9992 56.8351 31.119 56.7881 31.2582 56.7881C31.399 56.7881 31.5187 56.8351 31.6174 56.9289C31.7178 57.0212 31.7679 57.1337 31.7679 57.2664C31.7679 57.3974 31.7178 57.5099 31.6174 57.6038C31.5187 57.696 31.399 57.7421 31.2582 57.7421ZM33.3476 59.8152V62H32.4689V58.2713H33.3088V58.9049H33.3525C33.4383 58.6962 33.575 58.5303 33.7627 58.4073C33.9521 58.2843 34.1859 58.2228 34.4643 58.2228C34.7216 58.2228 34.9457 58.2778 35.1367 58.3879C35.3293 58.4979 35.4782 58.6573 35.5834 58.8661C35.6902 59.0749 35.7428 59.3281 35.7412 59.6259V62H34.8624V59.7618C34.8624 59.5126 34.7977 59.3176 34.6682 59.1768C34.5404 59.036 34.3631 58.9656 34.1366 58.9656C33.9828 58.9656 33.8461 58.9996 33.7263 59.0676C33.6082 59.1339 33.5151 59.2302 33.4472 59.3564C33.3808 59.4827 33.3476 59.6356 33.3476 59.8152ZM68.7205 58.9854H70.9969V59.71H68.7205V58.9854ZM65.6649 61.1387H71.3933V61.8838H65.6649V61.1387ZM68.0574 59.9766H68.9598V61.4736H68.0574V59.9766ZM68.7205 56.7911H70.9627V57.5225H69.6297V59.3545H68.7205V56.7911ZM66.0955 56.7979H68.3309V57.5225H67.0047V59.293H66.0955V56.7979ZM66.0955 58.9649H66.4989C67.2303 58.9649 67.7567 58.9444 68.3719 58.8213L68.4334 59.5664C67.8045 59.6895 67.2576 59.71 66.4989 59.71H66.0955V58.9649ZM72.5276 57.9873H76.9162V58.7051H72.5276V57.9873ZM71.8166 59.3614H77.5519V60.086H71.8166V59.3614ZM72.5276 56.504H73.4299V58.3428H72.5276V56.504ZM72.466 61.7471H76.9504V62.4717H72.466V61.7471ZM72.466 60.5918H73.3752V61.9385H72.466V60.5918ZM92.5775 62.0534C92.4303 62.0534 92.304 62.0016 92.1988 61.898C92.0936 61.7945 92.0419 61.6682 92.0435 61.5194C92.0419 61.3737 92.0936 61.2491 92.1988 61.1455C92.304 61.0419 92.4303 60.9902 92.5775 60.9902C92.7199 60.9902 92.8437 61.0419 92.9489 61.1455C93.0557 61.2491 93.11 61.3737 93.1116 61.5194C93.11 61.6181 93.0841 61.7079 93.0339 61.7888C92.9854 61.8697 92.9206 61.9345 92.8397 61.983C92.7604 62.0299 92.673 62.0534 92.5775 62.0534ZM92.5775 59.3929C92.4303 59.3929 92.304 59.3411 92.1988 59.2375C92.0936 59.1323 92.0419 59.0061 92.0435 58.8588C92.0419 58.7132 92.0936 58.5885 92.1988 58.485C92.304 58.3798 92.4303 58.3272 92.5775 58.3272C92.7199 58.3272 92.8437 58.3798 92.9489 58.485C93.0557 58.5885 93.11 58.7132 93.1116 58.8588C93.11 58.9559 93.0841 59.0449 93.0339 59.1258C92.9854 59.2067 92.9206 59.2715 92.8397 59.32C92.7604 59.3686 92.673 59.3929 92.5775 59.3929ZM16.6105 66.2852H17.5197V70.9404H16.6105V66.2852ZM17.26 68.0625H18.3605V68.8077H17.26V68.0625ZM13.4387 71.7744H17.7453V72.499H13.4387V71.7744ZM13.4387 70.4688H14.3479V71.9316H13.4387V70.4688ZM12.7209 66.7295H13.6233V67.6387H14.8606V66.7295H15.7629V69.9424H12.7209V66.7295ZM13.6233 68.3291V69.2315H14.8606V68.3291H13.6233ZM18.695 69.4024H24.4166V70.1338H18.695V69.4024ZM21.0943 68.5957H22.0035V69.5596H21.0943V68.5957ZM19.3307 70.5645H23.7262V72.6084H22.817V71.2822H19.3307V70.5645ZM19.4264 66.4356H20.3219V66.9961H22.7896V66.4356H23.692V68.8828H19.4264V66.4356ZM20.3219 67.6729V68.1719H22.7896V67.6729H20.3219ZM27.2393 66.4629H28.039V66.7569C28.039 67.9737 27.082 69.0059 25.4209 69.252L25.0654 68.5205C26.5215 68.3291 27.2393 67.502 27.2393 66.7569V66.4629ZM27.4101 66.4629H28.2031V66.7569C28.2031 67.4952 28.9277 68.3291 30.3769 68.5205L30.0283 69.252C28.3672 69.0059 27.4101 67.9737 27.4101 66.7569V66.4629ZM27.2461 70.291H28.1484V72.6084H27.2461V70.291ZM24.8604 69.7168H30.582V70.4551H24.8604V69.7168ZM35.5443 66.2784H36.4056V70.2432H35.5443V66.2784ZM34.7718 67.837H35.7836V68.5752H34.7718V67.837ZM34.2318 66.4014H35.0795V70.0381H34.2318V66.4014ZM30.9848 66.9278H34.0541V67.625H30.9848V66.9278ZM32.5297 67.8301C33.3226 67.8301 33.8969 68.2813 33.8969 68.9375C33.8969 69.5938 33.3226 70.0381 32.5297 70.0381C31.7367 70.0381 31.1625 69.5938 31.1625 68.9375C31.1625 68.2813 31.7367 67.8301 32.5297 67.8301ZM32.5297 68.4795C32.1947 68.4795 31.9691 68.6436 31.9691 68.9375C31.9691 69.2315 32.1947 69.3955 32.5297 69.3955C32.8578 69.3955 33.0834 69.2315 33.0834 68.9375C33.0834 68.6436 32.8578 68.4795 32.5297 68.4795ZM32.0717 66.3399H32.9672V67.4063H32.0717V66.3399ZM34.266 70.3115C35.6195 70.3115 36.4398 70.7217 36.4398 71.46C36.4398 72.1914 35.6195 72.6084 34.266 72.6084C32.9057 72.6084 32.0853 72.1914 32.0853 71.46C32.0853 70.7217 32.9057 70.3115 34.266 70.3115ZM34.266 70.9883C33.4183 70.9883 32.9945 71.1318 32.9945 71.46C32.9945 71.7813 33.4183 71.9316 34.266 71.9316C35.1068 71.9316 35.5306 71.7813 35.5306 71.46C35.5306 71.1318 35.1068 70.9883 34.266 70.9883ZM37.1707 69.4024H42.8992V70.127H37.1707V69.4024ZM39.6521 69.8604H40.5681V71.1934H39.6521V69.8604ZM37.8748 66.545H42.1746V68.8965H37.8748V66.545ZM41.2791 67.2559H38.7635V68.1856H41.2791V67.2559ZM37.8338 71.7744H42.2703V72.499H37.8338V71.7744ZM37.8338 70.6602H38.7361V72.0137H37.8338V70.6602ZM44.7375 66.9825H45.4826V67.379C45.4826 68.5889 44.9152 69.6758 43.6916 70.0791L43.2404 69.3614C44.2931 69.0127 44.7375 68.1856 44.7375 67.379V66.9825ZM44.922 66.9825H45.6603V67.379C45.6603 68.1172 46.0841 68.8418 47.1027 69.1494L46.672 69.8604C45.4689 69.4981 44.922 68.5069 44.922 67.379V66.9825ZM43.4797 66.7022H46.8976V67.4268H43.4797V66.7022ZM47.4035 66.2784H48.3126V70.0313H47.4035V66.2784ZM48.0597 67.7344H49.1534V68.4795H48.0597V67.7344ZM46.2482 70.1475C47.5607 70.1475 48.3878 70.6055 48.3878 71.3779C48.3878 72.1504 47.5607 72.6084 46.2482 72.6084C44.9289 72.6084 44.1017 72.1504 44.1017 71.3779C44.1017 70.6055 44.9289 70.1475 46.2482 70.1475ZM46.2482 70.8584C45.4416 70.8584 45.0041 71.0225 45.0041 71.3779C45.0041 71.7334 45.4416 71.9111 46.2482 71.9111C47.0548 71.9111 47.4855 71.7334 47.4855 71.3779C47.4855 71.0225 47.0548 70.8584 46.2482 70.8584Z" fill="white"/>
<path d="M19.8589 57.3379H21.4721V58.0557H19.8589V57.3379ZM19.8589 58.6983H21.4995V59.416H19.8589V58.6983ZM21.144 56.2852H22.0532V60.9541H21.144V56.2852ZM17.8628 61.7744H22.1899V62.499H17.8628V61.7744ZM17.8628 60.4961H18.7788V62.1914H17.8628V60.4961ZM17.022 56.6954H17.9243V57.6592H19.1274V56.6954H20.0161V59.9629H17.022V56.6954ZM17.9243 58.3496V59.2451H19.1274V58.3496H17.9243ZM25.2997 56.4629H26.0995V56.7569C26.0995 57.9737 25.1425 59.0059 23.4813 59.252L23.1259 58.5205C24.5819 58.3291 25.2997 57.502 25.2997 56.7569V56.4629ZM25.4706 56.4629H26.2635V56.7569C26.2635 57.4952 26.9881 58.3291 28.4373 58.5205L28.0887 59.252C26.4276 59.0059 25.4706 57.9737 25.4706 56.7569V56.4629ZM25.3065 60.291H26.2089V62.6084H25.3065V60.291ZM22.9208 59.7168H28.6424V60.4551H22.9208V59.7168Z" fill="#0D56E4"/>
<path d="M41.9664 56.2852H42.8756V60.9404H41.9664V56.2852ZM42.6158 58.0625H43.7164V58.8077H42.6158V58.0625ZM38.7946 61.7744H43.1012V62.499H38.7946V61.7744ZM38.7946 60.4688H39.7038V61.9316H38.7946V60.4688ZM38.0768 56.7295H38.9792V57.6387H40.2165V56.7295H41.1188V59.9424H38.0768V56.7295ZM38.9792 58.3291V59.2315H40.2165V58.3291H38.9792ZM44.0508 59.4024H49.7725V60.1338H44.0508V59.4024ZM46.4502 58.5957H47.3594V59.5596H46.4502V58.5957ZM44.6866 60.5645H49.082V62.6084H48.1729V61.2822H44.6866V60.5645ZM44.7823 56.4356H45.6778V56.9961H48.1455V56.4356H49.0479V58.8828H44.7823V56.4356ZM45.6778 57.6729V58.1719H48.1455V57.6729H45.6778ZM52.0418 56.6407H52.9441V57.4747H54.1472V56.6407H55.0359V59.6758H52.0418V56.6407ZM52.9441 58.1788V58.958H54.1472V58.1788H52.9441ZM54.8308 57.7686H56.3689V58.5069H54.8308V57.7686ZM56.1638 56.2784H57.073V59.9424H56.1638V56.2784ZM52.8552 60.2022H57.073V62.54H52.8552V60.2022ZM56.1843 60.9131H53.7507V61.8223H56.1843V60.9131ZM59.9845 56.5313C60.9484 56.5313 61.6456 57.085 61.6456 57.8848C61.6456 58.6709 60.9484 59.2383 59.9845 59.2383C59.0275 59.2383 58.3302 58.6709 58.3302 57.8848C58.3302 57.085 59.0275 56.5313 59.9845 56.5313ZM59.9845 57.2696C59.5265 57.2696 59.1984 57.4883 59.1984 57.8848C59.1984 58.2745 59.5265 58.4932 59.9845 58.4932C60.4493 58.4932 60.7775 58.2745 60.7775 57.8848C60.7775 57.4883 60.4493 57.2696 59.9845 57.2696ZM59.5607 59.8672H60.4698V62.417H59.5607V59.8672ZM62.3292 56.2784H63.2315V62.6084H62.3292V56.2784ZM58.0636 60.3457L57.9542 59.6074C59.0617 59.6074 60.6271 59.5938 61.9669 59.3887L62.0284 60.0518C60.6544 60.3252 59.1574 60.3389 58.0636 60.3457Z" fill="#FAD03B"/>
<path d="M84.1141 56.2784H84.9755V62.6084H84.1141V56.2784ZM83.2665 58.7119H84.3192V59.4434H83.2665V58.7119ZM82.6991 56.3878H83.5399V62.3076H82.6991V56.3878ZM79.7187 60.4346H80.163C80.9423 60.4346 81.5917 60.4072 82.3437 60.2705L82.412 61.0088C81.6464 61.1592 80.9765 61.1797 80.163 61.1797H79.7187V60.4346ZM79.7187 57.0098H82.0566V57.7413H80.621V60.7901H79.7187V57.0098ZM87.0872 56.6202H87.8323V57.1807C87.8323 58.4385 87.2855 59.5459 86.0823 59.9629L85.597 59.2451C86.6566 58.8897 87.0872 58.042 87.0872 57.1807V56.6202ZM87.2718 56.6202H88.0101V57.2696C88.0101 58.0284 88.4339 58.7666 89.4251 59.0742L88.9534 59.7783C87.8118 59.3955 87.2718 58.4112 87.2718 57.2696V56.6202ZM89.7737 56.2784H90.6829V60.0176H89.7737V56.2784ZM90.43 57.7413H91.5237V58.4932H90.43V57.7413ZM88.6185 60.1612C89.9309 60.1612 90.7581 60.6192 90.7581 61.3848C90.7581 62.1572 89.9309 62.6084 88.6185 62.6084C87.2991 62.6084 86.472 62.1572 86.472 61.3848C86.472 60.6192 87.2991 60.1612 88.6185 60.1612ZM88.6185 60.8652C87.8118 60.8652 87.3743 61.0361 87.3743 61.3848C87.3743 61.7402 87.8118 61.9043 88.6185 61.9043C89.4251 61.9043 89.8557 61.7402 89.8557 61.3848C89.8557 61.0361 89.4251 60.8652 88.6185 60.8652Z" fill="#E73D8E"/>
<path d="M16 42L100 42" stroke="white" stroke-linecap="round"/>
</svg>
