<svg width="106" height="77" viewBox="0 0 106 77" fill="none" xmlns="http://www.w3.org/2000/svg">
<path d="M41.7021 31V25.635H42.7115V26.4872H42.7674C42.8652 26.1985 43.0375 25.9715 43.2843 25.8061C43.5335 25.6385 43.8152 25.5546 44.1296 25.5546C44.1948 25.5546 44.2716 25.557 44.3601 25.5616C44.4509 25.5663 44.522 25.5721 44.5732 25.5791V26.5781C44.5313 26.5664 44.4568 26.5536 44.3496 26.5396C44.2425 26.5233 44.1354 26.5152 44.0283 26.5152C43.7815 26.5152 43.5614 26.5676 43.3682 26.6724C43.1772 26.7748 43.0259 26.918 42.9141 27.102C42.8023 27.2836 42.7464 27.4908 42.7464 27.7237V31H41.7021ZM46.8034 31.1188C46.4634 31.1188 46.156 31.0559 45.8812 30.9301C45.6065 30.8021 45.3888 30.617 45.2281 30.3748C45.0697 30.1326 44.9906 29.8357 44.9906 29.4841C44.9906 29.1814 45.0488 28.9322 45.1652 28.7366C45.2816 28.541 45.4388 28.3862 45.6367 28.2721C45.8347 28.158 46.0559 28.0718 46.3004 28.0136C46.5449 27.9554 46.794 27.9112 47.0479 27.8809C47.3692 27.8436 47.63 27.8134 47.8303 27.7901C48.0305 27.7645 48.176 27.7237 48.2669 27.6678C48.3577 27.6119 48.4031 27.5211 48.4031 27.3954V27.3709C48.4031 27.0659 48.3169 26.8295 48.1446 26.6619C47.9746 26.4942 47.7208 26.4104 47.3832 26.4104C47.0316 26.4104 46.7545 26.4884 46.5519 26.6444C46.3516 26.7981 46.2131 26.9693 46.1362 27.1579L45.1547 26.9343C45.2712 26.6083 45.4411 26.3452 45.6647 26.1449C45.8906 25.9424 46.1502 25.7957 46.4436 25.7048C46.737 25.6117 47.0455 25.5651 47.3692 25.5651C47.5834 25.5651 47.8105 25.5907 48.0503 25.642C48.2925 25.6909 48.5183 25.7817 48.7279 25.9144C48.9398 26.0471 49.1133 26.2369 49.2484 26.4837C49.3834 26.7282 49.4509 27.0461 49.4509 27.4373V31H48.431V30.2665H48.3891C48.3216 30.4016 48.2203 30.5343 48.0852 30.6647C47.9502 30.7951 47.7767 30.9034 47.5648 30.9895C47.3529 31.0757 47.0991 31.1188 46.8034 31.1188ZM47.0304 30.2805C47.3191 30.2805 47.566 30.2234 47.7709 30.1093C47.9781 29.9952 48.1353 29.8462 48.2424 29.6622C48.3519 29.476 48.4066 29.2769 48.4066 29.065V28.3734C48.3693 28.4106 48.2971 28.4456 48.19 28.4782C48.0852 28.5084 47.9653 28.5352 47.8303 28.5585C47.6952 28.5795 47.5636 28.5992 47.4356 28.6179C47.3075 28.6342 47.2004 28.6481 47.1142 28.6598C46.9116 28.6854 46.7265 28.7285 46.5589 28.789C46.3935 28.8496 46.2608 28.9369 46.1607 29.051C46.0629 29.1628 46.014 29.3118 46.014 29.4981C46.014 29.7565 46.1094 29.9521 46.3004 30.0849C46.4913 30.2153 46.7347 30.2805 47.0304 30.2805ZM51.6994 27.8145V31H50.6551V25.635H51.6575V26.5082H51.7239C51.8473 26.2241 52.0406 25.9959 52.3037 25.8236C52.5692 25.6513 52.9033 25.5651 53.3062 25.5651C53.6717 25.5651 53.9919 25.642 54.2667 25.7957C54.5415 25.947 54.7545 26.1729 54.9059 26.4733C55.0572 26.7737 55.1329 27.1451 55.1329 27.5875V31H54.0886V27.7132C54.0886 27.3244 53.9873 27.0205 53.7847 26.8016C53.5821 26.5804 53.3038 26.4698 52.9499 26.4698C52.7077 26.4698 52.4923 26.5222 52.3037 26.627C52.1174 26.7317 51.9696 26.8854 51.8601 27.088C51.753 27.2883 51.6994 27.5304 51.6994 27.8145ZM58.5961 33.1237C58.1699 33.1237 57.8032 33.0678 57.4958 32.956C57.1908 32.8442 56.9416 32.6964 56.7483 32.5124C56.5551 32.3284 56.4107 32.127 56.3152 31.9081L57.2129 31.5379C57.2758 31.6404 57.3596 31.7486 57.4644 31.8627C57.5715 31.9792 57.7159 32.0781 57.8975 32.1596C58.0815 32.2411 58.3178 32.2819 58.6065 32.2819C59.0024 32.2819 59.3296 32.1852 59.588 31.992C59.8465 31.801 59.9757 31.496 59.9757 31.0768V30.022H59.9094C59.8465 30.1361 59.7557 30.263 59.6369 30.4027C59.5205 30.5424 59.3598 30.6635 59.1549 30.766C58.95 30.8684 58.6834 30.9197 58.3551 30.9197C57.9313 30.9197 57.5494 30.8207 57.2094 30.6228C56.8718 30.4225 56.604 30.128 56.406 29.7391C56.2104 29.3479 56.1126 28.867 56.1126 28.2965C56.1126 27.726 56.2093 27.237 56.4026 26.8295C56.5982 26.422 56.8659 26.11 57.2059 25.8935C57.5459 25.6746 57.9313 25.5651 58.362 25.5651C58.695 25.5651 58.964 25.621 59.1689 25.7328C59.3738 25.8422 59.5333 25.9703 59.6474 26.117C59.7638 26.2637 59.8535 26.3929 59.9164 26.5047H59.9932V25.635H61.0166V31.1188C61.0166 31.5798 60.9095 31.9582 60.6953 32.2539C60.481 32.5497 60.1911 32.7685 59.8255 32.9106C59.4623 33.0526 59.0525 33.1237 58.5961 33.1237ZM58.5856 30.0534C58.886 30.0534 59.1398 29.9836 59.347 29.8439C59.5566 29.7018 59.7149 29.4992 59.8221 29.2361C59.9315 28.9707 59.9862 28.6528 59.9862 28.2826C59.9862 27.9216 59.9327 27.6038 59.8255 27.329C59.7184 27.0542 59.5613 26.84 59.354 26.6863C59.1468 26.5303 58.8906 26.4523 58.5856 26.4523C58.2712 26.4523 58.0093 26.5338 57.7997 26.6968C57.5901 26.8575 57.4318 27.0764 57.3247 27.3535C57.2199 27.6306 57.1675 27.9403 57.1675 28.2826C57.1675 28.6342 57.221 28.9427 57.3282 29.2082C57.4353 29.4736 57.5936 29.6809 57.8032 29.8299C58.0151 29.9789 58.2759 30.0534 58.5856 30.0534ZM64.5426 31.1083C64.014 31.1083 63.5588 30.9953 63.1769 30.7695C62.7974 30.5413 62.504 30.2211 62.2967 29.8089C62.0918 29.3945 61.9894 28.9089 61.9894 28.3524C61.9894 27.8029 62.0918 27.3185 62.2967 26.8994C62.504 26.4803 62.7927 26.1531 63.163 25.9179C63.5355 25.6827 63.971 25.5651 64.4693 25.5651C64.772 25.5651 65.0654 25.6152 65.3495 25.7153C65.6336 25.8154 65.8885 25.9726 66.1144 26.1869C66.3403 26.4011 66.5184 26.6793 66.6488 27.0216C66.7792 27.3616 66.8444 27.7749 66.8444 28.2616V28.6318H62.5796V27.8494H65.821C65.821 27.5747 65.7651 27.3313 65.6534 27.1194C65.5416 26.9052 65.3844 26.7364 65.1818 26.613C64.9816 26.4896 64.7464 26.4279 64.4763 26.4279C64.1829 26.4279 63.9267 26.5 63.7078 26.6444C63.4913 26.7865 63.3236 26.9727 63.2049 27.2033C63.0884 27.4315 63.0302 27.6795 63.0302 27.9472V28.5585C63.0302 28.9171 63.0931 29.2221 63.2188 29.4736C63.3469 29.7251 63.525 29.9172 63.7532 30.0499C63.9814 30.1803 64.2481 30.2455 64.5531 30.2455C64.751 30.2455 64.9315 30.2176 65.0945 30.1617C65.2575 30.1035 65.3984 30.0173 65.5171 29.9032C65.6359 29.7891 65.7267 29.6483 65.7896 29.4806L66.7781 29.6587C66.6989 29.9498 66.5568 30.2048 66.3519 30.4237C66.1493 30.6402 65.8944 30.8091 65.587 30.9301C65.2819 31.0489 64.9338 31.1083 64.5426 31.1083Z" fill="white"/>
<path d="M0 53C0 50.2386 2.23858 48 5 48H101C103.761 48 106 50.2386 106 53V72C106 74.7614 103.761 77 101 77H5C2.23858 77 0 74.7614 0 72V53Z" fill="#858F9F"/>
<path d="M19.4515 65V61.2713H20.3036V61.8928H20.3424C20.4104 61.6775 20.5269 61.5117 20.692 61.3951C20.8587 61.277 21.0488 61.2179 21.2624 61.2179C21.311 61.2179 21.3652 61.2204 21.4251 61.2252C21.4866 61.2285 21.5376 61.2341 21.578 61.2422V62.0506C21.5408 62.0376 21.4817 62.0263 21.4008 62.0166C21.3215 62.0053 21.2446 61.9996 21.1702 61.9996C21.01 61.9996 20.8659 62.0344 20.7381 62.104C20.6119 62.172 20.5123 62.2666 20.4395 62.388C20.3667 62.5094 20.3303 62.6494 20.3303 62.808V65H19.4515ZM23.0382 65.0753C22.8019 65.0753 22.5891 65.0332 22.3997 64.949C22.212 64.8633 22.0631 64.737 21.9531 64.5703C21.8446 64.4036 21.7904 64.1981 21.7904 63.9537C21.7904 63.7434 21.8293 63.5694 21.9069 63.4318C21.9846 63.2943 22.0906 63.1842 22.2249 63.1017C22.3593 63.0192 22.5106 62.9568 22.6789 62.9148C22.8488 62.8711 23.0244 62.8395 23.2057 62.8201C23.4241 62.7974 23.6013 62.7772 23.7373 62.7594C23.8732 62.74 23.9719 62.7109 24.0334 62.672C24.0965 62.6316 24.1281 62.5693 24.1281 62.4851V62.4705C24.1281 62.2877 24.0739 62.1461 23.9655 62.0457C23.857 61.9454 23.7009 61.8952 23.497 61.8952C23.2817 61.8952 23.111 61.9421 22.9847 62.036C22.8601 62.1299 22.776 62.2407 22.7323 62.3686L21.9118 62.2521C21.9765 62.0255 22.0833 61.8361 22.2322 61.684C22.3811 61.5303 22.5632 61.4154 22.7784 61.3393C22.9936 61.2616 23.2315 61.2228 23.4921 61.2228C23.6717 61.2228 23.8506 61.2438 24.0286 61.2859C24.2066 61.328 24.3692 61.3976 24.5165 61.4947C24.6638 61.5902 24.7819 61.7204 24.8709 61.8855C24.9615 62.0506 25.0069 62.2569 25.0069 62.5045V65H24.1621V64.4878H24.133C24.0796 64.5914 24.0043 64.6885 23.9072 64.7791C23.8117 64.8681 23.6912 64.9401 23.5455 64.9951C23.4015 65.0486 23.2324 65.0753 23.0382 65.0753ZM23.2663 64.4295C23.4427 64.4295 23.5957 64.3947 23.7251 64.3252C23.8546 64.2539 23.9541 64.1601 24.0237 64.0436C24.0949 63.927 24.1305 63.8 24.1305 63.6624V63.2231C24.103 63.2457 24.0561 63.2668 23.9897 63.2862C23.925 63.3056 23.8522 63.3226 23.7713 63.3372C23.6903 63.3517 23.6102 63.3647 23.5309 63.376C23.4516 63.3873 23.3829 63.397 23.3246 63.4051C23.1935 63.4229 23.0762 63.4521 22.9726 63.4925C22.869 63.533 22.7873 63.5896 22.7274 63.6624C22.6676 63.7336 22.6376 63.8259 22.6376 63.9392C22.6376 64.101 22.6967 64.2232 22.8148 64.3057C22.933 64.3883 23.0835 64.4295 23.2663 64.4295ZM26.6394 62.8152V65H25.7606V61.2713H26.6005V61.9049H26.6442C26.73 61.6962 26.8667 61.5303 27.0545 61.4073C27.2438 61.2843 27.4777 61.2228 27.756 61.2228C28.0133 61.2228 28.2375 61.2778 28.4284 61.3879C28.621 61.4979 28.7699 61.6573 28.8751 61.8661C28.9819 62.0749 29.0345 62.3281 29.0329 62.6259V65H28.1541V62.7618C28.1541 62.5126 28.0894 62.3176 27.9599 62.1768C27.8321 62.036 27.6549 61.9656 27.4283 61.9656C27.2746 61.9656 27.1378 61.9996 27.018 62.0676C26.8999 62.1339 26.8069 62.2302 26.7389 62.3564C26.6725 62.4827 26.6394 62.6356 26.6394 62.8152ZM31.4179 66.4759C31.1023 66.4759 30.8312 66.433 30.6047 66.3473C30.3781 66.2631 30.196 66.1498 30.0585 66.0074C29.9209 65.865 29.8254 65.7072 29.772 65.5341L30.5634 65.3423C30.599 65.4151 30.6508 65.4871 30.7188 65.5583C30.7867 65.6312 30.8782 65.691 30.9931 65.738C31.1096 65.7865 31.2561 65.8108 31.4325 65.8108C31.6817 65.8108 31.888 65.7501 32.0515 65.6287C32.2149 65.509 32.2967 65.3115 32.2967 65.0364V64.33H32.253C32.2076 64.4206 32.1413 64.5137 32.0539 64.6092C31.9681 64.7047 31.854 64.7848 31.7116 64.8495C31.5708 64.9142 31.3936 64.9466 31.18 64.9466C30.8936 64.9466 30.6338 64.8794 30.4008 64.7451C30.1693 64.6092 29.9849 64.4069 29.8473 64.1382C29.7114 63.868 29.6434 63.5297 29.6434 63.1235C29.6434 62.7141 29.7114 62.3686 29.8473 62.087C29.9849 61.8038 30.1702 61.5893 30.4032 61.4437C30.6362 61.2964 30.896 61.2228 31.1824 61.2228C31.4009 61.2228 31.5805 61.26 31.7213 61.3345C31.8637 61.4073 31.977 61.4955 32.0612 61.5991C32.1453 61.701 32.2093 61.7973 32.253 61.8879H32.3015V61.2713H33.1681V65.0607C33.1681 65.3795 33.0921 65.6433 32.9399 65.8521C32.7878 66.0608 32.5799 66.217 32.3161 66.3206C32.0523 66.4241 31.7529 66.4759 31.4179 66.4759ZM31.4252 64.2572C31.6113 64.2572 31.7699 64.2119 31.901 64.1212C32.0321 64.0306 32.1316 63.9003 32.1996 63.7304C32.2675 63.5605 32.3015 63.3566 32.3015 63.1187C32.3015 62.884 32.2675 62.6785 32.1996 62.5021C32.1332 62.3257 32.0345 62.1889 31.9034 62.0918C31.7739 61.9931 31.6145 61.9438 31.4252 61.9438C31.2294 61.9438 31.0659 61.9947 30.9348 62.0967C30.8037 62.1987 30.705 62.3386 30.6387 62.5167C30.5723 62.6931 30.5391 62.8937 30.5391 63.1187C30.5391 63.3469 30.5723 63.5467 30.6387 63.7183C30.7066 63.8882 30.8062 64.0209 30.9372 64.1164C31.07 64.2103 31.2326 64.2572 31.4252 64.2572ZM35.5896 65.0728C35.2157 65.0728 34.8929 64.9951 34.621 64.8398C34.3507 64.6828 34.1428 64.4611 33.9971 64.1746C33.8515 63.8866 33.7786 63.5475 33.7786 63.1575C33.7786 62.774 33.8515 62.4374 33.9971 62.1477C34.1444 61.8564 34.3499 61.6298 34.6137 61.468C34.8775 61.3045 35.1874 61.2228 35.5434 61.2228C35.7732 61.2228 35.9901 61.26 36.194 61.3345C36.3995 61.4073 36.5808 61.5206 36.7378 61.6743C36.8964 61.8281 37.021 62.0239 37.1116 62.2618C37.2022 62.498 37.2476 62.7796 37.2476 63.1065V63.376H34.1913V62.7837H36.4052C36.4036 62.6154 36.3672 62.4657 36.296 62.3346C36.2248 62.2019 36.1252 62.0975 35.9974 62.0214C35.8712 61.9454 35.7239 61.9074 35.5556 61.9074C35.3759 61.9074 35.2182 61.951 35.0822 62.0384C34.9463 62.1242 34.8403 62.2375 34.7642 62.3783C34.6898 62.5175 34.6517 62.6704 34.6501 62.8371V63.3541C34.6501 63.571 34.6898 63.7571 34.7691 63.9125C34.8484 64.0662 34.9592 64.1844 35.1016 64.2669C35.244 64.3478 35.4107 64.3883 35.6017 64.3883C35.7295 64.3883 35.8453 64.3705 35.9488 64.3349C36.0524 64.2976 36.1422 64.2434 36.2183 64.1722C36.2943 64.101 36.3518 64.0128 36.3906 63.9076L37.2111 63.9999C37.1594 64.2167 37.0606 64.4061 36.915 64.5679C36.771 64.7281 36.5865 64.8527 36.3615 64.9417C36.1366 65.0291 35.8792 65.0728 35.5896 65.0728ZM38.0796 62.973C38.0796 62.3662 38.1597 61.8086 38.3199 61.3005C38.4817 60.7907 38.7221 60.3198 39.0409 59.8877H39.8686C39.7457 60.0479 39.6307 60.2445 39.5239 60.4775C39.4171 60.709 39.3241 60.9631 39.2448 61.2398C39.1671 61.5149 39.1056 61.8005 39.0603 62.0967C39.0166 62.3929 38.9947 62.685 38.9947 62.973C38.9947 63.3566 39.0328 63.745 39.1088 64.1382C39.1865 64.5315 39.2909 64.8956 39.422 65.2306C39.5547 65.5672 39.7036 65.8423 39.8686 66.056H39.0409C38.7221 65.6239 38.4817 65.1537 38.3199 64.6456C38.1597 64.1358 38.0796 63.5783 38.0796 62.973ZM41.14 61.2713L41.8926 62.6477L42.6572 61.2713H43.587L42.463 63.1357L43.6064 65H42.6815L41.8926 63.6576L41.1109 65H40.1787L41.3148 63.1357L40.2079 61.2713H41.14ZM45.705 62.973C45.705 63.5783 45.624 64.1358 45.4622 64.6456C45.302 65.1537 45.0625 65.6239 44.7437 66.056H43.9159C44.0405 65.8958 44.1554 65.6999 44.2606 65.4685C44.3674 65.2371 44.4597 64.983 44.5373 64.7063C44.6166 64.4295 44.6781 64.1431 44.7218 63.8469C44.7671 63.5508 44.7898 63.2595 44.7898 62.973C44.7898 62.5895 44.751 62.2011 44.6733 61.8078C44.5972 61.4146 44.4928 61.0496 44.3601 60.713C44.229 60.3764 44.081 60.1013 43.9159 59.8877H44.7437C45.0625 60.3198 45.302 60.7907 45.4622 61.3005C45.624 61.8086 45.705 62.3662 45.705 62.973ZM48.496 62.1113V61.3636H51.727V62.1113H48.496ZM48.496 63.6649V62.9172H51.727V63.6649H48.496ZM56.1262 65.0947C55.7265 65.0947 55.3834 64.9935 55.097 64.7912C54.8121 64.5873 54.5928 64.2936 54.4391 63.91C54.287 63.5249 54.2109 63.0612 54.2109 62.5191C54.2125 61.9769 54.2894 61.5157 54.4415 61.1354C54.5953 60.7535 54.8146 60.4622 55.0994 60.2615C55.3858 60.0608 55.7281 59.9605 56.1262 59.9605C56.5243 59.9605 56.8666 60.0608 57.1531 60.2615C57.4395 60.4622 57.6588 60.7535 57.8109 61.1354C57.9647 61.5173 58.0415 61.9786 58.0415 62.5191C58.0415 63.0628 57.9647 63.5273 57.8109 63.9125C57.6588 64.296 57.4395 64.5889 57.1531 64.7912C56.8682 64.9935 56.526 65.0947 56.1262 65.0947ZM56.1262 64.3349C56.4369 64.3349 56.6821 64.1819 56.8618 63.8761C57.043 63.5686 57.1336 63.1163 57.1336 62.5191C57.1336 62.1242 57.0924 61.7925 57.0098 61.5238C56.9273 61.2552 56.8108 61.0529 56.6603 60.9169C56.5098 60.7794 56.3318 60.7106 56.1262 60.7106C55.8171 60.7106 55.5728 60.8643 55.3931 61.1718C55.2135 61.4777 55.1229 61.9268 55.1212 62.5191C55.1196 62.9156 55.1593 63.249 55.2402 63.5192C55.3227 63.7895 55.4392 63.9934 55.5897 64.131C55.7403 64.2669 55.9191 64.3349 56.1262 64.3349ZM64.4563 59.2715H65.3723V65.6221H64.4563V59.2715ZM61.9612 59.7159C62.9183 59.7159 63.6224 60.5909 63.6224 61.9717C63.6224 63.3662 62.9183 64.2412 61.9612 64.2412C61.0042 64.2412 60.3001 63.3662 60.3001 61.9717C60.3001 60.5909 61.0042 59.7159 61.9612 59.7159ZM61.9612 60.543C61.4896 60.543 61.1683 61.042 61.1683 61.9717C61.1683 62.9151 61.4896 63.4209 61.9612 63.4209C62.4329 63.4209 62.7474 62.9151 62.7474 61.9717C62.7474 61.042 62.4329 60.543 61.9612 60.543ZM67.6618 59.6202H68.4069V60.1807C68.4069 61.4385 67.8601 62.5459 66.6569 62.9629L66.1716 62.2451C67.2312 61.8897 67.6618 61.042 67.6618 60.1807V59.6202ZM67.8464 59.6202H68.5847V60.2696C68.5847 61.0284 69.0085 61.7666 69.9997 62.0742L69.528 62.7783C68.3864 62.3955 67.8464 61.4112 67.8464 60.2696V59.6202ZM70.3483 59.2784H71.2575V63.0176H70.3483V59.2784ZM71.0046 60.7413H72.0983V61.4932H71.0046V60.7413ZM69.193 63.1612C70.5055 63.1612 71.3327 63.6192 71.3327 64.3848C71.3327 65.1572 70.5055 65.6084 69.193 65.6084C67.8737 65.6084 67.0466 65.1572 67.0466 64.3848C67.0466 63.6192 67.8737 63.1612 69.193 63.1612ZM69.193 63.8652C68.3864 63.8652 67.9489 64.0361 67.9489 64.3848C67.9489 64.7402 68.3864 64.9043 69.193 64.9043C69.9997 64.9043 70.4303 64.7402 70.4303 64.3848C70.4303 64.0361 69.9997 63.8652 69.193 63.8652ZM74.8951 61.2713L75.6476 62.6477L76.4123 61.2713H77.342L76.2181 63.1357L77.3614 65H76.4365L75.6476 63.6576L74.8659 65H73.9338L75.0699 63.1357L73.9629 61.2713H74.8951ZM79.5939 59.8458H82.6359V64.1045H79.5939V59.8458ZM81.7472 60.5567H80.4894V63.3867H81.7472V60.5567ZM83.6203 59.2715H84.5363V65.6221H83.6203V59.2715ZM85.6226 59.7979H88.6372V62.8535H85.6226V59.7979ZM87.7417 60.5157H86.5181V62.1358H87.7417V60.5157ZM89.5122 59.2784H90.4214V63.8926H89.5122V59.2784ZM90.1616 61.1036H91.2622V61.8487H90.1616V61.1036ZM86.3404 64.7744H90.647V65.499H86.3404V64.7744ZM86.3404 63.4414H87.2496V65.1367H86.3404V63.4414Z" fill="white"/>
<path d="M2.91738 12V4.42424H4.64856V5.68687H4.72747C4.86557 5.24955 5.10231 4.91252 5.4377 4.67578C5.77637 4.43575 6.16272 4.31574 6.59675 4.31574C6.69539 4.31574 6.80554 4.32067 6.9272 4.33053C7.05215 4.33711 7.15572 4.34862 7.23793 4.36506V6.00746C7.1623 5.98115 7.04228 5.95814 6.87788 5.93841C6.71676 5.91539 6.56058 5.90388 6.40933 5.90388C6.08381 5.90388 5.79117 5.97458 5.53141 6.11596C5.27494 6.25406 5.07272 6.44642 4.92476 6.69302C4.77679 6.93963 4.70281 7.22405 4.70281 7.54628V12H2.91738ZM10.4685 12.1529C9.98841 12.1529 9.55603 12.0674 9.17132 11.8964C8.7899 11.7222 8.4874 11.4657 8.26381 11.127C8.04351 10.7883 7.93336 10.3708 7.93336 9.87425C7.93336 9.4468 8.01227 9.09333 8.1701 8.81384C8.32793 8.53435 8.5433 8.31076 8.81621 8.14307C9.08912 7.97538 9.39656 7.84879 9.73852 7.7633C10.0838 7.67452 10.4405 7.6104 10.8088 7.57094C11.2527 7.52491 11.6127 7.48381 11.8889 7.44764C12.1651 7.40818 12.3657 7.349 12.4906 7.27008C12.6189 7.18788 12.683 7.06129 12.683 6.89031V6.86072C12.683 6.48916 12.5729 6.20145 12.3525 5.99759C12.1322 5.79373 11.8149 5.6918 11.4006 5.6918C10.9633 5.6918 10.6164 5.78716 10.36 5.97786C10.1068 6.16857 9.9358 6.39381 9.84702 6.65357L8.17996 6.41682C8.31149 5.95649 8.5285 5.57179 8.83101 5.26271C9.13351 4.95034 9.50342 4.71688 9.94074 4.56234C10.3781 4.40451 10.8614 4.3256 11.3908 4.3256C11.7558 4.3256 12.1191 4.36835 12.4808 4.45384C12.8425 4.53933 13.1729 4.68071 13.4721 4.878C13.7714 5.072 14.0114 5.33669 14.1922 5.67207C14.3764 6.00746 14.4684 6.42669 14.4684 6.92977V12H12.7521V10.9593H12.6929C12.5844 11.1698 12.4315 11.367 12.2342 11.5512C12.0402 11.732 11.7952 11.8783 11.4993 11.9901C11.2066 12.0986 10.863 12.1529 10.4685 12.1529ZM10.9321 10.8409C11.2905 10.8409 11.6012 10.7703 11.8643 10.6289C12.1273 10.4842 12.3295 10.2935 12.4709 10.0567C12.6156 9.82 12.6879 9.56188 12.6879 9.28239V8.38968C12.632 8.43571 12.5367 8.47846 12.4019 8.51791C12.2703 8.55737 12.1224 8.5919 11.958 8.62149C11.7936 8.65108 11.6308 8.67739 11.4697 8.7004C11.3086 8.72342 11.1688 8.74315 11.0505 8.75959C10.7841 8.79576 10.5457 8.85494 10.3353 8.93714C10.1249 9.01935 9.95882 9.13443 9.83716 9.28239C9.7155 9.42707 9.65467 9.61449 9.65467 9.84466C9.65467 10.1735 9.77469 10.4217 10.0147 10.5894C10.2547 10.7571 10.5605 10.8409 10.9321 10.8409ZM18.0492 7.56108V12H16.2637V4.42424H17.9702V5.71153H18.059C18.2333 5.28737 18.5111 4.95034 18.8926 4.70044C19.2773 4.45055 19.7524 4.3256 20.3179 4.3256C20.8408 4.3256 21.2962 4.43739 21.6841 4.66098C22.0754 4.88457 22.3779 5.20845 22.5917 5.63262C22.8087 6.05678 22.9155 6.57136 22.9122 7.17637V12H21.1268V7.45257C21.1268 6.94621 20.9953 6.54999 20.7322 6.26393C20.4725 5.97786 20.1124 5.83483 19.6521 5.83483C19.3397 5.83483 19.0619 5.90388 18.8186 6.04198C18.5785 6.17679 18.3895 6.37244 18.2514 6.62891C18.1166 6.88538 18.0492 7.1961 18.0492 7.56108ZM28.0219 14.9987C27.3808 14.9987 26.83 14.9116 26.3697 14.7373C25.9093 14.5664 25.5394 14.3362 25.2599 14.0468C24.9805 13.7575 24.7865 13.4369 24.678 13.0851L26.2858 12.6954C26.3582 12.8434 26.4634 12.9897 26.6015 13.1344C26.7396 13.2824 26.9254 13.404 27.1588 13.4994C27.3956 13.598 27.6931 13.6473 28.0515 13.6473C28.5579 13.6473 28.9771 13.524 29.3092 13.2774C29.6413 13.0341 29.8074 12.633 29.8074 12.074V10.6387H29.7186C29.6265 10.8229 29.4917 11.0119 29.3142 11.2059C29.1399 11.3999 28.9081 11.5627 28.6187 11.6942C28.3327 11.8257 27.9726 11.8915 27.5386 11.8915C26.9566 11.8915 26.4289 11.755 25.9554 11.4821C25.4852 11.2059 25.1103 10.7949 24.8308 10.2491C24.5546 9.69998 24.4165 9.01277 24.4165 8.18746C24.4165 7.35557 24.5546 6.65357 24.8308 6.08144C25.1103 5.50602 25.4868 5.07035 25.9603 4.77442C26.4338 4.47521 26.9615 4.3256 27.5435 4.3256C27.9874 4.3256 28.3524 4.40123 28.6385 4.55248C28.9278 4.70044 29.158 4.87964 29.329 5.09008C29.4999 5.29723 29.6298 5.49287 29.7186 5.677H29.8172V4.42424H31.578V12.1233C31.578 12.7711 31.4235 13.307 31.1144 13.7312C30.8053 14.1553 30.3828 14.4726 29.8468 14.6831C29.3109 14.8935 28.7026 14.9987 28.0219 14.9987ZM28.0367 10.4908C28.4149 10.4908 28.7371 10.3987 29.0034 10.2146C29.2698 10.0304 29.472 9.76574 29.6101 9.42049C29.7482 9.07524 29.8172 8.66095 29.8172 8.1776C29.8172 7.70082 29.7482 7.28324 29.6101 6.92483C29.4753 6.56643 29.2747 6.28859 29.0084 6.0913C28.7453 5.89073 28.4214 5.79044 28.0367 5.79044C27.6389 5.79044 27.3068 5.89402 27.0404 6.10117C26.7741 6.30832 26.5735 6.59274 26.4387 6.95443C26.3039 7.31283 26.2365 7.72055 26.2365 8.1776C26.2365 8.64122 26.3039 9.0473 26.4387 9.39583C26.5768 9.74108 26.779 10.0107 27.0454 10.2047C27.315 10.3954 27.6455 10.4908 28.0367 10.4908ZM36.7617 12.148C36.0021 12.148 35.3462 11.9901 34.7938 11.6745C34.2446 11.3555 33.8221 10.9051 33.5262 10.3231C33.2303 9.73779 33.0823 9.04894 33.0823 8.25651C33.0823 7.47723 33.2303 6.79331 33.5262 6.20474C33.8254 5.61289 34.243 5.15255 34.779 4.82375C35.3149 4.49165 35.9446 4.3256 36.668 4.3256C37.1349 4.3256 37.5755 4.40123 37.9898 4.55248C38.4074 4.70044 38.7756 4.93061 39.0946 5.24298C39.4168 5.55535 39.67 5.9532 39.8541 6.43655C40.0383 6.91661 40.1303 7.48874 40.1303 8.15294V8.7004H33.9208V7.49696H38.4189C38.4156 7.155 38.3416 6.85085 38.1969 6.58452C38.0523 6.31489 37.85 6.10281 37.5903 5.94827C37.3338 5.79373 37.0346 5.71646 36.6926 5.71646C36.3276 5.71646 36.0071 5.80524 35.7309 5.9828C35.4547 6.15707 35.2393 6.38723 35.0848 6.6733C34.9335 6.95607 34.8562 7.2668 34.8529 7.60547V8.65601C34.8529 9.09662 34.9335 9.47475 35.0946 9.7904C35.2557 10.1028 35.481 10.3428 35.7703 10.5105C36.0597 10.6749 36.3983 10.7571 36.7863 10.7571C37.0461 10.7571 37.2812 10.7209 37.4916 10.6486C37.7021 10.573 37.8846 10.4628 38.0391 10.3181C38.1936 10.1735 38.3104 9.99427 38.3893 9.78054L40.0563 9.96796C39.9511 10.4086 39.7506 10.7933 39.4546 11.1221C39.162 11.4476 38.7871 11.7008 38.3301 11.8816C37.8731 12.0592 37.3502 12.148 36.7617 12.148ZM46.1858 12.1085C45.8865 12.1085 45.6301 12.0033 45.4163 11.7929C45.2026 11.5824 45.0974 11.3259 45.1007 11.0234C45.0974 10.7275 45.2026 10.4743 45.4163 10.2639C45.6301 10.0535 45.8865 9.94823 46.1858 9.94823C46.4751 9.94823 46.7266 10.0535 46.9404 10.2639C47.1574 10.4743 47.2675 10.7275 47.2708 11.0234C47.2675 11.224 47.2149 11.4065 47.113 11.5709C47.0144 11.7353 46.8828 11.8668 46.7184 11.9655C46.5573 12.0608 46.3798 12.1085 46.1858 12.1085ZM46.1858 6.70289C45.8865 6.70289 45.6301 6.59767 45.4163 6.38723C45.2026 6.17351 45.0974 5.91703 45.1007 5.61782C45.0974 5.32189 45.2026 5.06871 45.4163 4.85827C45.6301 4.64454 45.8865 4.53768 46.1858 4.53768C46.4751 4.53768 46.7266 4.64454 46.9404 4.85827C47.1574 5.06871 47.2675 5.32189 47.2708 5.61782C47.2675 5.8151 47.2149 5.99595 47.113 6.16035C47.0144 6.32476 46.8828 6.45628 46.7184 6.55492C46.5573 6.65357 46.3798 6.70289 46.1858 6.70289ZM60.4753 0.388889H62.3225V9.84722H60.4753V0.388889ZM61.7947 4H64.0308V5.51389H61.7947V4ZM54.0308 11.5417H62.7808V13.0139H54.0308V11.5417ZM54.0308 8.88889H55.878V11.8611H54.0308V8.88889ZM52.5725 1.29167H54.4058V3.13889H56.9197V1.29167H58.753V7.81944H52.5725V1.29167ZM54.4058 4.54167V6.375H56.9197V4.54167H54.4058ZM64.9742 6.72222H76.5992V8.20833H64.9742V6.72222ZM69.8492 5.08333H71.6964V7.04167H69.8492V5.08333ZM66.2658 9.08333H75.1964V13.2361H73.3492V10.5417H66.2658V9.08333ZM66.4603 0.694445H68.2797V1.83333H73.2936V0.694445H75.127V5.66667H66.4603V0.694445ZM68.2797 3.20833V4.22222H73.2936V3.20833H68.2797ZM81.7376 1.11111H83.571V2.80556H86.0154V1.11111H87.821V7.27778H81.7376V1.11111ZM83.571 4.23611V5.81944H86.0154V4.23611H83.571ZM87.4043 3.40278H90.5293V4.90278H87.4043V3.40278ZM90.1126 0.375H91.9598V7.81944H90.1126V0.375ZM83.3904 8.34722H91.9598V13.0972H83.3904V8.34722ZM90.1543 9.79167H85.2098V11.6389H90.1543V9.79167ZM98.1393 0.888889C100.098 0.888889 101.514 2.01389 101.514 3.63889C101.514 5.23611 100.098 6.38889 98.1393 6.38889C96.1949 6.38889 94.7782 5.23611 94.7782 3.63889C94.7782 2.01389 96.1949 0.888889 98.1393 0.888889ZM98.1393 2.38889C97.2088 2.38889 96.5421 2.83333 96.5421 3.63889C96.5421 4.43056 97.2088 4.875 98.1393 4.875C99.0838 4.875 99.7504 4.43056 99.7504 3.63889C99.7504 2.83333 99.0838 2.38889 98.1393 2.38889ZM97.2782 7.66667H99.1254V12.8472H97.2782V7.66667ZM102.903 0.375H104.737V13.2361H102.903V0.375ZM94.2365 8.63889L94.0143 7.13889C96.2643 7.13889 99.4449 7.11111 102.167 6.69444L102.292 8.04167C99.5004 8.59722 96.4588 8.625 94.2365 8.63889Z" fill="white"/>
<path d="M16 40L100 40" stroke="white" stroke-linecap="round"/>
</svg>
